<svg xmlns="http://www.w3.org/2000/svg" width="800" height="400">
<defs>
<style>
.axis-text { fill: #8b949e; font-family: monospace; font-size: 11px; }
.title { fill: #c9d1d9; font-family: monospace; font-size: 14px; font-weight: bold; }
.legend { fill: #8b949e; font-family: monospace; font-size: 10px; }
.grid { stroke: #21262d; stroke-width: 1; }
</style>
</defs>
<rect width="800" height="400" fill="#0d1117"/>
<text x="400.0" y="25" class="title" text-anchor="middle">Binary Size Trend (.bin)</text>
<line x1="70" y1="40.0" x2="650" y2="40.0" class="grid"/>
<text x="60" y="44.0" class="axis-text" text-anchor="end">138KB</text>
<line x1="70" y1="100.0" x2="650" y2="100.0" class="grid"/>
<text x="60" y="104.0" class="axis-text" text-anchor="end">127KB</text>
<line x1="70" y1="160.0" x2="650" y2="160.0" class="grid"/>
<text x="60" y="164.0" class="axis-text" text-anchor="end">115KB</text>
<line x1="70" y1="220.0" x2="650" y2="220.0" class="grid"/>
<text x="60" y="224.0" class="axis-text" text-anchor="end">104KB</text>
<line x1="70" y1="280.0" x2="650" y2="280.0" class="grid"/>
<text x="60" y="284.0" class="axis-text" text-anchor="end">92KB</text>
<line x1="70" y1="340.0" x2="650" y2="340.0" class="grid"/>
<text x="60" y="344.0" class="axis-text" text-anchor="end">81KB</text>
<text x="70.0" y="360" class="axis-text" text-anchor="middle">02-05</text>
<text x="159.23076923076923" y="360" class="axis-text" text-anchor="middle">02-05</text>
<text x="248.46153846153848" y="360" class="axis-text" text-anchor="middle">02-05</text>
<text x="337.6923076923077" y="360" class="axis-text" text-anchor="middle">02-09</text>
<text x="426.92307692307696" y="360" class="axis-text" text-anchor="middle">02-11</text>
<text x="516.1538461538462" y="360" class="axis-text" text-anchor="middle">02-24</text>
<text x="605.3846153846154" y="360" class="axis-text" text-anchor="middle">02-24</text>
<path d="M 70.0 156.4 L 84.9 157.0 L 99.7 158.2 L 114.6 156.3 L 129.5 156.4 L 144.4 157.1 L 159.2 158.2 L 174.1 157.1 L 189.0 140.0 L 203.8 156.3 L 218.7 157.1 L 233.6 144.9 L 248.5 156.4 L 263.3 156.0 L 278.2 150.7 L 293.1 150.7 L 307.9 150.7 L 322.8 150.7 L 337.7 150.7 L 352.6 151.0 L 367.4 151.0 L 382.3 221.7 L 397.2 221.7 L 412.1 220.8 L 426.9 220.8 L 441.8 220.8 L 456.7 207.0 L 471.5 202.6 L 486.4 202.6 L 501.3 203.2 L 516.2 204.0 L 531.0 202.3 L 545.9 202.3 L 560.8 202.3 L 575.6 202.3 L 590.5 202.6 L 605.4 202.6 L 620.3 202.3 L 635.1 200.6 L 650.0 202.6" fill="none" stroke="#58a6ff" stroke-width="2" opacity="0.8"/>
<circle cx="70.0" cy="156.4" r="3" fill="#58a6ff"/>
<circle cx="189.0" cy="140.0" r="3" fill="#58a6ff"/>
<circle cx="307.9" cy="150.7" r="3" fill="#58a6ff"/>
<circle cx="426.9" cy="220.8" r="3" fill="#58a6ff"/>
<circle cx="545.9" cy="202.3" r="3" fill="#58a6ff"/>
<circle cx="650.0" cy="202.6" r="4" fill="#58a6ff"/>
<path d="M 70.0 156.4 L 84.9 157.4 L 99.7 158.6 L 114.6 156.4 L 129.5 156.4 L 144.4 157.5 L 159.2 158.6 L 174.1 157.5 L 189.0 140.2 L 203.8 156.4 L 218.7 157.5 L 233.6 144.0 L 248.5 156.4 L 263.3 157.2 L 278.2 150.7 L 293.1 150.7 L 307.9 150.7 L 322.8 150.7 L 337.7 150.7 L 352.6 151.0 L 367.4 151.0 L 382.3 257.4 L 397.2 257.4 L 412.1 256.2 L 426.9 256.2 L 441.8 256.2 L 456.7 258.3 L 471.5 255.4 L 486.4 255.4 L 501.3 255.9 L 516.2 257.6 L 531.0 255.4 L 545.9 255.4 L 560.8 255.4 L 575.6 255.4 L 590.5 255.4 L 605.4 255.8 L 620.3 255.4 L 635.1 253.6 L 650.0 255.4" fill="none" stroke="#1f6feb" stroke-width="2" opacity="0.8"/>
<circle cx="70.0" cy="156.4" r="3" fill="#1f6feb"/>
<circle cx="189.0" cy="140.2" r="3" fill="#1f6feb"/>
<circle cx="307.9" cy="150.7" r="3" fill="#1f6feb"/>
<circle cx="426.9" cy="256.2" r="3" fill="#1f6feb"/>
<circle cx="545.9" cy="255.4" r="3" fill="#1f6feb"/>
<circle cx="650.0" cy="255.4" r="4" fill="#1f6feb"/>
<path d="M 70.0 172.1 L 84.9 172.7 L 99.7 174.2 L 114.6 172.1 L 129.5 172.1 L 144.4 172.9 L 159.2 174.2 L 174.1 172.9 L 189.0 154.7 L 203.8 172.1 L 218.7 172.9 L 233.6 158.4 L 248.5 172.1 L 263.3 172.3 L 278.2 166.9 L 293.1 166.9 L 307.9 166.9 L 322.8 166.9 L 337.7 166.9 L 352.6 167.1 L 367.4 167.1 L 382.3 254.5 L 397.2 254.5 L 412.1 253.7 L 426.9 253.7 L 441.8 253.7 L 456.7 243.7 L 471.5 242.4 L 486.4 242.4 L 501.3 242.6 L 516.2 245.2 L 531.0 242.4 L 545.9 242.4 L 560.8 242.4 L 575.6 242.4 L 590.5 242.4 L 605.4 242.7 L 620.3 242.4 L 635.1 241.9 L 650.0 242.4" fill="none" stroke="#388bfd" stroke-width="2" opacity="0.8"/>
<circle cx="70.0" cy="172.1" r="3" fill="#388bfd"/>
<circle cx="189.0" cy="154.7" r="3" fill="#388bfd"/>
<circle cx="307.9" cy="166.9" r="3" fill="#388bfd"/>
<circle cx="426.9" cy="253.7" r="3" fill="#388bfd"/>
<circle cx="545.9" cy="242.4" r="3" fill="#388bfd"/>
<circle cx="650.0" cy="242.4" r="4" fill="#388bfd"/>
<path d="M 70.0 139.1 L 84.9 140.5 L 99.7 141.2 L 114.6 139.1 L 129.5 139.1 L 144.4 140.7 L 159.2 141.2 L 174.1 140.7 L 189.0 124.1 L 203.8 139.1 L 218.7 140.7 L 233.6 127.5 L 248.5 139.1 L 263.3 139.0 L 278.2 133.5 L 293.1 133.5 L 307.9 133.5 L 322.8 133.5 L 337.7 133.5 L 352.6 133.5 L 367.4 133.5 L 382.3 227.2 L 397.2 227.2 L 412.1 225.9 L 426.9 225.9 L 441.8 225.9 L 456.7 230.5 L 471.5 230.5 L 486.4 230.5 L 501.3 230.5 L 516.2 232.5 L 531.0 230.3 L 545.9 230.3 L 560.8 230.3 L 575.6 230.3 L 590.5 230.5 L 605.4 230.6 L 620.3 230.3 L 635.1 228.8 L 650.0 230.5" fill="none" stroke="#3fb950" stroke-width="2" opacity="0.8"/>
<circle cx="70.0" cy="139.1" r="3" fill="#3fb950"/>
<circle cx="189.0" cy="124.1" r="3" fill="#3fb950"/>
<circle cx="307.9" cy="133.5" r="3" fill="#3fb950"/>
<circle cx="426.9" cy="225.9" r="3" fill="#3fb950"/>
<circle cx="545.9" cy="230.3" r="3" fill="#3fb950"/>
<circle cx="650.0" cy="230.5" r="4" fill="#3fb950"/>
<path d="M 70.0 217.2 L 84.9 218.7 L 99.7 218.6 L 114.6 217.2 L 129.5 217.2 L 144.4 218.8 L 159.2 218.6 L 174.1 218.8 L 189.0 201.0 L 203.8 217.2 L 218.7 218.8 L 233.6 205.2 L 248.5 217.2 L 263.3 216.9 L 278.2 212.8 L 293.1 212.8 L 307.9 212.8 L 322.8 212.8 L 337.7 212.8 L 352.6 212.8 L 367.4 212.8 L 382.3 284.0 L 397.2 284.0 L 412.1 282.4 L 426.9 282.4 L 441.8 282.4 L 456.7 283.7 L 471.5 283.7 L 486.4 283.7 L 501.3 283.7 L 516.2 285.5 L 531.0 283.7 L 545.9 283.7 L 560.8 283.7 L 575.6 283.7 L 590.5 283.7 L 605.4 284.0 L 620.3 283.7 L 635.1 282.0 L 650.0 283.7" fill="none" stroke="#238636" stroke-width="2" opacity="0.8"/>
<circle cx="70.0" cy="217.2" r="3" fill="#238636"/>
<circle cx="189.0" cy="201.0" r="3" fill="#238636"/>
<circle cx="307.9" cy="212.8" r="3" fill="#238636"/>
<circle cx="426.9" cy="282.4" r="3" fill="#238636"/>
<circle cx="545.9" cy="283.7" r="3" fill="#238636"/>
<circle cx="650.0" cy="283.7" r="4" fill="#238636"/>
<path d="M 70.0 121.0 L 84.9 122.6 L 99.7 123.0 L 114.6 121.0 L 129.5 121.0 L 144.4 122.7 L 159.2 123.0 L 174.1 122.7 L 189.0 105.6 L 203.8 121.0 L 218.7 122.7 L 233.6 110.9 L 248.5 121.0 L 263.3 121.1 L 278.2 115.3 L 293.1 115.3 L 307.9 115.3 L 322.8 115.3 L 337.7 115.3 L 352.6 115.3 L 367.4 115.3 L 382.3 197.4 L 397.2 197.4 L 412.1 196.4 L 426.9 196.4 L 441.8 196.4 L 456.7 184.8 L 471.5 184.8 L 486.4 184.8 L 501.3 184.8 L 516.2 187.3 L 531.0 184.8 L 545.9 184.8 L 560.8 184.8 L 575.6 184.8 L 590.5 184.8 L 605.4 185.1 L 620.3 184.8 L 635.1 184.2 L 650.0 184.8" fill="none" stroke="#2ea043" stroke-width="2" opacity="0.8"/>
<circle cx="70.0" cy="121.0" r="3" fill="#2ea043"/>
<circle cx="189.0" cy="105.6" r="3" fill="#2ea043"/>
<circle cx="307.9" cy="115.3" r="3" fill="#2ea043"/>
<circle cx="426.9" cy="196.4" r="3" fill="#2ea043"/>
<circle cx="545.9" cy="184.8" r="3" fill="#2ea043"/>
<circle cx="650.0" cy="184.8" r="4" fill="#2ea043"/>
<path d="M 70.0 211.5 L 84.9 213.3 L 99.7 213.7 L 114.6 211.5 L 129.5 211.5 L 144.4 213.5 L 159.2 213.7 L 174.1 213.5 L 189.0 196.5 L 203.8 211.5 L 218.7 213.5 L 233.6 200.0 L 248.5 211.5 L 263.3 211.8 L 278.2 206.4 L 293.1 206.4 L 307.9 206.4 L 322.8 206.4 L 337.7 206.4 L 352.6 206.4 L 367.4 206.4 L 382.3 293.1 L 397.2 293.1 L 412.1 292.4 L 426.9 292.4 L 441.8 292.4 L 456.7 284.1 L 471.5 284.1 L 486.4 284.1 L 501.3 284.1 L 516.2 287.2 L 531.0 284.1 L 545.9 284.1 L 560.8 284.1 L 575.6 284.1 L 590.5 284.1 L 605.4 284.4 L 620.3 284.1 L 635.1 284.8 L 650.0 284.1" fill="none" stroke="#56d364" stroke-width="2" opacity="0.8"/>
<circle cx="70.0" cy="211.5" r="3" fill="#56d364"/>
<circle cx="189.0" cy="196.5" r="3" fill="#56d364"/>
<circle cx="307.9" cy="206.4" r="3" fill="#56d364"/>
<circle cx="426.9" cy="292.4" r="3" fill="#56d364"/>
<circle cx="545.9" cy="284.1" r="3" fill="#56d364"/>
<circle cx="650.0" cy="284.1" r="4" fill="#56d364"/>
<path d="M 70.0 154.0 L 84.9 155.1 L 99.7 156.2 L 114.6 153.9 L 129.5 154.0 L 144.4 155.1 L 159.2 156.2 L 174.1 155.1 L 189.0 138.2 L 203.8 153.9 L 218.7 155.1 L 233.6 142.0 L 248.5 154.0 L 263.3 154.8 L 278.2 148.7 L 293.1 148.7 L 307.9 148.7 L 322.8 148.7 L 337.7 148.7 L 352.6 148.7 L 367.4 148.7 L 382.3 254.5 L 397.2 254.5 L 412.1 253.3 L 426.9 253.3 L 441.8 253.3 L 456.7 258.5 L 471.5 258.5 L 486.4 258.5 L 501.3 258.5 L 516.2 260.6 L 531.0 258.5 L 545.9 258.5 L 560.8 258.5 L 575.6 258.5 L 590.5 258.5 L 605.4 258.8 L 620.3 258.5 L 635.1 257.3 L 650.0 258.5" fill="none" stroke="#f78166" stroke-width="2" opacity="0.8"/>
<circle cx="70.0" cy="154.0" r="3" fill="#f78166"/>
<circle cx="189.0" cy="138.2" r="3" fill="#f78166"/>
<circle cx="307.9" cy="148.7" r="3" fill="#f78166"/>
<circle cx="426.9" cy="253.3" r="3" fill="#f78166"/>
<circle cx="545.9" cy="258.5" r="3" fill="#f78166"/>
<circle cx="650.0" cy="258.5" r="4" fill="#f78166"/>
<path d="M 70.0 167.1 L 84.9 167.9 L 99.7 169.2 L 114.6 167.1 L 129.5 167.1 L 144.4 167.9 L 159.2 169.2 L 174.1 167.9 L 189.0 149.6 L 203.8 167.1 L 218.7 167.9 L 233.6 153.3 L 248.5 167.1 L 263.3 167.3 L 278.2 162.0 L 293.1 162.0 L 307.9 162.0 L 322.8 162.0 L 337.7 162.0 L 352.6 162.0 L 367.4 162.0 L 382.3 248.7 L 397.2 248.7 L 412.1 247.8 L 426.9 247.8 L 441.8 247.8 L 456.7 240.8 L 471.5 240.8 L 486.4 240.8 L 501.3 240.8 L 516.2 243.6 L 531.0 240.8 L 545.9 240.8 L 560.8 240.8 L 575.6 240.8 L 590.5 240.8 L 605.4 241.1 L 620.3 240.8 L 635.1 240.6 L 650.0 240.8" fill="none" stroke="#ffa657" stroke-width="2" opacity="0.8"/>
<circle cx="70.0" cy="167.1" r="3" fill="#ffa657"/>
<circle cx="189.0" cy="149.6" r="3" fill="#ffa657"/>
<circle cx="307.9" cy="162.0" r="3" fill="#ffa657"/>
<circle cx="426.9" cy="247.8" r="3" fill="#ffa657"/>
<circle cx="545.9" cy="240.8" r="3" fill="#ffa657"/>
<circle cx="650.0" cy="240.8" r="4" fill="#ffa657"/>
<text x="70.0" y="113.0" fill="#2ea043" font-family="monospace" font-size="8px" text-anchor="middle">122.6KB</text>
<text x="70.0" y="131.1" fill="#3fb950" font-family="monospace" font-size="8px" text-anchor="middle">119.1KB</text>
<text x="70.0" y="149.1" fill="#f78166" font-family="monospace" font-size="8px" text-anchor="middle">116.3KB</text>
<text x="70.0" y="167.1" fill="#1f6feb" font-family="monospace" font-size="8px" text-anchor="middle">115.8KB</text>
<text x="70.0" y="185.1" fill="#58a6ff" font-family="monospace" font-size="8px" text-anchor="middle">115.8KB</text>
<text x="70.0" y="203.1" fill="#ffa657" font-family="monospace" font-size="8px" text-anchor="middle">113.7KB</text>
<text x="70.0" y="221.1" fill="#388bfd" font-family="monospace" font-size="8px" text-anchor="middle">112.8KB</text>
<text x="70.0" y="239.1" fill="#56d364" font-family="monospace" font-size="8px" text-anchor="middle">105.2KB</text>
<text x="70.0" y="257.1" fill="#238636" font-family="monospace" font-size="8px" text-anchor="middle">104.2KB</text>
<text x="189.0" y="97.6" fill="#2ea043" font-family="monospace" font-size="8px" text-anchor="middle">125.5KB</text>
<text x="189.0" y="116.1" fill="#3fb950" font-family="monospace" font-size="8px" text-anchor="middle">122.0KB</text>
<text x="189.0" y="134.1" fill="#f78166" font-family="monospace" font-size="8px" text-anchor="middle">119.3KB</text>
<text x="189.0" y="152.1" fill="#58a6ff" font-family="monospace" font-size="8px" text-anchor="middle">118.9KB</text>
<text x="189.0" y="170.1" fill="#1f6feb" font-family="monospace" font-size="8px" text-anchor="middle">118.9KB</text>
<text x="189.0" y="188.1" fill="#ffa657" font-family="monospace" font-size="8px" text-anchor="middle">117.1KB</text>
<text x="189.0" y="206.1" fill="#388bfd" font-family="monospace" font-size="8px" text-anchor="middle">116.1KB</text>
<text x="189.0" y="224.1" fill="#56d364" font-family="monospace" font-size="8px" text-anchor="middle">108.1KB</text>
<text x="189.0" y="242.1" fill="#238636" font-family="monospace" font-size="8px" text-anchor="middle">107.3KB</text>
<text x="307.9" y="107.3" fill="#2ea043" font-family="monospace" font-size="8px" text-anchor="middle">123.7KB</text>
<text x="307.9" y="125.5" fill="#3fb950" font-family="monospace" font-size="8px" text-anchor="middle">120.2KB</text>
<text x="307.9" y="143.5" fill="#f78166" font-family="monospace" font-size="8px" text-anchor="middle">117.3KB</text>
<text x="307.9" y="161.5" fill="#1f6feb" font-family="monospace" font-size="8px" text-anchor="middle">116.9KB</text>
<text x="307.9" y="179.5" fill="#58a6ff" font-family="monospace" font-size="8px" text-anchor="middle">116.9KB</text>
<text x="307.9" y="197.5" fill="#ffa657" font-family="monospace" font-size="8px" text-anchor="middle">114.7KB</text>
<text x="307.9" y="215.5" fill="#388bfd" font-family="monospace" font-size="8px" text-anchor="middle">113.8KB</text>
<text x="307.9" y="233.5" fill="#56d364" font-family="monospace" font-size="8px" text-anchor="middle">106.2KB</text>
<text x="307.9" y="251.5" fill="#238636" font-family="monospace" font-size="8px" text-anchor="middle">105.0KB</text>
<text x="426.9" y="188.4" fill="#2ea043" font-family="monospace" font-size="8px" text-anchor="middle">108.1KB</text>
<text x="426.9" y="212.8" fill="#58a6ff" font-family="monospace" font-size="8px" text-anchor="middle">103.5KB</text>
<text x="426.9" y="230.8" fill="#3fb950" font-family="monospace" font-size="8px" text-anchor="middle">102.5KB</text>
<text x="426.9" y="248.8" fill="#ffa657" font-family="monospace" font-size="8px" text-anchor="middle">98.3KB</text>
<text x="426.9" y="266.8" fill="#f78166" font-family="monospace" font-size="8px" text-anchor="middle">97.3KB</text>
<text x="426.9" y="284.8" fill="#388bfd" font-family="monospace" font-size="8px" text-anchor="middle">97.2KB</text>
<text x="426.9" y="302.8" fill="#1f6feb" font-family="monospace" font-size="8px" text-anchor="middle">96.7KB</text>
<text x="426.9" y="320.8" fill="#238636" font-family="monospace" font-size="8px" text-anchor="middle">91.7KB</text>
<text x="426.9" y="338.8" fill="#56d364" font-family="monospace" font-size="8px" text-anchor="middle">89.8KB</text>
<text x="545.9" y="176.8" fill="#2ea043" font-family="monospace" font-size="8px" text-anchor="middle">110.4KB</text>
<text x="545.9" y="194.8" fill="#58a6ff" font-family="monospace" font-size="8px" text-anchor="middle">107.0KB</text>
<text x="545.9" y="222.3" fill="#3fb950" font-family="monospace" font-size="8px" text-anchor="middle">101.7KB</text>
<text x="545.9" y="240.3" fill="#ffa657" font-family="monospace" font-size="8px" text-anchor="middle">99.7KB</text>
<text x="545.9" y="258.3" fill="#388bfd" font-family="monospace" font-size="8px" text-anchor="middle">99.4KB</text>
<text x="545.9" y="276.3" fill="#1f6feb" font-family="monospace" font-size="8px" text-anchor="middle">96.9KB</text>
<text x="545.9" y="294.3" fill="#f78166" font-family="monospace" font-size="8px" text-anchor="middle">96.3KB</text>
<text x="545.9" y="312.3" fill="#238636" font-family="monospace" font-size="8px" text-anchor="middle">91.5KB</text>
<text x="545.9" y="330.3" fill="#56d364" font-family="monospace" font-size="8px" text-anchor="middle">91.4KB</text>
<text x="650.0" y="176.8" fill="#2ea043" font-family="monospace" font-size="8px" text-anchor="middle">110.4KB</text>
<text x="650.0" y="194.8" fill="#58a6ff" font-family="monospace" font-size="8px" text-anchor="middle">107.0KB</text>
<text x="650.0" y="222.5" fill="#3fb950" font-family="monospace" font-size="8px" text-anchor="middle">101.6KB</text>
<text x="650.0" y="240.5" fill="#ffa657" font-family="monospace" font-size="8px" text-anchor="middle">99.7KB</text>
<text x="650.0" y="258.5" fill="#388bfd" font-family="monospace" font-size="8px" text-anchor="middle">99.4KB</text>
<text x="650.0" y="276.5" fill="#1f6feb" font-family="monospace" font-size="8px" text-anchor="middle">96.9KB</text>
<text x="650.0" y="294.5" fill="#f78166" font-family="monospace" font-size="8px" text-anchor="middle">96.3KB</text>
<text x="650.0" y="312.5" fill="#238636" font-family="monospace" font-size="8px" text-anchor="middle">91.5KB</text>
<text x="650.0" y="330.5" fill="#56d364" font-family="monospace" font-size="8px" text-anchor="middle">91.4KB</text>
<rect x="665" y="44" width="12" height="12" fill="#58a6ff"/>
<text x="683" y="54" class="legend">Win i386</text>
<rect x="665" y="62" width="12" height="12" fill="#1f6feb"/>
<text x="683" y="72" class="legend">Win x64</text>
<rect x="665" y="80" width="12" height="12" fill="#388bfd"/>
<text x="683" y="90" class="legend">Win ARM64</text>
<rect x="665" y="98" width="12" height="12" fill="#3fb950"/>
<text x="683" y="108" class="legend">Linux i386</text>
<rect x="665" y="116" width="12" height="12" fill="#238636"/>
<text x="683" y="126" class="legend">Linux x64</text>
<rect x="665" y="134" width="12" height="12" fill="#2ea043"/>
<text x="683" y="144" class="legend">Linux ARM</text>
<rect x="665" y="152" width="12" height="12" fill="#56d364"/>
<text x="683" y="162" class="legend">Linux ARM64</text>
<rect x="665" y="170" width="12" height="12" fill="#f78166"/>
<text x="683" y="180" class="legend">UEFI x64</text>
<rect x="665" y="188" width="12" height="12" fill="#ffa657"/>
<text x="683" y="198" class="legend">UEFI ARM64</text>
</svg>