<svg xmlns="http://www.w3.org/2000/svg" width="800" height="400">
<defs>
<style>
.axis-text { fill: #8b949e; font-family: monospace; font-size: 11px; }
.title { fill: #c9d1d9; font-family: monospace; font-size: 14px; font-weight: bold; }
.legend { fill: #8b949e; font-family: monospace; font-size: 10px; }
.grid { stroke: #21262d; stroke-width: 1; }
</style>
</defs>
<rect width="800" height="400" fill="#0d1117"/>
<text x="400.0" y="25" class="title" text-anchor="middle">Binary Size Trend (.bin)</text>
<line x1="70" y1="40.0" x2="650" y2="40.0" class="grid"/>
<text x="60" y="44.0" class="axis-text" text-anchor="end">138KB</text>
<line x1="70" y1="100.0" x2="650" y2="100.0" class="grid"/>
<text x="60" y="104.0" class="axis-text" text-anchor="end">126KB</text>
<line x1="70" y1="160.0" x2="650" y2="160.0" class="grid"/>
<text x="60" y="164.0" class="axis-text" text-anchor="end">115KB</text>
<line x1="70" y1="220.0" x2="650" y2="220.0" class="grid"/>
<text x="60" y="224.0" class="axis-text" text-anchor="end">103KB</text>
<line x1="70" y1="280.0" x2="650" y2="280.0" class="grid"/>
<text x="60" y="284.0" class="axis-text" text-anchor="end">91KB</text>
<line x1="70" y1="340.0" x2="650" y2="340.0" class="grid"/>
<text x="60" y="344.0" class="axis-text" text-anchor="end">80KB</text>
<text x="70.0" y="360" class="axis-text" text-anchor="middle">02-05</text>
<text x="166.66666666666666" y="360" class="axis-text" text-anchor="middle">02-05</text>
<text x="263.3333333333333" y="360" class="axis-text" text-anchor="middle">02-06</text>
<text x="360.0" y="360" class="axis-text" text-anchor="middle">02-11</text>
<text x="456.66666666666663" y="360" class="axis-text" text-anchor="middle">02-24</text>
<text x="553.3333333333334" y="360" class="axis-text" text-anchor="middle">02-24</text>
<text x="650.0" y="360" class="axis-text" text-anchor="middle">02-24</text>
<path d="M 70.0 154.7 L 82.1 155.3 L 94.2 156.5 L 106.2 154.6 L 118.3 154.7 L 130.4 155.4 L 142.5 156.5 L 154.6 155.4 L 166.7 138.6 L 178.8 154.6 L 190.8 155.4 L 202.9 143.4 L 215.0 154.7 L 227.1 154.4 L 239.2 149.1 L 251.2 149.1 L 263.3 149.1 L 275.4 149.1 L 287.5 149.1 L 299.6 149.4 L 311.7 149.4 L 323.8 219.1 L 335.8 219.1 L 347.9 218.2 L 360.0 218.2 L 372.1 218.2 L 384.2 204.6 L 396.2 200.2 L 408.3 200.2 L 420.4 200.9 L 432.5 201.6 L 444.6 200.0 L 456.7 200.0 L 468.8 199.0 L 480.8 197.4 L 492.9 214.4 L 505.0 199.0 L 517.1 200.0 L 529.2 198.9 L 541.2 200.0 L 553.3 200.2 L 565.4 200.3 L 577.5 200.0 L 589.6 198.3 L 601.7 199.8 L 613.8 199.5 L 625.8 213.4 L 637.9 199.0 L 650.0 200.2" fill="none" stroke="#58a6ff" stroke-width="2" opacity="0.8"/>
<circle cx="70.0" cy="154.7" r="3" fill="#58a6ff"/>
<circle cx="178.8" cy="154.6" r="3" fill="#58a6ff"/>
<circle cx="287.5" cy="149.1" r="3" fill="#58a6ff"/>
<circle cx="396.2" cy="200.2" r="3" fill="#58a6ff"/>
<circle cx="505.0" cy="199.0" r="3" fill="#58a6ff"/>
<circle cx="613.8" cy="199.5" r="3" fill="#58a6ff"/>
<circle cx="650.0" cy="200.2" r="4" fill="#58a6ff"/>
<path d="M 70.0 154.7 L 82.1 155.7 L 94.2 156.9 L 106.2 154.7 L 118.3 154.7 L 130.4 155.8 L 142.5 156.9 L 154.6 155.8 L 166.7 138.7 L 178.8 154.7 L 190.8 155.8 L 202.9 142.5 L 215.0 154.7 L 227.1 155.5 L 239.2 149.1 L 251.2 149.1 L 263.3 149.1 L 275.4 149.1 L 287.5 149.1 L 299.6 149.4 L 311.7 149.4 L 323.8 254.3 L 335.8 254.3 L 347.9 253.1 L 360.0 253.1 L 372.1 253.1 L 384.2 255.1 L 396.2 252.3 L 408.3 252.3 L 420.4 252.8 L 432.5 254.4 L 444.6 252.3 L 456.7 252.3 L 468.8 250.7 L 480.8 250.2 L 492.9 253.9 L 505.0 250.7 L 517.1 252.3 L 529.2 251.0 L 541.2 252.3 L 553.3 252.3 L 565.4 252.7 L 577.5 252.3 L 589.6 250.6 L 601.7 251.8 L 613.8 251.3 L 625.8 252.7 L 637.9 250.7 L 650.0 252.3" fill="none" stroke="#1f6feb" stroke-width="2" opacity="0.8"/>
<circle cx="70.0" cy="154.7" r="3" fill="#1f6feb"/>
<circle cx="178.8" cy="154.7" r="3" fill="#1f6feb"/>
<circle cx="287.5" cy="149.1" r="3" fill="#1f6feb"/>
<circle cx="396.2" cy="252.3" r="3" fill="#1f6feb"/>
<circle cx="505.0" cy="250.7" r="3" fill="#1f6feb"/>
<circle cx="613.8" cy="251.3" r="3" fill="#1f6feb"/>
<circle cx="650.0" cy="252.3" r="4" fill="#1f6feb"/>
<path d="M 70.0 170.2 L 82.1 170.7 L 94.2 172.2 L 106.2 170.2 L 118.3 170.2 L 130.4 171.0 L 142.5 172.2 L 154.6 171.0 L 166.7 153.0 L 178.8 170.2 L 190.8 171.0 L 202.9 156.7 L 215.0 170.2 L 227.1 170.4 L 239.2 165.1 L 251.2 165.1 L 263.3 165.1 L 275.4 165.1 L 287.5 165.1 L 299.6 165.3 L 311.7 165.3 L 323.8 251.4 L 335.8 251.4 L 347.9 250.6 L 360.0 250.6 L 372.1 250.6 L 384.2 240.8 L 396.2 239.5 L 408.3 239.5 L 420.4 239.7 L 432.5 242.3 L 444.6 239.5 L 456.7 239.5 L 468.8 233.8 L 480.8 238.2 L 492.9 249.2 L 505.0 233.8 L 517.1 239.5 L 529.2 240.7 L 541.2 239.5 L 553.3 239.5 L 565.4 239.8 L 577.5 239.5 L 589.6 239.0 L 601.7 234.5 L 613.8 240.9 L 625.8 247.7 L 637.9 233.8 L 650.0 239.5" fill="none" stroke="#388bfd" stroke-width="2" opacity="0.8"/>
<circle cx="70.0" cy="170.2" r="3" fill="#388bfd"/>
<circle cx="178.8" cy="170.2" r="3" fill="#388bfd"/>
<circle cx="287.5" cy="165.1" r="3" fill="#388bfd"/>
<circle cx="396.2" cy="239.5" r="3" fill="#388bfd"/>
<circle cx="505.0" cy="233.8" r="3" fill="#388bfd"/>
<circle cx="613.8" cy="240.9" r="3" fill="#388bfd"/>
<circle cx="650.0" cy="239.5" r="4" fill="#388bfd"/>
<path d="M 70.0 137.7 L 82.1 139.1 L 94.2 139.7 L 106.2 137.7 L 118.3 137.7 L 130.4 139.2 L 142.5 139.7 L 154.6 139.2 L 166.7 122.9 L 178.8 137.7 L 190.8 139.2 L 202.9 126.3 L 215.0 137.7 L 227.1 137.6 L 239.2 132.1 L 251.2 132.1 L 263.3 132.1 L 275.4 132.1 L 287.5 132.1 L 299.6 132.1 L 311.7 132.1 L 323.8 224.5 L 335.8 224.5 L 347.9 223.2 L 360.0 223.2 L 372.1 223.2 L 384.2 227.7 L 396.2 227.7 L 408.3 227.7 L 420.4 227.7 L 432.5 229.8 L 444.6 227.6 L 456.7 227.6 L 468.8 226.7 L 480.8 225.1 L 492.9 226.4 L 505.0 226.7 L 517.1 227.6 L 529.2 227.1 L 541.2 227.6 L 553.3 227.7 L 565.4 227.9 L 577.5 227.6 L 589.6 226.1 L 601.7 227.7 L 613.8 227.3 L 625.8 225.2 L 637.9 226.7 L 650.0 227.7" fill="none" stroke="#3fb950" stroke-width="2" opacity="0.8"/>
<circle cx="70.0" cy="137.7" r="3" fill="#3fb950"/>
<circle cx="178.8" cy="137.7" r="3" fill="#3fb950"/>
<circle cx="287.5" cy="132.1" r="3" fill="#3fb950"/>
<circle cx="396.2" cy="227.7" r="3" fill="#3fb950"/>
<circle cx="505.0" cy="226.7" r="3" fill="#3fb950"/>
<circle cx="613.8" cy="227.3" r="3" fill="#3fb950"/>
<circle cx="650.0" cy="227.7" r="4" fill="#3fb950"/>
<path d="M 70.0 214.7 L 82.1 216.1 L 94.2 216.0 L 106.2 214.7 L 118.3 214.7 L 130.4 216.2 L 142.5 216.0 L 154.6 216.2 L 166.7 198.7 L 178.8 214.7 L 190.8 216.2 L 202.9 202.8 L 215.0 214.7 L 227.1 214.4 L 239.2 210.3 L 251.2 210.3 L 263.3 210.3 L 275.4 210.3 L 287.5 210.3 L 299.6 210.3 L 311.7 210.3 L 323.8 280.5 L 335.8 280.5 L 347.9 278.9 L 360.0 278.9 L 372.1 278.9 L 384.2 280.2 L 396.2 280.2 L 408.3 280.2 L 420.4 280.2 L 432.5 281.9 L 444.6 280.2 L 456.7 280.2 L 468.8 280.1 L 480.8 277.7 L 492.9 283.4 L 505.0 280.1 L 517.1 280.2 L 529.2 280.2 L 541.2 280.2 L 553.3 280.2 L 565.4 280.5 L 577.5 280.2 L 589.6 278.5 L 601.7 281.3 L 613.8 280.6 L 625.8 282.3 L 637.9 280.1 L 650.0 280.2" fill="none" stroke="#238636" stroke-width="2" opacity="0.8"/>
<circle cx="70.0" cy="214.7" r="3" fill="#238636"/>
<circle cx="178.8" cy="214.7" r="3" fill="#238636"/>
<circle cx="287.5" cy="210.3" r="3" fill="#238636"/>
<circle cx="396.2" cy="280.2" r="3" fill="#238636"/>
<circle cx="505.0" cy="280.1" r="3" fill="#238636"/>
<circle cx="613.8" cy="280.6" r="3" fill="#238636"/>
<circle cx="650.0" cy="280.2" r="4" fill="#238636"/>
<path d="M 70.0 119.9 L 82.1 121.4 L 94.2 121.8 L 106.2 119.9 L 118.3 119.9 L 130.4 121.5 L 142.5 121.8 L 154.6 121.5 L 166.7 104.7 L 178.8 119.9 L 190.8 121.5 L 202.9 109.9 L 215.0 119.9 L 227.1 119.9 L 239.2 114.2 L 251.2 114.2 L 263.3 114.2 L 275.4 114.2 L 287.5 114.2 L 299.6 114.2 L 311.7 114.2 L 323.8 195.1 L 335.8 195.1 L 347.9 194.2 L 360.0 194.2 L 372.1 194.2 L 384.2 182.7 L 396.2 182.7 L 408.3 182.7 L 420.4 182.7 L 432.5 185.2 L 444.6 182.7 L 456.7 182.7 L 468.8 184.3 L 480.8 181.6 L 492.9 204.2 L 505.0 184.3 L 517.1 182.7 L 529.2 184.4 L 541.2 182.7 L 553.3 182.7 L 565.4 183.0 L 577.5 182.7 L 589.6 182.1 L 601.7 186.0 L 613.8 184.7 L 625.8 202.1 L 637.9 184.3 L 650.0 182.7" fill="none" stroke="#2ea043" stroke-width="2" opacity="0.8"/>
<circle cx="70.0" cy="119.9" r="3" fill="#2ea043"/>
<circle cx="178.8" cy="119.9" r="3" fill="#2ea043"/>
<circle cx="287.5" cy="114.2" r="3" fill="#2ea043"/>
<circle cx="396.2" cy="182.7" r="3" fill="#2ea043"/>
<circle cx="505.0" cy="184.3" r="3" fill="#2ea043"/>
<circle cx="613.8" cy="184.7" r="3" fill="#2ea043"/>
<circle cx="650.0" cy="182.7" r="4" fill="#2ea043"/>
<path d="M 70.0 209.1 L 82.1 210.9 L 94.2 211.2 L 106.2 209.1 L 118.3 209.1 L 130.4 211.0 L 142.5 211.2 L 154.6 211.0 L 166.7 194.2 L 178.8 209.1 L 190.8 211.0 L 202.9 197.7 L 215.0 209.1 L 227.1 209.4 L 239.2 204.0 L 251.2 204.0 L 263.3 204.0 L 275.4 204.0 L 287.5 204.0 L 299.6 204.0 L 311.7 204.0 L 323.8 289.5 L 335.8 289.5 L 347.9 288.7 L 360.0 288.7 L 372.1 288.7 L 384.2 280.6 L 396.2 280.6 L 408.3 280.6 L 420.4 280.6 L 432.5 283.6 L 444.6 280.6 L 456.7 280.6 L 468.8 279.0 L 480.8 280.8 L 492.9 294.3 L 505.0 279.0 L 517.1 280.6 L 529.2 283.2 L 541.2 280.6 L 553.3 280.6 L 565.4 280.9 L 577.5 280.6 L 589.6 281.3 L 601.7 280.4 L 613.8 283.4 L 625.8 292.5 L 637.9 279.0 L 650.0 280.6" fill="none" stroke="#56d364" stroke-width="2" opacity="0.8"/>
<circle cx="70.0" cy="209.1" r="3" fill="#56d364"/>
<circle cx="178.8" cy="209.1" r="3" fill="#56d364"/>
<circle cx="287.5" cy="204.0" r="3" fill="#56d364"/>
<circle cx="396.2" cy="280.6" r="3" fill="#56d364"/>
<circle cx="505.0" cy="279.0" r="3" fill="#56d364"/>
<circle cx="613.8" cy="283.4" r="3" fill="#56d364"/>
<circle cx="650.0" cy="280.6" r="4" fill="#56d364"/>
<path d="M 70.0 152.4 L 82.1 153.4 L 94.2 154.6 L 106.2 152.3 L 118.3 152.4 L 130.4 153.4 L 142.5 154.6 L 154.6 153.4 L 166.7 136.8 L 178.8 152.3 L 190.8 153.4 L 202.9 140.5 L 215.0 152.4 L 227.1 153.2 L 239.2 147.1 L 251.2 147.1 L 263.3 147.1 L 275.4 147.1 L 287.5 147.1 L 299.6 147.1 L 311.7 147.1 L 323.8 251.4 L 335.8 251.4 L 347.9 250.2 L 360.0 250.2 L 372.1 250.2 L 384.2 255.3 L 396.2 255.3 L 408.3 255.3 L 420.4 255.3 L 432.5 257.4 L 444.6 255.3 L 456.7 255.3 L 468.8 255.3 L 480.8 253.5 L 492.9 254.5 L 505.0 255.3 L 517.1 255.3 L 529.2 255.5 L 541.2 255.3 L 553.3 255.3 L 565.4 255.7 L 577.5 255.3 L 589.6 254.2 L 601.7 256.2 L 613.8 255.8 L 625.8 253.2 L 637.9 255.3 L 650.0 255.3" fill="none" stroke="#f78166" stroke-width="2" opacity="0.8"/>
<circle cx="70.0" cy="152.4" r="3" fill="#f78166"/>
<circle cx="178.8" cy="152.3" r="3" fill="#f78166"/>
<circle cx="287.5" cy="147.1" r="3" fill="#f78166"/>
<circle cx="396.2" cy="255.3" r="3" fill="#f78166"/>
<circle cx="505.0" cy="255.3" r="3" fill="#f78166"/>
<circle cx="613.8" cy="255.8" r="3" fill="#f78166"/>
<circle cx="650.0" cy="255.3" r="4" fill="#f78166"/>
<path d="M 70.0 165.3 L 82.1 166.0 L 94.2 167.3 L 106.2 165.3 L 118.3 165.3 L 130.4 166.0 L 142.5 167.3 L 154.6 166.0 L 166.7 148.0 L 178.8 165.3 L 190.8 166.0 L 202.9 151.7 L 215.0 165.3 L 227.1 165.5 L 239.2 160.2 L 251.2 160.2 L 263.3 160.2 L 275.4 160.2 L 287.5 160.2 L 299.6 160.2 L 311.7 160.2 L 323.8 245.7 L 335.8 245.7 L 347.9 244.9 L 360.0 244.9 L 372.1 244.9 L 384.2 237.9 L 396.2 237.9 L 408.3 237.9 L 420.4 237.9 L 432.5 240.7 L 444.6 237.9 L 456.7 237.9 L 468.8 232.5 L 480.8 236.9 L 492.9 247.2 L 505.0 232.5 L 517.1 237.9 L 529.2 239.4 L 541.2 237.9 L 553.3 237.9 L 565.4 238.2 L 577.5 237.9 L 589.6 237.7 L 601.7 233.4 L 613.8 239.5 L 625.8 245.7 L 637.9 232.5 L 650.0 237.9" fill="none" stroke="#ffa657" stroke-width="2" opacity="0.8"/>
<circle cx="70.0" cy="165.3" r="3" fill="#ffa657"/>
<circle cx="178.8" cy="165.3" r="3" fill="#ffa657"/>
<circle cx="287.5" cy="160.2" r="3" fill="#ffa657"/>
<circle cx="396.2" cy="237.9" r="3" fill="#ffa657"/>
<circle cx="505.0" cy="232.5" r="3" fill="#ffa657"/>
<circle cx="613.8" cy="239.5" r="3" fill="#ffa657"/>
<circle cx="650.0" cy="237.9" r="4" fill="#ffa657"/>
<text x="70.0" y="111.9" fill="#2ea043" font-family="monospace" font-size="8px" text-anchor="middle">122.6KB</text>
<text x="70.0" y="129.9" fill="#3fb950" font-family="monospace" font-size="8px" text-anchor="middle">119.1KB</text>
<text x="70.0" y="147.9" fill="#f78166" font-family="monospace" font-size="8px" text-anchor="middle">116.3KB</text>
<text x="70.0" y="165.9" fill="#1f6feb" font-family="monospace" font-size="8px" text-anchor="middle">115.8KB</text>
<text x="70.0" y="183.9" fill="#58a6ff" font-family="monospace" font-size="8px" text-anchor="middle">115.8KB</text>
<text x="70.0" y="201.9" fill="#ffa657" font-family="monospace" font-size="8px" text-anchor="middle">113.7KB</text>
<text x="70.0" y="219.9" fill="#388bfd" font-family="monospace" font-size="8px" text-anchor="middle">112.8KB</text>
<text x="70.0" y="237.9" fill="#56d364" font-family="monospace" font-size="8px" text-anchor="middle">105.2KB</text>
<text x="70.0" y="255.9" fill="#238636" font-family="monospace" font-size="8px" text-anchor="middle">104.2KB</text>
<text x="178.8" y="111.9" fill="#2ea043" font-family="monospace" font-size="8px" text-anchor="middle">122.6KB</text>
<text x="178.8" y="129.9" fill="#3fb950" font-family="monospace" font-size="8px" text-anchor="middle">119.1KB</text>
<text x="178.8" y="147.9" fill="#f78166" font-family="monospace" font-size="8px" text-anchor="middle">116.3KB</text>
<text x="178.8" y="165.9" fill="#58a6ff" font-family="monospace" font-size="8px" text-anchor="middle">115.8KB</text>
<text x="178.8" y="183.9" fill="#1f6feb" font-family="monospace" font-size="8px" text-anchor="middle">115.8KB</text>
<text x="178.8" y="201.9" fill="#ffa657" font-family="monospace" font-size="8px" text-anchor="middle">113.7KB</text>
<text x="178.8" y="219.9" fill="#388bfd" font-family="monospace" font-size="8px" text-anchor="middle">112.8KB</text>
<text x="178.8" y="237.9" fill="#56d364" font-family="monospace" font-size="8px" text-anchor="middle">105.2KB</text>
<text x="178.8" y="255.9" fill="#238636" font-family="monospace" font-size="8px" text-anchor="middle">104.2KB</text>
<text x="287.5" y="106.2" fill="#2ea043" font-family="monospace" font-size="8px" text-anchor="middle">123.7KB</text>
<text x="287.5" y="124.2" fill="#3fb950" font-family="monospace" font-size="8px" text-anchor="middle">120.2KB</text>
<text x="287.5" y="142.2" fill="#f78166" font-family="monospace" font-size="8px" text-anchor="middle">117.3KB</text>
<text x="287.5" y="160.2" fill="#1f6feb" font-family="monospace" font-size="8px" text-anchor="middle">116.9KB</text>
<text x="287.5" y="178.2" fill="#58a6ff" font-family="monospace" font-size="8px" text-anchor="middle">116.9KB</text>
<text x="287.5" y="196.2" fill="#ffa657" font-family="monospace" font-size="8px" text-anchor="middle">114.7KB</text>
<text x="287.5" y="214.2" fill="#388bfd" font-family="monospace" font-size="8px" text-anchor="middle">113.8KB</text>
<text x="287.5" y="232.2" fill="#56d364" font-family="monospace" font-size="8px" text-anchor="middle">106.2KB</text>
<text x="287.5" y="250.2" fill="#238636" font-family="monospace" font-size="8px" text-anchor="middle">105.0KB</text>
<text x="396.2" y="174.7" fill="#2ea043" font-family="monospace" font-size="8px" text-anchor="middle">110.4KB</text>
<text x="396.2" y="192.7" fill="#58a6ff" font-family="monospace" font-size="8px" text-anchor="middle">107.0KB</text>
<text x="396.2" y="219.7" fill="#3fb950" font-family="monospace" font-size="8px" text-anchor="middle">101.6KB</text>
<text x="396.2" y="237.7" fill="#ffa657" font-family="monospace" font-size="8px" text-anchor="middle">99.7KB</text>
<text x="396.2" y="255.7" fill="#388bfd" font-family="monospace" font-size="8px" text-anchor="middle">99.4KB</text>
<text x="396.2" y="273.7" fill="#1f6feb" font-family="monospace" font-size="8px" text-anchor="middle">96.9KB</text>
<text x="396.2" y="291.7" fill="#f78166" font-family="monospace" font-size="8px" text-anchor="middle">96.3KB</text>
<text x="396.2" y="309.7" fill="#238636" font-family="monospace" font-size="8px" text-anchor="middle">91.5KB</text>
<text x="396.2" y="327.7" fill="#56d364" font-family="monospace" font-size="8px" text-anchor="middle">91.4KB</text>
<text x="505.0" y="176.3" fill="#2ea043" font-family="monospace" font-size="8px" text-anchor="middle">110.1KB</text>
<text x="505.0" y="194.3" fill="#58a6ff" font-family="monospace" font-size="8px" text-anchor="middle">107.2KB</text>
<text x="505.0" y="218.7" fill="#3fb950" font-family="monospace" font-size="8px" text-anchor="middle">101.8KB</text>
<text x="505.0" y="236.7" fill="#ffa657" font-family="monospace" font-size="8px" text-anchor="middle">100.7KB</text>
<text x="505.0" y="254.7" fill="#388bfd" font-family="monospace" font-size="8px" text-anchor="middle">100.5KB</text>
<text x="505.0" y="272.7" fill="#1f6feb" font-family="monospace" font-size="8px" text-anchor="middle">97.2KB</text>
<text x="505.0" y="290.7" fill="#f78166" font-family="monospace" font-size="8px" text-anchor="middle">96.3KB</text>
<text x="505.0" y="308.7" fill="#56d364" font-family="monospace" font-size="8px" text-anchor="middle">91.7KB</text>
<text x="505.0" y="326.7" fill="#238636" font-family="monospace" font-size="8px" text-anchor="middle">91.5KB</text>
<text x="613.8" y="176.7" fill="#2ea043" font-family="monospace" font-size="8px" text-anchor="middle">110.0KB</text>
<text x="613.8" y="194.7" fill="#58a6ff" font-family="monospace" font-size="8px" text-anchor="middle">107.1KB</text>
<text x="613.8" y="219.3" fill="#3fb950" font-family="monospace" font-size="8px" text-anchor="middle">101.7KB</text>
<text x="613.8" y="237.3" fill="#ffa657" font-family="monospace" font-size="8px" text-anchor="middle">99.4KB</text>
<text x="613.8" y="255.3" fill="#388bfd" font-family="monospace" font-size="8px" text-anchor="middle">99.1KB</text>
<text x="613.8" y="273.3" fill="#1f6feb" font-family="monospace" font-size="8px" text-anchor="middle">97.1KB</text>
<text x="613.8" y="291.3" fill="#f78166" font-family="monospace" font-size="8px" text-anchor="middle">96.2KB</text>
<text x="613.8" y="309.3" fill="#238636" font-family="monospace" font-size="8px" text-anchor="middle">91.4KB</text>
<text x="613.8" y="327.3" fill="#56d364" font-family="monospace" font-size="8px" text-anchor="middle">90.8KB</text>
<text x="650.0" y="158.7" fill="#2ea043" font-family="monospace" font-size="8px" text-anchor="middle">110.4KB</text>
<text x="650.0" y="201.3" fill="#58a6ff" font-family="monospace" font-size="8px" text-anchor="middle">107.0KB</text>
<text x="650.0" y="345.3" fill="#3fb950" font-family="monospace" font-size="8px" text-anchor="middle">101.6KB</text>
<text x="650.0" y="363.3" fill="#ffa657" font-family="monospace" font-size="8px" text-anchor="middle">99.7KB</text>
<text x="650.0" y="381.3" fill="#388bfd" font-family="monospace" font-size="8px" text-anchor="middle">99.4KB</text>
<text x="650.0" y="399.3" fill="#1f6feb" font-family="monospace" font-size="8px" text-anchor="middle">96.9KB</text>
<text x="650.0" y="417.3" fill="#f78166" font-family="monospace" font-size="8px" text-anchor="middle">96.3KB</text>
<text x="650.0" y="435.3" fill="#238636" font-family="monospace" font-size="8px" text-anchor="middle">91.5KB</text>
<text x="650.0" y="453.3" fill="#56d364" font-family="monospace" font-size="8px" text-anchor="middle">91.4KB</text>
<rect x="665" y="44" width="12" height="12" fill="#58a6ff"/>
<text x="683" y="54" class="legend">Win i386</text>
<rect x="665" y="62" width="12" height="12" fill="#1f6feb"/>
<text x="683" y="72" class="legend">Win x64</text>
<rect x="665" y="80" width="12" height="12" fill="#388bfd"/>
<text x="683" y="90" class="legend">Win ARM64</text>
<rect x="665" y="98" width="12" height="12" fill="#3fb950"/>
<text x="683" y="108" class="legend">Linux i386</text>
<rect x="665" y="116" width="12" height="12" fill="#238636"/>
<text x="683" y="126" class="legend">Linux x64</text>
<rect x="665" y="134" width="12" height="12" fill="#2ea043"/>
<text x="683" y="144" class="legend">Linux ARM</text>
<rect x="665" y="152" width="12" height="12" fill="#56d364"/>
<text x="683" y="162" class="legend">Linux ARM64</text>
<rect x="665" y="170" width="12" height="12" fill="#f78166"/>
<text x="683" y="180" class="legend">UEFI x64</text>
<rect x="665" y="188" width="12" height="12" fill="#ffa657"/>
<text x="683" y="198" class="legend">UEFI ARM64</text>
</svg>