<svg xmlns="http://www.w3.org/2000/svg" width="800" height="400">
<defs>
<style>
.axis-text { fill: #8b949e; font-family: monospace; font-size: 11px; }
.title { fill: #c9d1d9; font-family: monospace; font-size: 14px; font-weight: bold; }
.legend { fill: #8b949e; font-family: monospace; font-size: 10px; }
.grid { stroke: #21262d; stroke-width: 1; }
</style>
</defs>
<rect width="800" height="400" fill="#0d1117"/>
<text x="400.0" y="25" class="title" text-anchor="middle">Binary Size Trend (.bin)</text>
<line x1="70" y1="40.0" x2="650" y2="40.0" class="grid"/>
<text x="60" y="44.0" class="axis-text" text-anchor="end">138KB</text>
<line x1="70" y1="100.0" x2="650" y2="100.0" class="grid"/>
<text x="60" y="104.0" class="axis-text" text-anchor="end">127KB</text>
<line x1="70" y1="160.0" x2="650" y2="160.0" class="grid"/>
<text x="60" y="164.0" class="axis-text" text-anchor="end">115KB</text>
<line x1="70" y1="220.0" x2="650" y2="220.0" class="grid"/>
<text x="60" y="224.0" class="axis-text" text-anchor="end">104KB</text>
<line x1="70" y1="280.0" x2="650" y2="280.0" class="grid"/>
<text x="60" y="284.0" class="axis-text" text-anchor="end">92KB</text>
<line x1="70" y1="340.0" x2="650" y2="340.0" class="grid"/>
<text x="60" y="344.0" class="axis-text" text-anchor="end">81KB</text>
<text x="70.0" y="360" class="axis-text" text-anchor="middle">02-05</text>
<text x="169.02439024390245" y="360" class="axis-text" text-anchor="middle">02-05</text>
<text x="268.0487804878049" y="360" class="axis-text" text-anchor="middle">02-06</text>
<text x="367.0731707317073" y="360" class="axis-text" text-anchor="middle">02-10</text>
<text x="466.0975609756098" y="360" class="axis-text" text-anchor="middle">02-23</text>
<text x="565.1219512195122" y="360" class="axis-text" text-anchor="middle">02-24</text>
<path d="M 70.0 156.4 L 84.1 157.0 L 98.3 158.2 L 112.4 156.3 L 126.6 156.4 L 140.7 157.1 L 154.9 158.2 L 169.0 157.1 L 183.2 140.0 L 197.3 156.3 L 211.5 157.1 L 225.6 144.9 L 239.8 156.4 L 253.9 156.0 L 268.0 150.7 L 282.2 150.7 L 296.3 150.7 L 310.5 150.7 L 324.6 150.7 L 338.8 151.0 L 352.9 151.0 L 367.1 221.7 L 381.2 221.7 L 395.4 220.8 L 409.5 220.8 L 423.7 220.8 L 437.8 207.0 L 452.0 202.6 L 466.1 202.6 L 480.2 203.2 L 494.4 204.0 L 508.5 202.3 L 522.7 202.3 L 536.8 199.7 L 551.0 202.3 L 565.1 201.3 L 579.3 202.3 L 593.4 202.6 L 607.6 202.6 L 621.7 202.3 L 635.9 200.6 L 650.0 202.6" fill="none" stroke="#58a6ff" stroke-width="2" opacity="0.8"/>
<circle cx="70.0" cy="156.4" r="3" fill="#58a6ff"/>
<circle cx="183.2" cy="140.0" r="3" fill="#58a6ff"/>
<circle cx="296.3" cy="150.7" r="3" fill="#58a6ff"/>
<circle cx="409.5" cy="220.8" r="3" fill="#58a6ff"/>
<circle cx="522.7" cy="202.3" r="3" fill="#58a6ff"/>
<circle cx="635.9" cy="200.6" r="3" fill="#58a6ff"/>
<circle cx="650.0" cy="202.6" r="4" fill="#58a6ff"/>
<path d="M 70.0 156.4 L 84.1 157.4 L 98.3 158.6 L 112.4 156.4 L 126.6 156.4 L 140.7 157.5 L 154.9 158.6 L 169.0 157.5 L 183.2 140.2 L 197.3 156.4 L 211.5 157.5 L 225.6 144.0 L 239.8 156.4 L 253.9 157.2 L 268.0 150.7 L 282.2 150.7 L 296.3 150.7 L 310.5 150.7 L 324.6 150.7 L 338.8 151.0 L 352.9 151.0 L 367.1 257.4 L 381.2 257.4 L 395.4 256.2 L 409.5 256.2 L 423.7 256.2 L 437.8 258.3 L 452.0 255.4 L 466.1 255.4 L 480.2 255.9 L 494.4 257.6 L 508.5 255.4 L 522.7 255.4 L 536.8 253.2 L 551.0 255.4 L 565.1 254.0 L 579.3 255.4 L 593.4 255.4 L 607.6 255.8 L 621.7 255.4 L 635.9 253.6 L 650.0 255.4" fill="none" stroke="#1f6feb" stroke-width="2" opacity="0.8"/>
<circle cx="70.0" cy="156.4" r="3" fill="#1f6feb"/>
<circle cx="183.2" cy="140.2" r="3" fill="#1f6feb"/>
<circle cx="296.3" cy="150.7" r="3" fill="#1f6feb"/>
<circle cx="409.5" cy="256.2" r="3" fill="#1f6feb"/>
<circle cx="522.7" cy="255.4" r="3" fill="#1f6feb"/>
<circle cx="635.9" cy="253.6" r="3" fill="#1f6feb"/>
<circle cx="650.0" cy="255.4" r="4" fill="#1f6feb"/>
<path d="M 70.0 172.1 L 84.1 172.7 L 98.3 174.2 L 112.4 172.1 L 126.6 172.1 L 140.7 172.9 L 154.9 174.2 L 169.0 172.9 L 183.2 154.7 L 197.3 172.1 L 211.5 172.9 L 225.6 158.4 L 239.8 172.1 L 253.9 172.3 L 268.0 166.9 L 282.2 166.9 L 296.3 166.9 L 310.5 166.9 L 324.6 166.9 L 338.8 167.1 L 352.9 167.1 L 367.1 254.5 L 381.2 254.5 L 395.4 253.7 L 409.5 253.7 L 423.7 253.7 L 437.8 243.7 L 452.0 242.4 L 466.1 242.4 L 480.2 242.6 L 494.4 245.2 L 508.5 242.4 L 522.7 242.4 L 536.8 241.0 L 551.0 242.4 L 565.1 243.6 L 579.3 242.4 L 593.4 242.4 L 607.6 242.7 L 621.7 242.4 L 635.9 241.9 L 650.0 242.4" fill="none" stroke="#388bfd" stroke-width="2" opacity="0.8"/>
<circle cx="70.0" cy="172.1" r="3" fill="#388bfd"/>
<circle cx="183.2" cy="154.7" r="3" fill="#388bfd"/>
<circle cx="296.3" cy="166.9" r="3" fill="#388bfd"/>
<circle cx="409.5" cy="253.7" r="3" fill="#388bfd"/>
<circle cx="522.7" cy="242.4" r="3" fill="#388bfd"/>
<circle cx="635.9" cy="241.9" r="3" fill="#388bfd"/>
<circle cx="650.0" cy="242.4" r="4" fill="#388bfd"/>
<path d="M 70.0 139.1 L 84.1 140.5 L 98.3 141.2 L 112.4 139.1 L 126.6 139.1 L 140.7 140.7 L 154.9 141.2 L 169.0 140.7 L 183.2 124.1 L 197.3 139.1 L 211.5 140.7 L 225.6 127.5 L 239.8 139.1 L 253.9 139.0 L 268.0 133.5 L 282.2 133.5 L 296.3 133.5 L 310.5 133.5 L 324.6 133.5 L 338.8 133.5 L 352.9 133.5 L 367.1 227.2 L 381.2 227.2 L 395.4 225.9 L 409.5 225.9 L 423.7 225.9 L 437.8 230.5 L 452.0 230.5 L 466.1 230.5 L 480.2 230.5 L 494.4 232.5 L 508.5 230.3 L 522.7 230.3 L 536.8 227.8 L 551.0 230.3 L 565.1 229.8 L 579.3 230.3 L 593.4 230.5 L 607.6 230.6 L 621.7 230.3 L 635.9 228.8 L 650.0 230.5" fill="none" stroke="#3fb950" stroke-width="2" opacity="0.8"/>
<circle cx="70.0" cy="139.1" r="3" fill="#3fb950"/>
<circle cx="183.2" cy="124.1" r="3" fill="#3fb950"/>
<circle cx="296.3" cy="133.5" r="3" fill="#3fb950"/>
<circle cx="409.5" cy="225.9" r="3" fill="#3fb950"/>
<circle cx="522.7" cy="230.3" r="3" fill="#3fb950"/>
<circle cx="635.9" cy="228.8" r="3" fill="#3fb950"/>
<circle cx="650.0" cy="230.5" r="4" fill="#3fb950"/>
<path d="M 70.0 217.2 L 84.1 218.7 L 98.3 218.6 L 112.4 217.2 L 126.6 217.2 L 140.7 218.8 L 154.9 218.6 L 169.0 218.8 L 183.2 201.0 L 197.3 217.2 L 211.5 218.8 L 225.6 205.2 L 239.8 217.2 L 253.9 216.9 L 268.0 212.8 L 282.2 212.8 L 296.3 212.8 L 310.5 212.8 L 324.6 212.8 L 338.8 212.8 L 352.9 212.8 L 367.1 284.0 L 381.2 284.0 L 395.4 282.4 L 409.5 282.4 L 423.7 282.4 L 437.8 283.7 L 452.0 283.7 L 466.1 283.7 L 480.2 283.7 L 494.4 285.5 L 508.5 283.7 L 522.7 283.7 L 536.8 281.2 L 551.0 283.7 L 565.1 283.7 L 579.3 283.7 L 593.4 283.7 L 607.6 284.0 L 621.7 283.7 L 635.9 282.0 L 650.0 283.7" fill="none" stroke="#238636" stroke-width="2" opacity="0.8"/>
<circle cx="70.0" cy="217.2" r="3" fill="#238636"/>
<circle cx="183.2" cy="201.0" r="3" fill="#238636"/>
<circle cx="296.3" cy="212.8" r="3" fill="#238636"/>
<circle cx="409.5" cy="282.4" r="3" fill="#238636"/>
<circle cx="522.7" cy="283.7" r="3" fill="#238636"/>
<circle cx="635.9" cy="282.0" r="3" fill="#238636"/>
<circle cx="650.0" cy="283.7" r="4" fill="#238636"/>
<path d="M 70.0 121.0 L 84.1 122.6 L 98.3 123.0 L 112.4 121.0 L 126.6 121.0 L 140.7 122.7 L 154.9 123.0 L 169.0 122.7 L 183.2 105.6 L 197.3 121.0 L 211.5 122.7 L 225.6 110.9 L 239.8 121.0 L 253.9 121.1 L 268.0 115.3 L 282.2 115.3 L 296.3 115.3 L 310.5 115.3 L 324.6 115.3 L 338.8 115.3 L 352.9 115.3 L 367.1 197.4 L 381.2 197.4 L 395.4 196.4 L 409.5 196.4 L 423.7 196.4 L 437.8 184.8 L 452.0 184.8 L 466.1 184.8 L 480.2 184.8 L 494.4 187.3 L 508.5 184.8 L 522.7 184.8 L 536.8 183.7 L 551.0 184.8 L 565.1 186.5 L 579.3 184.8 L 593.4 184.8 L 607.6 185.1 L 621.7 184.8 L 635.9 184.2 L 650.0 184.8" fill="none" stroke="#2ea043" stroke-width="2" opacity="0.8"/>
<circle cx="70.0" cy="121.0" r="3" fill="#2ea043"/>
<circle cx="183.2" cy="105.6" r="3" fill="#2ea043"/>
<circle cx="296.3" cy="115.3" r="3" fill="#2ea043"/>
<circle cx="409.5" cy="196.4" r="3" fill="#2ea043"/>
<circle cx="522.7" cy="184.8" r="3" fill="#2ea043"/>
<circle cx="635.9" cy="184.2" r="3" fill="#2ea043"/>
<circle cx="650.0" cy="184.8" r="4" fill="#2ea043"/>
<path d="M 70.0 211.5 L 84.1 213.3 L 98.3 213.7 L 112.4 211.5 L 126.6 211.5 L 140.7 213.5 L 154.9 213.7 L 169.0 213.5 L 183.2 196.5 L 197.3 211.5 L 211.5 213.5 L 225.6 200.0 L 239.8 211.5 L 253.9 211.8 L 268.0 206.4 L 282.2 206.4 L 296.3 206.4 L 310.5 206.4 L 324.6 206.4 L 338.8 206.4 L 352.9 206.4 L 367.1 293.1 L 381.2 293.1 L 395.4 292.4 L 409.5 292.4 L 423.7 292.4 L 437.8 284.1 L 452.0 284.1 L 466.1 284.1 L 480.2 284.1 L 494.4 287.2 L 508.5 284.1 L 522.7 284.1 L 536.8 284.3 L 551.0 284.1 L 565.1 286.7 L 579.3 284.1 L 593.4 284.1 L 607.6 284.4 L 621.7 284.1 L 635.9 284.8 L 650.0 284.1" fill="none" stroke="#56d364" stroke-width="2" opacity="0.8"/>
<circle cx="70.0" cy="211.5" r="3" fill="#56d364"/>
<circle cx="183.2" cy="196.5" r="3" fill="#56d364"/>
<circle cx="296.3" cy="206.4" r="3" fill="#56d364"/>
<circle cx="409.5" cy="292.4" r="3" fill="#56d364"/>
<circle cx="522.7" cy="284.1" r="3" fill="#56d364"/>
<circle cx="635.9" cy="284.8" r="3" fill="#56d364"/>
<circle cx="650.0" cy="284.1" r="4" fill="#56d364"/>
<path d="M 70.0 154.0 L 84.1 155.1 L 98.3 156.2 L 112.4 153.9 L 126.6 154.0 L 140.7 155.1 L 154.9 156.2 L 169.0 155.1 L 183.2 138.2 L 197.3 153.9 L 211.5 155.1 L 225.6 142.0 L 239.8 154.0 L 253.9 154.8 L 268.0 148.7 L 282.2 148.7 L 296.3 148.7 L 310.5 148.7 L 324.6 148.7 L 338.8 148.7 L 352.9 148.7 L 367.1 254.5 L 381.2 254.5 L 395.4 253.3 L 409.5 253.3 L 423.7 253.3 L 437.8 258.5 L 452.0 258.5 L 466.1 258.5 L 480.2 258.5 L 494.4 260.6 L 508.5 258.5 L 522.7 258.5 L 536.8 256.6 L 551.0 258.5 L 565.1 258.6 L 579.3 258.5 L 593.4 258.5 L 607.6 258.8 L 621.7 258.5 L 635.9 257.3 L 650.0 258.5" fill="none" stroke="#f78166" stroke-width="2" opacity="0.8"/>
<circle cx="70.0" cy="154.0" r="3" fill="#f78166"/>
<circle cx="183.2" cy="138.2" r="3" fill="#f78166"/>
<circle cx="296.3" cy="148.7" r="3" fill="#f78166"/>
<circle cx="409.5" cy="253.3" r="3" fill="#f78166"/>
<circle cx="522.7" cy="258.5" r="3" fill="#f78166"/>
<circle cx="635.9" cy="257.3" r="3" fill="#f78166"/>
<circle cx="650.0" cy="258.5" r="4" fill="#f78166"/>
<path d="M 70.0 167.1 L 84.1 167.9 L 98.3 169.2 L 112.4 167.1 L 126.6 167.1 L 140.7 167.9 L 154.9 169.2 L 169.0 167.9 L 183.2 149.6 L 197.3 167.1 L 211.5 167.9 L 225.6 153.3 L 239.8 167.1 L 253.9 167.3 L 268.0 162.0 L 282.2 162.0 L 296.3 162.0 L 310.5 162.0 L 324.6 162.0 L 338.8 162.0 L 352.9 162.0 L 367.1 248.7 L 381.2 248.7 L 395.4 247.8 L 409.5 247.8 L 423.7 247.8 L 437.8 240.8 L 452.0 240.8 L 466.1 240.8 L 480.2 240.8 L 494.4 243.6 L 508.5 240.8 L 522.7 240.8 L 536.8 239.8 L 551.0 240.8 L 565.1 242.3 L 579.3 240.8 L 593.4 240.8 L 607.6 241.1 L 621.7 240.8 L 635.9 240.6 L 650.0 240.8" fill="none" stroke="#ffa657" stroke-width="2" opacity="0.8"/>
<circle cx="70.0" cy="167.1" r="3" fill="#ffa657"/>
<circle cx="183.2" cy="149.6" r="3" fill="#ffa657"/>
<circle cx="296.3" cy="162.0" r="3" fill="#ffa657"/>
<circle cx="409.5" cy="247.8" r="3" fill="#ffa657"/>
<circle cx="522.7" cy="240.8" r="3" fill="#ffa657"/>
<circle cx="635.9" cy="240.6" r="3" fill="#ffa657"/>
<circle cx="650.0" cy="240.8" r="4" fill="#ffa657"/>
<text x="70.0" y="113.0" fill="#2ea043" font-family="monospace" font-size="8px" text-anchor="middle">122.6KB</text>
<text x="70.0" y="131.1" fill="#3fb950" font-family="monospace" font-size="8px" text-anchor="middle">119.1KB</text>
<text x="70.0" y="149.1" fill="#f78166" font-family="monospace" font-size="8px" text-anchor="middle">116.3KB</text>
<text x="70.0" y="167.1" fill="#1f6feb" font-family="monospace" font-size="8px" text-anchor="middle">115.8KB</text>
<text x="70.0" y="185.1" fill="#58a6ff" font-family="monospace" font-size="8px" text-anchor="middle">115.8KB</text>
<text x="70.0" y="203.1" fill="#ffa657" font-family="monospace" font-size="8px" text-anchor="middle">113.7KB</text>
<text x="70.0" y="221.1" fill="#388bfd" font-family="monospace" font-size="8px" text-anchor="middle">112.8KB</text>
<text x="70.0" y="239.1" fill="#56d364" font-family="monospace" font-size="8px" text-anchor="middle">105.2KB</text>
<text x="70.0" y="257.1" fill="#238636" font-family="monospace" font-size="8px" text-anchor="middle">104.2KB</text>
<text x="183.2" y="97.6" fill="#2ea043" font-family="monospace" font-size="8px" text-anchor="middle">125.5KB</text>
<text x="183.2" y="116.1" fill="#3fb950" font-family="monospace" font-size="8px" text-anchor="middle">122.0KB</text>
<text x="183.2" y="134.1" fill="#f78166" font-family="monospace" font-size="8px" text-anchor="middle">119.3KB</text>
<text x="183.2" y="152.1" fill="#58a6ff" font-family="monospace" font-size="8px" text-anchor="middle">118.9KB</text>
<text x="183.2" y="170.1" fill="#1f6feb" font-family="monospace" font-size="8px" text-anchor="middle">118.9KB</text>
<text x="183.2" y="188.1" fill="#ffa657" font-family="monospace" font-size="8px" text-anchor="middle">117.1KB</text>
<text x="183.2" y="206.1" fill="#388bfd" font-family="monospace" font-size="8px" text-anchor="middle">116.1KB</text>
<text x="183.2" y="224.1" fill="#56d364" font-family="monospace" font-size="8px" text-anchor="middle">108.1KB</text>
<text x="183.2" y="242.1" fill="#238636" font-family="monospace" font-size="8px" text-anchor="middle">107.3KB</text>
<text x="296.3" y="107.3" fill="#2ea043" font-family="monospace" font-size="8px" text-anchor="middle">123.7KB</text>
<text x="296.3" y="125.5" fill="#3fb950" font-family="monospace" font-size="8px" text-anchor="middle">120.2KB</text>
<text x="296.3" y="143.5" fill="#f78166" font-family="monospace" font-size="8px" text-anchor="middle">117.3KB</text>
<text x="296.3" y="161.5" fill="#1f6feb" font-family="monospace" font-size="8px" text-anchor="middle">116.9KB</text>
<text x="296.3" y="179.5" fill="#58a6ff" font-family="monospace" font-size="8px" text-anchor="middle">116.9KB</text>
<text x="296.3" y="197.5" fill="#ffa657" font-family="monospace" font-size="8px" text-anchor="middle">114.7KB</text>
<text x="296.3" y="215.5" fill="#388bfd" font-family="monospace" font-size="8px" text-anchor="middle">113.8KB</text>
<text x="296.3" y="233.5" fill="#56d364" font-family="monospace" font-size="8px" text-anchor="middle">106.2KB</text>
<text x="296.3" y="251.5" fill="#238636" font-family="monospace" font-size="8px" text-anchor="middle">105.0KB</text>
<text x="409.5" y="188.4" fill="#2ea043" font-family="monospace" font-size="8px" text-anchor="middle">108.1KB</text>
<text x="409.5" y="212.8" fill="#58a6ff" font-family="monospace" font-size="8px" text-anchor="middle">103.5KB</text>
<text x="409.5" y="230.8" fill="#3fb950" font-family="monospace" font-size="8px" text-anchor="middle">102.5KB</text>
<text x="409.5" y="248.8" fill="#ffa657" font-family="monospace" font-size="8px" text-anchor="middle">98.3KB</text>
<text x="409.5" y="266.8" fill="#f78166" font-family="monospace" font-size="8px" text-anchor="middle">97.3KB</text>
<text x="409.5" y="284.8" fill="#388bfd" font-family="monospace" font-size="8px" text-anchor="middle">97.2KB</text>
<text x="409.5" y="302.8" fill="#1f6feb" font-family="monospace" font-size="8px" text-anchor="middle">96.7KB</text>
<text x="409.5" y="320.8" fill="#238636" font-family="monospace" font-size="8px" text-anchor="middle">91.7KB</text>
<text x="409.5" y="338.8" fill="#56d364" font-family="monospace" font-size="8px" text-anchor="middle">89.8KB</text>
<text x="522.7" y="176.8" fill="#2ea043" font-family="monospace" font-size="8px" text-anchor="middle">110.4KB</text>
<text x="522.7" y="194.8" fill="#58a6ff" font-family="monospace" font-size="8px" text-anchor="middle">107.0KB</text>
<text x="522.7" y="222.3" fill="#3fb950" font-family="monospace" font-size="8px" text-anchor="middle">101.7KB</text>
<text x="522.7" y="240.3" fill="#ffa657" font-family="monospace" font-size="8px" text-anchor="middle">99.7KB</text>
<text x="522.7" y="258.3" fill="#388bfd" font-family="monospace" font-size="8px" text-anchor="middle">99.4KB</text>
<text x="522.7" y="276.3" fill="#1f6feb" font-family="monospace" font-size="8px" text-anchor="middle">96.9KB</text>
<text x="522.7" y="294.3" fill="#f78166" font-family="monospace" font-size="8px" text-anchor="middle">96.3KB</text>
<text x="522.7" y="312.3" fill="#238636" font-family="monospace" font-size="8px" text-anchor="middle">91.5KB</text>
<text x="522.7" y="330.3" fill="#56d364" font-family="monospace" font-size="8px" text-anchor="middle">91.4KB</text>
<text x="635.9" y="176.2" fill="#2ea043" font-family="monospace" font-size="8px" text-anchor="middle">110.5KB</text>
<text x="635.9" y="194.2" fill="#58a6ff" font-family="monospace" font-size="8px" text-anchor="middle">107.3KB</text>
<text x="635.9" y="220.8" fill="#3fb950" font-family="monospace" font-size="8px" text-anchor="middle">102.0KB</text>
<text x="635.9" y="238.8" fill="#ffa657" font-family="monospace" font-size="8px" text-anchor="middle">99.7KB</text>
<text x="635.9" y="256.8" fill="#388bfd" font-family="monospace" font-size="8px" text-anchor="middle">99.5KB</text>
<text x="635.9" y="274.8" fill="#1f6feb" font-family="monospace" font-size="8px" text-anchor="middle">97.2KB</text>
<text x="635.9" y="292.8" fill="#f78166" font-family="monospace" font-size="8px" text-anchor="middle">96.5KB</text>
<text x="635.9" y="310.8" fill="#238636" font-family="monospace" font-size="8px" text-anchor="middle">91.8KB</text>
<text x="635.9" y="328.8" fill="#56d364" font-family="monospace" font-size="8px" text-anchor="middle">91.2KB</text>
<text x="650.0" y="202.8" fill="#2ea043" font-family="monospace" font-size="8px" text-anchor="middle">110.4KB</text>
<text x="650.0" y="346.8" fill="#58a6ff" font-family="monospace" font-size="8px" text-anchor="middle">107.0KB</text>
<text x="650.0" y="364.8" fill="#3fb950" font-family="monospace" font-size="8px" text-anchor="middle">101.6KB</text>
<text x="650.0" y="382.8" fill="#ffa657" font-family="monospace" font-size="8px" text-anchor="middle">99.7KB</text>
<text x="650.0" y="400.8" fill="#388bfd" font-family="monospace" font-size="8px" text-anchor="middle">99.4KB</text>
<text x="650.0" y="418.8" fill="#1f6feb" font-family="monospace" font-size="8px" text-anchor="middle">96.9KB</text>
<text x="650.0" y="436.8" fill="#f78166" font-family="monospace" font-size="8px" text-anchor="middle">96.3KB</text>
<text x="650.0" y="454.8" fill="#238636" font-family="monospace" font-size="8px" text-anchor="middle">91.5KB</text>
<text x="650.0" y="472.8" fill="#56d364" font-family="monospace" font-size="8px" text-anchor="middle">91.4KB</text>
<rect x="665" y="44" width="12" height="12" fill="#58a6ff"/>
<text x="683" y="54" class="legend">Win i386</text>
<rect x="665" y="62" width="12" height="12" fill="#1f6feb"/>
<text x="683" y="72" class="legend">Win x64</text>
<rect x="665" y="80" width="12" height="12" fill="#388bfd"/>
<text x="683" y="90" class="legend">Win ARM64</text>
<rect x="665" y="98" width="12" height="12" fill="#3fb950"/>
<text x="683" y="108" class="legend">Linux i386</text>
<rect x="665" y="116" width="12" height="12" fill="#238636"/>
<text x="683" y="126" class="legend">Linux x64</text>
<rect x="665" y="134" width="12" height="12" fill="#2ea043"/>
<text x="683" y="144" class="legend">Linux ARM</text>
<rect x="665" y="152" width="12" height="12" fill="#56d364"/>
<text x="683" y="162" class="legend">Linux ARM64</text>
<rect x="665" y="170" width="12" height="12" fill="#f78166"/>
<text x="683" y="180" class="legend">UEFI x64</text>
<rect x="665" y="188" width="12" height="12" fill="#ffa657"/>
<text x="683" y="198" class="legend">UEFI ARM64</text>
</svg>