<svg xmlns="http://www.w3.org/2000/svg" width="800" height="400">
<defs>
<style>
.axis-text { fill: #8b949e; font-family: monospace; font-size: 11px; }
.title { fill: #c9d1d9; font-family: monospace; font-size: 14px; font-weight: bold; }
.legend { fill: #8b949e; font-family: monospace; font-size: 10px; }
.grid { stroke: #21262d; stroke-width: 1; }
</style>
</defs>
<rect width="800" height="400" fill="#0d1117"/>
<text x="400.0" y="25" class="title" text-anchor="middle">Binary Size Trend (.bin)</text>
<line x1="70" y1="40.0" x2="650" y2="40.0" class="grid"/>
<text x="60" y="44.0" class="axis-text" text-anchor="end">138KB</text>
<line x1="70" y1="100.0" x2="650" y2="100.0" class="grid"/>
<text x="60" y="104.0" class="axis-text" text-anchor="end">123KB</text>
<line x1="70" y1="160.0" x2="650" y2="160.0" class="grid"/>
<text x="60" y="164.0" class="axis-text" text-anchor="end">108KB</text>
<line x1="70" y1="220.0" x2="650" y2="220.0" class="grid"/>
<text x="60" y="224.0" class="axis-text" text-anchor="end">93KB</text>
<line x1="70" y1="280.0" x2="650" y2="280.0" class="grid"/>
<text x="60" y="284.0" class="axis-text" text-anchor="end">78KB</text>
<line x1="70" y1="340.0" x2="650" y2="340.0" class="grid"/>
<text x="60" y="344.0" class="axis-text" text-anchor="end">63KB</text>
<text x="70.0" y="360" class="axis-text" text-anchor="middle">02-05</text>
<text x="164.69387755102042" y="360" class="axis-text" text-anchor="middle">02-05</text>
<text x="259.38775510204084" y="360" class="axis-text" text-anchor="middle">02-10</text>
<text x="354.0816326530612" y="360" class="axis-text" text-anchor="middle">02-23</text>
<text x="448.7755102040816" y="360" class="axis-text" text-anchor="middle">02-24</text>
<text x="543.469387755102" y="360" class="axis-text" text-anchor="middle">02-24</text>
<text x="638.1632653061224" y="360" class="axis-text" text-anchor="middle">02-26</text>
<path d="M 70.0 129.2 L 81.8 130.1 L 93.7 129.2 L 105.5 116.2 L 117.3 128.6 L 129.2 129.2 L 141.0 120.0 L 152.9 128.7 L 164.7 128.4 L 176.5 124.4 L 188.4 124.4 L 200.2 124.4 L 212.0 124.4 L 223.9 124.4 L 235.7 124.6 L 247.6 124.6 L 259.4 178.5 L 271.2 178.5 L 283.1 177.8 L 294.9 177.8 L 306.7 177.8 L 318.6 167.2 L 330.4 163.9 L 342.2 163.9 L 354.1 164.4 L 365.9 164.9 L 377.8 163.7 L 389.6 163.7 L 401.4 163.0 L 413.3 161.7 L 425.1 174.8 L 436.9 163.0 L 448.8 163.7 L 460.6 174.8 L 472.4 162.9 L 484.3 163.7 L 496.1 163.9 L 508.0 163.9 L 519.8 163.7 L 531.6 162.4 L 543.5 163.6 L 555.3 163.3 L 567.1 174.0 L 579.0 163.0 L 590.8 163.9 L 602.7 174.7 L 614.5 174.7 L 626.3 174.7 L 638.2 240.8 L 650.0 188.2" fill="none" stroke="#58a6ff" stroke-width="2" opacity="0.8"/>
<circle cx="70.0" cy="129.2" r="3" fill="#58a6ff"/>
<circle cx="188.4" cy="124.4" r="3" fill="#58a6ff"/>
<circle cx="306.7" cy="177.8" r="3" fill="#58a6ff"/>
<circle cx="425.1" cy="174.8" r="3" fill="#58a6ff"/>
<circle cx="543.5" cy="163.6" r="3" fill="#58a6ff"/>
<circle cx="650.0" cy="188.2" r="4" fill="#58a6ff"/>
<path d="M 70.0 129.5 L 81.8 130.4 L 93.7 129.5 L 105.5 116.3 L 117.3 128.7 L 129.2 129.5 L 141.0 119.3 L 152.9 128.7 L 164.7 129.3 L 176.5 124.4 L 188.4 124.4 L 200.2 124.4 L 212.0 124.4 L 223.9 124.4 L 235.7 124.6 L 247.6 124.6 L 259.4 205.7 L 271.2 205.7 L 283.1 204.8 L 294.9 204.8 L 306.7 204.8 L 318.6 206.4 L 330.4 204.2 L 342.2 204.2 L 354.1 204.5 L 365.9 205.8 L 377.8 204.2 L 389.6 204.2 L 401.4 202.9 L 413.3 202.5 L 425.1 205.4 L 436.9 202.9 L 448.8 204.2 L 460.6 205.5 L 472.4 203.1 L 484.3 204.2 L 496.1 204.2 L 508.0 204.4 L 519.8 204.2 L 531.6 202.8 L 543.5 203.7 L 555.3 203.4 L 567.1 204.5 L 579.0 202.9 L 590.8 204.2 L 602.7 205.4 L 614.5 205.4 L 626.3 205.4 L 638.2 254.3 L 650.0 206.3" fill="none" stroke="#1f6feb" stroke-width="2" opacity="0.8"/>
<circle cx="70.0" cy="129.5" r="3" fill="#1f6feb"/>
<circle cx="188.4" cy="124.4" r="3" fill="#1f6feb"/>
<circle cx="306.7" cy="204.8" r="3" fill="#1f6feb"/>
<circle cx="425.1" cy="205.4" r="3" fill="#1f6feb"/>
<circle cx="543.5" cy="203.7" r="3" fill="#1f6feb"/>
<circle cx="650.0" cy="206.3" r="4" fill="#1f6feb"/>
<path d="M 70.0 141.3 L 81.8 142.2 L 93.7 141.3 L 105.5 127.4 L 117.3 140.7 L 129.2 141.3 L 141.0 130.3 L 152.9 140.7 L 164.7 140.8 L 176.5 136.7 L 188.4 136.7 L 200.2 136.7 L 212.0 136.7 L 223.9 136.7 L 235.7 136.9 L 247.6 136.9 L 259.4 203.5 L 271.2 203.5 L 283.1 202.8 L 294.9 202.8 L 306.7 202.8 L 318.6 195.2 L 330.4 194.2 L 342.2 194.2 L 354.1 194.4 L 365.9 196.4 L 377.8 194.2 L 389.6 194.2 L 401.4 189.8 L 413.3 193.2 L 425.1 201.7 L 436.9 189.8 L 448.8 194.2 L 460.6 201.7 L 472.4 195.1 L 484.3 194.2 L 496.1 194.2 L 508.0 194.5 L 519.8 194.2 L 531.6 193.8 L 543.5 190.4 L 555.3 195.3 L 567.1 200.6 L 579.0 189.8 L 590.8 194.2 L 602.7 201.7 L 614.5 201.7 L 626.3 201.7 L 638.2 264.6 L 650.0 208.5" fill="none" stroke="#388bfd" stroke-width="2" opacity="0.8"/>
<circle cx="70.0" cy="141.3" r="3" fill="#388bfd"/>
<circle cx="188.4" cy="136.7" r="3" fill="#388bfd"/>
<circle cx="306.7" cy="202.8" r="3" fill="#388bfd"/>
<circle cx="425.1" cy="201.7" r="3" fill="#388bfd"/>
<circle cx="543.5" cy="190.4" r="3" fill="#388bfd"/>
<circle cx="650.0" cy="208.5" r="4" fill="#388bfd"/>
<path d="M 70.0 116.7 L 81.8 117.1 L 93.7 116.7 L 105.5 104.1 L 117.3 115.5 L 129.2 116.7 L 141.0 106.7 L 152.9 115.5 L 164.7 115.5 L 176.5 111.2 L 188.4 111.2 L 200.2 111.2 L 212.0 111.2 L 223.9 111.2 L 235.7 111.2 L 247.6 111.2 L 259.4 182.7 L 271.2 182.7 L 283.1 181.7 L 294.9 181.7 L 306.7 181.7 L 318.6 185.2 L 330.4 185.2 L 342.2 185.2 L 354.1 185.2 L 365.9 186.7 L 377.8 185.0 L 389.6 185.0 L 401.4 184.4 L 413.3 183.1 L 425.1 184.1 L 436.9 184.4 L 448.8 185.0 L 460.6 184.0 L 472.4 184.7 L 484.3 185.0 L 496.1 185.2 L 508.0 185.3 L 519.8 185.0 L 531.6 183.9 L 543.5 185.1 L 555.3 184.9 L 567.1 183.2 L 579.0 184.4 L 590.8 185.2 L 602.7 184.0 L 614.5 184.0 L 626.3 184.0 L 638.2 226.8 L 650.0 120.8" fill="none" stroke="#3fb950" stroke-width="2" opacity="0.8"/>
<circle cx="70.0" cy="116.7" r="3" fill="#3fb950"/>
<circle cx="188.4" cy="111.2" r="3" fill="#3fb950"/>
<circle cx="306.7" cy="181.7" r="3" fill="#3fb950"/>
<circle cx="425.1" cy="184.1" r="3" fill="#3fb950"/>
<circle cx="543.5" cy="185.1" r="3" fill="#3fb950"/>
<circle cx="650.0" cy="120.8" r="4" fill="#3fb950"/>
<path d="M 70.0 176.3 L 81.8 176.1 L 93.7 176.3 L 105.5 162.7 L 117.3 175.1 L 129.2 176.3 L 141.0 165.9 L 152.9 175.1 L 164.7 174.8 L 176.5 171.7 L 188.4 171.7 L 200.2 171.7 L 212.0 171.7 L 223.9 171.7 L 235.7 171.7 L 247.6 171.7 L 259.4 225.9 L 271.2 225.9 L 283.1 224.8 L 294.9 224.8 L 306.7 224.8 L 318.6 225.7 L 330.4 225.7 L 342.2 225.7 L 354.1 225.7 L 365.9 227.1 L 377.8 225.7 L 389.6 225.7 L 401.4 225.6 L 413.3 223.8 L 425.1 228.2 L 436.9 225.6 L 448.8 225.7 L 460.6 228.1 L 472.4 225.8 L 484.3 225.7 L 496.1 225.7 L 508.0 225.9 L 519.8 225.7 L 531.6 224.4 L 543.5 226.6 L 555.3 226.1 L 567.1 227.4 L 579.0 225.6 L 590.8 225.7 L 602.7 227.9 L 614.5 227.9 L 626.3 227.9 L 638.2 251.7 L 650.0 157.7" fill="none" stroke="#238636" stroke-width="2" opacity="0.8"/>
<circle cx="70.0" cy="176.3" r="3" fill="#238636"/>
<circle cx="188.4" cy="171.7" r="3" fill="#238636"/>
<circle cx="306.7" cy="224.8" r="3" fill="#238636"/>
<circle cx="425.1" cy="228.2" r="3" fill="#238636"/>
<circle cx="543.5" cy="226.6" r="3" fill="#238636"/>
<circle cx="650.0" cy="157.7" r="4" fill="#238636"/>
<path d="M 70.0 103.0 L 81.8 103.3 L 93.7 103.0 L 105.5 90.0 L 117.3 101.8 L 129.2 103.0 L 141.0 94.0 L 152.9 101.8 L 164.7 101.8 L 176.5 97.4 L 188.4 97.4 L 200.2 97.4 L 212.0 97.4 L 223.9 97.4 L 235.7 97.4 L 247.6 97.4 L 259.4 159.9 L 271.2 159.9 L 283.1 159.2 L 294.9 159.2 L 306.7 159.2 L 318.6 150.3 L 330.4 150.3 L 342.2 150.3 L 354.1 150.3 L 365.9 152.2 L 377.8 150.3 L 389.6 150.3 L 401.4 151.6 L 413.3 149.5 L 425.1 166.9 L 436.9 151.6 L 448.8 150.3 L 460.6 166.9 L 472.4 151.7 L 484.3 150.3 L 496.1 150.3 L 508.0 150.6 L 519.8 150.3 L 531.6 149.9 L 543.5 152.9 L 555.3 151.9 L 567.1 165.3 L 579.0 151.6 L 590.8 150.3 L 602.7 166.8 L 614.5 166.8 L 626.3 166.8 L 638.2 208.9 L 650.0 113.4" fill="none" stroke="#2ea043" stroke-width="2" opacity="0.8"/>
<circle cx="70.0" cy="103.0" r="3" fill="#2ea043"/>
<circle cx="188.4" cy="97.4" r="3" fill="#2ea043"/>
<circle cx="306.7" cy="159.2" r="3" fill="#2ea043"/>
<circle cx="425.1" cy="166.9" r="3" fill="#2ea043"/>
<circle cx="543.5" cy="152.9" r="3" fill="#2ea043"/>
<circle cx="650.0" cy="113.4" r="4" fill="#2ea043"/>
<path d="M 70.0 172.2 L 81.8 172.4 L 93.7 172.2 L 105.5 159.2 L 117.3 170.7 L 129.2 172.2 L 141.0 161.9 L 152.9 170.7 L 164.7 171.0 L 176.5 166.8 L 188.4 166.8 L 200.2 166.8 L 212.0 166.8 L 223.9 166.8 L 235.7 166.8 L 247.6 166.8 L 259.4 232.9 L 271.2 232.9 L 283.1 232.3 L 294.9 232.3 L 306.7 232.3 L 318.6 226.0 L 330.4 226.0 L 342.2 226.0 L 354.1 226.0 L 365.9 228.4 L 377.8 226.0 L 389.6 226.0 L 401.4 224.8 L 413.3 226.2 L 425.1 236.6 L 436.9 224.8 L 448.8 226.0 L 460.6 236.6 L 472.4 228.0 L 484.3 226.0 L 496.1 226.0 L 508.0 226.3 L 519.8 226.0 L 531.6 226.6 L 543.5 225.8 L 555.3 228.2 L 567.1 235.2 L 579.0 224.8 L 590.8 226.0 L 602.7 236.5 L 614.5 236.5 L 626.3 236.5 L 638.2 311.6 L 650.0 237.8" fill="none" stroke="#56d364" stroke-width="2" opacity="0.8"/>
<circle cx="70.0" cy="172.2" r="3" fill="#56d364"/>
<circle cx="188.4" cy="166.8" r="3" fill="#56d364"/>
<circle cx="306.7" cy="232.3" r="3" fill="#56d364"/>
<circle cx="425.1" cy="236.6" r="3" fill="#56d364"/>
<circle cx="543.5" cy="225.8" r="3" fill="#56d364"/>
<circle cx="650.0" cy="237.8" r="4" fill="#56d364"/>
<path d="M 638.2 249.4 L 650.0 155.2" fill="none" stroke="#bc8cff" stroke-width="2" opacity="0.8"/>
<circle cx="638.2" cy="249.4" r="3" fill="#bc8cff"/>
<circle cx="650.0" cy="155.2" r="4" fill="#bc8cff"/>
<path d="M 638.2 312.2 L 650.0 245.4" fill="none" stroke="#d2a8ff" stroke-width="2" opacity="0.8"/>
<circle cx="638.2" cy="312.2" r="3" fill="#d2a8ff"/>
<circle cx="650.0" cy="245.4" r="4" fill="#d2a8ff"/>
<path d="M 70.0 127.7 L 81.8 128.6 L 93.7 127.7 L 105.5 114.8 L 117.3 126.8 L 129.2 127.7 L 141.0 117.7 L 152.9 126.9 L 164.7 127.5 L 176.5 122.8 L 188.4 122.8 L 200.2 122.8 L 212.0 122.8 L 223.9 122.8 L 235.7 122.8 L 247.6 122.8 L 259.4 203.5 L 271.2 203.5 L 283.1 202.5 L 294.9 202.5 L 306.7 202.5 L 318.6 206.5 L 330.4 206.5 L 342.2 206.5 L 354.1 206.5 L 365.9 208.1 L 377.8 206.5 L 389.6 206.5 L 401.4 206.4 L 413.3 205.1 L 425.1 205.8 L 436.9 206.4 L 448.8 206.5 L 460.6 205.9 L 472.4 206.6 L 484.3 206.5 L 496.1 206.5 L 508.0 206.8 L 519.8 206.5 L 531.6 205.6 L 543.5 207.2 L 555.3 206.9 L 567.1 204.8 L 579.0 206.4 L 590.8 206.5 L 602.7 205.8 L 614.5 205.8 L 626.3 205.8 L 638.2 259.3 L 650.0 210.3" fill="none" stroke="#f78166" stroke-width="2" opacity="0.8"/>
<circle cx="70.0" cy="127.7" r="3" fill="#f78166"/>
<circle cx="188.4" cy="122.8" r="3" fill="#f78166"/>
<circle cx="306.7" cy="202.5" r="3" fill="#f78166"/>
<circle cx="425.1" cy="205.8" r="3" fill="#f78166"/>
<circle cx="543.5" cy="207.2" r="3" fill="#f78166"/>
<circle cx="650.0" cy="210.3" r="4" fill="#f78166"/>
<path d="M 70.0 137.5 L 81.8 138.4 L 93.7 137.5 L 105.5 123.5 L 117.3 136.9 L 129.2 137.5 L 141.0 126.4 L 152.9 136.9 L 164.7 137.0 L 176.5 132.9 L 188.4 132.9 L 200.2 132.9 L 212.0 132.9 L 223.9 132.9 L 235.7 132.9 L 247.6 132.9 L 259.4 199.0 L 271.2 199.0 L 283.1 198.4 L 294.9 198.4 L 306.7 198.4 L 318.6 193.0 L 330.4 193.0 L 342.2 193.0 L 354.1 193.0 L 365.9 195.2 L 377.8 193.0 L 389.6 193.0 L 401.4 188.8 L 413.3 192.3 L 425.1 200.2 L 436.9 188.8 L 448.8 193.0 L 460.6 200.2 L 472.4 194.2 L 484.3 193.0 L 496.1 193.0 L 508.0 193.3 L 519.8 193.0 L 531.6 192.9 L 543.5 189.6 L 555.3 194.2 L 567.1 199.1 L 579.0 188.8 L 590.8 193.0 L 602.7 200.1 L 614.5 200.1 L 626.3 200.1 L 638.2 267.8 L 650.0 211.7" fill="none" stroke="#ffa657" stroke-width="2" opacity="0.8"/>
<circle cx="70.0" cy="137.5" r="3" fill="#ffa657"/>
<circle cx="188.4" cy="132.9" r="3" fill="#ffa657"/>
<circle cx="306.7" cy="198.4" r="3" fill="#ffa657"/>
<circle cx="425.1" cy="200.2" r="3" fill="#ffa657"/>
<circle cx="543.5" cy="189.6" r="3" fill="#ffa657"/>
<circle cx="650.0" cy="211.7" r="4" fill="#ffa657"/>
<text x="70.0" y="95.0" fill="#2ea043" font-family="monospace" font-size="8px" text-anchor="middle">122.2KB</text>
<text x="70.0" y="113.0" fill="#3fb950" font-family="monospace" font-size="8px" text-anchor="middle">118.8KB</text>
<text x="70.0" y="131.0" fill="#f78166" font-family="monospace" font-size="8px" text-anchor="middle">116.0KB</text>
<text x="70.0" y="149.0" fill="#58a6ff" font-family="monospace" font-size="8px" text-anchor="middle">115.7KB</text>
<text x="70.0" y="167.0" fill="#1f6feb" font-family="monospace" font-size="8px" text-anchor="middle">115.6KB</text>
<text x="70.0" y="185.0" fill="#ffa657" font-family="monospace" font-size="8px" text-anchor="middle">113.6KB</text>
<text x="70.0" y="203.0" fill="#388bfd" font-family="monospace" font-size="8px" text-anchor="middle">112.6KB</text>
<text x="70.0" y="221.0" fill="#56d364" font-family="monospace" font-size="8px" text-anchor="middle">104.9KB</text>
<text x="70.0" y="239.0" fill="#238636" font-family="monospace" font-size="8px" text-anchor="middle">103.9KB</text>
<text x="188.4" y="89.4" fill="#2ea043" font-family="monospace" font-size="8px" text-anchor="middle">123.7KB</text>
<text x="188.4" y="107.4" fill="#3fb950" font-family="monospace" font-size="8px" text-anchor="middle">120.2KB</text>
<text x="188.4" y="125.4" fill="#f78166" font-family="monospace" font-size="8px" text-anchor="middle">117.3KB</text>
<text x="188.4" y="143.4" fill="#1f6feb" font-family="monospace" font-size="8px" text-anchor="middle">116.9KB</text>
<text x="188.4" y="161.4" fill="#58a6ff" font-family="monospace" font-size="8px" text-anchor="middle">116.9KB</text>
<text x="188.4" y="179.4" fill="#ffa657" font-family="monospace" font-size="8px" text-anchor="middle">114.7KB</text>
<text x="188.4" y="197.4" fill="#388bfd" font-family="monospace" font-size="8px" text-anchor="middle">113.8KB</text>
<text x="188.4" y="215.4" fill="#56d364" font-family="monospace" font-size="8px" text-anchor="middle">106.2KB</text>
<text x="188.4" y="233.4" fill="#238636" font-family="monospace" font-size="8px" text-anchor="middle">105.0KB</text>
<text x="306.7" y="151.2" fill="#2ea043" font-family="monospace" font-size="8px" text-anchor="middle">108.1KB</text>
<text x="306.7" y="169.8" fill="#58a6ff" font-family="monospace" font-size="8px" text-anchor="middle">103.5KB</text>
<text x="306.7" y="187.8" fill="#3fb950" font-family="monospace" font-size="8px" text-anchor="middle">102.5KB</text>
<text x="306.7" y="205.8" fill="#ffa657" font-family="monospace" font-size="8px" text-anchor="middle">98.3KB</text>
<text x="306.7" y="223.8" fill="#f78166" font-family="monospace" font-size="8px" text-anchor="middle">97.3KB</text>
<text x="306.7" y="241.8" fill="#388bfd" font-family="monospace" font-size="8px" text-anchor="middle">97.2KB</text>
<text x="306.7" y="259.8" fill="#1f6feb" font-family="monospace" font-size="8px" text-anchor="middle">96.7KB</text>
<text x="306.7" y="277.8" fill="#238636" font-family="monospace" font-size="8px" text-anchor="middle">91.7KB</text>
<text x="306.7" y="295.8" fill="#56d364" font-family="monospace" font-size="8px" text-anchor="middle">89.8KB</text>
<text x="425.1" y="158.9" fill="#2ea043" font-family="monospace" font-size="8px" text-anchor="middle">106.2KB</text>
<text x="425.1" y="176.9" fill="#58a6ff" font-family="monospace" font-size="8px" text-anchor="middle">104.2KB</text>
<text x="425.1" y="194.9" fill="#3fb950" font-family="monospace" font-size="8px" text-anchor="middle">101.9KB</text>
<text x="425.1" y="212.9" fill="#ffa657" font-family="monospace" font-size="8px" text-anchor="middle">97.9KB</text>
<text x="425.1" y="230.9" fill="#388bfd" font-family="monospace" font-size="8px" text-anchor="middle">97.5KB</text>
<text x="425.1" y="248.9" fill="#1f6feb" font-family="monospace" font-size="8px" text-anchor="middle">96.5KB</text>
<text x="425.1" y="266.9" fill="#f78166" font-family="monospace" font-size="8px" text-anchor="middle">96.4KB</text>
<text x="425.1" y="284.9" fill="#238636" font-family="monospace" font-size="8px" text-anchor="middle">90.8KB</text>
<text x="425.1" y="302.9" fill="#56d364" font-family="monospace" font-size="8px" text-anchor="middle">88.7KB</text>
<text x="543.5" y="144.9" fill="#2ea043" font-family="monospace" font-size="8px" text-anchor="middle">109.7KB</text>
<text x="543.5" y="162.9" fill="#58a6ff" font-family="monospace" font-size="8px" text-anchor="middle">107.0KB</text>
<text x="543.5" y="180.9" fill="#3fb950" font-family="monospace" font-size="8px" text-anchor="middle">101.6KB</text>
<text x="543.5" y="198.9" fill="#ffa657" font-family="monospace" font-size="8px" text-anchor="middle">100.5KB</text>
<text x="543.5" y="216.9" fill="#388bfd" font-family="monospace" font-size="8px" text-anchor="middle">100.3KB</text>
<text x="543.5" y="234.9" fill="#1f6feb" font-family="monospace" font-size="8px" text-anchor="middle">97.0KB</text>
<text x="543.5" y="252.9" fill="#f78166" font-family="monospace" font-size="8px" text-anchor="middle">96.1KB</text>
<text x="543.5" y="270.9" fill="#56d364" font-family="monospace" font-size="8px" text-anchor="middle">91.4KB</text>
<text x="543.5" y="288.9" fill="#238636" font-family="monospace" font-size="8px" text-anchor="middle">91.2KB</text>
<text x="638.2" y="241.4" fill="#bc8cff" font-family="monospace" font-size="8px" text-anchor="middle">85.5KB</text>
<text x="638.2" y="304.2" fill="#d2a8ff" font-family="monospace" font-size="8px" text-anchor="middle">69.8KB</text>
<text x="650.0" y="105.4" fill="#2ea043" font-family="monospace" font-size="8px" text-anchor="middle">119.6KB</text>
<text x="650.0" y="123.4" fill="#3fb950" font-family="monospace" font-size="8px" text-anchor="middle">117.8KB</text>
<text x="650.0" y="147.2" fill="#bc8cff" font-family="monospace" font-size="8px" text-anchor="middle">109.1KB</text>
<text x="650.0" y="165.2" fill="#238636" font-family="monospace" font-size="8px" text-anchor="middle">108.5KB</text>
<text x="650.0" y="183.2" fill="#58a6ff" font-family="monospace" font-size="8px" text-anchor="middle">100.9KB</text>
<text x="650.0" y="201.2" fill="#1f6feb" font-family="monospace" font-size="8px" text-anchor="middle">96.3KB</text>
<text x="650.0" y="219.2" fill="#388bfd" font-family="monospace" font-size="8px" text-anchor="middle">95.8KB</text>
<text x="650.0" y="237.2" fill="#f78166" font-family="monospace" font-size="8px" text-anchor="middle">95.3KB</text>
<text x="650.0" y="259.4" fill="#ffa657" font-family="monospace" font-size="8px" text-anchor="middle">95.0KB</text>
<text x="650.0" y="277.4" fill="#56d364" font-family="monospace" font-size="8px" text-anchor="middle">88.4KB</text>
<text x="650.0" y="295.4" fill="#d2a8ff" font-family="monospace" font-size="8px" text-anchor="middle">86.5KB</text>
<rect x="665" y="44" width="12" height="12" fill="#58a6ff"/>
<text x="683" y="54" class="legend">Win i386</text>
<rect x="665" y="62" width="12" height="12" fill="#1f6feb"/>
<text x="683" y="72" class="legend">Win x64</text>
<rect x="665" y="80" width="12" height="12" fill="#388bfd"/>
<text x="683" y="90" class="legend">Win ARM64</text>
<rect x="665" y="98" width="12" height="12" fill="#3fb950"/>
<text x="683" y="108" class="legend">Linux i386</text>
<rect x="665" y="116" width="12" height="12" fill="#238636"/>
<text x="683" y="126" class="legend">Linux x64</text>
<rect x="665" y="134" width="12" height="12" fill="#2ea043"/>
<text x="683" y="144" class="legend">Linux ARM</text>
<rect x="665" y="152" width="12" height="12" fill="#56d364"/>
<text x="683" y="162" class="legend">Linux ARM64</text>
<rect x="665" y="170" width="12" height="12" fill="#bc8cff"/>
<text x="683" y="180" class="legend">macOS x64</text>
<rect x="665" y="188" width="12" height="12" fill="#d2a8ff"/>
<text x="683" y="198" class="legend">macOS ARM64</text>
<rect x="665" y="206" width="12" height="12" fill="#f78166"/>
<text x="683" y="216" class="legend">UEFI x64</text>
<rect x="665" y="224" width="12" height="12" fill="#ffa657"/>
<text x="683" y="234" class="legend">UEFI ARM64</text>
</svg>