<svg xmlns="http://www.w3.org/2000/svg" width="800" height="400">
<defs>
<style>
.axis-text { fill: #8b949e; font-family: monospace; font-size: 11px; }
.title { fill: #c9d1d9; font-family: monospace; font-size: 14px; font-weight: bold; }
.legend { fill: #8b949e; font-family: monospace; font-size: 10px; }
.grid { stroke: #21262d; stroke-width: 1; }
</style>
</defs>
<rect width="800" height="400" fill="#0d1117"/>
<text x="400.0" y="25" class="title" text-anchor="middle">Binary Size Trend (.bin)</text>
<line x1="70" y1="40.0" x2="650" y2="40.0" class="grid"/>
<text x="60" y="44.0" class="axis-text" text-anchor="end">138KB</text>
<line x1="70" y1="100.0" x2="650" y2="100.0" class="grid"/>
<text x="60" y="104.0" class="axis-text" text-anchor="end">127KB</text>
<line x1="70" y1="160.0" x2="650" y2="160.0" class="grid"/>
<text x="60" y="164.0" class="axis-text" text-anchor="end">115KB</text>
<line x1="70" y1="220.0" x2="650" y2="220.0" class="grid"/>
<text x="60" y="224.0" class="axis-text" text-anchor="end">104KB</text>
<line x1="70" y1="280.0" x2="650" y2="280.0" class="grid"/>
<text x="60" y="284.0" class="axis-text" text-anchor="end">92KB</text>
<line x1="70" y1="340.0" x2="650" y2="340.0" class="grid"/>
<text x="60" y="344.0" class="axis-text" text-anchor="end">81KB</text>
<text x="70.0" y="360" class="axis-text" text-anchor="middle">02-05</text>
<text x="170.0" y="360" class="axis-text" text-anchor="middle">02-05</text>
<text x="270.0" y="360" class="axis-text" text-anchor="middle">02-05</text>
<text x="370.0" y="360" class="axis-text" text-anchor="middle">02-06</text>
<text x="470.0" y="360" class="axis-text" text-anchor="middle">02-09</text>
<text x="570.0" y="360" class="axis-text" text-anchor="middle">02-12</text>
<path d="M 70.0 156.4 L 90.0 157.0 L 110.0 158.2 L 130.0 156.3 L 150.0 156.4 L 170.0 157.1 L 190.0 158.2 L 210.0 157.1 L 230.0 140.0 L 250.0 156.3 L 270.0 157.1 L 290.0 144.9 L 310.0 156.4 L 330.0 156.0 L 350.0 150.7 L 370.0 150.7 L 390.0 150.7 L 410.0 150.7 L 430.0 150.7 L 450.0 151.0 L 470.0 151.0 L 490.0 221.7 L 510.0 221.7 L 530.0 220.8 L 550.0 220.8 L 570.0 220.8 L 590.0 207.0 L 610.0 202.6 L 630.0 202.6 L 650.0 203.2" fill="none" stroke="#58a6ff" stroke-width="2" opacity="0.8"/>
<circle cx="70.0" cy="156.4" r="3" fill="#58a6ff"/>
<circle cx="190.0" cy="158.2" r="3" fill="#58a6ff"/>
<circle cx="310.0" cy="156.4" r="3" fill="#58a6ff"/>
<circle cx="430.0" cy="150.7" r="3" fill="#58a6ff"/>
<circle cx="550.0" cy="220.8" r="3" fill="#58a6ff"/>
<circle cx="650.0" cy="203.2" r="4" fill="#58a6ff"/>
<path d="M 70.0 156.4 L 90.0 157.4 L 110.0 158.6 L 130.0 156.4 L 150.0 156.4 L 170.0 157.5 L 190.0 158.6 L 210.0 157.5 L 230.0 140.2 L 250.0 156.4 L 270.0 157.5 L 290.0 144.0 L 310.0 156.4 L 330.0 157.2 L 350.0 150.7 L 370.0 150.7 L 390.0 150.7 L 410.0 150.7 L 430.0 150.7 L 450.0 151.0 L 470.0 151.0 L 490.0 257.4 L 510.0 257.4 L 530.0 256.2 L 550.0 256.2 L 570.0 256.2 L 590.0 258.3 L 610.0 255.4 L 630.0 255.4 L 650.0 255.9" fill="none" stroke="#1f6feb" stroke-width="2" opacity="0.8"/>
<circle cx="70.0" cy="156.4" r="3" fill="#1f6feb"/>
<circle cx="190.0" cy="158.6" r="3" fill="#1f6feb"/>
<circle cx="310.0" cy="156.4" r="3" fill="#1f6feb"/>
<circle cx="430.0" cy="150.7" r="3" fill="#1f6feb"/>
<circle cx="550.0" cy="256.2" r="3" fill="#1f6feb"/>
<circle cx="650.0" cy="255.9" r="4" fill="#1f6feb"/>
<path d="M 70.0 172.1 L 90.0 172.7 L 110.0 174.2 L 130.0 172.1 L 150.0 172.1 L 170.0 172.9 L 190.0 174.2 L 210.0 172.9 L 230.0 154.7 L 250.0 172.1 L 270.0 172.9 L 290.0 158.4 L 310.0 172.1 L 330.0 172.3 L 350.0 166.9 L 370.0 166.9 L 390.0 166.9 L 410.0 166.9 L 430.0 166.9 L 450.0 167.1 L 470.0 167.1 L 490.0 254.5 L 510.0 254.5 L 530.0 253.7 L 550.0 253.7 L 570.0 253.7 L 590.0 243.7 L 610.0 242.4 L 630.0 242.4 L 650.0 242.6" fill="none" stroke="#388bfd" stroke-width="2" opacity="0.8"/>
<circle cx="70.0" cy="172.1" r="3" fill="#388bfd"/>
<circle cx="190.0" cy="174.2" r="3" fill="#388bfd"/>
<circle cx="310.0" cy="172.1" r="3" fill="#388bfd"/>
<circle cx="430.0" cy="166.9" r="3" fill="#388bfd"/>
<circle cx="550.0" cy="253.7" r="3" fill="#388bfd"/>
<circle cx="650.0" cy="242.6" r="4" fill="#388bfd"/>
<path d="M 70.0 139.1 L 90.0 140.5 L 110.0 141.2 L 130.0 139.1 L 150.0 139.1 L 170.0 140.7 L 190.0 141.2 L 210.0 140.7 L 230.0 124.1 L 250.0 139.1 L 270.0 140.7 L 290.0 127.5 L 310.0 139.1 L 330.0 139.0 L 350.0 133.5 L 370.0 133.5 L 390.0 133.5 L 410.0 133.5 L 430.0 133.5 L 450.0 133.5 L 470.0 133.5 L 490.0 227.2 L 510.0 227.2 L 530.0 225.9 L 550.0 225.9 L 570.0 225.9 L 590.0 230.5 L 610.0 230.5 L 630.0 230.5 L 650.0 230.5" fill="none" stroke="#3fb950" stroke-width="2" opacity="0.8"/>
<circle cx="70.0" cy="139.1" r="3" fill="#3fb950"/>
<circle cx="190.0" cy="141.2" r="3" fill="#3fb950"/>
<circle cx="310.0" cy="139.1" r="3" fill="#3fb950"/>
<circle cx="430.0" cy="133.5" r="3" fill="#3fb950"/>
<circle cx="550.0" cy="225.9" r="3" fill="#3fb950"/>
<circle cx="650.0" cy="230.5" r="4" fill="#3fb950"/>
<path d="M 70.0 217.2 L 90.0 218.7 L 110.0 218.6 L 130.0 217.2 L 150.0 217.2 L 170.0 218.8 L 190.0 218.6 L 210.0 218.8 L 230.0 201.0 L 250.0 217.2 L 270.0 218.8 L 290.0 205.2 L 310.0 217.2 L 330.0 216.9 L 350.0 212.8 L 370.0 212.8 L 390.0 212.8 L 410.0 212.8 L 430.0 212.8 L 450.0 212.8 L 470.0 212.8 L 490.0 284.0 L 510.0 284.0 L 530.0 282.4 L 550.0 282.4 L 570.0 282.4 L 590.0 283.7 L 610.0 283.7 L 630.0 283.7 L 650.0 283.7" fill="none" stroke="#238636" stroke-width="2" opacity="0.8"/>
<circle cx="70.0" cy="217.2" r="3" fill="#238636"/>
<circle cx="190.0" cy="218.6" r="3" fill="#238636"/>
<circle cx="310.0" cy="217.2" r="3" fill="#238636"/>
<circle cx="430.0" cy="212.8" r="3" fill="#238636"/>
<circle cx="550.0" cy="282.4" r="3" fill="#238636"/>
<circle cx="650.0" cy="283.7" r="4" fill="#238636"/>
<path d="M 70.0 121.0 L 90.0 122.6 L 110.0 123.0 L 130.0 121.0 L 150.0 121.0 L 170.0 122.7 L 190.0 123.0 L 210.0 122.7 L 230.0 105.6 L 250.0 121.0 L 270.0 122.7 L 290.0 110.9 L 310.0 121.0 L 330.0 121.1 L 350.0 115.3 L 370.0 115.3 L 390.0 115.3 L 410.0 115.3 L 430.0 115.3 L 450.0 115.3 L 470.0 115.3 L 490.0 197.4 L 510.0 197.4 L 530.0 196.4 L 550.0 196.4 L 570.0 196.4 L 590.0 184.8 L 610.0 184.8 L 630.0 184.8 L 650.0 184.8" fill="none" stroke="#2ea043" stroke-width="2" opacity="0.8"/>
<circle cx="70.0" cy="121.0" r="3" fill="#2ea043"/>
<circle cx="190.0" cy="123.0" r="3" fill="#2ea043"/>
<circle cx="310.0" cy="121.0" r="3" fill="#2ea043"/>
<circle cx="430.0" cy="115.3" r="3" fill="#2ea043"/>
<circle cx="550.0" cy="196.4" r="3" fill="#2ea043"/>
<circle cx="650.0" cy="184.8" r="4" fill="#2ea043"/>
<path d="M 70.0 211.5 L 90.0 213.3 L 110.0 213.7 L 130.0 211.5 L 150.0 211.5 L 170.0 213.5 L 190.0 213.7 L 210.0 213.5 L 230.0 196.5 L 250.0 211.5 L 270.0 213.5 L 290.0 200.0 L 310.0 211.5 L 330.0 211.8 L 350.0 206.4 L 370.0 206.4 L 390.0 206.4 L 410.0 206.4 L 430.0 206.4 L 450.0 206.4 L 470.0 206.4 L 490.0 293.1 L 510.0 293.1 L 530.0 292.4 L 550.0 292.4 L 570.0 292.4 L 590.0 284.1 L 610.0 284.1 L 630.0 284.1 L 650.0 284.1" fill="none" stroke="#56d364" stroke-width="2" opacity="0.8"/>
<circle cx="70.0" cy="211.5" r="3" fill="#56d364"/>
<circle cx="190.0" cy="213.7" r="3" fill="#56d364"/>
<circle cx="310.0" cy="211.5" r="3" fill="#56d364"/>
<circle cx="430.0" cy="206.4" r="3" fill="#56d364"/>
<circle cx="550.0" cy="292.4" r="3" fill="#56d364"/>
<circle cx="650.0" cy="284.1" r="4" fill="#56d364"/>
<path d="M 70.0 154.0 L 90.0 155.1 L 110.0 156.2 L 130.0 153.9 L 150.0 154.0 L 170.0 155.1 L 190.0 156.2 L 210.0 155.1 L 230.0 138.2 L 250.0 153.9 L 270.0 155.1 L 290.0 142.0 L 310.0 154.0 L 330.0 154.8 L 350.0 148.7 L 370.0 148.7 L 390.0 148.7 L 410.0 148.7 L 430.0 148.7 L 450.0 148.7 L 470.0 148.7 L 490.0 254.5 L 510.0 254.5 L 530.0 253.3 L 550.0 253.3 L 570.0 253.3 L 590.0 258.5 L 610.0 258.5 L 630.0 258.5 L 650.0 258.5" fill="none" stroke="#f78166" stroke-width="2" opacity="0.8"/>
<circle cx="70.0" cy="154.0" r="3" fill="#f78166"/>
<circle cx="190.0" cy="156.2" r="3" fill="#f78166"/>
<circle cx="310.0" cy="154.0" r="3" fill="#f78166"/>
<circle cx="430.0" cy="148.7" r="3" fill="#f78166"/>
<circle cx="550.0" cy="253.3" r="3" fill="#f78166"/>
<circle cx="650.0" cy="258.5" r="4" fill="#f78166"/>
<path d="M 70.0 167.1 L 90.0 167.9 L 110.0 169.2 L 130.0 167.1 L 150.0 167.1 L 170.0 167.9 L 190.0 169.2 L 210.0 167.9 L 230.0 149.6 L 250.0 167.1 L 270.0 167.9 L 290.0 153.3 L 310.0 167.1 L 330.0 167.3 L 350.0 162.0 L 370.0 162.0 L 390.0 162.0 L 410.0 162.0 L 430.0 162.0 L 450.0 162.0 L 470.0 162.0 L 490.0 248.7 L 510.0 248.7 L 530.0 247.8 L 550.0 247.8 L 570.0 247.8 L 590.0 240.8 L 610.0 240.8 L 630.0 240.8 L 650.0 240.8" fill="none" stroke="#ffa657" stroke-width="2" opacity="0.8"/>
<circle cx="70.0" cy="167.1" r="3" fill="#ffa657"/>
<circle cx="190.0" cy="169.2" r="3" fill="#ffa657"/>
<circle cx="310.0" cy="167.1" r="3" fill="#ffa657"/>
<circle cx="430.0" cy="162.0" r="3" fill="#ffa657"/>
<circle cx="550.0" cy="247.8" r="3" fill="#ffa657"/>
<circle cx="650.0" cy="240.8" r="4" fill="#ffa657"/>
<text x="70.0" y="113.0" fill="#2ea043" font-family="monospace" font-size="8px" text-anchor="middle">122.6KB</text>
<text x="70.0" y="131.1" fill="#3fb950" font-family="monospace" font-size="8px" text-anchor="middle">119.1KB</text>
<text x="70.0" y="149.1" fill="#f78166" font-family="monospace" font-size="8px" text-anchor="middle">116.3KB</text>
<text x="70.0" y="167.1" fill="#1f6feb" font-family="monospace" font-size="8px" text-anchor="middle">115.8KB</text>
<text x="70.0" y="185.1" fill="#58a6ff" font-family="monospace" font-size="8px" text-anchor="middle">115.8KB</text>
<text x="70.0" y="203.1" fill="#ffa657" font-family="monospace" font-size="8px" text-anchor="middle">113.7KB</text>
<text x="70.0" y="221.1" fill="#388bfd" font-family="monospace" font-size="8px" text-anchor="middle">112.8KB</text>
<text x="70.0" y="239.1" fill="#56d364" font-family="monospace" font-size="8px" text-anchor="middle">105.2KB</text>
<text x="70.0" y="257.1" fill="#238636" font-family="monospace" font-size="8px" text-anchor="middle">104.2KB</text>
<text x="190.0" y="115.0" fill="#2ea043" font-family="monospace" font-size="8px" text-anchor="middle">122.2KB</text>
<text x="190.0" y="133.2" fill="#3fb950" font-family="monospace" font-size="8px" text-anchor="middle">118.7KB</text>
<text x="190.0" y="151.2" fill="#f78166" font-family="monospace" font-size="8px" text-anchor="middle">115.8KB</text>
<text x="190.0" y="169.2" fill="#58a6ff" font-family="monospace" font-size="8px" text-anchor="middle">115.5KB</text>
<text x="190.0" y="187.2" fill="#1f6feb" font-family="monospace" font-size="8px" text-anchor="middle">115.4KB</text>
<text x="190.0" y="205.2" fill="#ffa657" font-family="monospace" font-size="8px" text-anchor="middle">113.4KB</text>
<text x="190.0" y="223.2" fill="#388bfd" font-family="monospace" font-size="8px" text-anchor="middle">112.4KB</text>
<text x="190.0" y="241.2" fill="#56d364" font-family="monospace" font-size="8px" text-anchor="middle">104.8KB</text>
<text x="190.0" y="259.2" fill="#238636" font-family="monospace" font-size="8px" text-anchor="middle">103.9KB</text>
<text x="310.0" y="113.0" fill="#2ea043" font-family="monospace" font-size="8px" text-anchor="middle">122.6KB</text>
<text x="310.0" y="131.1" fill="#3fb950" font-family="monospace" font-size="8px" text-anchor="middle">119.1KB</text>
<text x="310.0" y="149.1" fill="#f78166" font-family="monospace" font-size="8px" text-anchor="middle">116.3KB</text>
<text x="310.0" y="167.1" fill="#1f6feb" font-family="monospace" font-size="8px" text-anchor="middle">115.8KB</text>
<text x="310.0" y="185.1" fill="#58a6ff" font-family="monospace" font-size="8px" text-anchor="middle">115.8KB</text>
<text x="310.0" y="203.1" fill="#ffa657" font-family="monospace" font-size="8px" text-anchor="middle">113.7KB</text>
<text x="310.0" y="221.1" fill="#388bfd" font-family="monospace" font-size="8px" text-anchor="middle">112.8KB</text>
<text x="310.0" y="239.1" fill="#56d364" font-family="monospace" font-size="8px" text-anchor="middle">105.2KB</text>
<text x="310.0" y="257.1" fill="#238636" font-family="monospace" font-size="8px" text-anchor="middle">104.2KB</text>
<text x="430.0" y="107.3" fill="#2ea043" font-family="monospace" font-size="8px" text-anchor="middle">123.7KB</text>
<text x="430.0" y="125.5" fill="#3fb950" font-family="monospace" font-size="8px" text-anchor="middle">120.2KB</text>
<text x="430.0" y="143.5" fill="#f78166" font-family="monospace" font-size="8px" text-anchor="middle">117.3KB</text>
<text x="430.0" y="161.5" fill="#1f6feb" font-family="monospace" font-size="8px" text-anchor="middle">116.9KB</text>
<text x="430.0" y="179.5" fill="#58a6ff" font-family="monospace" font-size="8px" text-anchor="middle">116.9KB</text>
<text x="430.0" y="197.5" fill="#ffa657" font-family="monospace" font-size="8px" text-anchor="middle">114.7KB</text>
<text x="430.0" y="215.5" fill="#388bfd" font-family="monospace" font-size="8px" text-anchor="middle">113.8KB</text>
<text x="430.0" y="233.5" fill="#56d364" font-family="monospace" font-size="8px" text-anchor="middle">106.2KB</text>
<text x="430.0" y="251.5" fill="#238636" font-family="monospace" font-size="8px" text-anchor="middle">105.0KB</text>
<text x="550.0" y="188.4" fill="#2ea043" font-family="monospace" font-size="8px" text-anchor="middle">108.1KB</text>
<text x="550.0" y="212.8" fill="#58a6ff" font-family="monospace" font-size="8px" text-anchor="middle">103.5KB</text>
<text x="550.0" y="230.8" fill="#3fb950" font-family="monospace" font-size="8px" text-anchor="middle">102.5KB</text>
<text x="550.0" y="248.8" fill="#ffa657" font-family="monospace" font-size="8px" text-anchor="middle">98.3KB</text>
<text x="550.0" y="266.8" fill="#f78166" font-family="monospace" font-size="8px" text-anchor="middle">97.3KB</text>
<text x="550.0" y="284.8" fill="#388bfd" font-family="monospace" font-size="8px" text-anchor="middle">97.2KB</text>
<text x="550.0" y="302.8" fill="#1f6feb" font-family="monospace" font-size="8px" text-anchor="middle">96.7KB</text>
<text x="550.0" y="320.8" fill="#238636" font-family="monospace" font-size="8px" text-anchor="middle">91.7KB</text>
<text x="550.0" y="338.8" fill="#56d364" font-family="monospace" font-size="8px" text-anchor="middle">89.8KB</text>
<text x="650.0" y="176.8" fill="#2ea043" font-family="monospace" font-size="8px" text-anchor="middle">110.4KB</text>
<text x="650.0" y="195.2" fill="#58a6ff" font-family="monospace" font-size="8px" text-anchor="middle">106.8KB</text>
<text x="650.0" y="222.5" fill="#3fb950" font-family="monospace" font-size="8px" text-anchor="middle">101.6KB</text>
<text x="650.0" y="240.5" fill="#ffa657" font-family="monospace" font-size="8px" text-anchor="middle">99.7KB</text>
<text x="650.0" y="258.5" fill="#388bfd" font-family="monospace" font-size="8px" text-anchor="middle">99.3KB</text>
<text x="650.0" y="276.5" fill="#1f6feb" font-family="monospace" font-size="8px" text-anchor="middle">96.8KB</text>
<text x="650.0" y="294.5" fill="#f78166" font-family="monospace" font-size="8px" text-anchor="middle">96.3KB</text>
<text x="650.0" y="312.5" fill="#238636" font-family="monospace" font-size="8px" text-anchor="middle">91.5KB</text>
<text x="650.0" y="330.5" fill="#56d364" font-family="monospace" font-size="8px" text-anchor="middle">91.4KB</text>
<rect x="665" y="44" width="12" height="12" fill="#58a6ff"/>
<text x="683" y="54" class="legend">Win i386</text>
<rect x="665" y="62" width="12" height="12" fill="#1f6feb"/>
<text x="683" y="72" class="legend">Win x64</text>
<rect x="665" y="80" width="12" height="12" fill="#388bfd"/>
<text x="683" y="90" class="legend">Win ARM64</text>
<rect x="665" y="98" width="12" height="12" fill="#3fb950"/>
<text x="683" y="108" class="legend">Linux i386</text>
<rect x="665" y="116" width="12" height="12" fill="#238636"/>
<text x="683" y="126" class="legend">Linux x64</text>
<rect x="665" y="134" width="12" height="12" fill="#2ea043"/>
<text x="683" y="144" class="legend">Linux ARM</text>
<rect x="665" y="152" width="12" height="12" fill="#56d364"/>
<text x="683" y="162" class="legend">Linux ARM64</text>
<rect x="665" y="170" width="12" height="12" fill="#f78166"/>
<text x="683" y="180" class="legend">UEFI x64</text>
<rect x="665" y="188" width="12" height="12" fill="#ffa657"/>
<text x="683" y="198" class="legend">UEFI ARM64</text>
</svg>