<svg xmlns="http://www.w3.org/2000/svg" width="800" height="400">
<defs>
<style>
.axis-text { fill: #8b949e; font-family: monospace; font-size: 11px; }
.title { fill: #c9d1d9; font-family: monospace; font-size: 14px; font-weight: bold; }
.legend { fill: #8b949e; font-family: monospace; font-size: 10px; }
.grid { stroke: #21262d; stroke-width: 1; }
</style>
</defs>
<rect width="800" height="400" fill="#0d1117"/>
<text x="400.0" y="25" class="title" text-anchor="middle">Binary Size Trend (.bin)</text>
<line x1="70" y1="40.0" x2="650" y2="40.0" class="grid"/>
<text x="60" y="44.0" class="axis-text" text-anchor="end">138KB</text>
<line x1="70" y1="100.0" x2="650" y2="100.0" class="grid"/>
<text x="60" y="104.0" class="axis-text" text-anchor="end">129KB</text>
<line x1="70" y1="160.0" x2="650" y2="160.0" class="grid"/>
<text x="60" y="164.0" class="axis-text" text-anchor="end">120KB</text>
<line x1="70" y1="220.0" x2="650" y2="220.0" class="grid"/>
<text x="60" y="224.0" class="axis-text" text-anchor="end">111KB</text>
<line x1="70" y1="280.0" x2="650" y2="280.0" class="grid"/>
<text x="60" y="284.0" class="axis-text" text-anchor="end">102KB</text>
<line x1="70" y1="340.0" x2="650" y2="340.0" class="grid"/>
<text x="60" y="344.0" class="axis-text" text-anchor="end">93KB</text>
<text x="70.0" y="360" class="axis-text" text-anchor="middle">02-05</text>
<text x="360.0" y="360" class="axis-text" text-anchor="middle">02-05</text>
<text x="650.0" y="360" class="axis-text" text-anchor="middle">02-05</text>
<path d="M 70.0 190.7 L 360.0 168.8 L 650.0 175.1" fill="none" stroke="#58a6ff" stroke-width="2" opacity="0.8"/>
<circle cx="650.0" cy="175.1" r="4" fill="#58a6ff"/>
<path d="M 70.0 191.2 L 360.0 169.0 L 650.0 173.9" fill="none" stroke="#1f6feb" stroke-width="2" opacity="0.8"/>
<circle cx="650.0" cy="173.9" r="4" fill="#1f6feb"/>
<path d="M 70.0 210.8 L 360.0 187.6 L 650.0 192.5" fill="none" stroke="#388bfd" stroke-width="2" opacity="0.8"/>
<circle cx="650.0" cy="192.5" r="4" fill="#388bfd"/>
<path d="M 70.0 169.4 L 360.0 148.3 L 650.0 152.7" fill="none" stroke="#3fb950" stroke-width="2" opacity="0.8"/>
<circle cx="650.0" cy="152.7" r="4" fill="#3fb950"/>
<path d="M 70.0 270.1 L 360.0 247.2 L 650.0 252.6" fill="none" stroke="#238636" stroke-width="2" opacity="0.8"/>
<circle cx="650.0" cy="252.6" r="4" fill="#238636"/>
<path d="M 70.0 146.3 L 360.0 124.5 L 650.0 131.3" fill="none" stroke="#2ea043" stroke-width="2" opacity="0.8"/>
<circle cx="650.0" cy="131.3" r="4" fill="#2ea043"/>
<path d="M 70.0 263.2 L 360.0 241.4 L 650.0 246.0" fill="none" stroke="#56d364" stroke-width="2" opacity="0.8"/>
<circle cx="650.0" cy="246.0" r="4" fill="#56d364"/>
<path d="M 70.0 188.2 L 360.0 166.4 L 650.0 171.3" fill="none" stroke="#f78166" stroke-width="2" opacity="0.8"/>
<circle cx="650.0" cy="171.3" r="4" fill="#f78166"/>
<path d="M 70.0 204.6 L 360.0 181.0 L 650.0 185.9" fill="none" stroke="#ffa657" stroke-width="2" opacity="0.8"/>
<circle cx="650.0" cy="185.9" r="4" fill="#ffa657"/>
<rect x="665" y="44" width="12" height="12" fill="#58a6ff"/>
<text x="683" y="54" class="legend">Win i386</text>
<rect x="665" y="62" width="12" height="12" fill="#1f6feb"/>
<text x="683" y="72" class="legend">Win x64</text>
<rect x="665" y="80" width="12" height="12" fill="#388bfd"/>
<text x="683" y="90" class="legend">Win ARM64</text>
<rect x="665" y="98" width="12" height="12" fill="#3fb950"/>
<text x="683" y="108" class="legend">Linux i386</text>
<rect x="665" y="116" width="12" height="12" fill="#238636"/>
<text x="683" y="126" class="legend">Linux x64</text>
<rect x="665" y="134" width="12" height="12" fill="#2ea043"/>
<text x="683" y="144" class="legend">Linux ARM</text>
<rect x="665" y="152" width="12" height="12" fill="#56d364"/>
<text x="683" y="162" class="legend">Linux ARM64</text>
<rect x="665" y="170" width="12" height="12" fill="#f78166"/>
<text x="683" y="180" class="legend">UEFI x64</text>
<rect x="665" y="188" width="12" height="12" fill="#ffa657"/>
<text x="683" y="198" class="legend">UEFI ARM64</text>
</svg>