<svg xmlns="http://www.w3.org/2000/svg" width="800" height="400">
<defs>
<style>
.axis-text { fill: #8b949e; font-family: monospace; font-size: 11px; }
.title { fill: #c9d1d9; font-family: monospace; font-size: 14px; font-weight: bold; }
.legend { fill: #8b949e; font-family: monospace; font-size: 10px; }
.grid { stroke: #21262d; stroke-width: 1; }
</style>
</defs>
<rect width="800" height="400" fill="#0d1117"/>
<text x="400.0" y="25" class="title" text-anchor="middle">Binary Size Trend (.bin)</text>
<line x1="70" y1="40.0" x2="650" y2="40.0" class="grid"/>
<text x="60" y="44.0" class="axis-text" text-anchor="end">138KB</text>
<line x1="70" y1="100.0" x2="650" y2="100.0" class="grid"/>
<text x="60" y="104.0" class="axis-text" text-anchor="end">127KB</text>
<line x1="70" y1="160.0" x2="650" y2="160.0" class="grid"/>
<text x="60" y="164.0" class="axis-text" text-anchor="end">115KB</text>
<line x1="70" y1="220.0" x2="650" y2="220.0" class="grid"/>
<text x="60" y="224.0" class="axis-text" text-anchor="end">104KB</text>
<line x1="70" y1="280.0" x2="650" y2="280.0" class="grid"/>
<text x="60" y="284.0" class="axis-text" text-anchor="end">92KB</text>
<line x1="70" y1="340.0" x2="650" y2="340.0" class="grid"/>
<text x="60" y="344.0" class="axis-text" text-anchor="end">81KB</text>
<text x="70.0" y="360" class="axis-text" text-anchor="middle">02-05</text>
<text x="169.42857142857144" y="360" class="axis-text" text-anchor="middle">02-05</text>
<text x="268.8571428571429" y="360" class="axis-text" text-anchor="middle">02-05</text>
<text x="368.2857142857143" y="360" class="axis-text" text-anchor="middle">02-09</text>
<text x="467.7142857142857" y="360" class="axis-text" text-anchor="middle">02-11</text>
<text x="567.1428571428571" y="360" class="axis-text" text-anchor="middle">02-24</text>
<path d="M 70.0 156.4 L 86.6 157.0 L 103.1 158.2 L 119.7 156.3 L 136.3 156.4 L 152.9 157.1 L 169.4 158.2 L 186.0 157.1 L 202.6 140.0 L 219.1 156.3 L 235.7 157.1 L 252.3 144.9 L 268.9 156.4 L 285.4 156.0 L 302.0 150.7 L 318.6 150.7 L 335.1 150.7 L 351.7 150.7 L 368.3 150.7 L 384.9 151.0 L 401.4 151.0 L 418.0 221.7 L 434.6 221.7 L 451.1 220.8 L 467.7 220.8 L 484.3 220.8 L 500.9 207.0 L 517.4 202.6 L 534.0 202.6 L 550.6 203.2 L 567.1 202.3 L 583.7 202.3 L 600.3 202.3 L 616.9 202.6 L 633.4 202.3 L 650.0 202.6" fill="none" stroke="#58a6ff" stroke-width="2" opacity="0.8"/>
<circle cx="70.0" cy="156.4" r="3" fill="#58a6ff"/>
<circle cx="186.0" cy="157.1" r="3" fill="#58a6ff"/>
<circle cx="302.0" cy="150.7" r="3" fill="#58a6ff"/>
<circle cx="418.0" cy="221.7" r="3" fill="#58a6ff"/>
<circle cx="534.0" cy="202.6" r="3" fill="#58a6ff"/>
<circle cx="650.0" cy="202.6" r="4" fill="#58a6ff"/>
<path d="M 70.0 156.4 L 86.6 157.4 L 103.1 158.6 L 119.7 156.4 L 136.3 156.4 L 152.9 157.5 L 169.4 158.6 L 186.0 157.5 L 202.6 140.2 L 219.1 156.4 L 235.7 157.5 L 252.3 144.0 L 268.9 156.4 L 285.4 157.2 L 302.0 150.7 L 318.6 150.7 L 335.1 150.7 L 351.7 150.7 L 368.3 150.7 L 384.9 151.0 L 401.4 151.0 L 418.0 257.4 L 434.6 257.4 L 451.1 256.2 L 467.7 256.2 L 484.3 256.2 L 500.9 258.3 L 517.4 255.4 L 534.0 255.4 L 550.6 255.9 L 567.1 255.4 L 583.7 255.4 L 600.3 255.4 L 616.9 255.4 L 633.4 255.4 L 650.0 255.4" fill="none" stroke="#1f6feb" stroke-width="2" opacity="0.8"/>
<circle cx="70.0" cy="156.4" r="3" fill="#1f6feb"/>
<circle cx="186.0" cy="157.5" r="3" fill="#1f6feb"/>
<circle cx="302.0" cy="150.7" r="3" fill="#1f6feb"/>
<circle cx="418.0" cy="257.4" r="3" fill="#1f6feb"/>
<circle cx="534.0" cy="255.4" r="3" fill="#1f6feb"/>
<circle cx="650.0" cy="255.4" r="4" fill="#1f6feb"/>
<path d="M 70.0 172.1 L 86.6 172.7 L 103.1 174.2 L 119.7 172.1 L 136.3 172.1 L 152.9 172.9 L 169.4 174.2 L 186.0 172.9 L 202.6 154.7 L 219.1 172.1 L 235.7 172.9 L 252.3 158.4 L 268.9 172.1 L 285.4 172.3 L 302.0 166.9 L 318.6 166.9 L 335.1 166.9 L 351.7 166.9 L 368.3 166.9 L 384.9 167.1 L 401.4 167.1 L 418.0 254.5 L 434.6 254.5 L 451.1 253.7 L 467.7 253.7 L 484.3 253.7 L 500.9 243.7 L 517.4 242.4 L 534.0 242.4 L 550.6 242.6 L 567.1 242.4 L 583.7 242.4 L 600.3 242.4 L 616.9 242.4 L 633.4 242.4 L 650.0 242.4" fill="none" stroke="#388bfd" stroke-width="2" opacity="0.8"/>
<circle cx="70.0" cy="172.1" r="3" fill="#388bfd"/>
<circle cx="186.0" cy="172.9" r="3" fill="#388bfd"/>
<circle cx="302.0" cy="166.9" r="3" fill="#388bfd"/>
<circle cx="418.0" cy="254.5" r="3" fill="#388bfd"/>
<circle cx="534.0" cy="242.4" r="3" fill="#388bfd"/>
<circle cx="650.0" cy="242.4" r="4" fill="#388bfd"/>
<path d="M 70.0 139.1 L 86.6 140.5 L 103.1 141.2 L 119.7 139.1 L 136.3 139.1 L 152.9 140.7 L 169.4 141.2 L 186.0 140.7 L 202.6 124.1 L 219.1 139.1 L 235.7 140.7 L 252.3 127.5 L 268.9 139.1 L 285.4 139.0 L 302.0 133.5 L 318.6 133.5 L 335.1 133.5 L 351.7 133.5 L 368.3 133.5 L 384.9 133.5 L 401.4 133.5 L 418.0 227.2 L 434.6 227.2 L 451.1 225.9 L 467.7 225.9 L 484.3 225.9 L 500.9 230.5 L 517.4 230.5 L 534.0 230.5 L 550.6 230.5 L 567.1 230.3 L 583.7 230.3 L 600.3 230.3 L 616.9 230.5 L 633.4 230.3 L 650.0 230.5" fill="none" stroke="#3fb950" stroke-width="2" opacity="0.8"/>
<circle cx="70.0" cy="139.1" r="3" fill="#3fb950"/>
<circle cx="186.0" cy="140.7" r="3" fill="#3fb950"/>
<circle cx="302.0" cy="133.5" r="3" fill="#3fb950"/>
<circle cx="418.0" cy="227.2" r="3" fill="#3fb950"/>
<circle cx="534.0" cy="230.5" r="3" fill="#3fb950"/>
<circle cx="650.0" cy="230.5" r="4" fill="#3fb950"/>
<path d="M 70.0 217.2 L 86.6 218.7 L 103.1 218.6 L 119.7 217.2 L 136.3 217.2 L 152.9 218.8 L 169.4 218.6 L 186.0 218.8 L 202.6 201.0 L 219.1 217.2 L 235.7 218.8 L 252.3 205.2 L 268.9 217.2 L 285.4 216.9 L 302.0 212.8 L 318.6 212.8 L 335.1 212.8 L 351.7 212.8 L 368.3 212.8 L 384.9 212.8 L 401.4 212.8 L 418.0 284.0 L 434.6 284.0 L 451.1 282.4 L 467.7 282.4 L 484.3 282.4 L 500.9 283.7 L 517.4 283.7 L 534.0 283.7 L 550.6 283.7 L 567.1 283.7 L 583.7 283.7 L 600.3 283.7 L 616.9 283.7 L 633.4 283.7 L 650.0 283.7" fill="none" stroke="#238636" stroke-width="2" opacity="0.8"/>
<circle cx="70.0" cy="217.2" r="3" fill="#238636"/>
<circle cx="186.0" cy="218.8" r="3" fill="#238636"/>
<circle cx="302.0" cy="212.8" r="3" fill="#238636"/>
<circle cx="418.0" cy="284.0" r="3" fill="#238636"/>
<circle cx="534.0" cy="283.7" r="3" fill="#238636"/>
<circle cx="650.0" cy="283.7" r="4" fill="#238636"/>
<path d="M 70.0 121.0 L 86.6 122.6 L 103.1 123.0 L 119.7 121.0 L 136.3 121.0 L 152.9 122.7 L 169.4 123.0 L 186.0 122.7 L 202.6 105.6 L 219.1 121.0 L 235.7 122.7 L 252.3 110.9 L 268.9 121.0 L 285.4 121.1 L 302.0 115.3 L 318.6 115.3 L 335.1 115.3 L 351.7 115.3 L 368.3 115.3 L 384.9 115.3 L 401.4 115.3 L 418.0 197.4 L 434.6 197.4 L 451.1 196.4 L 467.7 196.4 L 484.3 196.4 L 500.9 184.8 L 517.4 184.8 L 534.0 184.8 L 550.6 184.8 L 567.1 184.8 L 583.7 184.8 L 600.3 184.8 L 616.9 184.8 L 633.4 184.8 L 650.0 184.8" fill="none" stroke="#2ea043" stroke-width="2" opacity="0.8"/>
<circle cx="70.0" cy="121.0" r="3" fill="#2ea043"/>
<circle cx="186.0" cy="122.7" r="3" fill="#2ea043"/>
<circle cx="302.0" cy="115.3" r="3" fill="#2ea043"/>
<circle cx="418.0" cy="197.4" r="3" fill="#2ea043"/>
<circle cx="534.0" cy="184.8" r="3" fill="#2ea043"/>
<circle cx="650.0" cy="184.8" r="4" fill="#2ea043"/>
<path d="M 70.0 211.5 L 86.6 213.3 L 103.1 213.7 L 119.7 211.5 L 136.3 211.5 L 152.9 213.5 L 169.4 213.7 L 186.0 213.5 L 202.6 196.5 L 219.1 211.5 L 235.7 213.5 L 252.3 200.0 L 268.9 211.5 L 285.4 211.8 L 302.0 206.4 L 318.6 206.4 L 335.1 206.4 L 351.7 206.4 L 368.3 206.4 L 384.9 206.4 L 401.4 206.4 L 418.0 293.1 L 434.6 293.1 L 451.1 292.4 L 467.7 292.4 L 484.3 292.4 L 500.9 284.1 L 517.4 284.1 L 534.0 284.1 L 550.6 284.1 L 567.1 284.1 L 583.7 284.1 L 600.3 284.1 L 616.9 284.1 L 633.4 284.1 L 650.0 284.1" fill="none" stroke="#56d364" stroke-width="2" opacity="0.8"/>
<circle cx="70.0" cy="211.5" r="3" fill="#56d364"/>
<circle cx="186.0" cy="213.5" r="3" fill="#56d364"/>
<circle cx="302.0" cy="206.4" r="3" fill="#56d364"/>
<circle cx="418.0" cy="293.1" r="3" fill="#56d364"/>
<circle cx="534.0" cy="284.1" r="3" fill="#56d364"/>
<circle cx="650.0" cy="284.1" r="4" fill="#56d364"/>
<path d="M 70.0 154.0 L 86.6 155.1 L 103.1 156.2 L 119.7 153.9 L 136.3 154.0 L 152.9 155.1 L 169.4 156.2 L 186.0 155.1 L 202.6 138.2 L 219.1 153.9 L 235.7 155.1 L 252.3 142.0 L 268.9 154.0 L 285.4 154.8 L 302.0 148.7 L 318.6 148.7 L 335.1 148.7 L 351.7 148.7 L 368.3 148.7 L 384.9 148.7 L 401.4 148.7 L 418.0 254.5 L 434.6 254.5 L 451.1 253.3 L 467.7 253.3 L 484.3 253.3 L 500.9 258.5 L 517.4 258.5 L 534.0 258.5 L 550.6 258.5 L 567.1 258.5 L 583.7 258.5 L 600.3 258.5 L 616.9 258.5 L 633.4 258.5 L 650.0 258.5" fill="none" stroke="#f78166" stroke-width="2" opacity="0.8"/>
<circle cx="70.0" cy="154.0" r="3" fill="#f78166"/>
<circle cx="186.0" cy="155.1" r="3" fill="#f78166"/>
<circle cx="302.0" cy="148.7" r="3" fill="#f78166"/>
<circle cx="418.0" cy="254.5" r="3" fill="#f78166"/>
<circle cx="534.0" cy="258.5" r="3" fill="#f78166"/>
<circle cx="650.0" cy="258.5" r="4" fill="#f78166"/>
<path d="M 70.0 167.1 L 86.6 167.9 L 103.1 169.2 L 119.7 167.1 L 136.3 167.1 L 152.9 167.9 L 169.4 169.2 L 186.0 167.9 L 202.6 149.6 L 219.1 167.1 L 235.7 167.9 L 252.3 153.3 L 268.9 167.1 L 285.4 167.3 L 302.0 162.0 L 318.6 162.0 L 335.1 162.0 L 351.7 162.0 L 368.3 162.0 L 384.9 162.0 L 401.4 162.0 L 418.0 248.7 L 434.6 248.7 L 451.1 247.8 L 467.7 247.8 L 484.3 247.8 L 500.9 240.8 L 517.4 240.8 L 534.0 240.8 L 550.6 240.8 L 567.1 240.8 L 583.7 240.8 L 600.3 240.8 L 616.9 240.8 L 633.4 240.8 L 650.0 240.8" fill="none" stroke="#ffa657" stroke-width="2" opacity="0.8"/>
<circle cx="70.0" cy="167.1" r="3" fill="#ffa657"/>
<circle cx="186.0" cy="167.9" r="3" fill="#ffa657"/>
<circle cx="302.0" cy="162.0" r="3" fill="#ffa657"/>
<circle cx="418.0" cy="248.7" r="3" fill="#ffa657"/>
<circle cx="534.0" cy="240.8" r="3" fill="#ffa657"/>
<circle cx="650.0" cy="240.8" r="4" fill="#ffa657"/>
<text x="70.0" y="113.0" fill="#2ea043" font-family="monospace" font-size="8px" text-anchor="middle">122.6KB</text>
<text x="70.0" y="131.1" fill="#3fb950" font-family="monospace" font-size="8px" text-anchor="middle">119.1KB</text>
<text x="70.0" y="149.1" fill="#f78166" font-family="monospace" font-size="8px" text-anchor="middle">116.3KB</text>
<text x="70.0" y="167.1" fill="#1f6feb" font-family="monospace" font-size="8px" text-anchor="middle">115.8KB</text>
<text x="70.0" y="185.1" fill="#58a6ff" font-family="monospace" font-size="8px" text-anchor="middle">115.8KB</text>
<text x="70.0" y="203.1" fill="#ffa657" font-family="monospace" font-size="8px" text-anchor="middle">113.7KB</text>
<text x="70.0" y="221.1" fill="#388bfd" font-family="monospace" font-size="8px" text-anchor="middle">112.8KB</text>
<text x="70.0" y="239.1" fill="#56d364" font-family="monospace" font-size="8px" text-anchor="middle">105.2KB</text>
<text x="70.0" y="257.1" fill="#238636" font-family="monospace" font-size="8px" text-anchor="middle">104.2KB</text>
<text x="186.0" y="114.7" fill="#2ea043" font-family="monospace" font-size="8px" text-anchor="middle">122.2KB</text>
<text x="186.0" y="132.7" fill="#3fb950" font-family="monospace" font-size="8px" text-anchor="middle">118.8KB</text>
<text x="186.0" y="150.7" fill="#f78166" font-family="monospace" font-size="8px" text-anchor="middle">116.0KB</text>
<text x="186.0" y="168.7" fill="#58a6ff" font-family="monospace" font-size="8px" text-anchor="middle">115.7KB</text>
<text x="186.0" y="186.7" fill="#1f6feb" font-family="monospace" font-size="8px" text-anchor="middle">115.6KB</text>
<text x="186.0" y="204.7" fill="#ffa657" font-family="monospace" font-size="8px" text-anchor="middle">113.6KB</text>
<text x="186.0" y="222.7" fill="#388bfd" font-family="monospace" font-size="8px" text-anchor="middle">112.6KB</text>
<text x="186.0" y="240.7" fill="#56d364" font-family="monospace" font-size="8px" text-anchor="middle">104.9KB</text>
<text x="186.0" y="258.7" fill="#238636" font-family="monospace" font-size="8px" text-anchor="middle">103.9KB</text>
<text x="302.0" y="107.3" fill="#2ea043" font-family="monospace" font-size="8px" text-anchor="middle">123.7KB</text>
<text x="302.0" y="125.5" fill="#3fb950" font-family="monospace" font-size="8px" text-anchor="middle">120.2KB</text>
<text x="302.0" y="143.5" fill="#f78166" font-family="monospace" font-size="8px" text-anchor="middle">117.3KB</text>
<text x="302.0" y="161.5" fill="#1f6feb" font-family="monospace" font-size="8px" text-anchor="middle">116.9KB</text>
<text x="302.0" y="179.5" fill="#58a6ff" font-family="monospace" font-size="8px" text-anchor="middle">116.9KB</text>
<text x="302.0" y="197.5" fill="#ffa657" font-family="monospace" font-size="8px" text-anchor="middle">114.7KB</text>
<text x="302.0" y="215.5" fill="#388bfd" font-family="monospace" font-size="8px" text-anchor="middle">113.8KB</text>
<text x="302.0" y="233.5" fill="#56d364" font-family="monospace" font-size="8px" text-anchor="middle">106.2KB</text>
<text x="302.0" y="251.5" fill="#238636" font-family="monospace" font-size="8px" text-anchor="middle">105.0KB</text>
<text x="418.0" y="189.4" fill="#2ea043" font-family="monospace" font-size="8px" text-anchor="middle">108.0KB</text>
<text x="418.0" y="213.7" fill="#58a6ff" font-family="monospace" font-size="8px" text-anchor="middle">103.3KB</text>
<text x="418.0" y="231.7" fill="#3fb950" font-family="monospace" font-size="8px" text-anchor="middle">102.3KB</text>
<text x="418.0" y="249.7" fill="#ffa657" font-family="monospace" font-size="8px" text-anchor="middle">98.2KB</text>
<text x="418.0" y="267.7" fill="#f78166" font-family="monospace" font-size="8px" text-anchor="middle">97.0KB</text>
<text x="418.0" y="285.7" fill="#388bfd" font-family="monospace" font-size="8px" text-anchor="middle">97.0KB</text>
<text x="418.0" y="303.7" fill="#1f6feb" font-family="monospace" font-size="8px" text-anchor="middle">96.5KB</text>
<text x="418.0" y="321.7" fill="#238636" font-family="monospace" font-size="8px" text-anchor="middle">91.4KB</text>
<text x="418.0" y="339.7" fill="#56d364" font-family="monospace" font-size="8px" text-anchor="middle">89.7KB</text>
<text x="534.0" y="176.8" fill="#2ea043" font-family="monospace" font-size="8px" text-anchor="middle">110.4KB</text>
<text x="534.0" y="194.8" fill="#58a6ff" font-family="monospace" font-size="8px" text-anchor="middle">107.0KB</text>
<text x="534.0" y="222.5" fill="#3fb950" font-family="monospace" font-size="8px" text-anchor="middle">101.6KB</text>
<text x="534.0" y="240.5" fill="#ffa657" font-family="monospace" font-size="8px" text-anchor="middle">99.7KB</text>
<text x="534.0" y="258.5" fill="#388bfd" font-family="monospace" font-size="8px" text-anchor="middle">99.4KB</text>
<text x="534.0" y="276.5" fill="#1f6feb" font-family="monospace" font-size="8px" text-anchor="middle">96.9KB</text>
<text x="534.0" y="294.5" fill="#f78166" font-family="monospace" font-size="8px" text-anchor="middle">96.3KB</text>
<text x="534.0" y="312.5" fill="#238636" font-family="monospace" font-size="8px" text-anchor="middle">91.5KB</text>
<text x="534.0" y="330.5" fill="#56d364" font-family="monospace" font-size="8px" text-anchor="middle">91.4KB</text>
<text x="650.0" y="176.8" fill="#2ea043" font-family="monospace" font-size="8px" text-anchor="middle">110.4KB</text>
<text x="650.0" y="194.8" fill="#58a6ff" font-family="monospace" font-size="8px" text-anchor="middle">107.0KB</text>
<text x="650.0" y="222.5" fill="#3fb950" font-family="monospace" font-size="8px" text-anchor="middle">101.6KB</text>
<text x="650.0" y="240.5" fill="#ffa657" font-family="monospace" font-size="8px" text-anchor="middle">99.7KB</text>
<text x="650.0" y="258.5" fill="#388bfd" font-family="monospace" font-size="8px" text-anchor="middle">99.4KB</text>
<text x="650.0" y="276.5" fill="#1f6feb" font-family="monospace" font-size="8px" text-anchor="middle">96.9KB</text>
<text x="650.0" y="294.5" fill="#f78166" font-family="monospace" font-size="8px" text-anchor="middle">96.3KB</text>
<text x="650.0" y="312.5" fill="#238636" font-family="monospace" font-size="8px" text-anchor="middle">91.5KB</text>
<text x="650.0" y="330.5" fill="#56d364" font-family="monospace" font-size="8px" text-anchor="middle">91.4KB</text>
<rect x="665" y="44" width="12" height="12" fill="#58a6ff"/>
<text x="683" y="54" class="legend">Win i386</text>
<rect x="665" y="62" width="12" height="12" fill="#1f6feb"/>
<text x="683" y="72" class="legend">Win x64</text>
<rect x="665" y="80" width="12" height="12" fill="#388bfd"/>
<text x="683" y="90" class="legend">Win ARM64</text>
<rect x="665" y="98" width="12" height="12" fill="#3fb950"/>
<text x="683" y="108" class="legend">Linux i386</text>
<rect x="665" y="116" width="12" height="12" fill="#238636"/>
<text x="683" y="126" class="legend">Linux x64</text>
<rect x="665" y="134" width="12" height="12" fill="#2ea043"/>
<text x="683" y="144" class="legend">Linux ARM</text>
<rect x="665" y="152" width="12" height="12" fill="#56d364"/>
<text x="683" y="162" class="legend">Linux ARM64</text>
<rect x="665" y="170" width="12" height="12" fill="#f78166"/>
<text x="683" y="180" class="legend">UEFI x64</text>
<rect x="665" y="188" width="12" height="12" fill="#ffa657"/>
<text x="683" y="198" class="legend">UEFI ARM64</text>
</svg>