<svg xmlns="http://www.w3.org/2000/svg" width="800" height="400">
<defs>
<style>
.axis-text { fill: #8b949e; font-family: monospace; font-size: 11px; }
.title { fill: #c9d1d9; font-family: monospace; font-size: 14px; font-weight: bold; }
.legend { fill: #8b949e; font-family: monospace; font-size: 10px; }
.grid { stroke: #21262d; stroke-width: 1; }
</style>
</defs>
<rect width="800" height="400" fill="#0d1117"/>
<text x="400.0" y="25" class="title" text-anchor="middle">Binary Size Trend (.bin)</text>
<line x1="70" y1="40.0" x2="650" y2="40.0" class="grid"/>
<text x="60" y="44.0" class="axis-text" text-anchor="end">138KB</text>
<line x1="70" y1="100.0" x2="650" y2="100.0" class="grid"/>
<text x="60" y="104.0" class="axis-text" text-anchor="end">127KB</text>
<line x1="70" y1="160.0" x2="650" y2="160.0" class="grid"/>
<text x="60" y="164.0" class="axis-text" text-anchor="end">115KB</text>
<line x1="70" y1="220.0" x2="650" y2="220.0" class="grid"/>
<text x="60" y="224.0" class="axis-text" text-anchor="end">104KB</text>
<line x1="70" y1="280.0" x2="650" y2="280.0" class="grid"/>
<text x="60" y="284.0" class="axis-text" text-anchor="end">92KB</text>
<line x1="70" y1="340.0" x2="650" y2="340.0" class="grid"/>
<text x="60" y="344.0" class="axis-text" text-anchor="end">81KB</text>
<text x="70.0" y="360" class="axis-text" text-anchor="middle">02-05</text>
<text x="161.57894736842104" y="360" class="axis-text" text-anchor="middle">02-05</text>
<text x="253.15789473684208" y="360" class="axis-text" text-anchor="middle">02-05</text>
<text x="344.7368421052631" y="360" class="axis-text" text-anchor="middle">02-09</text>
<text x="436.31578947368416" y="360" class="axis-text" text-anchor="middle">02-11</text>
<text x="527.8947368421052" y="360" class="axis-text" text-anchor="middle">02-24</text>
<text x="619.4736842105262" y="360" class="axis-text" text-anchor="middle">02-24</text>
<path d="M 70.0 156.4 L 85.3 157.0 L 100.5 158.2 L 115.8 156.3 L 131.1 156.4 L 146.3 157.1 L 161.6 158.2 L 176.8 157.1 L 192.1 140.0 L 207.4 156.3 L 222.6 157.1 L 237.9 144.9 L 253.2 156.4 L 268.4 156.0 L 283.7 150.7 L 298.9 150.7 L 314.2 150.7 L 329.5 150.7 L 344.7 150.7 L 360.0 151.0 L 375.3 151.0 L 390.5 221.7 L 405.8 221.7 L 421.1 220.8 L 436.3 220.8 L 451.6 220.8 L 466.8 207.0 L 482.1 202.6 L 497.4 202.6 L 512.6 203.2 L 527.9 204.0 L 543.2 202.3 L 558.4 202.3 L 573.7 202.3 L 588.9 202.3 L 604.2 202.6 L 619.5 202.6 L 634.7 202.3 L 650.0 202.6" fill="none" stroke="#58a6ff" stroke-width="2" opacity="0.8"/>
<circle cx="70.0" cy="156.4" r="3" fill="#58a6ff"/>
<circle cx="176.8" cy="157.1" r="3" fill="#58a6ff"/>
<circle cx="283.7" cy="150.7" r="3" fill="#58a6ff"/>
<circle cx="390.5" cy="221.7" r="3" fill="#58a6ff"/>
<circle cx="497.4" cy="202.6" r="3" fill="#58a6ff"/>
<circle cx="604.2" cy="202.6" r="3" fill="#58a6ff"/>
<circle cx="650.0" cy="202.6" r="4" fill="#58a6ff"/>
<path d="M 70.0 156.4 L 85.3 157.4 L 100.5 158.6 L 115.8 156.4 L 131.1 156.4 L 146.3 157.5 L 161.6 158.6 L 176.8 157.5 L 192.1 140.2 L 207.4 156.4 L 222.6 157.5 L 237.9 144.0 L 253.2 156.4 L 268.4 157.2 L 283.7 150.7 L 298.9 150.7 L 314.2 150.7 L 329.5 150.7 L 344.7 150.7 L 360.0 151.0 L 375.3 151.0 L 390.5 257.4 L 405.8 257.4 L 421.1 256.2 L 436.3 256.2 L 451.6 256.2 L 466.8 258.3 L 482.1 255.4 L 497.4 255.4 L 512.6 255.9 L 527.9 257.6 L 543.2 255.4 L 558.4 255.4 L 573.7 255.4 L 588.9 255.4 L 604.2 255.4 L 619.5 255.8 L 634.7 255.4 L 650.0 255.4" fill="none" stroke="#1f6feb" stroke-width="2" opacity="0.8"/>
<circle cx="70.0" cy="156.4" r="3" fill="#1f6feb"/>
<circle cx="176.8" cy="157.5" r="3" fill="#1f6feb"/>
<circle cx="283.7" cy="150.7" r="3" fill="#1f6feb"/>
<circle cx="390.5" cy="257.4" r="3" fill="#1f6feb"/>
<circle cx="497.4" cy="255.4" r="3" fill="#1f6feb"/>
<circle cx="604.2" cy="255.4" r="3" fill="#1f6feb"/>
<circle cx="650.0" cy="255.4" r="4" fill="#1f6feb"/>
<path d="M 70.0 172.1 L 85.3 172.7 L 100.5 174.2 L 115.8 172.1 L 131.1 172.1 L 146.3 172.9 L 161.6 174.2 L 176.8 172.9 L 192.1 154.7 L 207.4 172.1 L 222.6 172.9 L 237.9 158.4 L 253.2 172.1 L 268.4 172.3 L 283.7 166.9 L 298.9 166.9 L 314.2 166.9 L 329.5 166.9 L 344.7 166.9 L 360.0 167.1 L 375.3 167.1 L 390.5 254.5 L 405.8 254.5 L 421.1 253.7 L 436.3 253.7 L 451.6 253.7 L 466.8 243.7 L 482.1 242.4 L 497.4 242.4 L 512.6 242.6 L 527.9 245.2 L 543.2 242.4 L 558.4 242.4 L 573.7 242.4 L 588.9 242.4 L 604.2 242.4 L 619.5 242.7 L 634.7 242.4 L 650.0 242.4" fill="none" stroke="#388bfd" stroke-width="2" opacity="0.8"/>
<circle cx="70.0" cy="172.1" r="3" fill="#388bfd"/>
<circle cx="176.8" cy="172.9" r="3" fill="#388bfd"/>
<circle cx="283.7" cy="166.9" r="3" fill="#388bfd"/>
<circle cx="390.5" cy="254.5" r="3" fill="#388bfd"/>
<circle cx="497.4" cy="242.4" r="3" fill="#388bfd"/>
<circle cx="604.2" cy="242.4" r="3" fill="#388bfd"/>
<circle cx="650.0" cy="242.4" r="4" fill="#388bfd"/>
<path d="M 70.0 139.1 L 85.3 140.5 L 100.5 141.2 L 115.8 139.1 L 131.1 139.1 L 146.3 140.7 L 161.6 141.2 L 176.8 140.7 L 192.1 124.1 L 207.4 139.1 L 222.6 140.7 L 237.9 127.5 L 253.2 139.1 L 268.4 139.0 L 283.7 133.5 L 298.9 133.5 L 314.2 133.5 L 329.5 133.5 L 344.7 133.5 L 360.0 133.5 L 375.3 133.5 L 390.5 227.2 L 405.8 227.2 L 421.1 225.9 L 436.3 225.9 L 451.6 225.9 L 466.8 230.5 L 482.1 230.5 L 497.4 230.5 L 512.6 230.5 L 527.9 232.5 L 543.2 230.3 L 558.4 230.3 L 573.7 230.3 L 588.9 230.3 L 604.2 230.5 L 619.5 230.6 L 634.7 230.3 L 650.0 230.5" fill="none" stroke="#3fb950" stroke-width="2" opacity="0.8"/>
<circle cx="70.0" cy="139.1" r="3" fill="#3fb950"/>
<circle cx="176.8" cy="140.7" r="3" fill="#3fb950"/>
<circle cx="283.7" cy="133.5" r="3" fill="#3fb950"/>
<circle cx="390.5" cy="227.2" r="3" fill="#3fb950"/>
<circle cx="497.4" cy="230.5" r="3" fill="#3fb950"/>
<circle cx="604.2" cy="230.5" r="3" fill="#3fb950"/>
<circle cx="650.0" cy="230.5" r="4" fill="#3fb950"/>
<path d="M 70.0 217.2 L 85.3 218.7 L 100.5 218.6 L 115.8 217.2 L 131.1 217.2 L 146.3 218.8 L 161.6 218.6 L 176.8 218.8 L 192.1 201.0 L 207.4 217.2 L 222.6 218.8 L 237.9 205.2 L 253.2 217.2 L 268.4 216.9 L 283.7 212.8 L 298.9 212.8 L 314.2 212.8 L 329.5 212.8 L 344.7 212.8 L 360.0 212.8 L 375.3 212.8 L 390.5 284.0 L 405.8 284.0 L 421.1 282.4 L 436.3 282.4 L 451.6 282.4 L 466.8 283.7 L 482.1 283.7 L 497.4 283.7 L 512.6 283.7 L 527.9 285.5 L 543.2 283.7 L 558.4 283.7 L 573.7 283.7 L 588.9 283.7 L 604.2 283.7 L 619.5 284.0 L 634.7 283.7 L 650.0 283.7" fill="none" stroke="#238636" stroke-width="2" opacity="0.8"/>
<circle cx="70.0" cy="217.2" r="3" fill="#238636"/>
<circle cx="176.8" cy="218.8" r="3" fill="#238636"/>
<circle cx="283.7" cy="212.8" r="3" fill="#238636"/>
<circle cx="390.5" cy="284.0" r="3" fill="#238636"/>
<circle cx="497.4" cy="283.7" r="3" fill="#238636"/>
<circle cx="604.2" cy="283.7" r="3" fill="#238636"/>
<circle cx="650.0" cy="283.7" r="4" fill="#238636"/>
<path d="M 70.0 121.0 L 85.3 122.6 L 100.5 123.0 L 115.8 121.0 L 131.1 121.0 L 146.3 122.7 L 161.6 123.0 L 176.8 122.7 L 192.1 105.6 L 207.4 121.0 L 222.6 122.7 L 237.9 110.9 L 253.2 121.0 L 268.4 121.1 L 283.7 115.3 L 298.9 115.3 L 314.2 115.3 L 329.5 115.3 L 344.7 115.3 L 360.0 115.3 L 375.3 115.3 L 390.5 197.4 L 405.8 197.4 L 421.1 196.4 L 436.3 196.4 L 451.6 196.4 L 466.8 184.8 L 482.1 184.8 L 497.4 184.8 L 512.6 184.8 L 527.9 187.3 L 543.2 184.8 L 558.4 184.8 L 573.7 184.8 L 588.9 184.8 L 604.2 184.8 L 619.5 185.1 L 634.7 184.8 L 650.0 184.8" fill="none" stroke="#2ea043" stroke-width="2" opacity="0.8"/>
<circle cx="70.0" cy="121.0" r="3" fill="#2ea043"/>
<circle cx="176.8" cy="122.7" r="3" fill="#2ea043"/>
<circle cx="283.7" cy="115.3" r="3" fill="#2ea043"/>
<circle cx="390.5" cy="197.4" r="3" fill="#2ea043"/>
<circle cx="497.4" cy="184.8" r="3" fill="#2ea043"/>
<circle cx="604.2" cy="184.8" r="3" fill="#2ea043"/>
<circle cx="650.0" cy="184.8" r="4" fill="#2ea043"/>
<path d="M 70.0 211.5 L 85.3 213.3 L 100.5 213.7 L 115.8 211.5 L 131.1 211.5 L 146.3 213.5 L 161.6 213.7 L 176.8 213.5 L 192.1 196.5 L 207.4 211.5 L 222.6 213.5 L 237.9 200.0 L 253.2 211.5 L 268.4 211.8 L 283.7 206.4 L 298.9 206.4 L 314.2 206.4 L 329.5 206.4 L 344.7 206.4 L 360.0 206.4 L 375.3 206.4 L 390.5 293.1 L 405.8 293.1 L 421.1 292.4 L 436.3 292.4 L 451.6 292.4 L 466.8 284.1 L 482.1 284.1 L 497.4 284.1 L 512.6 284.1 L 527.9 287.2 L 543.2 284.1 L 558.4 284.1 L 573.7 284.1 L 588.9 284.1 L 604.2 284.1 L 619.5 284.4 L 634.7 284.1 L 650.0 284.1" fill="none" stroke="#56d364" stroke-width="2" opacity="0.8"/>
<circle cx="70.0" cy="211.5" r="3" fill="#56d364"/>
<circle cx="176.8" cy="213.5" r="3" fill="#56d364"/>
<circle cx="283.7" cy="206.4" r="3" fill="#56d364"/>
<circle cx="390.5" cy="293.1" r="3" fill="#56d364"/>
<circle cx="497.4" cy="284.1" r="3" fill="#56d364"/>
<circle cx="604.2" cy="284.1" r="3" fill="#56d364"/>
<circle cx="650.0" cy="284.1" r="4" fill="#56d364"/>
<path d="M 70.0 154.0 L 85.3 155.1 L 100.5 156.2 L 115.8 153.9 L 131.1 154.0 L 146.3 155.1 L 161.6 156.2 L 176.8 155.1 L 192.1 138.2 L 207.4 153.9 L 222.6 155.1 L 237.9 142.0 L 253.2 154.0 L 268.4 154.8 L 283.7 148.7 L 298.9 148.7 L 314.2 148.7 L 329.5 148.7 L 344.7 148.7 L 360.0 148.7 L 375.3 148.7 L 390.5 254.5 L 405.8 254.5 L 421.1 253.3 L 436.3 253.3 L 451.6 253.3 L 466.8 258.5 L 482.1 258.5 L 497.4 258.5 L 512.6 258.5 L 527.9 260.6 L 543.2 258.5 L 558.4 258.5 L 573.7 258.5 L 588.9 258.5 L 604.2 258.5 L 619.5 258.8 L 634.7 258.5 L 650.0 258.5" fill="none" stroke="#f78166" stroke-width="2" opacity="0.8"/>
<circle cx="70.0" cy="154.0" r="3" fill="#f78166"/>
<circle cx="176.8" cy="155.1" r="3" fill="#f78166"/>
<circle cx="283.7" cy="148.7" r="3" fill="#f78166"/>
<circle cx="390.5" cy="254.5" r="3" fill="#f78166"/>
<circle cx="497.4" cy="258.5" r="3" fill="#f78166"/>
<circle cx="604.2" cy="258.5" r="3" fill="#f78166"/>
<circle cx="650.0" cy="258.5" r="4" fill="#f78166"/>
<path d="M 70.0 167.1 L 85.3 167.9 L 100.5 169.2 L 115.8 167.1 L 131.1 167.1 L 146.3 167.9 L 161.6 169.2 L 176.8 167.9 L 192.1 149.6 L 207.4 167.1 L 222.6 167.9 L 237.9 153.3 L 253.2 167.1 L 268.4 167.3 L 283.7 162.0 L 298.9 162.0 L 314.2 162.0 L 329.5 162.0 L 344.7 162.0 L 360.0 162.0 L 375.3 162.0 L 390.5 248.7 L 405.8 248.7 L 421.1 247.8 L 436.3 247.8 L 451.6 247.8 L 466.8 240.8 L 482.1 240.8 L 497.4 240.8 L 512.6 240.8 L 527.9 243.6 L 543.2 240.8 L 558.4 240.8 L 573.7 240.8 L 588.9 240.8 L 604.2 240.8 L 619.5 241.1 L 634.7 240.8 L 650.0 240.8" fill="none" stroke="#ffa657" stroke-width="2" opacity="0.8"/>
<circle cx="70.0" cy="167.1" r="3" fill="#ffa657"/>
<circle cx="176.8" cy="167.9" r="3" fill="#ffa657"/>
<circle cx="283.7" cy="162.0" r="3" fill="#ffa657"/>
<circle cx="390.5" cy="248.7" r="3" fill="#ffa657"/>
<circle cx="497.4" cy="240.8" r="3" fill="#ffa657"/>
<circle cx="604.2" cy="240.8" r="3" fill="#ffa657"/>
<circle cx="650.0" cy="240.8" r="4" fill="#ffa657"/>
<text x="70.0" y="113.0" fill="#2ea043" font-family="monospace" font-size="8px" text-anchor="middle">122.6KB</text>
<text x="70.0" y="131.1" fill="#3fb950" font-family="monospace" font-size="8px" text-anchor="middle">119.1KB</text>
<text x="70.0" y="149.1" fill="#f78166" font-family="monospace" font-size="8px" text-anchor="middle">116.3KB</text>
<text x="70.0" y="167.1" fill="#1f6feb" font-family="monospace" font-size="8px" text-anchor="middle">115.8KB</text>
<text x="70.0" y="185.1" fill="#58a6ff" font-family="monospace" font-size="8px" text-anchor="middle">115.8KB</text>
<text x="70.0" y="203.1" fill="#ffa657" font-family="monospace" font-size="8px" text-anchor="middle">113.7KB</text>
<text x="70.0" y="221.1" fill="#388bfd" font-family="monospace" font-size="8px" text-anchor="middle">112.8KB</text>
<text x="70.0" y="239.1" fill="#56d364" font-family="monospace" font-size="8px" text-anchor="middle">105.2KB</text>
<text x="70.0" y="257.1" fill="#238636" font-family="monospace" font-size="8px" text-anchor="middle">104.2KB</text>
<text x="176.8" y="114.7" fill="#2ea043" font-family="monospace" font-size="8px" text-anchor="middle">122.2KB</text>
<text x="176.8" y="132.7" fill="#3fb950" font-family="monospace" font-size="8px" text-anchor="middle">118.8KB</text>
<text x="176.8" y="150.7" fill="#f78166" font-family="monospace" font-size="8px" text-anchor="middle">116.0KB</text>
<text x="176.8" y="168.7" fill="#58a6ff" font-family="monospace" font-size="8px" text-anchor="middle">115.7KB</text>
<text x="176.8" y="186.7" fill="#1f6feb" font-family="monospace" font-size="8px" text-anchor="middle">115.6KB</text>
<text x="176.8" y="204.7" fill="#ffa657" font-family="monospace" font-size="8px" text-anchor="middle">113.6KB</text>
<text x="176.8" y="222.7" fill="#388bfd" font-family="monospace" font-size="8px" text-anchor="middle">112.6KB</text>
<text x="176.8" y="240.7" fill="#56d364" font-family="monospace" font-size="8px" text-anchor="middle">104.9KB</text>
<text x="176.8" y="258.7" fill="#238636" font-family="monospace" font-size="8px" text-anchor="middle">103.9KB</text>
<text x="283.7" y="107.3" fill="#2ea043" font-family="monospace" font-size="8px" text-anchor="middle">123.7KB</text>
<text x="283.7" y="125.5" fill="#3fb950" font-family="monospace" font-size="8px" text-anchor="middle">120.2KB</text>
<text x="283.7" y="143.5" fill="#f78166" font-family="monospace" font-size="8px" text-anchor="middle">117.3KB</text>
<text x="283.7" y="161.5" fill="#1f6feb" font-family="monospace" font-size="8px" text-anchor="middle">116.9KB</text>
<text x="283.7" y="179.5" fill="#58a6ff" font-family="monospace" font-size="8px" text-anchor="middle">116.9KB</text>
<text x="283.7" y="197.5" fill="#ffa657" font-family="monospace" font-size="8px" text-anchor="middle">114.7KB</text>
<text x="283.7" y="215.5" fill="#388bfd" font-family="monospace" font-size="8px" text-anchor="middle">113.8KB</text>
<text x="283.7" y="233.5" fill="#56d364" font-family="monospace" font-size="8px" text-anchor="middle">106.2KB</text>
<text x="283.7" y="251.5" fill="#238636" font-family="monospace" font-size="8px" text-anchor="middle">105.0KB</text>
<text x="390.5" y="189.4" fill="#2ea043" font-family="monospace" font-size="8px" text-anchor="middle">108.0KB</text>
<text x="390.5" y="213.7" fill="#58a6ff" font-family="monospace" font-size="8px" text-anchor="middle">103.3KB</text>
<text x="390.5" y="231.7" fill="#3fb950" font-family="monospace" font-size="8px" text-anchor="middle">102.3KB</text>
<text x="390.5" y="249.7" fill="#ffa657" font-family="monospace" font-size="8px" text-anchor="middle">98.2KB</text>
<text x="390.5" y="267.7" fill="#f78166" font-family="monospace" font-size="8px" text-anchor="middle">97.0KB</text>
<text x="390.5" y="285.7" fill="#388bfd" font-family="monospace" font-size="8px" text-anchor="middle">97.0KB</text>
<text x="390.5" y="303.7" fill="#1f6feb" font-family="monospace" font-size="8px" text-anchor="middle">96.5KB</text>
<text x="390.5" y="321.7" fill="#238636" font-family="monospace" font-size="8px" text-anchor="middle">91.4KB</text>
<text x="390.5" y="339.7" fill="#56d364" font-family="monospace" font-size="8px" text-anchor="middle">89.7KB</text>
<text x="497.4" y="176.8" fill="#2ea043" font-family="monospace" font-size="8px" text-anchor="middle">110.4KB</text>
<text x="497.4" y="194.8" fill="#58a6ff" font-family="monospace" font-size="8px" text-anchor="middle">107.0KB</text>
<text x="497.4" y="222.5" fill="#3fb950" font-family="monospace" font-size="8px" text-anchor="middle">101.6KB</text>
<text x="497.4" y="240.5" fill="#ffa657" font-family="monospace" font-size="8px" text-anchor="middle">99.7KB</text>
<text x="497.4" y="258.5" fill="#388bfd" font-family="monospace" font-size="8px" text-anchor="middle">99.4KB</text>
<text x="497.4" y="276.5" fill="#1f6feb" font-family="monospace" font-size="8px" text-anchor="middle">96.9KB</text>
<text x="497.4" y="294.5" fill="#f78166" font-family="monospace" font-size="8px" text-anchor="middle">96.3KB</text>
<text x="497.4" y="312.5" fill="#238636" font-family="monospace" font-size="8px" text-anchor="middle">91.5KB</text>
<text x="497.4" y="330.5" fill="#56d364" font-family="monospace" font-size="8px" text-anchor="middle">91.4KB</text>
<text x="604.2" y="176.8" fill="#2ea043" font-family="monospace" font-size="8px" text-anchor="middle">110.4KB</text>
<text x="604.2" y="194.8" fill="#58a6ff" font-family="monospace" font-size="8px" text-anchor="middle">107.0KB</text>
<text x="604.2" y="222.5" fill="#3fb950" font-family="monospace" font-size="8px" text-anchor="middle">101.6KB</text>
<text x="604.2" y="240.5" fill="#ffa657" font-family="monospace" font-size="8px" text-anchor="middle">99.7KB</text>
<text x="604.2" y="258.5" fill="#388bfd" font-family="monospace" font-size="8px" text-anchor="middle">99.4KB</text>
<text x="604.2" y="276.5" fill="#1f6feb" font-family="monospace" font-size="8px" text-anchor="middle">96.9KB</text>
<text x="604.2" y="294.5" fill="#f78166" font-family="monospace" font-size="8px" text-anchor="middle">96.3KB</text>
<text x="604.2" y="312.5" fill="#238636" font-family="monospace" font-size="8px" text-anchor="middle">91.5KB</text>
<text x="604.2" y="330.5" fill="#56d364" font-family="monospace" font-size="8px" text-anchor="middle">91.4KB</text>
<text x="650.0" y="176.8" fill="#2ea043" font-family="monospace" font-size="8px" text-anchor="middle">110.4KB</text>
<text x="650.0" y="194.8" fill="#58a6ff" font-family="monospace" font-size="8px" text-anchor="middle">107.0KB</text>
<text x="650.0" y="222.5" fill="#3fb950" font-family="monospace" font-size="8px" text-anchor="middle">101.6KB</text>
<text x="650.0" y="240.5" fill="#ffa657" font-family="monospace" font-size="8px" text-anchor="middle">99.7KB</text>
<text x="650.0" y="258.5" fill="#388bfd" font-family="monospace" font-size="8px" text-anchor="middle">99.4KB</text>
<text x="650.0" y="276.5" fill="#1f6feb" font-family="monospace" font-size="8px" text-anchor="middle">96.9KB</text>
<text x="650.0" y="294.5" fill="#f78166" font-family="monospace" font-size="8px" text-anchor="middle">96.3KB</text>
<text x="650.0" y="312.5" fill="#238636" font-family="monospace" font-size="8px" text-anchor="middle">91.5KB</text>
<text x="650.0" y="330.5" fill="#56d364" font-family="monospace" font-size="8px" text-anchor="middle">91.4KB</text>
<rect x="665" y="44" width="12" height="12" fill="#58a6ff"/>
<text x="683" y="54" class="legend">Win i386</text>
<rect x="665" y="62" width="12" height="12" fill="#1f6feb"/>
<text x="683" y="72" class="legend">Win x64</text>
<rect x="665" y="80" width="12" height="12" fill="#388bfd"/>
<text x="683" y="90" class="legend">Win ARM64</text>
<rect x="665" y="98" width="12" height="12" fill="#3fb950"/>
<text x="683" y="108" class="legend">Linux i386</text>
<rect x="665" y="116" width="12" height="12" fill="#238636"/>
<text x="683" y="126" class="legend">Linux x64</text>
<rect x="665" y="134" width="12" height="12" fill="#2ea043"/>
<text x="683" y="144" class="legend">Linux ARM</text>
<rect x="665" y="152" width="12" height="12" fill="#56d364"/>
<text x="683" y="162" class="legend">Linux ARM64</text>
<rect x="665" y="170" width="12" height="12" fill="#f78166"/>
<text x="683" y="180" class="legend">UEFI x64</text>
<rect x="665" y="188" width="12" height="12" fill="#ffa657"/>
<text x="683" y="198" class="legend">UEFI ARM64</text>
</svg>