<svg xmlns="http://www.w3.org/2000/svg" width="800" height="400">
<defs>
<style>
.axis-text { fill: #8b949e; font-family: monospace; font-size: 11px; }
.title { fill: #c9d1d9; font-family: monospace; font-size: 14px; font-weight: bold; }
.legend { fill: #8b949e; font-family: monospace; font-size: 10px; }
.grid { stroke: #21262d; stroke-width: 1; }
</style>
</defs>
<rect width="800" height="400" fill="#0d1117"/>
<text x="400.0" y="25" class="title" text-anchor="middle">Binary Size Trend (.bin)</text>
<line x1="70" y1="40.0" x2="650" y2="40.0" class="grid"/>
<text x="60" y="44.0" class="axis-text" text-anchor="end">138KB</text>
<line x1="70" y1="100.0" x2="650" y2="100.0" class="grid"/>
<text x="60" y="104.0" class="axis-text" text-anchor="end">127KB</text>
<line x1="70" y1="160.0" x2="650" y2="160.0" class="grid"/>
<text x="60" y="164.0" class="axis-text" text-anchor="end">115KB</text>
<line x1="70" y1="220.0" x2="650" y2="220.0" class="grid"/>
<text x="60" y="224.0" class="axis-text" text-anchor="end">104KB</text>
<line x1="70" y1="280.0" x2="650" y2="280.0" class="grid"/>
<text x="60" y="284.0" class="axis-text" text-anchor="end">92KB</text>
<line x1="70" y1="340.0" x2="650" y2="340.0" class="grid"/>
<text x="60" y="344.0" class="axis-text" text-anchor="end">81KB</text>
<text x="70.0" y="360" class="axis-text" text-anchor="middle">02-05</text>
<text x="157.0" y="360" class="axis-text" text-anchor="middle">02-05</text>
<text x="244.0" y="360" class="axis-text" text-anchor="middle">02-05</text>
<text x="331.0" y="360" class="axis-text" text-anchor="middle">02-09</text>
<text x="418.0" y="360" class="axis-text" text-anchor="middle">02-11</text>
<text x="505.0" y="360" class="axis-text" text-anchor="middle">02-24</text>
<text x="592.0" y="360" class="axis-text" text-anchor="middle">02-24</text>
<path d="M 70.0 156.4 L 84.5 157.0 L 99.0 158.2 L 113.5 156.3 L 128.0 156.4 L 142.5 157.1 L 157.0 158.2 L 171.5 157.1 L 186.0 140.0 L 200.5 156.3 L 215.0 157.1 L 229.5 144.9 L 244.0 156.4 L 258.5 156.0 L 273.0 150.7 L 287.5 150.7 L 302.0 150.7 L 316.5 150.7 L 331.0 150.7 L 345.5 151.0 L 360.0 151.0 L 374.5 221.7 L 389.0 221.7 L 403.5 220.8 L 418.0 220.8 L 432.5 220.8 L 447.0 207.0 L 461.5 202.6 L 476.0 202.6 L 490.5 203.2 L 505.0 204.0 L 519.5 202.3 L 534.0 202.3 L 548.5 199.7 L 563.0 202.3 L 577.5 202.3 L 592.0 202.6 L 606.5 202.6 L 621.0 202.3 L 635.5 200.6 L 650.0 202.6" fill="none" stroke="#58a6ff" stroke-width="2" opacity="0.8"/>
<circle cx="70.0" cy="156.4" r="3" fill="#58a6ff"/>
<circle cx="186.0" cy="140.0" r="3" fill="#58a6ff"/>
<circle cx="302.0" cy="150.7" r="3" fill="#58a6ff"/>
<circle cx="418.0" cy="220.8" r="3" fill="#58a6ff"/>
<circle cx="534.0" cy="202.3" r="3" fill="#58a6ff"/>
<circle cx="650.0" cy="202.6" r="4" fill="#58a6ff"/>
<path d="M 70.0 156.4 L 84.5 157.4 L 99.0 158.6 L 113.5 156.4 L 128.0 156.4 L 142.5 157.5 L 157.0 158.6 L 171.5 157.5 L 186.0 140.2 L 200.5 156.4 L 215.0 157.5 L 229.5 144.0 L 244.0 156.4 L 258.5 157.2 L 273.0 150.7 L 287.5 150.7 L 302.0 150.7 L 316.5 150.7 L 331.0 150.7 L 345.5 151.0 L 360.0 151.0 L 374.5 257.4 L 389.0 257.4 L 403.5 256.2 L 418.0 256.2 L 432.5 256.2 L 447.0 258.3 L 461.5 255.4 L 476.0 255.4 L 490.5 255.9 L 505.0 257.6 L 519.5 255.4 L 534.0 255.4 L 548.5 253.2 L 563.0 255.4 L 577.5 255.4 L 592.0 255.4 L 606.5 255.8 L 621.0 255.4 L 635.5 253.6 L 650.0 255.4" fill="none" stroke="#1f6feb" stroke-width="2" opacity="0.8"/>
<circle cx="70.0" cy="156.4" r="3" fill="#1f6feb"/>
<circle cx="186.0" cy="140.2" r="3" fill="#1f6feb"/>
<circle cx="302.0" cy="150.7" r="3" fill="#1f6feb"/>
<circle cx="418.0" cy="256.2" r="3" fill="#1f6feb"/>
<circle cx="534.0" cy="255.4" r="3" fill="#1f6feb"/>
<circle cx="650.0" cy="255.4" r="4" fill="#1f6feb"/>
<path d="M 70.0 172.1 L 84.5 172.7 L 99.0 174.2 L 113.5 172.1 L 128.0 172.1 L 142.5 172.9 L 157.0 174.2 L 171.5 172.9 L 186.0 154.7 L 200.5 172.1 L 215.0 172.9 L 229.5 158.4 L 244.0 172.1 L 258.5 172.3 L 273.0 166.9 L 287.5 166.9 L 302.0 166.9 L 316.5 166.9 L 331.0 166.9 L 345.5 167.1 L 360.0 167.1 L 374.5 254.5 L 389.0 254.5 L 403.5 253.7 L 418.0 253.7 L 432.5 253.7 L 447.0 243.7 L 461.5 242.4 L 476.0 242.4 L 490.5 242.6 L 505.0 245.2 L 519.5 242.4 L 534.0 242.4 L 548.5 241.0 L 563.0 242.4 L 577.5 242.4 L 592.0 242.4 L 606.5 242.7 L 621.0 242.4 L 635.5 241.9 L 650.0 242.4" fill="none" stroke="#388bfd" stroke-width="2" opacity="0.8"/>
<circle cx="70.0" cy="172.1" r="3" fill="#388bfd"/>
<circle cx="186.0" cy="154.7" r="3" fill="#388bfd"/>
<circle cx="302.0" cy="166.9" r="3" fill="#388bfd"/>
<circle cx="418.0" cy="253.7" r="3" fill="#388bfd"/>
<circle cx="534.0" cy="242.4" r="3" fill="#388bfd"/>
<circle cx="650.0" cy="242.4" r="4" fill="#388bfd"/>
<path d="M 70.0 139.1 L 84.5 140.5 L 99.0 141.2 L 113.5 139.1 L 128.0 139.1 L 142.5 140.7 L 157.0 141.2 L 171.5 140.7 L 186.0 124.1 L 200.5 139.1 L 215.0 140.7 L 229.5 127.5 L 244.0 139.1 L 258.5 139.0 L 273.0 133.5 L 287.5 133.5 L 302.0 133.5 L 316.5 133.5 L 331.0 133.5 L 345.5 133.5 L 360.0 133.5 L 374.5 227.2 L 389.0 227.2 L 403.5 225.9 L 418.0 225.9 L 432.5 225.9 L 447.0 230.5 L 461.5 230.5 L 476.0 230.5 L 490.5 230.5 L 505.0 232.5 L 519.5 230.3 L 534.0 230.3 L 548.5 227.8 L 563.0 230.3 L 577.5 230.3 L 592.0 230.5 L 606.5 230.6 L 621.0 230.3 L 635.5 228.8 L 650.0 230.5" fill="none" stroke="#3fb950" stroke-width="2" opacity="0.8"/>
<circle cx="70.0" cy="139.1" r="3" fill="#3fb950"/>
<circle cx="186.0" cy="124.1" r="3" fill="#3fb950"/>
<circle cx="302.0" cy="133.5" r="3" fill="#3fb950"/>
<circle cx="418.0" cy="225.9" r="3" fill="#3fb950"/>
<circle cx="534.0" cy="230.3" r="3" fill="#3fb950"/>
<circle cx="650.0" cy="230.5" r="4" fill="#3fb950"/>
<path d="M 70.0 217.2 L 84.5 218.7 L 99.0 218.6 L 113.5 217.2 L 128.0 217.2 L 142.5 218.8 L 157.0 218.6 L 171.5 218.8 L 186.0 201.0 L 200.5 217.2 L 215.0 218.8 L 229.5 205.2 L 244.0 217.2 L 258.5 216.9 L 273.0 212.8 L 287.5 212.8 L 302.0 212.8 L 316.5 212.8 L 331.0 212.8 L 345.5 212.8 L 360.0 212.8 L 374.5 284.0 L 389.0 284.0 L 403.5 282.4 L 418.0 282.4 L 432.5 282.4 L 447.0 283.7 L 461.5 283.7 L 476.0 283.7 L 490.5 283.7 L 505.0 285.5 L 519.5 283.7 L 534.0 283.7 L 548.5 281.2 L 563.0 283.7 L 577.5 283.7 L 592.0 283.7 L 606.5 284.0 L 621.0 283.7 L 635.5 282.0 L 650.0 283.7" fill="none" stroke="#238636" stroke-width="2" opacity="0.8"/>
<circle cx="70.0" cy="217.2" r="3" fill="#238636"/>
<circle cx="186.0" cy="201.0" r="3" fill="#238636"/>
<circle cx="302.0" cy="212.8" r="3" fill="#238636"/>
<circle cx="418.0" cy="282.4" r="3" fill="#238636"/>
<circle cx="534.0" cy="283.7" r="3" fill="#238636"/>
<circle cx="650.0" cy="283.7" r="4" fill="#238636"/>
<path d="M 70.0 121.0 L 84.5 122.6 L 99.0 123.0 L 113.5 121.0 L 128.0 121.0 L 142.5 122.7 L 157.0 123.0 L 171.5 122.7 L 186.0 105.6 L 200.5 121.0 L 215.0 122.7 L 229.5 110.9 L 244.0 121.0 L 258.5 121.1 L 273.0 115.3 L 287.5 115.3 L 302.0 115.3 L 316.5 115.3 L 331.0 115.3 L 345.5 115.3 L 360.0 115.3 L 374.5 197.4 L 389.0 197.4 L 403.5 196.4 L 418.0 196.4 L 432.5 196.4 L 447.0 184.8 L 461.5 184.8 L 476.0 184.8 L 490.5 184.8 L 505.0 187.3 L 519.5 184.8 L 534.0 184.8 L 548.5 183.7 L 563.0 184.8 L 577.5 184.8 L 592.0 184.8 L 606.5 185.1 L 621.0 184.8 L 635.5 184.2 L 650.0 184.8" fill="none" stroke="#2ea043" stroke-width="2" opacity="0.8"/>
<circle cx="70.0" cy="121.0" r="3" fill="#2ea043"/>
<circle cx="186.0" cy="105.6" r="3" fill="#2ea043"/>
<circle cx="302.0" cy="115.3" r="3" fill="#2ea043"/>
<circle cx="418.0" cy="196.4" r="3" fill="#2ea043"/>
<circle cx="534.0" cy="184.8" r="3" fill="#2ea043"/>
<circle cx="650.0" cy="184.8" r="4" fill="#2ea043"/>
<path d="M 70.0 211.5 L 84.5 213.3 L 99.0 213.7 L 113.5 211.5 L 128.0 211.5 L 142.5 213.5 L 157.0 213.7 L 171.5 213.5 L 186.0 196.5 L 200.5 211.5 L 215.0 213.5 L 229.5 200.0 L 244.0 211.5 L 258.5 211.8 L 273.0 206.4 L 287.5 206.4 L 302.0 206.4 L 316.5 206.4 L 331.0 206.4 L 345.5 206.4 L 360.0 206.4 L 374.5 293.1 L 389.0 293.1 L 403.5 292.4 L 418.0 292.4 L 432.5 292.4 L 447.0 284.1 L 461.5 284.1 L 476.0 284.1 L 490.5 284.1 L 505.0 287.2 L 519.5 284.1 L 534.0 284.1 L 548.5 284.3 L 563.0 284.1 L 577.5 284.1 L 592.0 284.1 L 606.5 284.4 L 621.0 284.1 L 635.5 284.8 L 650.0 284.1" fill="none" stroke="#56d364" stroke-width="2" opacity="0.8"/>
<circle cx="70.0" cy="211.5" r="3" fill="#56d364"/>
<circle cx="186.0" cy="196.5" r="3" fill="#56d364"/>
<circle cx="302.0" cy="206.4" r="3" fill="#56d364"/>
<circle cx="418.0" cy="292.4" r="3" fill="#56d364"/>
<circle cx="534.0" cy="284.1" r="3" fill="#56d364"/>
<circle cx="650.0" cy="284.1" r="4" fill="#56d364"/>
<path d="M 70.0 154.0 L 84.5 155.1 L 99.0 156.2 L 113.5 153.9 L 128.0 154.0 L 142.5 155.1 L 157.0 156.2 L 171.5 155.1 L 186.0 138.2 L 200.5 153.9 L 215.0 155.1 L 229.5 142.0 L 244.0 154.0 L 258.5 154.8 L 273.0 148.7 L 287.5 148.7 L 302.0 148.7 L 316.5 148.7 L 331.0 148.7 L 345.5 148.7 L 360.0 148.7 L 374.5 254.5 L 389.0 254.5 L 403.5 253.3 L 418.0 253.3 L 432.5 253.3 L 447.0 258.5 L 461.5 258.5 L 476.0 258.5 L 490.5 258.5 L 505.0 260.6 L 519.5 258.5 L 534.0 258.5 L 548.5 256.6 L 563.0 258.5 L 577.5 258.5 L 592.0 258.5 L 606.5 258.8 L 621.0 258.5 L 635.5 257.3 L 650.0 258.5" fill="none" stroke="#f78166" stroke-width="2" opacity="0.8"/>
<circle cx="70.0" cy="154.0" r="3" fill="#f78166"/>
<circle cx="186.0" cy="138.2" r="3" fill="#f78166"/>
<circle cx="302.0" cy="148.7" r="3" fill="#f78166"/>
<circle cx="418.0" cy="253.3" r="3" fill="#f78166"/>
<circle cx="534.0" cy="258.5" r="3" fill="#f78166"/>
<circle cx="650.0" cy="258.5" r="4" fill="#f78166"/>
<path d="M 70.0 167.1 L 84.5 167.9 L 99.0 169.2 L 113.5 167.1 L 128.0 167.1 L 142.5 167.9 L 157.0 169.2 L 171.5 167.9 L 186.0 149.6 L 200.5 167.1 L 215.0 167.9 L 229.5 153.3 L 244.0 167.1 L 258.5 167.3 L 273.0 162.0 L 287.5 162.0 L 302.0 162.0 L 316.5 162.0 L 331.0 162.0 L 345.5 162.0 L 360.0 162.0 L 374.5 248.7 L 389.0 248.7 L 403.5 247.8 L 418.0 247.8 L 432.5 247.8 L 447.0 240.8 L 461.5 240.8 L 476.0 240.8 L 490.5 240.8 L 505.0 243.6 L 519.5 240.8 L 534.0 240.8 L 548.5 239.8 L 563.0 240.8 L 577.5 240.8 L 592.0 240.8 L 606.5 241.1 L 621.0 240.8 L 635.5 240.6 L 650.0 240.8" fill="none" stroke="#ffa657" stroke-width="2" opacity="0.8"/>
<circle cx="70.0" cy="167.1" r="3" fill="#ffa657"/>
<circle cx="186.0" cy="149.6" r="3" fill="#ffa657"/>
<circle cx="302.0" cy="162.0" r="3" fill="#ffa657"/>
<circle cx="418.0" cy="247.8" r="3" fill="#ffa657"/>
<circle cx="534.0" cy="240.8" r="3" fill="#ffa657"/>
<circle cx="650.0" cy="240.8" r="4" fill="#ffa657"/>
<text x="70.0" y="113.0" fill="#2ea043" font-family="monospace" font-size="8px" text-anchor="middle">122.6KB</text>
<text x="70.0" y="131.1" fill="#3fb950" font-family="monospace" font-size="8px" text-anchor="middle">119.1KB</text>
<text x="70.0" y="149.1" fill="#f78166" font-family="monospace" font-size="8px" text-anchor="middle">116.3KB</text>
<text x="70.0" y="167.1" fill="#1f6feb" font-family="monospace" font-size="8px" text-anchor="middle">115.8KB</text>
<text x="70.0" y="185.1" fill="#58a6ff" font-family="monospace" font-size="8px" text-anchor="middle">115.8KB</text>
<text x="70.0" y="203.1" fill="#ffa657" font-family="monospace" font-size="8px" text-anchor="middle">113.7KB</text>
<text x="70.0" y="221.1" fill="#388bfd" font-family="monospace" font-size="8px" text-anchor="middle">112.8KB</text>
<text x="70.0" y="239.1" fill="#56d364" font-family="monospace" font-size="8px" text-anchor="middle">105.2KB</text>
<text x="70.0" y="257.1" fill="#238636" font-family="monospace" font-size="8px" text-anchor="middle">104.2KB</text>
<text x="186.0" y="97.6" fill="#2ea043" font-family="monospace" font-size="8px" text-anchor="middle">125.5KB</text>
<text x="186.0" y="116.1" fill="#3fb950" font-family="monospace" font-size="8px" text-anchor="middle">122.0KB</text>
<text x="186.0" y="134.1" fill="#f78166" font-family="monospace" font-size="8px" text-anchor="middle">119.3KB</text>
<text x="186.0" y="152.1" fill="#58a6ff" font-family="monospace" font-size="8px" text-anchor="middle">118.9KB</text>
<text x="186.0" y="170.1" fill="#1f6feb" font-family="monospace" font-size="8px" text-anchor="middle">118.9KB</text>
<text x="186.0" y="188.1" fill="#ffa657" font-family="monospace" font-size="8px" text-anchor="middle">117.1KB</text>
<text x="186.0" y="206.1" fill="#388bfd" font-family="monospace" font-size="8px" text-anchor="middle">116.1KB</text>
<text x="186.0" y="224.1" fill="#56d364" font-family="monospace" font-size="8px" text-anchor="middle">108.1KB</text>
<text x="186.0" y="242.1" fill="#238636" font-family="monospace" font-size="8px" text-anchor="middle">107.3KB</text>
<text x="302.0" y="107.3" fill="#2ea043" font-family="monospace" font-size="8px" text-anchor="middle">123.7KB</text>
<text x="302.0" y="125.5" fill="#3fb950" font-family="monospace" font-size="8px" text-anchor="middle">120.2KB</text>
<text x="302.0" y="143.5" fill="#f78166" font-family="monospace" font-size="8px" text-anchor="middle">117.3KB</text>
<text x="302.0" y="161.5" fill="#1f6feb" font-family="monospace" font-size="8px" text-anchor="middle">116.9KB</text>
<text x="302.0" y="179.5" fill="#58a6ff" font-family="monospace" font-size="8px" text-anchor="middle">116.9KB</text>
<text x="302.0" y="197.5" fill="#ffa657" font-family="monospace" font-size="8px" text-anchor="middle">114.7KB</text>
<text x="302.0" y="215.5" fill="#388bfd" font-family="monospace" font-size="8px" text-anchor="middle">113.8KB</text>
<text x="302.0" y="233.5" fill="#56d364" font-family="monospace" font-size="8px" text-anchor="middle">106.2KB</text>
<text x="302.0" y="251.5" fill="#238636" font-family="monospace" font-size="8px" text-anchor="middle">105.0KB</text>
<text x="418.0" y="188.4" fill="#2ea043" font-family="monospace" font-size="8px" text-anchor="middle">108.1KB</text>
<text x="418.0" y="212.8" fill="#58a6ff" font-family="monospace" font-size="8px" text-anchor="middle">103.5KB</text>
<text x="418.0" y="230.8" fill="#3fb950" font-family="monospace" font-size="8px" text-anchor="middle">102.5KB</text>
<text x="418.0" y="248.8" fill="#ffa657" font-family="monospace" font-size="8px" text-anchor="middle">98.3KB</text>
<text x="418.0" y="266.8" fill="#f78166" font-family="monospace" font-size="8px" text-anchor="middle">97.3KB</text>
<text x="418.0" y="284.8" fill="#388bfd" font-family="monospace" font-size="8px" text-anchor="middle">97.2KB</text>
<text x="418.0" y="302.8" fill="#1f6feb" font-family="monospace" font-size="8px" text-anchor="middle">96.7KB</text>
<text x="418.0" y="320.8" fill="#238636" font-family="monospace" font-size="8px" text-anchor="middle">91.7KB</text>
<text x="418.0" y="338.8" fill="#56d364" font-family="monospace" font-size="8px" text-anchor="middle">89.8KB</text>
<text x="534.0" y="176.8" fill="#2ea043" font-family="monospace" font-size="8px" text-anchor="middle">110.4KB</text>
<text x="534.0" y="194.8" fill="#58a6ff" font-family="monospace" font-size="8px" text-anchor="middle">107.0KB</text>
<text x="534.0" y="222.3" fill="#3fb950" font-family="monospace" font-size="8px" text-anchor="middle">101.7KB</text>
<text x="534.0" y="240.3" fill="#ffa657" font-family="monospace" font-size="8px" text-anchor="middle">99.7KB</text>
<text x="534.0" y="258.3" fill="#388bfd" font-family="monospace" font-size="8px" text-anchor="middle">99.4KB</text>
<text x="534.0" y="276.3" fill="#1f6feb" font-family="monospace" font-size="8px" text-anchor="middle">96.9KB</text>
<text x="534.0" y="294.3" fill="#f78166" font-family="monospace" font-size="8px" text-anchor="middle">96.3KB</text>
<text x="534.0" y="312.3" fill="#238636" font-family="monospace" font-size="8px" text-anchor="middle">91.5KB</text>
<text x="534.0" y="330.3" fill="#56d364" font-family="monospace" font-size="8px" text-anchor="middle">91.4KB</text>
<text x="650.0" y="176.8" fill="#2ea043" font-family="monospace" font-size="8px" text-anchor="middle">110.4KB</text>
<text x="650.0" y="194.8" fill="#58a6ff" font-family="monospace" font-size="8px" text-anchor="middle">107.0KB</text>
<text x="650.0" y="222.5" fill="#3fb950" font-family="monospace" font-size="8px" text-anchor="middle">101.6KB</text>
<text x="650.0" y="240.5" fill="#ffa657" font-family="monospace" font-size="8px" text-anchor="middle">99.7KB</text>
<text x="650.0" y="258.5" fill="#388bfd" font-family="monospace" font-size="8px" text-anchor="middle">99.4KB</text>
<text x="650.0" y="276.5" fill="#1f6feb" font-family="monospace" font-size="8px" text-anchor="middle">96.9KB</text>
<text x="650.0" y="294.5" fill="#f78166" font-family="monospace" font-size="8px" text-anchor="middle">96.3KB</text>
<text x="650.0" y="312.5" fill="#238636" font-family="monospace" font-size="8px" text-anchor="middle">91.5KB</text>
<text x="650.0" y="330.5" fill="#56d364" font-family="monospace" font-size="8px" text-anchor="middle">91.4KB</text>
<rect x="665" y="44" width="12" height="12" fill="#58a6ff"/>
<text x="683" y="54" class="legend">Win i386</text>
<rect x="665" y="62" width="12" height="12" fill="#1f6feb"/>
<text x="683" y="72" class="legend">Win x64</text>
<rect x="665" y="80" width="12" height="12" fill="#388bfd"/>
<text x="683" y="90" class="legend">Win ARM64</text>
<rect x="665" y="98" width="12" height="12" fill="#3fb950"/>
<text x="683" y="108" class="legend">Linux i386</text>
<rect x="665" y="116" width="12" height="12" fill="#238636"/>
<text x="683" y="126" class="legend">Linux x64</text>
<rect x="665" y="134" width="12" height="12" fill="#2ea043"/>
<text x="683" y="144" class="legend">Linux ARM</text>
<rect x="665" y="152" width="12" height="12" fill="#56d364"/>
<text x="683" y="162" class="legend">Linux ARM64</text>
<rect x="665" y="170" width="12" height="12" fill="#f78166"/>
<text x="683" y="180" class="legend">UEFI x64</text>
<rect x="665" y="188" width="12" height="12" fill="#ffa657"/>
<text x="683" y="198" class="legend">UEFI ARM64</text>
</svg>