<svg xmlns="http://www.w3.org/2000/svg" width="800" height="400">
<defs>
<style>
.axis-text { fill: #8b949e; font-family: monospace; font-size: 11px; }
.title { fill: #c9d1d9; font-family: monospace; font-size: 14px; font-weight: bold; }
.legend { fill: #8b949e; font-family: monospace; font-size: 10px; }
.grid { stroke: #21262d; stroke-width: 1; }
</style>
</defs>
<rect width="800" height="400" fill="#0d1117"/>
<text x="400.0" y="25" class="title" text-anchor="middle">Binary Size Trend (.bin)</text>
<line x1="70" y1="40.0" x2="650" y2="40.0" class="grid"/>
<text x="60" y="44.0" class="axis-text" text-anchor="end">138KB</text>
<line x1="70" y1="100.0" x2="650" y2="100.0" class="grid"/>
<text x="60" y="104.0" class="axis-text" text-anchor="end">126KB</text>
<line x1="70" y1="160.0" x2="650" y2="160.0" class="grid"/>
<text x="60" y="164.0" class="axis-text" text-anchor="end">115KB</text>
<line x1="70" y1="220.0" x2="650" y2="220.0" class="grid"/>
<text x="60" y="224.0" class="axis-text" text-anchor="end">103KB</text>
<line x1="70" y1="280.0" x2="650" y2="280.0" class="grid"/>
<text x="60" y="284.0" class="axis-text" text-anchor="end">92KB</text>
<line x1="70" y1="340.0" x2="650" y2="340.0" class="grid"/>
<text x="60" y="344.0" class="axis-text" text-anchor="end">80KB</text>
<text x="70.0" y="360" class="axis-text" text-anchor="middle">02-05</text>
<text x="168.72340425531917" y="360" class="axis-text" text-anchor="middle">02-05</text>
<text x="267.44680851063833" y="360" class="axis-text" text-anchor="middle">02-06</text>
<text x="366.17021276595744" y="360" class="axis-text" text-anchor="middle">02-11</text>
<text x="464.8936170212766" y="360" class="axis-text" text-anchor="middle">02-24</text>
<text x="563.6170212765958" y="360" class="axis-text" text-anchor="middle">02-24</text>
<path d="M 70.0 155.3 L 82.3 156.0 L 94.7 157.1 L 107.0 155.2 L 119.4 155.3 L 131.7 156.1 L 144.0 157.1 L 156.4 156.1 L 168.7 139.1 L 181.1 155.2 L 193.4 156.1 L 205.7 144.0 L 218.1 155.3 L 230.4 155.0 L 242.8 149.7 L 255.1 149.7 L 267.4 149.7 L 279.8 149.7 L 292.1 149.7 L 304.5 150.0 L 316.8 150.0 L 329.1 220.0 L 341.5 220.0 L 353.8 219.2 L 366.2 219.2 L 378.5 219.2 L 390.9 205.5 L 403.2 201.1 L 415.5 201.1 L 427.9 201.7 L 440.2 202.5 L 452.6 200.9 L 464.9 200.9 L 477.2 199.9 L 489.6 198.3 L 501.9 199.9 L 514.3 200.9 L 526.6 199.8 L 538.9 200.9 L 551.3 201.1 L 563.6 201.2 L 576.0 200.9 L 588.3 199.2 L 600.6 200.7 L 613.0 200.4 L 625.3 214.3 L 637.7 199.9 L 650.0 201.1" fill="none" stroke="#58a6ff" stroke-width="2" opacity="0.8"/>
<circle cx="70.0" cy="155.3" r="3" fill="#58a6ff"/>
<circle cx="181.1" cy="155.2" r="3" fill="#58a6ff"/>
<circle cx="292.1" cy="149.7" r="3" fill="#58a6ff"/>
<circle cx="403.2" cy="201.1" r="3" fill="#58a6ff"/>
<circle cx="514.3" cy="200.9" r="3" fill="#58a6ff"/>
<circle cx="625.3" cy="214.3" r="3" fill="#58a6ff"/>
<circle cx="650.0" cy="201.1" r="4" fill="#58a6ff"/>
<path d="M 70.0 155.3 L 82.3 156.4 L 94.7 157.5 L 107.0 155.3 L 119.4 155.3 L 131.7 156.4 L 144.0 157.5 L 156.4 156.4 L 168.7 139.3 L 181.1 155.3 L 193.4 156.4 L 205.7 143.1 L 218.1 155.3 L 230.4 156.1 L 242.8 149.7 L 255.1 149.7 L 267.4 149.7 L 279.8 149.7 L 292.1 149.7 L 304.5 150.0 L 316.8 150.0 L 329.1 255.4 L 341.5 255.4 L 353.8 254.3 L 366.2 254.3 L 378.5 254.3 L 390.9 256.3 L 403.2 253.5 L 415.5 253.5 L 427.9 254.0 L 440.2 255.6 L 452.6 253.5 L 464.9 253.5 L 477.2 251.9 L 489.6 251.3 L 501.9 251.9 L 514.3 253.5 L 526.6 252.1 L 538.9 253.5 L 551.3 253.5 L 563.6 253.8 L 576.0 253.5 L 588.3 251.7 L 600.6 252.9 L 613.0 252.4 L 625.3 253.9 L 637.7 251.9 L 650.0 253.5" fill="none" stroke="#1f6feb" stroke-width="2" opacity="0.8"/>
<circle cx="70.0" cy="155.3" r="3" fill="#1f6feb"/>
<circle cx="181.1" cy="155.3" r="3" fill="#1f6feb"/>
<circle cx="292.1" cy="149.7" r="3" fill="#1f6feb"/>
<circle cx="403.2" cy="253.5" r="3" fill="#1f6feb"/>
<circle cx="514.3" cy="253.5" r="3" fill="#1f6feb"/>
<circle cx="625.3" cy="253.9" r="3" fill="#1f6feb"/>
<circle cx="650.0" cy="253.5" r="4" fill="#1f6feb"/>
<path d="M 70.0 170.9 L 82.3 171.5 L 94.7 173.0 L 107.0 170.9 L 119.4 170.9 L 131.7 171.7 L 144.0 173.0 L 156.4 171.7 L 168.7 153.6 L 181.1 170.9 L 193.4 171.7 L 205.7 157.4 L 218.1 170.9 L 230.4 171.1 L 242.8 165.8 L 255.1 165.8 L 267.4 165.8 L 279.8 165.8 L 292.1 165.8 L 304.5 166.0 L 316.8 166.0 L 329.1 252.6 L 341.5 252.6 L 353.8 251.8 L 366.2 251.8 L 378.5 251.8 L 390.9 241.9 L 403.2 240.6 L 415.5 240.6 L 427.9 240.8 L 440.2 243.4 L 452.6 240.6 L 464.9 240.6 L 477.2 234.8 L 489.6 239.2 L 501.9 234.8 L 514.3 240.6 L 526.6 241.7 L 538.9 240.6 L 551.3 240.6 L 563.6 240.9 L 576.0 240.6 L 588.3 240.0 L 600.6 235.6 L 613.0 242.0 L 625.3 248.9 L 637.7 234.8 L 650.0 240.6" fill="none" stroke="#388bfd" stroke-width="2" opacity="0.8"/>
<circle cx="70.0" cy="170.9" r="3" fill="#388bfd"/>
<circle cx="181.1" cy="170.9" r="3" fill="#388bfd"/>
<circle cx="292.1" cy="165.8" r="3" fill="#388bfd"/>
<circle cx="403.2" cy="240.6" r="3" fill="#388bfd"/>
<circle cx="514.3" cy="240.6" r="3" fill="#388bfd"/>
<circle cx="625.3" cy="248.9" r="3" fill="#388bfd"/>
<circle cx="650.0" cy="240.6" r="4" fill="#388bfd"/>
<path d="M 70.0 138.2 L 82.3 139.6 L 94.7 140.3 L 107.0 138.2 L 119.4 138.2 L 131.7 139.8 L 144.0 140.3 L 156.4 139.8 L 168.7 123.3 L 181.1 138.2 L 193.4 139.8 L 205.7 126.7 L 218.1 138.2 L 230.4 138.2 L 242.8 132.6 L 255.1 132.6 L 267.4 132.6 L 279.8 132.6 L 292.1 132.6 L 304.5 132.6 L 316.8 132.6 L 329.1 225.5 L 341.5 225.5 L 353.8 224.2 L 366.2 224.2 L 378.5 224.2 L 390.9 228.8 L 403.2 228.8 L 415.5 228.8 L 427.9 228.8 L 440.2 230.8 L 452.6 228.6 L 464.9 228.6 L 477.2 227.7 L 489.6 226.1 L 501.9 227.7 L 514.3 228.6 L 526.6 228.1 L 538.9 228.6 L 551.3 228.8 L 563.6 228.9 L 576.0 228.6 L 588.3 227.1 L 600.6 228.7 L 613.0 228.4 L 625.3 226.2 L 637.7 227.7 L 650.0 228.8" fill="none" stroke="#3fb950" stroke-width="2" opacity="0.8"/>
<circle cx="70.0" cy="138.2" r="3" fill="#3fb950"/>
<circle cx="181.1" cy="138.2" r="3" fill="#3fb950"/>
<circle cx="292.1" cy="132.6" r="3" fill="#3fb950"/>
<circle cx="403.2" cy="228.8" r="3" fill="#3fb950"/>
<circle cx="514.3" cy="228.6" r="3" fill="#3fb950"/>
<circle cx="625.3" cy="226.2" r="3" fill="#3fb950"/>
<circle cx="650.0" cy="228.8" r="4" fill="#3fb950"/>
<path d="M 70.0 215.7 L 82.3 217.1 L 94.7 216.9 L 107.0 215.7 L 119.4 215.7 L 131.7 217.2 L 144.0 216.9 L 156.4 217.2 L 168.7 199.5 L 181.1 215.7 L 193.4 217.2 L 205.7 203.7 L 218.1 215.7 L 230.4 215.3 L 242.8 211.3 L 255.1 211.3 L 267.4 211.3 L 279.8 211.3 L 292.1 211.3 L 304.5 211.3 L 316.8 211.3 L 329.1 281.8 L 341.5 281.8 L 353.8 280.2 L 366.2 280.2 L 378.5 280.2 L 390.9 281.5 L 403.2 281.5 L 415.5 281.5 L 427.9 281.5 L 440.2 283.2 L 452.6 281.5 L 464.9 281.5 L 477.2 281.4 L 489.6 279.0 L 501.9 281.4 L 514.3 281.5 L 526.6 281.5 L 538.9 281.5 L 551.3 281.5 L 563.6 281.8 L 576.0 281.5 L 588.3 279.8 L 600.6 282.6 L 613.0 282.0 L 625.3 283.6 L 637.7 281.4 L 650.0 281.5" fill="none" stroke="#238636" stroke-width="2" opacity="0.8"/>
<circle cx="70.0" cy="215.7" r="3" fill="#238636"/>
<circle cx="181.1" cy="215.7" r="3" fill="#238636"/>
<circle cx="292.1" cy="211.3" r="3" fill="#238636"/>
<circle cx="403.2" cy="281.5" r="3" fill="#238636"/>
<circle cx="514.3" cy="281.5" r="3" fill="#238636"/>
<circle cx="625.3" cy="283.6" r="3" fill="#238636"/>
<circle cx="650.0" cy="281.5" r="4" fill="#238636"/>
<path d="M 70.0 120.3 L 82.3 121.9 L 94.7 122.2 L 107.0 120.3 L 119.4 120.3 L 131.7 122.0 L 144.0 122.2 L 156.4 122.0 L 168.7 105.0 L 181.1 120.3 L 193.4 122.0 L 205.7 110.3 L 218.1 120.3 L 230.4 120.4 L 242.8 114.6 L 255.1 114.6 L 267.4 114.6 L 279.8 114.6 L 292.1 114.6 L 304.5 114.6 L 316.8 114.6 L 329.1 196.0 L 341.5 196.0 L 353.8 195.0 L 366.2 195.0 L 378.5 195.0 L 390.9 183.5 L 403.2 183.5 L 415.5 183.5 L 427.9 183.5 L 440.2 186.0 L 452.6 183.5 L 464.9 183.5 L 477.2 185.1 L 489.6 182.4 L 501.9 185.1 L 514.3 183.5 L 526.6 185.2 L 538.9 183.5 L 551.3 183.5 L 563.6 183.8 L 576.0 183.5 L 588.3 182.9 L 600.6 186.8 L 613.0 185.5 L 625.3 203.0 L 637.7 185.1 L 650.0 183.5" fill="none" stroke="#2ea043" stroke-width="2" opacity="0.8"/>
<circle cx="70.0" cy="120.3" r="3" fill="#2ea043"/>
<circle cx="181.1" cy="120.3" r="3" fill="#2ea043"/>
<circle cx="292.1" cy="114.6" r="3" fill="#2ea043"/>
<circle cx="403.2" cy="183.5" r="3" fill="#2ea043"/>
<circle cx="514.3" cy="183.5" r="3" fill="#2ea043"/>
<circle cx="625.3" cy="203.0" r="3" fill="#2ea043"/>
<circle cx="650.0" cy="183.5" r="4" fill="#2ea043"/>
<path d="M 70.0 210.0 L 82.3 211.8 L 94.7 212.1 L 107.0 210.0 L 119.4 210.0 L 131.7 211.9 L 144.0 212.1 L 156.4 211.9 L 168.7 195.0 L 181.1 210.0 L 193.4 211.9 L 205.7 198.5 L 218.1 210.0 L 230.4 210.3 L 242.8 204.9 L 255.1 204.9 L 267.4 204.9 L 279.8 204.9 L 292.1 204.9 L 304.5 204.9 L 316.8 204.9 L 329.1 290.8 L 341.5 290.8 L 353.8 290.1 L 366.2 290.1 L 378.5 290.1 L 390.9 281.9 L 403.2 281.9 L 415.5 281.9 L 427.9 281.9 L 440.2 285.0 L 452.6 281.9 L 464.9 281.9 L 477.2 280.3 L 489.6 282.1 L 501.9 280.3 L 514.3 281.9 L 526.6 284.5 L 538.9 281.9 L 551.3 281.9 L 563.6 282.2 L 576.0 281.9 L 588.3 282.6 L 600.6 281.7 L 613.0 284.7 L 625.3 293.8 L 637.7 280.3 L 650.0 281.9" fill="none" stroke="#56d364" stroke-width="2" opacity="0.8"/>
<circle cx="70.0" cy="210.0" r="3" fill="#56d364"/>
<circle cx="181.1" cy="210.0" r="3" fill="#56d364"/>
<circle cx="292.1" cy="204.9" r="3" fill="#56d364"/>
<circle cx="403.2" cy="281.9" r="3" fill="#56d364"/>
<circle cx="514.3" cy="281.9" r="3" fill="#56d364"/>
<circle cx="625.3" cy="293.8" r="3" fill="#56d364"/>
<circle cx="650.0" cy="281.9" r="4" fill="#56d364"/>
<path d="M 70.0 153.0 L 82.3 154.0 L 94.7 155.2 L 107.0 152.9 L 119.4 153.0 L 131.7 154.0 L 144.0 155.2 L 156.4 154.0 L 168.7 137.3 L 181.1 152.9 L 193.4 154.0 L 205.7 141.1 L 218.1 153.0 L 230.4 153.8 L 242.8 147.7 L 255.1 147.7 L 267.4 147.7 L 279.8 147.7 L 292.1 147.7 L 304.5 147.7 L 316.8 147.7 L 329.1 252.6 L 341.5 252.6 L 353.8 251.3 L 366.2 251.3 L 378.5 251.3 L 390.9 256.5 L 403.2 256.5 L 415.5 256.5 L 427.9 256.5 L 440.2 258.6 L 452.6 256.5 L 464.9 256.5 L 477.2 256.4 L 489.6 254.7 L 501.9 256.4 L 514.3 256.5 L 526.6 256.7 L 538.9 256.5 L 551.3 256.5 L 563.6 256.8 L 576.0 256.5 L 588.3 255.4 L 600.6 257.4 L 613.0 257.0 L 625.3 254.3 L 637.7 256.4 L 650.0 256.5" fill="none" stroke="#f78166" stroke-width="2" opacity="0.8"/>
<circle cx="70.0" cy="153.0" r="3" fill="#f78166"/>
<circle cx="181.1" cy="152.9" r="3" fill="#f78166"/>
<circle cx="292.1" cy="147.7" r="3" fill="#f78166"/>
<circle cx="403.2" cy="256.5" r="3" fill="#f78166"/>
<circle cx="514.3" cy="256.5" r="3" fill="#f78166"/>
<circle cx="625.3" cy="254.3" r="3" fill="#f78166"/>
<circle cx="650.0" cy="256.5" r="4" fill="#f78166"/>
<path d="M 70.0 166.0 L 82.3 166.7 L 94.7 168.0 L 107.0 166.0 L 119.4 166.0 L 131.7 166.7 L 144.0 168.0 L 156.4 166.7 L 168.7 148.6 L 181.1 166.0 L 193.4 166.7 L 205.7 152.3 L 218.1 166.0 L 230.4 166.2 L 242.8 160.9 L 255.1 160.9 L 267.4 160.9 L 279.8 160.9 L 292.1 160.9 L 304.5 160.9 L 316.8 160.9 L 329.1 246.8 L 341.5 246.8 L 353.8 246.0 L 366.2 246.0 L 378.5 246.0 L 390.9 239.0 L 403.2 239.0 L 415.5 239.0 L 427.9 239.0 L 440.2 241.8 L 452.6 239.0 L 464.9 239.0 L 477.2 233.5 L 489.6 238.0 L 501.9 233.5 L 514.3 239.0 L 526.6 240.5 L 538.9 239.0 L 551.3 239.0 L 563.6 239.3 L 576.0 239.0 L 588.3 238.8 L 600.6 234.5 L 613.0 240.6 L 625.3 246.9 L 637.7 233.5 L 650.0 239.0" fill="none" stroke="#ffa657" stroke-width="2" opacity="0.8"/>
<circle cx="70.0" cy="166.0" r="3" fill="#ffa657"/>
<circle cx="181.1" cy="166.0" r="3" fill="#ffa657"/>
<circle cx="292.1" cy="160.9" r="3" fill="#ffa657"/>
<circle cx="403.2" cy="239.0" r="3" fill="#ffa657"/>
<circle cx="514.3" cy="239.0" r="3" fill="#ffa657"/>
<circle cx="625.3" cy="246.9" r="3" fill="#ffa657"/>
<circle cx="650.0" cy="239.0" r="4" fill="#ffa657"/>
<text x="70.0" y="112.3" fill="#2ea043" font-family="monospace" font-size="8px" text-anchor="middle">122.6KB</text>
<text x="70.0" y="130.3" fill="#3fb950" font-family="monospace" font-size="8px" text-anchor="middle">119.1KB</text>
<text x="70.0" y="148.3" fill="#f78166" font-family="monospace" font-size="8px" text-anchor="middle">116.3KB</text>
<text x="70.0" y="166.3" fill="#1f6feb" font-family="monospace" font-size="8px" text-anchor="middle">115.8KB</text>
<text x="70.0" y="184.3" fill="#58a6ff" font-family="monospace" font-size="8px" text-anchor="middle">115.8KB</text>
<text x="70.0" y="202.3" fill="#ffa657" font-family="monospace" font-size="8px" text-anchor="middle">113.7KB</text>
<text x="70.0" y="220.3" fill="#388bfd" font-family="monospace" font-size="8px" text-anchor="middle">112.8KB</text>
<text x="70.0" y="238.3" fill="#56d364" font-family="monospace" font-size="8px" text-anchor="middle">105.2KB</text>
<text x="70.0" y="256.3" fill="#238636" font-family="monospace" font-size="8px" text-anchor="middle">104.2KB</text>
<text x="181.1" y="112.3" fill="#2ea043" font-family="monospace" font-size="8px" text-anchor="middle">122.6KB</text>
<text x="181.1" y="130.3" fill="#3fb950" font-family="monospace" font-size="8px" text-anchor="middle">119.1KB</text>
<text x="181.1" y="148.3" fill="#f78166" font-family="monospace" font-size="8px" text-anchor="middle">116.3KB</text>
<text x="181.1" y="166.3" fill="#58a6ff" font-family="monospace" font-size="8px" text-anchor="middle">115.8KB</text>
<text x="181.1" y="184.3" fill="#1f6feb" font-family="monospace" font-size="8px" text-anchor="middle">115.8KB</text>
<text x="181.1" y="202.3" fill="#ffa657" font-family="monospace" font-size="8px" text-anchor="middle">113.7KB</text>
<text x="181.1" y="220.3" fill="#388bfd" font-family="monospace" font-size="8px" text-anchor="middle">112.8KB</text>
<text x="181.1" y="238.3" fill="#56d364" font-family="monospace" font-size="8px" text-anchor="middle">105.2KB</text>
<text x="181.1" y="256.3" fill="#238636" font-family="monospace" font-size="8px" text-anchor="middle">104.2KB</text>
<text x="292.1" y="106.6" fill="#2ea043" font-family="monospace" font-size="8px" text-anchor="middle">123.7KB</text>
<text x="292.1" y="124.6" fill="#3fb950" font-family="monospace" font-size="8px" text-anchor="middle">120.2KB</text>
<text x="292.1" y="142.6" fill="#f78166" font-family="monospace" font-size="8px" text-anchor="middle">117.3KB</text>
<text x="292.1" y="160.6" fill="#1f6feb" font-family="monospace" font-size="8px" text-anchor="middle">116.9KB</text>
<text x="292.1" y="178.6" fill="#58a6ff" font-family="monospace" font-size="8px" text-anchor="middle">116.9KB</text>
<text x="292.1" y="196.6" fill="#ffa657" font-family="monospace" font-size="8px" text-anchor="middle">114.7KB</text>
<text x="292.1" y="214.6" fill="#388bfd" font-family="monospace" font-size="8px" text-anchor="middle">113.8KB</text>
<text x="292.1" y="232.6" fill="#56d364" font-family="monospace" font-size="8px" text-anchor="middle">106.2KB</text>
<text x="292.1" y="250.6" fill="#238636" font-family="monospace" font-size="8px" text-anchor="middle">105.0KB</text>
<text x="403.2" y="175.5" fill="#2ea043" font-family="monospace" font-size="8px" text-anchor="middle">110.4KB</text>
<text x="403.2" y="193.5" fill="#58a6ff" font-family="monospace" font-size="8px" text-anchor="middle">107.0KB</text>
<text x="403.2" y="220.8" fill="#3fb950" font-family="monospace" font-size="8px" text-anchor="middle">101.6KB</text>
<text x="403.2" y="238.8" fill="#ffa657" font-family="monospace" font-size="8px" text-anchor="middle">99.7KB</text>
<text x="403.2" y="256.8" fill="#388bfd" font-family="monospace" font-size="8px" text-anchor="middle">99.4KB</text>
<text x="403.2" y="274.8" fill="#1f6feb" font-family="monospace" font-size="8px" text-anchor="middle">96.9KB</text>
<text x="403.2" y="292.8" fill="#f78166" font-family="monospace" font-size="8px" text-anchor="middle">96.3KB</text>
<text x="403.2" y="310.8" fill="#238636" font-family="monospace" font-size="8px" text-anchor="middle">91.5KB</text>
<text x="403.2" y="328.8" fill="#56d364" font-family="monospace" font-size="8px" text-anchor="middle">91.4KB</text>
<text x="514.3" y="175.5" fill="#2ea043" font-family="monospace" font-size="8px" text-anchor="middle">110.4KB</text>
<text x="514.3" y="193.5" fill="#58a6ff" font-family="monospace" font-size="8px" text-anchor="middle">107.0KB</text>
<text x="514.3" y="220.6" fill="#3fb950" font-family="monospace" font-size="8px" text-anchor="middle">101.7KB</text>
<text x="514.3" y="238.6" fill="#ffa657" font-family="monospace" font-size="8px" text-anchor="middle">99.7KB</text>
<text x="514.3" y="256.6" fill="#388bfd" font-family="monospace" font-size="8px" text-anchor="middle">99.4KB</text>
<text x="514.3" y="274.6" fill="#1f6feb" font-family="monospace" font-size="8px" text-anchor="middle">96.9KB</text>
<text x="514.3" y="292.6" fill="#f78166" font-family="monospace" font-size="8px" text-anchor="middle">96.3KB</text>
<text x="514.3" y="310.6" fill="#238636" font-family="monospace" font-size="8px" text-anchor="middle">91.5KB</text>
<text x="514.3" y="328.6" fill="#56d364" font-family="monospace" font-size="8px" text-anchor="middle">91.4KB</text>
<text x="625.3" y="195.0" fill="#2ea043" font-family="monospace" font-size="8px" text-anchor="middle">106.6KB</text>
<text x="625.3" y="213.0" fill="#58a6ff" font-family="monospace" font-size="8px" text-anchor="middle">104.4KB</text>
<text x="625.3" y="231.0" fill="#3fb950" font-family="monospace" font-size="8px" text-anchor="middle">102.1KB</text>
<text x="625.3" y="249.0" fill="#ffa657" font-family="monospace" font-size="8px" text-anchor="middle">98.1KB</text>
<text x="625.3" y="267.0" fill="#388bfd" font-family="monospace" font-size="8px" text-anchor="middle">97.8KB</text>
<text x="625.3" y="285.0" fill="#1f6feb" font-family="monospace" font-size="8px" text-anchor="middle">96.8KB</text>
<text x="625.3" y="303.0" fill="#f78166" font-family="monospace" font-size="8px" text-anchor="middle">96.7KB</text>
<text x="625.3" y="321.0" fill="#238636" font-family="monospace" font-size="8px" text-anchor="middle">91.0KB</text>
<text x="625.3" y="339.0" fill="#56d364" font-family="monospace" font-size="8px" text-anchor="middle">89.1KB</text>
<text x="650.0" y="175.5" fill="#2ea043" font-family="monospace" font-size="8px" text-anchor="middle">110.4KB</text>
<text x="650.0" y="193.5" fill="#58a6ff" font-family="monospace" font-size="8px" text-anchor="middle">107.0KB</text>
<text x="650.0" y="357.0" fill="#3fb950" font-family="monospace" font-size="8px" text-anchor="middle">101.6KB</text>
<text x="650.0" y="375.0" fill="#ffa657" font-family="monospace" font-size="8px" text-anchor="middle">99.7KB</text>
<text x="650.0" y="393.0" fill="#388bfd" font-family="monospace" font-size="8px" text-anchor="middle">99.4KB</text>
<text x="650.0" y="411.0" fill="#1f6feb" font-family="monospace" font-size="8px" text-anchor="middle">96.9KB</text>
<text x="650.0" y="429.0" fill="#f78166" font-family="monospace" font-size="8px" text-anchor="middle">96.3KB</text>
<text x="650.0" y="447.0" fill="#238636" font-family="monospace" font-size="8px" text-anchor="middle">91.5KB</text>
<text x="650.0" y="465.0" fill="#56d364" font-family="monospace" font-size="8px" text-anchor="middle">91.4KB</text>
<rect x="665" y="44" width="12" height="12" fill="#58a6ff"/>
<text x="683" y="54" class="legend">Win i386</text>
<rect x="665" y="62" width="12" height="12" fill="#1f6feb"/>
<text x="683" y="72" class="legend">Win x64</text>
<rect x="665" y="80" width="12" height="12" fill="#388bfd"/>
<text x="683" y="90" class="legend">Win ARM64</text>
<rect x="665" y="98" width="12" height="12" fill="#3fb950"/>
<text x="683" y="108" class="legend">Linux i386</text>
<rect x="665" y="116" width="12" height="12" fill="#238636"/>
<text x="683" y="126" class="legend">Linux x64</text>
<rect x="665" y="134" width="12" height="12" fill="#2ea043"/>
<text x="683" y="144" class="legend">Linux ARM</text>
<rect x="665" y="152" width="12" height="12" fill="#56d364"/>
<text x="683" y="162" class="legend">Linux ARM64</text>
<rect x="665" y="170" width="12" height="12" fill="#f78166"/>
<text x="683" y="180" class="legend">UEFI x64</text>
<rect x="665" y="188" width="12" height="12" fill="#ffa657"/>
<text x="683" y="198" class="legend">UEFI ARM64</text>
</svg>