<svg xmlns="http://www.w3.org/2000/svg" width="800" height="400">
<defs>
<style>
.axis-text { fill: #8b949e; font-family: monospace; font-size: 11px; }
.title { fill: #c9d1d9; font-family: monospace; font-size: 14px; font-weight: bold; }
.legend { fill: #8b949e; font-family: monospace; font-size: 10px; }
.grid { stroke: #21262d; stroke-width: 1; }
</style>
</defs>
<rect width="800" height="400" fill="#0d1117"/>
<text x="400.0" y="25" class="title" text-anchor="middle">Binary Size Trend (.bin)</text>
<line x1="70" y1="40.0" x2="650" y2="40.0" class="grid"/>
<text x="60" y="44.0" class="axis-text" text-anchor="end">138KB</text>
<line x1="70" y1="100.0" x2="650" y2="100.0" class="grid"/>
<text x="60" y="104.0" class="axis-text" text-anchor="end">126KB</text>
<line x1="70" y1="160.0" x2="650" y2="160.0" class="grid"/>
<text x="60" y="164.0" class="axis-text" text-anchor="end">114KB</text>
<line x1="70" y1="220.0" x2="650" y2="220.0" class="grid"/>
<text x="60" y="224.0" class="axis-text" text-anchor="end">102KB</text>
<line x1="70" y1="280.0" x2="650" y2="280.0" class="grid"/>
<text x="60" y="284.0" class="axis-text" text-anchor="end">90KB</text>
<line x1="70" y1="340.0" x2="650" y2="340.0" class="grid"/>
<text x="60" y="344.0" class="axis-text" text-anchor="end">78KB</text>
<text x="70.0" y="360" class="axis-text" text-anchor="middle">02-05</text>
<text x="164.69387755102042" y="360" class="axis-text" text-anchor="middle">02-05</text>
<text x="259.38775510204084" y="360" class="axis-text" text-anchor="middle">02-09</text>
<text x="354.0816326530612" y="360" class="axis-text" text-anchor="middle">02-23</text>
<text x="448.7755102040816" y="360" class="axis-text" text-anchor="middle">02-24</text>
<text x="543.469387755102" y="360" class="axis-text" text-anchor="middle">02-24</text>
<text x="638.1632653061224" y="360" class="axis-text" text-anchor="middle">02-25</text>
<path d="M 70.0 150.9 L 81.8 151.6 L 93.7 152.6 L 105.5 151.6 L 117.3 135.3 L 129.2 150.8 L 141.0 151.6 L 152.9 140.0 L 164.7 150.9 L 176.5 150.6 L 188.4 145.5 L 200.2 145.5 L 212.0 145.5 L 223.9 145.5 L 235.7 145.5 L 247.6 145.8 L 259.4 145.8 L 271.2 213.1 L 283.1 213.1 L 294.9 212.3 L 306.7 212.3 L 318.6 212.3 L 330.4 199.1 L 342.2 194.9 L 354.1 194.9 L 365.9 195.6 L 377.8 196.3 L 389.6 194.7 L 401.4 194.7 L 413.3 193.8 L 425.1 192.2 L 436.9 208.6 L 448.8 193.8 L 460.6 194.7 L 472.4 208.6 L 484.3 193.7 L 496.1 194.7 L 508.0 194.9 L 519.8 195.0 L 531.6 194.7 L 543.5 193.1 L 555.3 194.5 L 567.1 194.2 L 579.0 207.6 L 590.8 193.8 L 602.7 194.9 L 614.5 208.4 L 626.3 208.4 L 638.2 208.4 L 650.0 225.3" fill="none" stroke="#58a6ff" stroke-width="2" opacity="0.8"/>
<circle cx="70.0" cy="150.9" r="3" fill="#58a6ff"/>
<circle cx="188.4" cy="145.5" r="3" fill="#58a6ff"/>
<circle cx="306.7" cy="212.3" r="3" fill="#58a6ff"/>
<circle cx="425.1" cy="192.2" r="3" fill="#58a6ff"/>
<circle cx="543.5" cy="193.1" r="3" fill="#58a6ff"/>
<circle cx="650.0" cy="225.3" r="4" fill="#58a6ff"/>
<path d="M 70.0 150.9 L 81.8 152.0 L 93.7 153.0 L 105.5 152.0 L 117.3 135.5 L 129.2 150.9 L 141.0 152.0 L 152.9 139.1 L 164.7 150.9 L 176.5 151.7 L 188.4 145.5 L 200.2 145.5 L 212.0 145.5 L 223.9 145.5 L 235.7 145.5 L 247.6 145.8 L 259.4 145.8 L 271.2 247.2 L 283.1 247.2 L 294.9 246.1 L 306.7 246.1 L 318.6 246.1 L 330.4 248.0 L 342.2 245.3 L 354.1 245.3 L 365.9 245.8 L 377.8 247.3 L 389.6 245.3 L 401.4 245.3 L 413.3 243.8 L 425.1 243.2 L 436.9 246.9 L 448.8 243.8 L 460.6 245.3 L 472.4 247.0 L 484.3 244.0 L 496.1 245.3 L 508.0 245.3 L 519.8 245.6 L 531.6 245.3 L 543.5 243.6 L 555.3 244.8 L 567.1 244.3 L 579.0 245.7 L 590.8 243.8 L 602.7 245.3 L 614.5 246.9 L 626.3 246.9 L 638.2 246.9 L 650.0 248.0" fill="none" stroke="#1f6feb" stroke-width="2" opacity="0.8"/>
<circle cx="70.0" cy="150.9" r="3" fill="#1f6feb"/>
<circle cx="188.4" cy="145.5" r="3" fill="#1f6feb"/>
<circle cx="306.7" cy="246.1" r="3" fill="#1f6feb"/>
<circle cx="425.1" cy="243.2" r="3" fill="#1f6feb"/>
<circle cx="543.5" cy="243.6" r="3" fill="#1f6feb"/>
<circle cx="650.0" cy="248.0" r="4" fill="#1f6feb"/>
<path d="M 70.0 165.9 L 81.8 166.7 L 93.7 167.9 L 105.5 166.7 L 117.3 149.3 L 129.2 165.9 L 141.0 166.7 L 152.9 152.9 L 164.7 165.9 L 176.5 166.1 L 188.4 160.9 L 200.2 160.9 L 212.0 160.9 L 223.9 160.9 L 235.7 160.9 L 247.6 161.2 L 259.4 161.2 L 271.2 244.4 L 283.1 244.4 L 294.9 243.6 L 306.7 243.6 L 318.6 243.6 L 330.4 234.1 L 342.2 232.9 L 354.1 232.9 L 365.9 233.1 L 377.8 235.6 L 389.6 232.9 L 401.4 232.9 L 413.3 227.4 L 425.1 231.6 L 436.9 242.3 L 448.8 227.4 L 460.6 232.9 L 472.4 242.3 L 484.3 234.0 L 496.1 232.9 L 508.0 232.9 L 519.8 233.2 L 531.6 232.9 L 543.5 232.4 L 555.3 228.1 L 567.1 234.2 L 579.0 240.9 L 590.8 227.4 L 602.7 232.9 L 614.5 242.2 L 626.3 242.2 L 638.2 242.2 L 650.0 250.7" fill="none" stroke="#388bfd" stroke-width="2" opacity="0.8"/>
<circle cx="70.0" cy="165.9" r="3" fill="#388bfd"/>
<circle cx="188.4" cy="160.9" r="3" fill="#388bfd"/>
<circle cx="306.7" cy="243.6" r="3" fill="#388bfd"/>
<circle cx="425.1" cy="231.6" r="3" fill="#388bfd"/>
<circle cx="543.5" cy="232.4" r="3" fill="#388bfd"/>
<circle cx="650.0" cy="250.7" r="4" fill="#388bfd"/>
<path d="M 70.0 134.5 L 81.8 136.0 L 93.7 136.4 L 105.5 136.0 L 117.3 120.1 L 129.2 134.5 L 141.0 136.0 L 152.9 123.4 L 164.7 134.5 L 176.5 134.4 L 188.4 129.1 L 200.2 129.1 L 212.0 129.1 L 223.9 129.1 L 235.7 129.1 L 247.6 129.1 L 259.4 129.1 L 271.2 218.4 L 283.1 218.4 L 294.9 217.2 L 306.7 217.2 L 318.6 217.2 L 330.4 221.5 L 342.2 221.5 L 354.1 221.5 L 365.9 221.5 L 377.8 223.5 L 389.6 221.4 L 401.4 221.4 L 413.3 220.5 L 425.1 219.0 L 436.9 220.2 L 448.8 220.5 L 460.6 221.4 L 472.4 220.1 L 484.3 220.9 L 496.1 221.4 L 508.0 221.5 L 519.8 221.7 L 531.6 221.4 L 543.5 219.9 L 555.3 221.5 L 567.1 221.2 L 579.0 219.0 L 590.8 220.5 L 602.7 221.5 L 614.5 220.0 L 626.3 220.0 L 638.2 220.0 L 650.0 141.1" fill="none" stroke="#3fb950" stroke-width="2" opacity="0.8"/>
<circle cx="70.0" cy="134.5" r="3" fill="#3fb950"/>
<circle cx="188.4" cy="129.1" r="3" fill="#3fb950"/>
<circle cx="306.7" cy="217.2" r="3" fill="#3fb950"/>
<circle cx="425.1" cy="219.0" r="3" fill="#3fb950"/>
<circle cx="543.5" cy="219.9" r="3" fill="#3fb950"/>
<circle cx="650.0" cy="141.1" r="4" fill="#3fb950"/>
<path d="M 70.0 208.9 L 81.8 210.4 L 93.7 210.2 L 105.5 210.4 L 117.3 193.4 L 129.2 208.9 L 141.0 210.4 L 152.9 197.4 L 164.7 208.9 L 176.5 208.6 L 188.4 204.7 L 200.2 204.7 L 212.0 204.7 L 223.9 204.7 L 235.7 204.7 L 247.6 204.7 L 259.4 204.7 L 271.2 272.5 L 283.1 272.5 L 294.9 271.0 L 306.7 271.0 L 318.6 271.0 L 330.4 272.2 L 342.2 272.2 L 354.1 272.2 L 365.9 272.2 L 377.8 273.9 L 389.6 272.2 L 401.4 272.2 L 413.3 272.1 L 425.1 269.9 L 436.9 275.3 L 448.8 272.1 L 460.6 272.2 L 472.4 275.2 L 484.3 272.3 L 496.1 272.2 L 508.0 272.2 L 519.8 272.5 L 531.6 272.2 L 543.5 270.7 L 555.3 273.3 L 567.1 272.7 L 579.0 274.3 L 590.8 272.1 L 602.7 272.2 L 614.5 275.0 L 626.3 275.0 L 638.2 275.0 L 650.0 187.1" fill="none" stroke="#238636" stroke-width="2" opacity="0.8"/>
<circle cx="70.0" cy="208.9" r="3" fill="#238636"/>
<circle cx="188.4" cy="204.7" r="3" fill="#238636"/>
<circle cx="306.7" cy="271.0" r="3" fill="#238636"/>
<circle cx="425.1" cy="269.9" r="3" fill="#238636"/>
<circle cx="543.5" cy="270.7" r="3" fill="#238636"/>
<circle cx="650.0" cy="187.1" r="4" fill="#238636"/>
<path d="M 70.0 117.2 L 81.8 118.8 L 93.7 119.1 L 105.5 118.8 L 117.3 102.5 L 129.2 117.2 L 141.0 118.8 L 152.9 107.6 L 164.7 117.2 L 176.5 117.3 L 188.4 111.8 L 200.2 111.8 L 212.0 111.8 L 223.9 111.8 L 235.7 111.8 L 247.6 111.8 L 259.4 111.8 L 271.2 190.0 L 283.1 190.0 L 294.9 189.1 L 306.7 189.1 L 318.6 189.1 L 330.4 178.0 L 342.2 178.0 L 354.1 178.0 L 365.9 178.0 L 377.8 180.4 L 389.6 178.0 L 401.4 178.0 L 413.3 179.6 L 425.1 177.0 L 436.9 198.7 L 448.8 179.6 L 460.6 178.0 L 472.4 198.7 L 484.3 179.6 L 496.1 178.0 L 508.0 178.0 L 519.8 178.3 L 531.6 178.0 L 543.5 177.4 L 555.3 181.2 L 567.1 179.9 L 579.0 196.7 L 590.8 179.6 L 602.7 178.0 L 614.5 198.6 L 626.3 198.6 L 638.2 198.6 L 650.0 131.8" fill="none" stroke="#2ea043" stroke-width="2" opacity="0.8"/>
<circle cx="70.0" cy="117.2" r="3" fill="#2ea043"/>
<circle cx="188.4" cy="111.8" r="3" fill="#2ea043"/>
<circle cx="306.7" cy="189.1" r="3" fill="#2ea043"/>
<circle cx="425.1" cy="177.0" r="3" fill="#2ea043"/>
<circle cx="543.5" cy="177.4" r="3" fill="#2ea043"/>
<circle cx="650.0" cy="131.8" r="4" fill="#2ea043"/>
<path d="M 70.0 203.5 L 81.8 205.3 L 93.7 205.5 L 105.5 205.3 L 117.3 189.1 L 129.2 203.5 L 141.0 205.3 L 152.9 192.5 L 164.7 203.5 L 176.5 203.8 L 188.4 198.6 L 200.2 198.6 L 212.0 198.6 L 223.9 198.6 L 235.7 198.6 L 247.6 198.6 L 259.4 198.6 L 271.2 281.2 L 283.1 281.2 L 294.9 280.5 L 306.7 280.5 L 318.6 280.5 L 330.4 272.6 L 342.2 272.6 L 354.1 272.6 L 365.9 272.6 L 377.8 275.6 L 389.6 272.6 L 401.4 272.6 L 413.3 271.1 L 425.1 272.8 L 436.9 285.9 L 448.8 271.1 L 460.6 272.6 L 472.4 285.9 L 484.3 275.1 L 496.1 272.6 L 508.0 272.6 L 519.8 272.9 L 531.6 272.6 L 543.5 273.3 L 555.3 272.4 L 567.1 275.4 L 579.0 284.1 L 590.8 271.1 L 602.7 272.6 L 614.5 285.8 L 626.3 285.8 L 638.2 285.8 L 650.0 287.4" fill="none" stroke="#56d364" stroke-width="2" opacity="0.8"/>
<circle cx="70.0" cy="203.5" r="3" fill="#56d364"/>
<circle cx="188.4" cy="198.6" r="3" fill="#56d364"/>
<circle cx="306.7" cy="280.5" r="3" fill="#56d364"/>
<circle cx="425.1" cy="272.8" r="3" fill="#56d364"/>
<circle cx="543.5" cy="273.3" r="3" fill="#56d364"/>
<circle cx="650.0" cy="287.4" r="4" fill="#56d364"/>
<path d="M 70.0 148.7 L 81.8 149.7 L 93.7 150.8 L 105.5 149.7 L 117.3 133.6 L 129.2 148.6 L 141.0 149.7 L 152.9 137.2 L 164.7 148.7 L 176.5 149.4 L 188.4 143.6 L 200.2 143.6 L 212.0 143.6 L 223.9 143.6 L 235.7 143.6 L 247.6 143.6 L 259.4 143.6 L 271.2 244.4 L 283.1 244.4 L 294.9 243.2 L 306.7 243.2 L 318.6 243.2 L 330.4 248.2 L 342.2 248.2 L 354.1 248.2 L 365.9 248.2 L 377.8 250.2 L 389.6 248.2 L 401.4 248.2 L 413.3 248.1 L 425.1 246.4 L 436.9 247.4 L 448.8 248.1 L 460.6 248.2 L 472.4 247.4 L 484.3 248.4 L 496.1 248.2 L 508.0 248.2 L 519.8 248.5 L 531.6 248.2 L 543.5 247.1 L 555.3 249.1 L 567.1 248.7 L 579.0 246.1 L 590.8 248.1 L 602.7 248.2 L 614.5 247.3 L 626.3 247.3 L 638.2 247.3 L 650.0 253.0" fill="none" stroke="#f78166" stroke-width="2" opacity="0.8"/>
<circle cx="70.0" cy="148.7" r="3" fill="#f78166"/>
<circle cx="188.4" cy="143.6" r="3" fill="#f78166"/>
<circle cx="306.7" cy="243.2" r="3" fill="#f78166"/>
<circle cx="425.1" cy="246.4" r="3" fill="#f78166"/>
<circle cx="543.5" cy="247.1" r="3" fill="#f78166"/>
<circle cx="650.0" cy="253.0" r="4" fill="#f78166"/>
<path d="M 70.0 161.1 L 81.8 161.9 L 93.7 163.1 L 105.5 161.9 L 117.3 144.4 L 129.2 161.1 L 141.0 161.9 L 152.9 148.0 L 164.7 161.1 L 176.5 161.3 L 188.4 156.2 L 200.2 156.2 L 212.0 156.2 L 223.9 156.2 L 235.7 156.2 L 247.6 156.2 L 259.4 156.2 L 271.2 238.9 L 283.1 238.9 L 294.9 238.1 L 306.7 238.1 L 318.6 238.1 L 330.4 231.4 L 342.2 231.4 L 354.1 231.4 L 365.9 231.4 L 377.8 234.1 L 389.6 231.4 L 401.4 231.4 L 413.3 226.1 L 425.1 230.4 L 436.9 240.3 L 448.8 226.1 L 460.6 231.4 L 472.4 240.3 L 484.3 232.8 L 496.1 231.4 L 508.0 231.4 L 519.8 231.7 L 531.6 231.4 L 543.5 231.2 L 555.3 227.1 L 567.1 232.9 L 579.0 238.9 L 590.8 226.1 L 602.7 231.4 L 614.5 240.2 L 626.3 240.2 L 638.2 240.2 L 650.0 254.7" fill="none" stroke="#ffa657" stroke-width="2" opacity="0.8"/>
<circle cx="70.0" cy="161.1" r="3" fill="#ffa657"/>
<circle cx="188.4" cy="156.2" r="3" fill="#ffa657"/>
<circle cx="306.7" cy="238.1" r="3" fill="#ffa657"/>
<circle cx="425.1" cy="230.4" r="3" fill="#ffa657"/>
<circle cx="543.5" cy="231.2" r="3" fill="#ffa657"/>
<circle cx="650.0" cy="254.7" r="4" fill="#ffa657"/>
<text x="70.0" y="109.2" fill="#2ea043" font-family="monospace" font-size="8px" text-anchor="middle">122.6KB</text>
<text x="70.0" y="127.2" fill="#3fb950" font-family="monospace" font-size="8px" text-anchor="middle">119.1KB</text>
<text x="70.0" y="145.2" fill="#f78166" font-family="monospace" font-size="8px" text-anchor="middle">116.3KB</text>
<text x="70.0" y="163.2" fill="#1f6feb" font-family="monospace" font-size="8px" text-anchor="middle">115.8KB</text>
<text x="70.0" y="181.2" fill="#58a6ff" font-family="monospace" font-size="8px" text-anchor="middle">115.8KB</text>
<text x="70.0" y="199.2" fill="#ffa657" font-family="monospace" font-size="8px" text-anchor="middle">113.7KB</text>
<text x="70.0" y="217.2" fill="#388bfd" font-family="monospace" font-size="8px" text-anchor="middle">112.8KB</text>
<text x="70.0" y="235.2" fill="#56d364" font-family="monospace" font-size="8px" text-anchor="middle">105.2KB</text>
<text x="70.0" y="253.2" fill="#238636" font-family="monospace" font-size="8px" text-anchor="middle">104.2KB</text>
<text x="188.4" y="103.8" fill="#2ea043" font-family="monospace" font-size="8px" text-anchor="middle">123.7KB</text>
<text x="188.4" y="121.8" fill="#3fb950" font-family="monospace" font-size="8px" text-anchor="middle">120.2KB</text>
<text x="188.4" y="139.8" fill="#f78166" font-family="monospace" font-size="8px" text-anchor="middle">117.3KB</text>
<text x="188.4" y="157.8" fill="#1f6feb" font-family="monospace" font-size="8px" text-anchor="middle">116.9KB</text>
<text x="188.4" y="175.8" fill="#58a6ff" font-family="monospace" font-size="8px" text-anchor="middle">116.9KB</text>
<text x="188.4" y="193.8" fill="#ffa657" font-family="monospace" font-size="8px" text-anchor="middle">114.7KB</text>
<text x="188.4" y="211.8" fill="#388bfd" font-family="monospace" font-size="8px" text-anchor="middle">113.8KB</text>
<text x="188.4" y="229.8" fill="#56d364" font-family="monospace" font-size="8px" text-anchor="middle">106.2KB</text>
<text x="188.4" y="247.8" fill="#238636" font-family="monospace" font-size="8px" text-anchor="middle">105.0KB</text>
<text x="306.7" y="181.1" fill="#2ea043" font-family="monospace" font-size="8px" text-anchor="middle">108.1KB</text>
<text x="306.7" y="204.3" fill="#58a6ff" font-family="monospace" font-size="8px" text-anchor="middle">103.5KB</text>
<text x="306.7" y="222.3" fill="#3fb950" font-family="monospace" font-size="8px" text-anchor="middle">102.5KB</text>
<text x="306.7" y="240.3" fill="#ffa657" font-family="monospace" font-size="8px" text-anchor="middle">98.3KB</text>
<text x="306.7" y="258.3" fill="#f78166" font-family="monospace" font-size="8px" text-anchor="middle">97.3KB</text>
<text x="306.7" y="276.3" fill="#388bfd" font-family="monospace" font-size="8px" text-anchor="middle">97.2KB</text>
<text x="306.7" y="294.3" fill="#1f6feb" font-family="monospace" font-size="8px" text-anchor="middle">96.7KB</text>
<text x="306.7" y="312.3" fill="#238636" font-family="monospace" font-size="8px" text-anchor="middle">91.7KB</text>
<text x="306.7" y="330.3" fill="#56d364" font-family="monospace" font-size="8px" text-anchor="middle">89.8KB</text>
<text x="425.1" y="169.0" fill="#2ea043" font-family="monospace" font-size="8px" text-anchor="middle">110.6KB</text>
<text x="425.1" y="187.0" fill="#58a6ff" font-family="monospace" font-size="8px" text-anchor="middle">107.5KB</text>
<text x="425.1" y="211.0" fill="#3fb950" font-family="monospace" font-size="8px" text-anchor="middle">102.1KB</text>
<text x="425.1" y="229.0" fill="#ffa657" font-family="monospace" font-size="8px" text-anchor="middle">99.9KB</text>
<text x="425.1" y="247.0" fill="#388bfd" font-family="monospace" font-size="8px" text-anchor="middle">99.6KB</text>
<text x="425.1" y="265.0" fill="#1f6feb" font-family="monospace" font-size="8px" text-anchor="middle">97.3KB</text>
<text x="425.1" y="283.0" fill="#f78166" font-family="monospace" font-size="8px" text-anchor="middle">96.6KB</text>
<text x="425.1" y="301.0" fill="#238636" font-family="monospace" font-size="8px" text-anchor="middle">91.9KB</text>
<text x="425.1" y="319.0" fill="#56d364" font-family="monospace" font-size="8px" text-anchor="middle">91.3KB</text>
<text x="543.5" y="169.4" fill="#2ea043" font-family="monospace" font-size="8px" text-anchor="middle">110.5KB</text>
<text x="543.5" y="187.4" fill="#58a6ff" font-family="monospace" font-size="8px" text-anchor="middle">107.3KB</text>
<text x="543.5" y="211.9" fill="#3fb950" font-family="monospace" font-size="8px" text-anchor="middle">102.0KB</text>
<text x="543.5" y="229.9" fill="#ffa657" font-family="monospace" font-size="8px" text-anchor="middle">99.7KB</text>
<text x="543.5" y="247.9" fill="#388bfd" font-family="monospace" font-size="8px" text-anchor="middle">99.5KB</text>
<text x="543.5" y="265.9" fill="#1f6feb" font-family="monospace" font-size="8px" text-anchor="middle">97.2KB</text>
<text x="543.5" y="283.9" fill="#f78166" font-family="monospace" font-size="8px" text-anchor="middle">96.5KB</text>
<text x="543.5" y="301.9" fill="#238636" font-family="monospace" font-size="8px" text-anchor="middle">91.8KB</text>
<text x="543.5" y="319.9" fill="#56d364" font-family="monospace" font-size="8px" text-anchor="middle">91.2KB</text>
<text x="650.0" y="123.8" fill="#2ea043" font-family="monospace" font-size="8px" text-anchor="middle">119.6KB</text>
<text x="650.0" y="141.8" fill="#3fb950" font-family="monospace" font-size="8px" text-anchor="middle">117.8KB</text>
<text x="650.0" y="179.1" fill="#238636" font-family="monospace" font-size="8px" text-anchor="middle">108.5KB</text>
<text x="650.0" y="217.3" fill="#58a6ff" font-family="monospace" font-size="8px" text-anchor="middle">100.9KB</text>
<text x="650.0" y="240.0" fill="#1f6feb" font-family="monospace" font-size="8px" text-anchor="middle">96.3KB</text>
<text x="650.0" y="258.0" fill="#388bfd" font-family="monospace" font-size="8px" text-anchor="middle">95.8KB</text>
<text x="650.0" y="276.0" fill="#f78166" font-family="monospace" font-size="8px" text-anchor="middle">95.3KB</text>
<text x="650.0" y="294.0" fill="#ffa657" font-family="monospace" font-size="8px" text-anchor="middle">95.0KB</text>
<text x="650.0" y="312.0" fill="#56d364" font-family="monospace" font-size="8px" text-anchor="middle">88.4KB</text>
<rect x="665" y="44" width="12" height="12" fill="#58a6ff"/>
<text x="683" y="54" class="legend">Win i386</text>
<rect x="665" y="62" width="12" height="12" fill="#1f6feb"/>
<text x="683" y="72" class="legend">Win x64</text>
<rect x="665" y="80" width="12" height="12" fill="#388bfd"/>
<text x="683" y="90" class="legend">Win ARM64</text>
<rect x="665" y="98" width="12" height="12" fill="#3fb950"/>
<text x="683" y="108" class="legend">Linux i386</text>
<rect x="665" y="116" width="12" height="12" fill="#238636"/>
<text x="683" y="126" class="legend">Linux x64</text>
<rect x="665" y="134" width="12" height="12" fill="#2ea043"/>
<text x="683" y="144" class="legend">Linux ARM</text>
<rect x="665" y="152" width="12" height="12" fill="#56d364"/>
<text x="683" y="162" class="legend">Linux ARM64</text>
<rect x="665" y="170" width="12" height="12" fill="#bc8cff"/>
<text x="683" y="180" class="legend">macOS x64</text>
<rect x="665" y="188" width="12" height="12" fill="#d2a8ff"/>
<text x="683" y="198" class="legend">macOS ARM64</text>
<rect x="665" y="206" width="12" height="12" fill="#f78166"/>
<text x="683" y="216" class="legend">UEFI x64</text>
<rect x="665" y="224" width="12" height="12" fill="#ffa657"/>
<text x="683" y="234" class="legend">UEFI ARM64</text>
</svg>