<svg xmlns="http://www.w3.org/2000/svg" width="800" height="400">
<defs>
<style>
.axis-text { fill: #8b949e; font-family: monospace; font-size: 11px; }
.title { fill: #c9d1d9; font-family: monospace; font-size: 14px; font-weight: bold; }
.legend { fill: #8b949e; font-family: monospace; font-size: 10px; }
.grid { stroke: #21262d; stroke-width: 1; }
</style>
</defs>
<rect width="800" height="400" fill="#0d1117"/>
<text x="400.0" y="25" class="title" text-anchor="middle">Binary Size Trend (.bin)</text>
<line x1="70" y1="40.0" x2="650" y2="40.0" class="grid"/>
<text x="60" y="44.0" class="axis-text" text-anchor="end">138KB</text>
<line x1="70" y1="100.0" x2="650" y2="100.0" class="grid"/>
<text x="60" y="104.0" class="axis-text" text-anchor="end">129KB</text>
<line x1="70" y1="160.0" x2="650" y2="160.0" class="grid"/>
<text x="60" y="164.0" class="axis-text" text-anchor="end">120KB</text>
<line x1="70" y1="220.0" x2="650" y2="220.0" class="grid"/>
<text x="60" y="224.0" class="axis-text" text-anchor="end">111KB</text>
<line x1="70" y1="280.0" x2="650" y2="280.0" class="grid"/>
<text x="60" y="284.0" class="axis-text" text-anchor="end">102KB</text>
<line x1="70" y1="340.0" x2="650" y2="340.0" class="grid"/>
<text x="60" y="344.0" class="axis-text" text-anchor="end">93KB</text>
<text x="70.0" y="360" class="axis-text" text-anchor="middle">02-05</text>
<text x="157.0" y="360" class="axis-text" text-anchor="middle">02-05</text>
<text x="244.0" y="360" class="axis-text" text-anchor="middle">02-05</text>
<text x="331.0" y="360" class="axis-text" text-anchor="middle">02-05</text>
<text x="418.0" y="360" class="axis-text" text-anchor="middle">02-05</text>
<text x="505.0" y="360" class="axis-text" text-anchor="middle">02-06</text>
<text x="592.0" y="360" class="axis-text" text-anchor="middle">02-09</text>
<path d="M 70.0 189.8 L 99.0 190.6 L 128.0 192.1 L 157.0 189.7 L 186.0 189.8 L 215.0 190.7 L 244.0 192.1 L 273.0 190.7 L 302.0 168.7 L 331.0 189.7 L 360.0 190.7 L 389.0 175.0 L 418.0 189.8 L 447.0 189.3 L 476.0 182.5 L 505.0 182.5 L 534.0 182.5 L 563.0 182.5 L 592.0 182.5 L 621.0 182.8 L 650.0 182.8" fill="none" stroke="#58a6ff" stroke-width="2" opacity="0.8"/>
<circle cx="70.0" cy="189.8" r="3" fill="#58a6ff"/>
<circle cx="186.0" cy="189.8" r="3" fill="#58a6ff"/>
<circle cx="302.0" cy="168.7" r="3" fill="#58a6ff"/>
<circle cx="418.0" cy="189.8" r="3" fill="#58a6ff"/>
<circle cx="534.0" cy="182.5" r="3" fill="#58a6ff"/>
<circle cx="650.0" cy="182.8" r="4" fill="#58a6ff"/>
<path d="M 70.0 189.7 L 99.0 191.1 L 128.0 192.6 L 157.0 189.7 L 186.0 189.7 L 215.0 191.2 L 244.0 192.6 L 273.0 191.2 L 302.0 168.9 L 331.0 189.7 L 360.0 191.2 L 389.0 173.9 L 418.0 189.7 L 447.0 190.8 L 476.0 182.5 L 505.0 182.5 L 534.0 182.5 L 563.0 182.5 L 592.0 182.5 L 621.0 182.8 L 650.0 182.8" fill="none" stroke="#1f6feb" stroke-width="2" opacity="0.8"/>
<circle cx="70.0" cy="189.7" r="3" fill="#1f6feb"/>
<circle cx="186.0" cy="189.7" r="3" fill="#1f6feb"/>
<circle cx="302.0" cy="168.9" r="3" fill="#1f6feb"/>
<circle cx="418.0" cy="189.7" r="3" fill="#1f6feb"/>
<circle cx="534.0" cy="182.5" r="3" fill="#1f6feb"/>
<circle cx="650.0" cy="182.8" r="4" fill="#1f6feb"/>
<path d="M 70.0 210.0 L 99.0 210.7 L 128.0 212.7 L 157.0 210.0 L 186.0 210.0 L 215.0 211.0 L 244.0 212.7 L 273.0 211.0 L 302.0 187.6 L 331.0 210.0 L 360.0 211.0 L 389.0 192.4 L 418.0 210.0 L 447.0 210.3 L 476.0 203.3 L 505.0 203.3 L 534.0 203.3 L 563.0 203.3 L 592.0 203.3 L 621.0 203.6 L 650.0 203.6" fill="none" stroke="#388bfd" stroke-width="2" opacity="0.8"/>
<circle cx="70.0" cy="210.0" r="3" fill="#388bfd"/>
<circle cx="186.0" cy="210.0" r="3" fill="#388bfd"/>
<circle cx="302.0" cy="187.6" r="3" fill="#388bfd"/>
<circle cx="418.0" cy="210.0" r="3" fill="#388bfd"/>
<circle cx="534.0" cy="203.3" r="3" fill="#388bfd"/>
<circle cx="650.0" cy="203.6" r="4" fill="#388bfd"/>
<path d="M 70.0 167.6 L 99.0 169.4 L 128.0 170.2 L 157.0 167.6 L 186.0 167.6 L 215.0 169.6 L 244.0 170.2 L 273.0 169.6 L 302.0 148.2 L 331.0 167.6 L 360.0 169.6 L 389.0 152.6 L 418.0 167.6 L 447.0 167.5 L 476.0 160.3 L 505.0 160.3 L 534.0 160.3 L 563.0 160.3 L 592.0 160.3 L 621.0 160.3 L 650.0 160.3" fill="none" stroke="#3fb950" stroke-width="2" opacity="0.8"/>
<circle cx="70.0" cy="167.6" r="3" fill="#3fb950"/>
<circle cx="186.0" cy="167.6" r="3" fill="#3fb950"/>
<circle cx="302.0" cy="148.2" r="3" fill="#3fb950"/>
<circle cx="418.0" cy="167.6" r="3" fill="#3fb950"/>
<circle cx="534.0" cy="160.3" r="3" fill="#3fb950"/>
<circle cx="650.0" cy="160.3" r="4" fill="#3fb950"/>
<path d="M 70.0 268.1 L 99.0 270.0 L 128.0 269.8 L 157.0 268.1 L 186.0 268.1 L 215.0 270.1 L 244.0 269.8 L 273.0 270.1 L 302.0 247.2 L 331.0 268.1 L 360.0 270.1 L 389.0 252.5 L 418.0 268.1 L 447.0 267.7 L 476.0 262.4 L 505.0 262.4 L 534.0 262.4 L 563.0 262.4 L 592.0 262.4 L 621.0 262.4 L 650.0 262.4" fill="none" stroke="#238636" stroke-width="2" opacity="0.8"/>
<circle cx="70.0" cy="268.1" r="3" fill="#238636"/>
<circle cx="186.0" cy="268.1" r="3" fill="#238636"/>
<circle cx="302.0" cy="247.2" r="3" fill="#238636"/>
<circle cx="418.0" cy="268.1" r="3" fill="#238636"/>
<circle cx="534.0" cy="262.4" r="3" fill="#238636"/>
<circle cx="650.0" cy="262.4" r="4" fill="#238636"/>
<path d="M 70.0 144.3 L 99.0 146.3 L 128.0 146.8 L 157.0 144.3 L 186.0 144.3 L 215.0 146.5 L 244.0 146.8 L 273.0 146.5 L 302.0 124.5 L 331.0 144.3 L 360.0 146.5 L 389.0 131.3 L 418.0 144.3 L 447.0 144.4 L 476.0 136.9 L 505.0 136.9 L 534.0 136.9 L 563.0 136.9 L 592.0 136.9 L 621.0 136.9 L 650.0 136.9" fill="none" stroke="#2ea043" stroke-width="2" opacity="0.8"/>
<circle cx="70.0" cy="144.3" r="3" fill="#2ea043"/>
<circle cx="186.0" cy="144.3" r="3" fill="#2ea043"/>
<circle cx="302.0" cy="124.5" r="3" fill="#2ea043"/>
<circle cx="418.0" cy="144.3" r="3" fill="#2ea043"/>
<circle cx="534.0" cy="136.9" r="3" fill="#2ea043"/>
<circle cx="650.0" cy="136.9" r="4" fill="#2ea043"/>
<path d="M 70.0 260.8 L 99.0 263.1 L 128.0 263.5 L 157.0 260.8 L 186.0 260.8 L 215.0 263.3 L 244.0 263.5 L 273.0 263.3 L 302.0 241.3 L 331.0 260.8 L 360.0 263.3 L 389.0 245.9 L 418.0 260.8 L 447.0 261.1 L 476.0 254.1 L 505.0 254.1 L 534.0 254.1 L 563.0 254.1 L 592.0 254.1 L 621.0 254.1 L 650.0 254.1" fill="none" stroke="#56d364" stroke-width="2" opacity="0.8"/>
<circle cx="70.0" cy="260.8" r="3" fill="#56d364"/>
<circle cx="186.0" cy="260.8" r="3" fill="#56d364"/>
<circle cx="302.0" cy="241.3" r="3" fill="#56d364"/>
<circle cx="418.0" cy="260.8" r="3" fill="#56d364"/>
<circle cx="534.0" cy="254.1" r="3" fill="#56d364"/>
<circle cx="650.0" cy="254.1" r="4" fill="#56d364"/>
<path d="M 70.0 186.7 L 99.0 188.1 L 128.0 189.6 L 157.0 186.6 L 186.0 186.7 L 215.0 188.1 L 244.0 189.6 L 273.0 188.1 L 302.0 166.3 L 331.0 186.6 L 360.0 188.1 L 389.0 171.3 L 418.0 186.7 L 447.0 187.8 L 476.0 179.9 L 505.0 179.9 L 534.0 179.9 L 563.0 179.9 L 592.0 179.9 L 621.0 179.9 L 650.0 179.9" fill="none" stroke="#f78166" stroke-width="2" opacity="0.8"/>
<circle cx="70.0" cy="186.7" r="3" fill="#f78166"/>
<circle cx="186.0" cy="186.7" r="3" fill="#f78166"/>
<circle cx="302.0" cy="166.3" r="3" fill="#f78166"/>
<circle cx="418.0" cy="186.7" r="3" fill="#f78166"/>
<circle cx="534.0" cy="179.9" r="3" fill="#f78166"/>
<circle cx="650.0" cy="179.9" r="4" fill="#f78166"/>
<path d="M 70.0 203.6 L 99.0 204.6 L 128.0 206.2 L 157.0 203.6 L 186.0 203.6 L 215.0 204.6 L 244.0 206.2 L 273.0 204.6 L 302.0 181.0 L 331.0 203.6 L 360.0 204.6 L 389.0 185.8 L 418.0 203.6 L 447.0 203.9 L 476.0 196.9 L 505.0 196.9 L 534.0 196.9 L 563.0 196.9 L 592.0 196.9 L 621.0 196.9 L 650.0 196.9" fill="none" stroke="#ffa657" stroke-width="2" opacity="0.8"/>
<circle cx="70.0" cy="203.6" r="3" fill="#ffa657"/>
<circle cx="186.0" cy="203.6" r="3" fill="#ffa657"/>
<circle cx="302.0" cy="181.0" r="3" fill="#ffa657"/>
<circle cx="418.0" cy="203.6" r="3" fill="#ffa657"/>
<circle cx="534.0" cy="196.9" r="3" fill="#ffa657"/>
<circle cx="650.0" cy="196.9" r="4" fill="#ffa657"/>
<text x="70.0" y="136.3" fill="#2ea043" font-family="monospace" font-size="8px" text-anchor="middle">122.6KB</text>
<text x="70.0" y="159.6" fill="#3fb950" font-family="monospace" font-size="8px" text-anchor="middle">119.1KB</text>
<text x="70.0" y="178.7" fill="#f78166" font-family="monospace" font-size="8px" text-anchor="middle">116.3KB</text>
<text x="70.0" y="196.7" fill="#1f6feb" font-family="monospace" font-size="8px" text-anchor="middle">115.8KB</text>
<text x="70.0" y="214.7" fill="#58a6ff" font-family="monospace" font-size="8px" text-anchor="middle">115.8KB</text>
<text x="70.0" y="232.7" fill="#ffa657" font-family="monospace" font-size="8px" text-anchor="middle">113.7KB</text>
<text x="70.0" y="250.7" fill="#388bfd" font-family="monospace" font-size="8px" text-anchor="middle">112.8KB</text>
<text x="70.0" y="268.7" fill="#56d364" font-family="monospace" font-size="8px" text-anchor="middle">105.2KB</text>
<text x="70.0" y="286.7" fill="#238636" font-family="monospace" font-size="8px" text-anchor="middle">104.2KB</text>
<text x="186.0" y="136.3" fill="#2ea043" font-family="monospace" font-size="8px" text-anchor="middle">122.6KB</text>
<text x="186.0" y="159.6" fill="#3fb950" font-family="monospace" font-size="8px" text-anchor="middle">119.1KB</text>
<text x="186.0" y="178.7" fill="#f78166" font-family="monospace" font-size="8px" text-anchor="middle">116.3KB</text>
<text x="186.0" y="196.7" fill="#1f6feb" font-family="monospace" font-size="8px" text-anchor="middle">115.8KB</text>
<text x="186.0" y="214.7" fill="#58a6ff" font-family="monospace" font-size="8px" text-anchor="middle">115.8KB</text>
<text x="186.0" y="232.7" fill="#ffa657" font-family="monospace" font-size="8px" text-anchor="middle">113.7KB</text>
<text x="186.0" y="250.7" fill="#388bfd" font-family="monospace" font-size="8px" text-anchor="middle">112.8KB</text>
<text x="186.0" y="268.7" fill="#56d364" font-family="monospace" font-size="8px" text-anchor="middle">105.2KB</text>
<text x="186.0" y="286.7" fill="#238636" font-family="monospace" font-size="8px" text-anchor="middle">104.2KB</text>
<text x="302.0" y="116.5" fill="#2ea043" font-family="monospace" font-size="8px" text-anchor="middle">125.5KB</text>
<text x="302.0" y="140.2" fill="#3fb950" font-family="monospace" font-size="8px" text-anchor="middle">122.0KB</text>
<text x="302.0" y="158.3" fill="#f78166" font-family="monospace" font-size="8px" text-anchor="middle">119.3KB</text>
<text x="302.0" y="176.3" fill="#58a6ff" font-family="monospace" font-size="8px" text-anchor="middle">118.9KB</text>
<text x="302.0" y="194.3" fill="#1f6feb" font-family="monospace" font-size="8px" text-anchor="middle">118.9KB</text>
<text x="302.0" y="212.3" fill="#ffa657" font-family="monospace" font-size="8px" text-anchor="middle">117.1KB</text>
<text x="302.0" y="230.3" fill="#388bfd" font-family="monospace" font-size="8px" text-anchor="middle">116.1KB</text>
<text x="302.0" y="248.3" fill="#56d364" font-family="monospace" font-size="8px" text-anchor="middle">108.1KB</text>
<text x="302.0" y="266.3" fill="#238636" font-family="monospace" font-size="8px" text-anchor="middle">107.3KB</text>
<text x="418.0" y="136.3" fill="#2ea043" font-family="monospace" font-size="8px" text-anchor="middle">122.6KB</text>
<text x="418.0" y="159.6" fill="#3fb950" font-family="monospace" font-size="8px" text-anchor="middle">119.1KB</text>
<text x="418.0" y="178.7" fill="#f78166" font-family="monospace" font-size="8px" text-anchor="middle">116.3KB</text>
<text x="418.0" y="196.7" fill="#1f6feb" font-family="monospace" font-size="8px" text-anchor="middle">115.8KB</text>
<text x="418.0" y="214.7" fill="#58a6ff" font-family="monospace" font-size="8px" text-anchor="middle">115.8KB</text>
<text x="418.0" y="232.7" fill="#ffa657" font-family="monospace" font-size="8px" text-anchor="middle">113.7KB</text>
<text x="418.0" y="250.7" fill="#388bfd" font-family="monospace" font-size="8px" text-anchor="middle">112.8KB</text>
<text x="418.0" y="268.7" fill="#56d364" font-family="monospace" font-size="8px" text-anchor="middle">105.2KB</text>
<text x="418.0" y="286.7" fill="#238636" font-family="monospace" font-size="8px" text-anchor="middle">104.2KB</text>
<text x="534.0" y="128.9" fill="#2ea043" font-family="monospace" font-size="8px" text-anchor="middle">123.7KB</text>
<text x="534.0" y="152.3" fill="#3fb950" font-family="monospace" font-size="8px" text-anchor="middle">120.2KB</text>
<text x="534.0" y="171.9" fill="#f78166" font-family="monospace" font-size="8px" text-anchor="middle">117.3KB</text>
<text x="534.0" y="189.9" fill="#1f6feb" font-family="monospace" font-size="8px" text-anchor="middle">116.9KB</text>
<text x="534.0" y="207.9" fill="#58a6ff" font-family="monospace" font-size="8px" text-anchor="middle">116.9KB</text>
<text x="534.0" y="225.9" fill="#ffa657" font-family="monospace" font-size="8px" text-anchor="middle">114.7KB</text>
<text x="534.0" y="243.9" fill="#388bfd" font-family="monospace" font-size="8px" text-anchor="middle">113.8KB</text>
<text x="534.0" y="261.9" fill="#56d364" font-family="monospace" font-size="8px" text-anchor="middle">106.2KB</text>
<text x="534.0" y="279.9" fill="#238636" font-family="monospace" font-size="8px" text-anchor="middle">105.0KB</text>
<text x="650.0" y="128.9" fill="#2ea043" font-family="monospace" font-size="8px" text-anchor="middle">123.7KB</text>
<text x="650.0" y="152.3" fill="#3fb950" font-family="monospace" font-size="8px" text-anchor="middle">120.2KB</text>
<text x="650.0" y="171.9" fill="#f78166" font-family="monospace" font-size="8px" text-anchor="middle">117.3KB</text>
<text x="650.0" y="189.9" fill="#1f6feb" font-family="monospace" font-size="8px" text-anchor="middle">116.8KB</text>
<text x="650.0" y="207.9" fill="#58a6ff" font-family="monospace" font-size="8px" text-anchor="middle">116.8KB</text>
<text x="650.0" y="225.9" fill="#ffa657" font-family="monospace" font-size="8px" text-anchor="middle">114.7KB</text>
<text x="650.0" y="243.9" fill="#388bfd" font-family="monospace" font-size="8px" text-anchor="middle">113.7KB</text>
<text x="650.0" y="261.9" fill="#56d364" font-family="monospace" font-size="8px" text-anchor="middle">106.2KB</text>
<text x="650.0" y="279.9" fill="#238636" font-family="monospace" font-size="8px" text-anchor="middle">105.0KB</text>
<rect x="665" y="44" width="12" height="12" fill="#58a6ff"/>
<text x="683" y="54" class="legend">Win i386</text>
<rect x="665" y="62" width="12" height="12" fill="#1f6feb"/>
<text x="683" y="72" class="legend">Win x64</text>
<rect x="665" y="80" width="12" height="12" fill="#388bfd"/>
<text x="683" y="90" class="legend">Win ARM64</text>
<rect x="665" y="98" width="12" height="12" fill="#3fb950"/>
<text x="683" y="108" class="legend">Linux i386</text>
<rect x="665" y="116" width="12" height="12" fill="#238636"/>
<text x="683" y="126" class="legend">Linux x64</text>
<rect x="665" y="134" width="12" height="12" fill="#2ea043"/>
<text x="683" y="144" class="legend">Linux ARM</text>
<rect x="665" y="152" width="12" height="12" fill="#56d364"/>
<text x="683" y="162" class="legend">Linux ARM64</text>
<rect x="665" y="170" width="12" height="12" fill="#f78166"/>
<text x="683" y="180" class="legend">UEFI x64</text>
<rect x="665" y="188" width="12" height="12" fill="#ffa657"/>
<text x="683" y="198" class="legend">UEFI ARM64</text>
</svg>