<svg xmlns="http://www.w3.org/2000/svg" width="800" height="400">
<defs>
<style>
.axis-text { fill: #8b949e; font-family: monospace; font-size: 11px; }
.title { fill: #c9d1d9; font-family: monospace; font-size: 14px; font-weight: bold; }
.legend { fill: #8b949e; font-family: monospace; font-size: 10px; }
.grid { stroke: #21262d; stroke-width: 1; }
</style>
</defs>
<rect width="800" height="400" fill="#0d1117"/>
<text x="400.0" y="25" class="title" text-anchor="middle">Binary Size Trend (.bin)</text>
<line x1="70" y1="40.0" x2="650" y2="40.0" class="grid"/>
<text x="60" y="44.0" class="axis-text" text-anchor="end">138KB</text>
<line x1="70" y1="100.0" x2="650" y2="100.0" class="grid"/>
<text x="60" y="104.0" class="axis-text" text-anchor="end">127KB</text>
<line x1="70" y1="160.0" x2="650" y2="160.0" class="grid"/>
<text x="60" y="164.0" class="axis-text" text-anchor="end">115KB</text>
<line x1="70" y1="220.0" x2="650" y2="220.0" class="grid"/>
<text x="60" y="224.0" class="axis-text" text-anchor="end">104KB</text>
<line x1="70" y1="280.0" x2="650" y2="280.0" class="grid"/>
<text x="60" y="284.0" class="axis-text" text-anchor="end">92KB</text>
<line x1="70" y1="340.0" x2="650" y2="340.0" class="grid"/>
<text x="60" y="344.0" class="axis-text" text-anchor="end">81KB</text>
<text x="70.0" y="360" class="axis-text" text-anchor="middle">02-05</text>
<text x="155.29411764705884" y="360" class="axis-text" text-anchor="middle">02-05</text>
<text x="240.58823529411765" y="360" class="axis-text" text-anchor="middle">02-05</text>
<text x="325.88235294117646" y="360" class="axis-text" text-anchor="middle">02-06</text>
<text x="411.1764705882353" y="360" class="axis-text" text-anchor="middle">02-09</text>
<text x="496.47058823529414" y="360" class="axis-text" text-anchor="middle">02-12</text>
<text x="581.7647058823529" y="360" class="axis-text" text-anchor="middle">02-24</text>
<path d="M 70.0 156.4 L 87.1 157.0 L 104.1 158.2 L 121.2 156.3 L 138.2 156.4 L 155.3 157.1 L 172.4 158.2 L 189.4 157.1 L 206.5 140.0 L 223.5 156.3 L 240.6 157.1 L 257.6 144.9 L 274.7 156.4 L 291.8 156.0 L 308.8 150.7 L 325.9 150.7 L 342.9 150.7 L 360.0 150.7 L 377.1 150.7 L 394.1 151.0 L 411.2 151.0 L 428.2 221.7 L 445.3 221.7 L 462.4 220.8 L 479.4 220.8 L 496.5 220.8 L 513.5 207.0 L 530.6 202.6 L 547.6 202.6 L 564.7 203.2 L 581.8 202.3 L 598.8 202.3 L 615.9 202.6 L 632.9 202.3 L 650.0 202.6" fill="none" stroke="#58a6ff" stroke-width="2" opacity="0.8"/>
<circle cx="70.0" cy="156.4" r="3" fill="#58a6ff"/>
<circle cx="189.4" cy="157.1" r="3" fill="#58a6ff"/>
<circle cx="308.8" cy="150.7" r="3" fill="#58a6ff"/>
<circle cx="428.2" cy="221.7" r="3" fill="#58a6ff"/>
<circle cx="547.6" cy="202.6" r="3" fill="#58a6ff"/>
<circle cx="650.0" cy="202.6" r="4" fill="#58a6ff"/>
<path d="M 70.0 156.4 L 87.1 157.4 L 104.1 158.6 L 121.2 156.4 L 138.2 156.4 L 155.3 157.5 L 172.4 158.6 L 189.4 157.5 L 206.5 140.2 L 223.5 156.4 L 240.6 157.5 L 257.6 144.0 L 274.7 156.4 L 291.8 157.2 L 308.8 150.7 L 325.9 150.7 L 342.9 150.7 L 360.0 150.7 L 377.1 150.7 L 394.1 151.0 L 411.2 151.0 L 428.2 257.4 L 445.3 257.4 L 462.4 256.2 L 479.4 256.2 L 496.5 256.2 L 513.5 258.3 L 530.6 255.4 L 547.6 255.4 L 564.7 255.9 L 581.8 255.4 L 598.8 255.4 L 615.9 255.4 L 632.9 255.4 L 650.0 255.4" fill="none" stroke="#1f6feb" stroke-width="2" opacity="0.8"/>
<circle cx="70.0" cy="156.4" r="3" fill="#1f6feb"/>
<circle cx="189.4" cy="157.5" r="3" fill="#1f6feb"/>
<circle cx="308.8" cy="150.7" r="3" fill="#1f6feb"/>
<circle cx="428.2" cy="257.4" r="3" fill="#1f6feb"/>
<circle cx="547.6" cy="255.4" r="3" fill="#1f6feb"/>
<circle cx="650.0" cy="255.4" r="4" fill="#1f6feb"/>
<path d="M 70.0 172.1 L 87.1 172.7 L 104.1 174.2 L 121.2 172.1 L 138.2 172.1 L 155.3 172.9 L 172.4 174.2 L 189.4 172.9 L 206.5 154.7 L 223.5 172.1 L 240.6 172.9 L 257.6 158.4 L 274.7 172.1 L 291.8 172.3 L 308.8 166.9 L 325.9 166.9 L 342.9 166.9 L 360.0 166.9 L 377.1 166.9 L 394.1 167.1 L 411.2 167.1 L 428.2 254.5 L 445.3 254.5 L 462.4 253.7 L 479.4 253.7 L 496.5 253.7 L 513.5 243.7 L 530.6 242.4 L 547.6 242.4 L 564.7 242.6 L 581.8 242.4 L 598.8 242.4 L 615.9 242.4 L 632.9 242.4 L 650.0 242.4" fill="none" stroke="#388bfd" stroke-width="2" opacity="0.8"/>
<circle cx="70.0" cy="172.1" r="3" fill="#388bfd"/>
<circle cx="189.4" cy="172.9" r="3" fill="#388bfd"/>
<circle cx="308.8" cy="166.9" r="3" fill="#388bfd"/>
<circle cx="428.2" cy="254.5" r="3" fill="#388bfd"/>
<circle cx="547.6" cy="242.4" r="3" fill="#388bfd"/>
<circle cx="650.0" cy="242.4" r="4" fill="#388bfd"/>
<path d="M 70.0 139.1 L 87.1 140.5 L 104.1 141.2 L 121.2 139.1 L 138.2 139.1 L 155.3 140.7 L 172.4 141.2 L 189.4 140.7 L 206.5 124.1 L 223.5 139.1 L 240.6 140.7 L 257.6 127.5 L 274.7 139.1 L 291.8 139.0 L 308.8 133.5 L 325.9 133.5 L 342.9 133.5 L 360.0 133.5 L 377.1 133.5 L 394.1 133.5 L 411.2 133.5 L 428.2 227.2 L 445.3 227.2 L 462.4 225.9 L 479.4 225.9 L 496.5 225.9 L 513.5 230.5 L 530.6 230.5 L 547.6 230.5 L 564.7 230.5 L 581.8 230.3 L 598.8 230.3 L 615.9 230.5 L 632.9 230.3 L 650.0 230.5" fill="none" stroke="#3fb950" stroke-width="2" opacity="0.8"/>
<circle cx="70.0" cy="139.1" r="3" fill="#3fb950"/>
<circle cx="189.4" cy="140.7" r="3" fill="#3fb950"/>
<circle cx="308.8" cy="133.5" r="3" fill="#3fb950"/>
<circle cx="428.2" cy="227.2" r="3" fill="#3fb950"/>
<circle cx="547.6" cy="230.5" r="3" fill="#3fb950"/>
<circle cx="650.0" cy="230.5" r="4" fill="#3fb950"/>
<path d="M 70.0 217.2 L 87.1 218.7 L 104.1 218.6 L 121.2 217.2 L 138.2 217.2 L 155.3 218.8 L 172.4 218.6 L 189.4 218.8 L 206.5 201.0 L 223.5 217.2 L 240.6 218.8 L 257.6 205.2 L 274.7 217.2 L 291.8 216.9 L 308.8 212.8 L 325.9 212.8 L 342.9 212.8 L 360.0 212.8 L 377.1 212.8 L 394.1 212.8 L 411.2 212.8 L 428.2 284.0 L 445.3 284.0 L 462.4 282.4 L 479.4 282.4 L 496.5 282.4 L 513.5 283.7 L 530.6 283.7 L 547.6 283.7 L 564.7 283.7 L 581.8 283.7 L 598.8 283.7 L 615.9 283.7 L 632.9 283.7 L 650.0 283.7" fill="none" stroke="#238636" stroke-width="2" opacity="0.8"/>
<circle cx="70.0" cy="217.2" r="3" fill="#238636"/>
<circle cx="189.4" cy="218.8" r="3" fill="#238636"/>
<circle cx="308.8" cy="212.8" r="3" fill="#238636"/>
<circle cx="428.2" cy="284.0" r="3" fill="#238636"/>
<circle cx="547.6" cy="283.7" r="3" fill="#238636"/>
<circle cx="650.0" cy="283.7" r="4" fill="#238636"/>
<path d="M 70.0 121.0 L 87.1 122.6 L 104.1 123.0 L 121.2 121.0 L 138.2 121.0 L 155.3 122.7 L 172.4 123.0 L 189.4 122.7 L 206.5 105.6 L 223.5 121.0 L 240.6 122.7 L 257.6 110.9 L 274.7 121.0 L 291.8 121.1 L 308.8 115.3 L 325.9 115.3 L 342.9 115.3 L 360.0 115.3 L 377.1 115.3 L 394.1 115.3 L 411.2 115.3 L 428.2 197.4 L 445.3 197.4 L 462.4 196.4 L 479.4 196.4 L 496.5 196.4 L 513.5 184.8 L 530.6 184.8 L 547.6 184.8 L 564.7 184.8 L 581.8 184.8 L 598.8 184.8 L 615.9 184.8 L 632.9 184.8 L 650.0 184.8" fill="none" stroke="#2ea043" stroke-width="2" opacity="0.8"/>
<circle cx="70.0" cy="121.0" r="3" fill="#2ea043"/>
<circle cx="189.4" cy="122.7" r="3" fill="#2ea043"/>
<circle cx="308.8" cy="115.3" r="3" fill="#2ea043"/>
<circle cx="428.2" cy="197.4" r="3" fill="#2ea043"/>
<circle cx="547.6" cy="184.8" r="3" fill="#2ea043"/>
<circle cx="650.0" cy="184.8" r="4" fill="#2ea043"/>
<path d="M 70.0 211.5 L 87.1 213.3 L 104.1 213.7 L 121.2 211.5 L 138.2 211.5 L 155.3 213.5 L 172.4 213.7 L 189.4 213.5 L 206.5 196.5 L 223.5 211.5 L 240.6 213.5 L 257.6 200.0 L 274.7 211.5 L 291.8 211.8 L 308.8 206.4 L 325.9 206.4 L 342.9 206.4 L 360.0 206.4 L 377.1 206.4 L 394.1 206.4 L 411.2 206.4 L 428.2 293.1 L 445.3 293.1 L 462.4 292.4 L 479.4 292.4 L 496.5 292.4 L 513.5 284.1 L 530.6 284.1 L 547.6 284.1 L 564.7 284.1 L 581.8 284.1 L 598.8 284.1 L 615.9 284.1 L 632.9 284.1 L 650.0 284.1" fill="none" stroke="#56d364" stroke-width="2" opacity="0.8"/>
<circle cx="70.0" cy="211.5" r="3" fill="#56d364"/>
<circle cx="189.4" cy="213.5" r="3" fill="#56d364"/>
<circle cx="308.8" cy="206.4" r="3" fill="#56d364"/>
<circle cx="428.2" cy="293.1" r="3" fill="#56d364"/>
<circle cx="547.6" cy="284.1" r="3" fill="#56d364"/>
<circle cx="650.0" cy="284.1" r="4" fill="#56d364"/>
<path d="M 70.0 154.0 L 87.1 155.1 L 104.1 156.2 L 121.2 153.9 L 138.2 154.0 L 155.3 155.1 L 172.4 156.2 L 189.4 155.1 L 206.5 138.2 L 223.5 153.9 L 240.6 155.1 L 257.6 142.0 L 274.7 154.0 L 291.8 154.8 L 308.8 148.7 L 325.9 148.7 L 342.9 148.7 L 360.0 148.7 L 377.1 148.7 L 394.1 148.7 L 411.2 148.7 L 428.2 254.5 L 445.3 254.5 L 462.4 253.3 L 479.4 253.3 L 496.5 253.3 L 513.5 258.5 L 530.6 258.5 L 547.6 258.5 L 564.7 258.5 L 581.8 258.5 L 598.8 258.5 L 615.9 258.5 L 632.9 258.5 L 650.0 258.5" fill="none" stroke="#f78166" stroke-width="2" opacity="0.8"/>
<circle cx="70.0" cy="154.0" r="3" fill="#f78166"/>
<circle cx="189.4" cy="155.1" r="3" fill="#f78166"/>
<circle cx="308.8" cy="148.7" r="3" fill="#f78166"/>
<circle cx="428.2" cy="254.5" r="3" fill="#f78166"/>
<circle cx="547.6" cy="258.5" r="3" fill="#f78166"/>
<circle cx="650.0" cy="258.5" r="4" fill="#f78166"/>
<path d="M 70.0 167.1 L 87.1 167.9 L 104.1 169.2 L 121.2 167.1 L 138.2 167.1 L 155.3 167.9 L 172.4 169.2 L 189.4 167.9 L 206.5 149.6 L 223.5 167.1 L 240.6 167.9 L 257.6 153.3 L 274.7 167.1 L 291.8 167.3 L 308.8 162.0 L 325.9 162.0 L 342.9 162.0 L 360.0 162.0 L 377.1 162.0 L 394.1 162.0 L 411.2 162.0 L 428.2 248.7 L 445.3 248.7 L 462.4 247.8 L 479.4 247.8 L 496.5 247.8 L 513.5 240.8 L 530.6 240.8 L 547.6 240.8 L 564.7 240.8 L 581.8 240.8 L 598.8 240.8 L 615.9 240.8 L 632.9 240.8 L 650.0 240.8" fill="none" stroke="#ffa657" stroke-width="2" opacity="0.8"/>
<circle cx="70.0" cy="167.1" r="3" fill="#ffa657"/>
<circle cx="189.4" cy="167.9" r="3" fill="#ffa657"/>
<circle cx="308.8" cy="162.0" r="3" fill="#ffa657"/>
<circle cx="428.2" cy="248.7" r="3" fill="#ffa657"/>
<circle cx="547.6" cy="240.8" r="3" fill="#ffa657"/>
<circle cx="650.0" cy="240.8" r="4" fill="#ffa657"/>
<text x="70.0" y="113.0" fill="#2ea043" font-family="monospace" font-size="8px" text-anchor="middle">122.6KB</text>
<text x="70.0" y="131.1" fill="#3fb950" font-family="monospace" font-size="8px" text-anchor="middle">119.1KB</text>
<text x="70.0" y="149.1" fill="#f78166" font-family="monospace" font-size="8px" text-anchor="middle">116.3KB</text>
<text x="70.0" y="167.1" fill="#1f6feb" font-family="monospace" font-size="8px" text-anchor="middle">115.8KB</text>
<text x="70.0" y="185.1" fill="#58a6ff" font-family="monospace" font-size="8px" text-anchor="middle">115.8KB</text>
<text x="70.0" y="203.1" fill="#ffa657" font-family="monospace" font-size="8px" text-anchor="middle">113.7KB</text>
<text x="70.0" y="221.1" fill="#388bfd" font-family="monospace" font-size="8px" text-anchor="middle">112.8KB</text>
<text x="70.0" y="239.1" fill="#56d364" font-family="monospace" font-size="8px" text-anchor="middle">105.2KB</text>
<text x="70.0" y="257.1" fill="#238636" font-family="monospace" font-size="8px" text-anchor="middle">104.2KB</text>
<text x="189.4" y="114.7" fill="#2ea043" font-family="monospace" font-size="8px" text-anchor="middle">122.2KB</text>
<text x="189.4" y="132.7" fill="#3fb950" font-family="monospace" font-size="8px" text-anchor="middle">118.8KB</text>
<text x="189.4" y="150.7" fill="#f78166" font-family="monospace" font-size="8px" text-anchor="middle">116.0KB</text>
<text x="189.4" y="168.7" fill="#58a6ff" font-family="monospace" font-size="8px" text-anchor="middle">115.7KB</text>
<text x="189.4" y="186.7" fill="#1f6feb" font-family="monospace" font-size="8px" text-anchor="middle">115.6KB</text>
<text x="189.4" y="204.7" fill="#ffa657" font-family="monospace" font-size="8px" text-anchor="middle">113.6KB</text>
<text x="189.4" y="222.7" fill="#388bfd" font-family="monospace" font-size="8px" text-anchor="middle">112.6KB</text>
<text x="189.4" y="240.7" fill="#56d364" font-family="monospace" font-size="8px" text-anchor="middle">104.9KB</text>
<text x="189.4" y="258.7" fill="#238636" font-family="monospace" font-size="8px" text-anchor="middle">103.9KB</text>
<text x="308.8" y="107.3" fill="#2ea043" font-family="monospace" font-size="8px" text-anchor="middle">123.7KB</text>
<text x="308.8" y="125.5" fill="#3fb950" font-family="monospace" font-size="8px" text-anchor="middle">120.2KB</text>
<text x="308.8" y="143.5" fill="#f78166" font-family="monospace" font-size="8px" text-anchor="middle">117.3KB</text>
<text x="308.8" y="161.5" fill="#1f6feb" font-family="monospace" font-size="8px" text-anchor="middle">116.9KB</text>
<text x="308.8" y="179.5" fill="#58a6ff" font-family="monospace" font-size="8px" text-anchor="middle">116.9KB</text>
<text x="308.8" y="197.5" fill="#ffa657" font-family="monospace" font-size="8px" text-anchor="middle">114.7KB</text>
<text x="308.8" y="215.5" fill="#388bfd" font-family="monospace" font-size="8px" text-anchor="middle">113.8KB</text>
<text x="308.8" y="233.5" fill="#56d364" font-family="monospace" font-size="8px" text-anchor="middle">106.2KB</text>
<text x="308.8" y="251.5" fill="#238636" font-family="monospace" font-size="8px" text-anchor="middle">105.0KB</text>
<text x="428.2" y="189.4" fill="#2ea043" font-family="monospace" font-size="8px" text-anchor="middle">108.0KB</text>
<text x="428.2" y="213.7" fill="#58a6ff" font-family="monospace" font-size="8px" text-anchor="middle">103.3KB</text>
<text x="428.2" y="231.7" fill="#3fb950" font-family="monospace" font-size="8px" text-anchor="middle">102.3KB</text>
<text x="428.2" y="249.7" fill="#ffa657" font-family="monospace" font-size="8px" text-anchor="middle">98.2KB</text>
<text x="428.2" y="267.7" fill="#f78166" font-family="monospace" font-size="8px" text-anchor="middle">97.0KB</text>
<text x="428.2" y="285.7" fill="#388bfd" font-family="monospace" font-size="8px" text-anchor="middle">97.0KB</text>
<text x="428.2" y="303.7" fill="#1f6feb" font-family="monospace" font-size="8px" text-anchor="middle">96.5KB</text>
<text x="428.2" y="321.7" fill="#238636" font-family="monospace" font-size="8px" text-anchor="middle">91.4KB</text>
<text x="428.2" y="339.7" fill="#56d364" font-family="monospace" font-size="8px" text-anchor="middle">89.7KB</text>
<text x="547.6" y="176.8" fill="#2ea043" font-family="monospace" font-size="8px" text-anchor="middle">110.4KB</text>
<text x="547.6" y="194.8" fill="#58a6ff" font-family="monospace" font-size="8px" text-anchor="middle">107.0KB</text>
<text x="547.6" y="222.5" fill="#3fb950" font-family="monospace" font-size="8px" text-anchor="middle">101.6KB</text>
<text x="547.6" y="240.5" fill="#ffa657" font-family="monospace" font-size="8px" text-anchor="middle">99.7KB</text>
<text x="547.6" y="258.5" fill="#388bfd" font-family="monospace" font-size="8px" text-anchor="middle">99.4KB</text>
<text x="547.6" y="276.5" fill="#1f6feb" font-family="monospace" font-size="8px" text-anchor="middle">96.9KB</text>
<text x="547.6" y="294.5" fill="#f78166" font-family="monospace" font-size="8px" text-anchor="middle">96.3KB</text>
<text x="547.6" y="312.5" fill="#238636" font-family="monospace" font-size="8px" text-anchor="middle">91.5KB</text>
<text x="547.6" y="330.5" fill="#56d364" font-family="monospace" font-size="8px" text-anchor="middle">91.4KB</text>
<text x="650.0" y="176.8" fill="#2ea043" font-family="monospace" font-size="8px" text-anchor="middle">110.4KB</text>
<text x="650.0" y="194.8" fill="#58a6ff" font-family="monospace" font-size="8px" text-anchor="middle">107.0KB</text>
<text x="650.0" y="222.5" fill="#3fb950" font-family="monospace" font-size="8px" text-anchor="middle">101.6KB</text>
<text x="650.0" y="240.5" fill="#ffa657" font-family="monospace" font-size="8px" text-anchor="middle">99.7KB</text>
<text x="650.0" y="258.5" fill="#388bfd" font-family="monospace" font-size="8px" text-anchor="middle">99.4KB</text>
<text x="650.0" y="276.5" fill="#1f6feb" font-family="monospace" font-size="8px" text-anchor="middle">96.9KB</text>
<text x="650.0" y="294.5" fill="#f78166" font-family="monospace" font-size="8px" text-anchor="middle">96.3KB</text>
<text x="650.0" y="312.5" fill="#238636" font-family="monospace" font-size="8px" text-anchor="middle">91.5KB</text>
<text x="650.0" y="330.5" fill="#56d364" font-family="monospace" font-size="8px" text-anchor="middle">91.4KB</text>
<rect x="665" y="44" width="12" height="12" fill="#58a6ff"/>
<text x="683" y="54" class="legend">Win i386</text>
<rect x="665" y="62" width="12" height="12" fill="#1f6feb"/>
<text x="683" y="72" class="legend">Win x64</text>
<rect x="665" y="80" width="12" height="12" fill="#388bfd"/>
<text x="683" y="90" class="legend">Win ARM64</text>
<rect x="665" y="98" width="12" height="12" fill="#3fb950"/>
<text x="683" y="108" class="legend">Linux i386</text>
<rect x="665" y="116" width="12" height="12" fill="#238636"/>
<text x="683" y="126" class="legend">Linux x64</text>
<rect x="665" y="134" width="12" height="12" fill="#2ea043"/>
<text x="683" y="144" class="legend">Linux ARM</text>
<rect x="665" y="152" width="12" height="12" fill="#56d364"/>
<text x="683" y="162" class="legend">Linux ARM64</text>
<rect x="665" y="170" width="12" height="12" fill="#f78166"/>
<text x="683" y="180" class="legend">UEFI x64</text>
<rect x="665" y="188" width="12" height="12" fill="#ffa657"/>
<text x="683" y="198" class="legend">UEFI ARM64</text>
</svg>