<svg xmlns="http://www.w3.org/2000/svg" width="800" height="400">
<defs>
<style>
.axis-text { fill: #8b949e; font-family: monospace; font-size: 11px; }
.title { fill: #c9d1d9; font-family: monospace; font-size: 14px; font-weight: bold; }
.legend { fill: #8b949e; font-family: monospace; font-size: 10px; }
.grid { stroke: #21262d; stroke-width: 1; }
</style>
</defs>
<rect width="800" height="400" fill="#0d1117"/>
<text x="400.0" y="25" class="title" text-anchor="middle">Binary Size Trend (.bin)</text>
<line x1="70" y1="40.0" x2="650" y2="40.0" class="grid"/>
<text x="60" y="44.0" class="axis-text" text-anchor="end">138KB</text>
<line x1="70" y1="100.0" x2="650" y2="100.0" class="grid"/>
<text x="60" y="104.0" class="axis-text" text-anchor="end">127KB</text>
<line x1="70" y1="160.0" x2="650" y2="160.0" class="grid"/>
<text x="60" y="164.0" class="axis-text" text-anchor="end">115KB</text>
<line x1="70" y1="220.0" x2="650" y2="220.0" class="grid"/>
<text x="60" y="224.0" class="axis-text" text-anchor="end">104KB</text>
<line x1="70" y1="280.0" x2="650" y2="280.0" class="grid"/>
<text x="60" y="284.0" class="axis-text" text-anchor="end">92KB</text>
<line x1="70" y1="340.0" x2="650" y2="340.0" class="grid"/>
<text x="60" y="344.0" class="axis-text" text-anchor="end">81KB</text>
<text x="70.0" y="360" class="axis-text" text-anchor="middle">02-05</text>
<text x="149.09090909090907" y="360" class="axis-text" text-anchor="middle">02-05</text>
<text x="228.18181818181816" y="360" class="axis-text" text-anchor="middle">02-05</text>
<text x="307.27272727272725" y="360" class="axis-text" text-anchor="middle">02-05</text>
<text x="386.3636363636363" y="360" class="axis-text" text-anchor="middle">02-05</text>
<text x="465.45454545454544" y="360" class="axis-text" text-anchor="middle">02-06</text>
<text x="544.5454545454545" y="360" class="axis-text" text-anchor="middle">02-09</text>
<text x="623.6363636363636" y="360" class="axis-text" text-anchor="middle">02-10</text>
<path d="M 70.0 156.4 L 96.4 157.0 L 122.7 158.2 L 149.1 156.3 L 175.5 156.4 L 201.8 157.1 L 228.2 158.2 L 254.5 157.1 L 280.9 140.0 L 307.3 156.3 L 333.6 157.1 L 360.0 144.9 L 386.4 156.4 L 412.7 156.0 L 439.1 150.7 L 465.5 150.7 L 491.8 150.7 L 518.2 150.7 L 544.5 150.7 L 570.9 151.0 L 597.3 151.0 L 623.6 221.7 L 650.0 221.7" fill="none" stroke="#58a6ff" stroke-width="2" opacity="0.8"/>
<circle cx="70.0" cy="156.4" r="3" fill="#58a6ff"/>
<circle cx="175.5" cy="156.4" r="3" fill="#58a6ff"/>
<circle cx="280.9" cy="140.0" r="3" fill="#58a6ff"/>
<circle cx="386.4" cy="156.4" r="3" fill="#58a6ff"/>
<circle cx="491.8" cy="150.7" r="3" fill="#58a6ff"/>
<circle cx="597.3" cy="151.0" r="3" fill="#58a6ff"/>
<circle cx="650.0" cy="221.7" r="4" fill="#58a6ff"/>
<path d="M 70.0 156.4 L 96.4 157.4 L 122.7 158.6 L 149.1 156.4 L 175.5 156.4 L 201.8 157.5 L 228.2 158.6 L 254.5 157.5 L 280.9 140.2 L 307.3 156.4 L 333.6 157.5 L 360.0 144.0 L 386.4 156.4 L 412.7 157.2 L 439.1 150.7 L 465.5 150.7 L 491.8 150.7 L 518.2 150.7 L 544.5 150.7 L 570.9 151.0 L 597.3 151.0 L 623.6 257.4 L 650.0 257.4" fill="none" stroke="#1f6feb" stroke-width="2" opacity="0.8"/>
<circle cx="70.0" cy="156.4" r="3" fill="#1f6feb"/>
<circle cx="175.5" cy="156.4" r="3" fill="#1f6feb"/>
<circle cx="280.9" cy="140.2" r="3" fill="#1f6feb"/>
<circle cx="386.4" cy="156.4" r="3" fill="#1f6feb"/>
<circle cx="491.8" cy="150.7" r="3" fill="#1f6feb"/>
<circle cx="597.3" cy="151.0" r="3" fill="#1f6feb"/>
<circle cx="650.0" cy="257.4" r="4" fill="#1f6feb"/>
<path d="M 70.0 172.1 L 96.4 172.7 L 122.7 174.2 L 149.1 172.1 L 175.5 172.1 L 201.8 172.9 L 228.2 174.2 L 254.5 172.9 L 280.9 154.7 L 307.3 172.1 L 333.6 172.9 L 360.0 158.4 L 386.4 172.1 L 412.7 172.3 L 439.1 166.9 L 465.5 166.9 L 491.8 166.9 L 518.2 166.9 L 544.5 166.9 L 570.9 167.1 L 597.3 167.1 L 623.6 254.5 L 650.0 254.5" fill="none" stroke="#388bfd" stroke-width="2" opacity="0.8"/>
<circle cx="70.0" cy="172.1" r="3" fill="#388bfd"/>
<circle cx="175.5" cy="172.1" r="3" fill="#388bfd"/>
<circle cx="280.9" cy="154.7" r="3" fill="#388bfd"/>
<circle cx="386.4" cy="172.1" r="3" fill="#388bfd"/>
<circle cx="491.8" cy="166.9" r="3" fill="#388bfd"/>
<circle cx="597.3" cy="167.1" r="3" fill="#388bfd"/>
<circle cx="650.0" cy="254.5" r="4" fill="#388bfd"/>
<path d="M 70.0 139.1 L 96.4 140.5 L 122.7 141.2 L 149.1 139.1 L 175.5 139.1 L 201.8 140.7 L 228.2 141.2 L 254.5 140.7 L 280.9 124.1 L 307.3 139.1 L 333.6 140.7 L 360.0 127.5 L 386.4 139.1 L 412.7 139.0 L 439.1 133.5 L 465.5 133.5 L 491.8 133.5 L 518.2 133.5 L 544.5 133.5 L 570.9 133.5 L 597.3 133.5 L 623.6 227.2 L 650.0 227.2" fill="none" stroke="#3fb950" stroke-width="2" opacity="0.8"/>
<circle cx="70.0" cy="139.1" r="3" fill="#3fb950"/>
<circle cx="175.5" cy="139.1" r="3" fill="#3fb950"/>
<circle cx="280.9" cy="124.1" r="3" fill="#3fb950"/>
<circle cx="386.4" cy="139.1" r="3" fill="#3fb950"/>
<circle cx="491.8" cy="133.5" r="3" fill="#3fb950"/>
<circle cx="597.3" cy="133.5" r="3" fill="#3fb950"/>
<circle cx="650.0" cy="227.2" r="4" fill="#3fb950"/>
<path d="M 70.0 217.2 L 96.4 218.7 L 122.7 218.6 L 149.1 217.2 L 175.5 217.2 L 201.8 218.8 L 228.2 218.6 L 254.5 218.8 L 280.9 201.0 L 307.3 217.2 L 333.6 218.8 L 360.0 205.2 L 386.4 217.2 L 412.7 216.9 L 439.1 212.8 L 465.5 212.8 L 491.8 212.8 L 518.2 212.8 L 544.5 212.8 L 570.9 212.8 L 597.3 212.8 L 623.6 284.0 L 650.0 284.0" fill="none" stroke="#238636" stroke-width="2" opacity="0.8"/>
<circle cx="70.0" cy="217.2" r="3" fill="#238636"/>
<circle cx="175.5" cy="217.2" r="3" fill="#238636"/>
<circle cx="280.9" cy="201.0" r="3" fill="#238636"/>
<circle cx="386.4" cy="217.2" r="3" fill="#238636"/>
<circle cx="491.8" cy="212.8" r="3" fill="#238636"/>
<circle cx="597.3" cy="212.8" r="3" fill="#238636"/>
<circle cx="650.0" cy="284.0" r="4" fill="#238636"/>
<path d="M 70.0 121.0 L 96.4 122.6 L 122.7 123.0 L 149.1 121.0 L 175.5 121.0 L 201.8 122.7 L 228.2 123.0 L 254.5 122.7 L 280.9 105.6 L 307.3 121.0 L 333.6 122.7 L 360.0 110.9 L 386.4 121.0 L 412.7 121.1 L 439.1 115.3 L 465.5 115.3 L 491.8 115.3 L 518.2 115.3 L 544.5 115.3 L 570.9 115.3 L 597.3 115.3 L 623.6 197.4 L 650.0 197.4" fill="none" stroke="#2ea043" stroke-width="2" opacity="0.8"/>
<circle cx="70.0" cy="121.0" r="3" fill="#2ea043"/>
<circle cx="175.5" cy="121.0" r="3" fill="#2ea043"/>
<circle cx="280.9" cy="105.6" r="3" fill="#2ea043"/>
<circle cx="386.4" cy="121.0" r="3" fill="#2ea043"/>
<circle cx="491.8" cy="115.3" r="3" fill="#2ea043"/>
<circle cx="597.3" cy="115.3" r="3" fill="#2ea043"/>
<circle cx="650.0" cy="197.4" r="4" fill="#2ea043"/>
<path d="M 70.0 211.5 L 96.4 213.3 L 122.7 213.7 L 149.1 211.5 L 175.5 211.5 L 201.8 213.5 L 228.2 213.7 L 254.5 213.5 L 280.9 196.5 L 307.3 211.5 L 333.6 213.5 L 360.0 200.0 L 386.4 211.5 L 412.7 211.8 L 439.1 206.4 L 465.5 206.4 L 491.8 206.4 L 518.2 206.4 L 544.5 206.4 L 570.9 206.4 L 597.3 206.4 L 623.6 293.1 L 650.0 293.1" fill="none" stroke="#56d364" stroke-width="2" opacity="0.8"/>
<circle cx="70.0" cy="211.5" r="3" fill="#56d364"/>
<circle cx="175.5" cy="211.5" r="3" fill="#56d364"/>
<circle cx="280.9" cy="196.5" r="3" fill="#56d364"/>
<circle cx="386.4" cy="211.5" r="3" fill="#56d364"/>
<circle cx="491.8" cy="206.4" r="3" fill="#56d364"/>
<circle cx="597.3" cy="206.4" r="3" fill="#56d364"/>
<circle cx="650.0" cy="293.1" r="4" fill="#56d364"/>
<path d="M 70.0 154.0 L 96.4 155.1 L 122.7 156.2 L 149.1 153.9 L 175.5 154.0 L 201.8 155.1 L 228.2 156.2 L 254.5 155.1 L 280.9 138.2 L 307.3 153.9 L 333.6 155.1 L 360.0 142.0 L 386.4 154.0 L 412.7 154.8 L 439.1 148.7 L 465.5 148.7 L 491.8 148.7 L 518.2 148.7 L 544.5 148.7 L 570.9 148.7 L 597.3 148.7 L 623.6 254.5 L 650.0 254.5" fill="none" stroke="#f78166" stroke-width="2" opacity="0.8"/>
<circle cx="70.0" cy="154.0" r="3" fill="#f78166"/>
<circle cx="175.5" cy="154.0" r="3" fill="#f78166"/>
<circle cx="280.9" cy="138.2" r="3" fill="#f78166"/>
<circle cx="386.4" cy="154.0" r="3" fill="#f78166"/>
<circle cx="491.8" cy="148.7" r="3" fill="#f78166"/>
<circle cx="597.3" cy="148.7" r="3" fill="#f78166"/>
<circle cx="650.0" cy="254.5" r="4" fill="#f78166"/>
<path d="M 70.0 167.1 L 96.4 167.9 L 122.7 169.2 L 149.1 167.1 L 175.5 167.1 L 201.8 167.9 L 228.2 169.2 L 254.5 167.9 L 280.9 149.6 L 307.3 167.1 L 333.6 167.9 L 360.0 153.3 L 386.4 167.1 L 412.7 167.3 L 439.1 162.0 L 465.5 162.0 L 491.8 162.0 L 518.2 162.0 L 544.5 162.0 L 570.9 162.0 L 597.3 162.0 L 623.6 248.7 L 650.0 248.7" fill="none" stroke="#ffa657" stroke-width="2" opacity="0.8"/>
<circle cx="70.0" cy="167.1" r="3" fill="#ffa657"/>
<circle cx="175.5" cy="167.1" r="3" fill="#ffa657"/>
<circle cx="280.9" cy="149.6" r="3" fill="#ffa657"/>
<circle cx="386.4" cy="167.1" r="3" fill="#ffa657"/>
<circle cx="491.8" cy="162.0" r="3" fill="#ffa657"/>
<circle cx="597.3" cy="162.0" r="3" fill="#ffa657"/>
<circle cx="650.0" cy="248.7" r="4" fill="#ffa657"/>
<text x="70.0" y="113.0" fill="#2ea043" font-family="monospace" font-size="8px" text-anchor="middle">122.6KB</text>
<text x="70.0" y="131.1" fill="#3fb950" font-family="monospace" font-size="8px" text-anchor="middle">119.1KB</text>
<text x="70.0" y="149.1" fill="#f78166" font-family="monospace" font-size="8px" text-anchor="middle">116.3KB</text>
<text x="70.0" y="167.1" fill="#1f6feb" font-family="monospace" font-size="8px" text-anchor="middle">115.8KB</text>
<text x="70.0" y="185.1" fill="#58a6ff" font-family="monospace" font-size="8px" text-anchor="middle">115.8KB</text>
<text x="70.0" y="203.1" fill="#ffa657" font-family="monospace" font-size="8px" text-anchor="middle">113.7KB</text>
<text x="70.0" y="221.1" fill="#388bfd" font-family="monospace" font-size="8px" text-anchor="middle">112.8KB</text>
<text x="70.0" y="239.1" fill="#56d364" font-family="monospace" font-size="8px" text-anchor="middle">105.2KB</text>
<text x="70.0" y="257.1" fill="#238636" font-family="monospace" font-size="8px" text-anchor="middle">104.2KB</text>
<text x="175.5" y="113.0" fill="#2ea043" font-family="monospace" font-size="8px" text-anchor="middle">122.6KB</text>
<text x="175.5" y="131.1" fill="#3fb950" font-family="monospace" font-size="8px" text-anchor="middle">119.1KB</text>
<text x="175.5" y="149.1" fill="#f78166" font-family="monospace" font-size="8px" text-anchor="middle">116.3KB</text>
<text x="175.5" y="167.1" fill="#1f6feb" font-family="monospace" font-size="8px" text-anchor="middle">115.8KB</text>
<text x="175.5" y="185.1" fill="#58a6ff" font-family="monospace" font-size="8px" text-anchor="middle">115.8KB</text>
<text x="175.5" y="203.1" fill="#ffa657" font-family="monospace" font-size="8px" text-anchor="middle">113.7KB</text>
<text x="175.5" y="221.1" fill="#388bfd" font-family="monospace" font-size="8px" text-anchor="middle">112.8KB</text>
<text x="175.5" y="239.1" fill="#56d364" font-family="monospace" font-size="8px" text-anchor="middle">105.2KB</text>
<text x="175.5" y="257.1" fill="#238636" font-family="monospace" font-size="8px" text-anchor="middle">104.2KB</text>
<text x="280.9" y="97.6" fill="#2ea043" font-family="monospace" font-size="8px" text-anchor="middle">125.5KB</text>
<text x="280.9" y="116.1" fill="#3fb950" font-family="monospace" font-size="8px" text-anchor="middle">122.0KB</text>
<text x="280.9" y="134.1" fill="#f78166" font-family="monospace" font-size="8px" text-anchor="middle">119.3KB</text>
<text x="280.9" y="152.1" fill="#58a6ff" font-family="monospace" font-size="8px" text-anchor="middle">118.9KB</text>
<text x="280.9" y="170.1" fill="#1f6feb" font-family="monospace" font-size="8px" text-anchor="middle">118.9KB</text>
<text x="280.9" y="188.1" fill="#ffa657" font-family="monospace" font-size="8px" text-anchor="middle">117.1KB</text>
<text x="280.9" y="206.1" fill="#388bfd" font-family="monospace" font-size="8px" text-anchor="middle">116.1KB</text>
<text x="280.9" y="224.1" fill="#56d364" font-family="monospace" font-size="8px" text-anchor="middle">108.1KB</text>
<text x="280.9" y="242.1" fill="#238636" font-family="monospace" font-size="8px" text-anchor="middle">107.3KB</text>
<text x="386.4" y="113.0" fill="#2ea043" font-family="monospace" font-size="8px" text-anchor="middle">122.6KB</text>
<text x="386.4" y="131.1" fill="#3fb950" font-family="monospace" font-size="8px" text-anchor="middle">119.1KB</text>
<text x="386.4" y="149.1" fill="#f78166" font-family="monospace" font-size="8px" text-anchor="middle">116.3KB</text>
<text x="386.4" y="167.1" fill="#1f6feb" font-family="monospace" font-size="8px" text-anchor="middle">115.8KB</text>
<text x="386.4" y="185.1" fill="#58a6ff" font-family="monospace" font-size="8px" text-anchor="middle">115.8KB</text>
<text x="386.4" y="203.1" fill="#ffa657" font-family="monospace" font-size="8px" text-anchor="middle">113.7KB</text>
<text x="386.4" y="221.1" fill="#388bfd" font-family="monospace" font-size="8px" text-anchor="middle">112.8KB</text>
<text x="386.4" y="239.1" fill="#56d364" font-family="monospace" font-size="8px" text-anchor="middle">105.2KB</text>
<text x="386.4" y="257.1" fill="#238636" font-family="monospace" font-size="8px" text-anchor="middle">104.2KB</text>
<text x="491.8" y="107.3" fill="#2ea043" font-family="monospace" font-size="8px" text-anchor="middle">123.7KB</text>
<text x="491.8" y="125.5" fill="#3fb950" font-family="monospace" font-size="8px" text-anchor="middle">120.2KB</text>
<text x="491.8" y="143.5" fill="#f78166" font-family="monospace" font-size="8px" text-anchor="middle">117.3KB</text>
<text x="491.8" y="161.5" fill="#1f6feb" font-family="monospace" font-size="8px" text-anchor="middle">116.9KB</text>
<text x="491.8" y="179.5" fill="#58a6ff" font-family="monospace" font-size="8px" text-anchor="middle">116.9KB</text>
<text x="491.8" y="197.5" fill="#ffa657" font-family="monospace" font-size="8px" text-anchor="middle">114.7KB</text>
<text x="491.8" y="215.5" fill="#388bfd" font-family="monospace" font-size="8px" text-anchor="middle">113.8KB</text>
<text x="491.8" y="233.5" fill="#56d364" font-family="monospace" font-size="8px" text-anchor="middle">106.2KB</text>
<text x="491.8" y="251.5" fill="#238636" font-family="monospace" font-size="8px" text-anchor="middle">105.0KB</text>
<text x="597.3" y="107.3" fill="#2ea043" font-family="monospace" font-size="8px" text-anchor="middle">123.7KB</text>
<text x="597.3" y="125.5" fill="#3fb950" font-family="monospace" font-size="8px" text-anchor="middle">120.2KB</text>
<text x="597.3" y="143.5" fill="#f78166" font-family="monospace" font-size="8px" text-anchor="middle">117.3KB</text>
<text x="597.3" y="161.5" fill="#1f6feb" font-family="monospace" font-size="8px" text-anchor="middle">116.8KB</text>
<text x="597.3" y="179.5" fill="#58a6ff" font-family="monospace" font-size="8px" text-anchor="middle">116.8KB</text>
<text x="597.3" y="197.5" fill="#ffa657" font-family="monospace" font-size="8px" text-anchor="middle">114.7KB</text>
<text x="597.3" y="215.5" fill="#388bfd" font-family="monospace" font-size="8px" text-anchor="middle">113.7KB</text>
<text x="597.3" y="233.5" fill="#56d364" font-family="monospace" font-size="8px" text-anchor="middle">106.2KB</text>
<text x="597.3" y="251.5" fill="#238636" font-family="monospace" font-size="8px" text-anchor="middle">105.0KB</text>
<text x="650.0" y="189.4" fill="#2ea043" font-family="monospace" font-size="8px" text-anchor="middle">108.0KB</text>
<text x="650.0" y="213.7" fill="#58a6ff" font-family="monospace" font-size="8px" text-anchor="middle">103.3KB</text>
<text x="650.0" y="231.7" fill="#3fb950" font-family="monospace" font-size="8px" text-anchor="middle">102.3KB</text>
<text x="650.0" y="249.7" fill="#ffa657" font-family="monospace" font-size="8px" text-anchor="middle">98.2KB</text>
<text x="650.0" y="267.7" fill="#f78166" font-family="monospace" font-size="8px" text-anchor="middle">97.0KB</text>
<text x="650.0" y="285.7" fill="#388bfd" font-family="monospace" font-size="8px" text-anchor="middle">97.0KB</text>
<text x="650.0" y="303.7" fill="#1f6feb" font-family="monospace" font-size="8px" text-anchor="middle">96.5KB</text>
<text x="650.0" y="321.7" fill="#238636" font-family="monospace" font-size="8px" text-anchor="middle">91.4KB</text>
<text x="650.0" y="339.7" fill="#56d364" font-family="monospace" font-size="8px" text-anchor="middle">89.7KB</text>
<rect x="665" y="44" width="12" height="12" fill="#58a6ff"/>
<text x="683" y="54" class="legend">Win i386</text>
<rect x="665" y="62" width="12" height="12" fill="#1f6feb"/>
<text x="683" y="72" class="legend">Win x64</text>
<rect x="665" y="80" width="12" height="12" fill="#388bfd"/>
<text x="683" y="90" class="legend">Win ARM64</text>
<rect x="665" y="98" width="12" height="12" fill="#3fb950"/>
<text x="683" y="108" class="legend">Linux i386</text>
<rect x="665" y="116" width="12" height="12" fill="#238636"/>
<text x="683" y="126" class="legend">Linux x64</text>
<rect x="665" y="134" width="12" height="12" fill="#2ea043"/>
<text x="683" y="144" class="legend">Linux ARM</text>
<rect x="665" y="152" width="12" height="12" fill="#56d364"/>
<text x="683" y="162" class="legend">Linux ARM64</text>
<rect x="665" y="170" width="12" height="12" fill="#f78166"/>
<text x="683" y="180" class="legend">UEFI x64</text>
<rect x="665" y="188" width="12" height="12" fill="#ffa657"/>
<text x="683" y="198" class="legend">UEFI ARM64</text>
</svg>