<svg xmlns="http://www.w3.org/2000/svg" width="800" height="400">
<defs>
<style>
.axis-text { fill: #8b949e; font-family: monospace; font-size: 11px; }
.title { fill: #c9d1d9; font-family: monospace; font-size: 14px; font-weight: bold; }
.legend { fill: #8b949e; font-family: monospace; font-size: 10px; }
.grid { stroke: #21262d; stroke-width: 1; }
</style>
</defs>
<rect width="800" height="400" fill="#0d1117"/>
<text x="400.0" y="25" class="title" text-anchor="middle">Binary Size Trend (.bin)</text>
<line x1="70" y1="40.0" x2="650" y2="40.0" class="grid"/>
<text x="60" y="44.0" class="axis-text" text-anchor="end">138KB</text>
<line x1="70" y1="100.0" x2="650" y2="100.0" class="grid"/>
<text x="60" y="104.0" class="axis-text" text-anchor="end">127KB</text>
<line x1="70" y1="160.0" x2="650" y2="160.0" class="grid"/>
<text x="60" y="164.0" class="axis-text" text-anchor="end">115KB</text>
<line x1="70" y1="220.0" x2="650" y2="220.0" class="grid"/>
<text x="60" y="224.0" class="axis-text" text-anchor="end">104KB</text>
<line x1="70" y1="280.0" x2="650" y2="280.0" class="grid"/>
<text x="60" y="284.0" class="axis-text" text-anchor="end">92KB</text>
<line x1="70" y1="340.0" x2="650" y2="340.0" class="grid"/>
<text x="60" y="344.0" class="axis-text" text-anchor="end">81KB</text>
<text x="70.0" y="360" class="axis-text" text-anchor="middle">02-05</text>
<text x="160.22222222222223" y="360" class="axis-text" text-anchor="middle">02-05</text>
<text x="250.44444444444446" y="360" class="axis-text" text-anchor="middle">02-06</text>
<text x="340.6666666666667" y="360" class="axis-text" text-anchor="middle">02-10</text>
<text x="430.8888888888889" y="360" class="axis-text" text-anchor="middle">02-23</text>
<text x="521.1111111111111" y="360" class="axis-text" text-anchor="middle">02-24</text>
<text x="611.3333333333334" y="360" class="axis-text" text-anchor="middle">02-24</text>
<path d="M 70.0 156.4 L 82.9 157.0 L 95.8 158.2 L 108.7 156.3 L 121.6 156.4 L 134.4 157.1 L 147.3 158.2 L 160.2 157.1 L 173.1 140.0 L 186.0 156.3 L 198.9 157.1 L 211.8 144.9 L 224.7 156.4 L 237.6 156.0 L 250.4 150.7 L 263.3 150.7 L 276.2 150.7 L 289.1 150.7 L 302.0 150.7 L 314.9 151.0 L 327.8 151.0 L 340.7 221.7 L 353.6 221.7 L 366.4 220.8 L 379.3 220.8 L 392.2 220.8 L 405.1 207.0 L 418.0 202.6 L 430.9 202.6 L 443.8 203.2 L 456.7 204.0 L 469.6 202.3 L 482.4 202.3 L 495.3 201.3 L 508.2 199.7 L 521.1 201.3 L 534.0 202.3 L 546.9 201.3 L 559.8 202.3 L 572.7 202.6 L 585.6 202.6 L 598.4 202.3 L 611.3 200.6 L 624.2 201.8 L 637.1 201.3 L 650.0 202.6" fill="none" stroke="#58a6ff" stroke-width="2" opacity="0.8"/>
<circle cx="70.0" cy="156.4" r="3" fill="#58a6ff"/>
<circle cx="186.0" cy="156.3" r="3" fill="#58a6ff"/>
<circle cx="302.0" cy="150.7" r="3" fill="#58a6ff"/>
<circle cx="418.0" cy="202.6" r="3" fill="#58a6ff"/>
<circle cx="534.0" cy="202.3" r="3" fill="#58a6ff"/>
<circle cx="650.0" cy="202.6" r="4" fill="#58a6ff"/>
<path d="M 70.0 156.4 L 82.9 157.4 L 95.8 158.6 L 108.7 156.4 L 121.6 156.4 L 134.4 157.5 L 147.3 158.6 L 160.2 157.5 L 173.1 140.2 L 186.0 156.4 L 198.9 157.5 L 211.8 144.0 L 224.7 156.4 L 237.6 157.2 L 250.4 150.7 L 263.3 150.7 L 276.2 150.7 L 289.1 150.7 L 302.0 150.7 L 314.9 151.0 L 327.8 151.0 L 340.7 257.4 L 353.6 257.4 L 366.4 256.2 L 379.3 256.2 L 392.2 256.2 L 405.1 258.3 L 418.0 255.4 L 430.9 255.4 L 443.8 255.9 L 456.7 257.6 L 469.6 255.4 L 482.4 255.4 L 495.3 253.8 L 508.2 253.2 L 521.1 253.8 L 534.0 255.4 L 546.9 254.0 L 559.8 255.4 L 572.7 255.4 L 585.6 255.8 L 598.4 255.4 L 611.3 253.6 L 624.2 254.4 L 637.1 253.8 L 650.0 255.4" fill="none" stroke="#1f6feb" stroke-width="2" opacity="0.8"/>
<circle cx="70.0" cy="156.4" r="3" fill="#1f6feb"/>
<circle cx="186.0" cy="156.4" r="3" fill="#1f6feb"/>
<circle cx="302.0" cy="150.7" r="3" fill="#1f6feb"/>
<circle cx="418.0" cy="255.4" r="3" fill="#1f6feb"/>
<circle cx="534.0" cy="255.4" r="3" fill="#1f6feb"/>
<circle cx="650.0" cy="255.4" r="4" fill="#1f6feb"/>
<path d="M 70.0 172.1 L 82.9 172.7 L 95.8 174.2 L 108.7 172.1 L 121.6 172.1 L 134.4 172.9 L 147.3 174.2 L 160.2 172.9 L 173.1 154.7 L 186.0 172.1 L 198.9 172.9 L 211.8 158.4 L 224.7 172.1 L 237.6 172.3 L 250.4 166.9 L 263.3 166.9 L 276.2 166.9 L 289.1 166.9 L 302.0 166.9 L 314.9 167.1 L 327.8 167.1 L 340.7 254.5 L 353.6 254.5 L 366.4 253.7 L 379.3 253.7 L 392.2 253.7 L 405.1 243.7 L 418.0 242.4 L 430.9 242.4 L 443.8 242.6 L 456.7 245.2 L 469.6 242.4 L 482.4 242.4 L 495.3 236.6 L 508.2 241.0 L 521.1 236.6 L 534.0 242.4 L 546.9 243.6 L 559.8 242.4 L 572.7 242.4 L 585.6 242.7 L 598.4 242.4 L 611.3 241.9 L 624.2 243.8 L 637.1 236.6 L 650.0 242.4" fill="none" stroke="#388bfd" stroke-width="2" opacity="0.8"/>
<circle cx="70.0" cy="172.1" r="3" fill="#388bfd"/>
<circle cx="186.0" cy="172.1" r="3" fill="#388bfd"/>
<circle cx="302.0" cy="166.9" r="3" fill="#388bfd"/>
<circle cx="418.0" cy="242.4" r="3" fill="#388bfd"/>
<circle cx="534.0" cy="242.4" r="3" fill="#388bfd"/>
<circle cx="650.0" cy="242.4" r="4" fill="#388bfd"/>
<path d="M 70.0 139.1 L 82.9 140.5 L 95.8 141.2 L 108.7 139.1 L 121.6 139.1 L 134.4 140.7 L 147.3 141.2 L 160.2 140.7 L 173.1 124.1 L 186.0 139.1 L 198.9 140.7 L 211.8 127.5 L 224.7 139.1 L 237.6 139.0 L 250.4 133.5 L 263.3 133.5 L 276.2 133.5 L 289.1 133.5 L 302.0 133.5 L 314.9 133.5 L 327.8 133.5 L 340.7 227.2 L 353.6 227.2 L 366.4 225.9 L 379.3 225.9 L 392.2 225.9 L 405.1 230.5 L 418.0 230.5 L 430.9 230.5 L 443.8 230.5 L 456.7 232.5 L 469.6 230.3 L 482.4 230.3 L 495.3 229.4 L 508.2 227.8 L 521.1 229.4 L 534.0 230.3 L 546.9 229.8 L 559.8 230.3 L 572.7 230.5 L 585.6 230.6 L 598.4 230.3 L 611.3 228.8 L 624.2 230.1 L 637.1 229.4 L 650.0 230.5" fill="none" stroke="#3fb950" stroke-width="2" opacity="0.8"/>
<circle cx="70.0" cy="139.1" r="3" fill="#3fb950"/>
<circle cx="186.0" cy="139.1" r="3" fill="#3fb950"/>
<circle cx="302.0" cy="133.5" r="3" fill="#3fb950"/>
<circle cx="418.0" cy="230.5" r="3" fill="#3fb950"/>
<circle cx="534.0" cy="230.3" r="3" fill="#3fb950"/>
<circle cx="650.0" cy="230.5" r="4" fill="#3fb950"/>
<path d="M 70.0 217.2 L 82.9 218.7 L 95.8 218.6 L 108.7 217.2 L 121.6 217.2 L 134.4 218.8 L 147.3 218.6 L 160.2 218.8 L 173.1 201.0 L 186.0 217.2 L 198.9 218.8 L 211.8 205.2 L 224.7 217.2 L 237.6 216.9 L 250.4 212.8 L 263.3 212.8 L 276.2 212.8 L 289.1 212.8 L 302.0 212.8 L 314.9 212.8 L 327.8 212.8 L 340.7 284.0 L 353.6 284.0 L 366.4 282.4 L 379.3 282.4 L 392.2 282.4 L 405.1 283.7 L 418.0 283.7 L 430.9 283.7 L 443.8 283.7 L 456.7 285.5 L 469.6 283.7 L 482.4 283.7 L 495.3 283.6 L 508.2 281.2 L 521.1 283.6 L 534.0 283.7 L 546.9 283.7 L 559.8 283.7 L 572.7 283.7 L 585.6 284.0 L 598.4 283.7 L 611.3 282.0 L 624.2 284.1 L 637.1 283.6 L 650.0 283.7" fill="none" stroke="#238636" stroke-width="2" opacity="0.8"/>
<circle cx="70.0" cy="217.2" r="3" fill="#238636"/>
<circle cx="186.0" cy="217.2" r="3" fill="#238636"/>
<circle cx="302.0" cy="212.8" r="3" fill="#238636"/>
<circle cx="418.0" cy="283.7" r="3" fill="#238636"/>
<circle cx="534.0" cy="283.7" r="3" fill="#238636"/>
<circle cx="650.0" cy="283.7" r="4" fill="#238636"/>
<path d="M 70.0 121.0 L 82.9 122.6 L 95.8 123.0 L 108.7 121.0 L 121.6 121.0 L 134.4 122.7 L 147.3 123.0 L 160.2 122.7 L 173.1 105.6 L 186.0 121.0 L 198.9 122.7 L 211.8 110.9 L 224.7 121.0 L 237.6 121.1 L 250.4 115.3 L 263.3 115.3 L 276.2 115.3 L 289.1 115.3 L 302.0 115.3 L 314.9 115.3 L 327.8 115.3 L 340.7 197.4 L 353.6 197.4 L 366.4 196.4 L 379.3 196.4 L 392.2 196.4 L 405.1 184.8 L 418.0 184.8 L 430.9 184.8 L 443.8 184.8 L 456.7 187.3 L 469.6 184.8 L 482.4 184.8 L 495.3 186.4 L 508.2 183.7 L 521.1 186.4 L 534.0 184.8 L 546.9 186.5 L 559.8 184.8 L 572.7 184.8 L 585.6 185.1 L 598.4 184.8 L 611.3 184.2 L 624.2 186.8 L 637.1 186.4 L 650.0 184.8" fill="none" stroke="#2ea043" stroke-width="2" opacity="0.8"/>
<circle cx="70.0" cy="121.0" r="3" fill="#2ea043"/>
<circle cx="186.0" cy="121.0" r="3" fill="#2ea043"/>
<circle cx="302.0" cy="115.3" r="3" fill="#2ea043"/>
<circle cx="418.0" cy="184.8" r="3" fill="#2ea043"/>
<circle cx="534.0" cy="184.8" r="3" fill="#2ea043"/>
<circle cx="650.0" cy="184.8" r="4" fill="#2ea043"/>
<path d="M 70.0 211.5 L 82.9 213.3 L 95.8 213.7 L 108.7 211.5 L 121.6 211.5 L 134.4 213.5 L 147.3 213.7 L 160.2 213.5 L 173.1 196.5 L 186.0 211.5 L 198.9 213.5 L 211.8 200.0 L 224.7 211.5 L 237.6 211.8 L 250.4 206.4 L 263.3 206.4 L 276.2 206.4 L 289.1 206.4 L 302.0 206.4 L 314.9 206.4 L 327.8 206.4 L 340.7 293.1 L 353.6 293.1 L 366.4 292.4 L 379.3 292.4 L 392.2 292.4 L 405.1 284.1 L 418.0 284.1 L 430.9 284.1 L 443.8 284.1 L 456.7 287.2 L 469.6 284.1 L 482.4 284.1 L 495.3 282.5 L 508.2 284.3 L 521.1 282.5 L 534.0 284.1 L 546.9 286.7 L 559.8 284.1 L 572.7 284.1 L 585.6 284.4 L 598.4 284.1 L 611.3 284.8 L 624.2 286.9 L 637.1 282.5 L 650.0 284.1" fill="none" stroke="#56d364" stroke-width="2" opacity="0.8"/>
<circle cx="70.0" cy="211.5" r="3" fill="#56d364"/>
<circle cx="186.0" cy="211.5" r="3" fill="#56d364"/>
<circle cx="302.0" cy="206.4" r="3" fill="#56d364"/>
<circle cx="418.0" cy="284.1" r="3" fill="#56d364"/>
<circle cx="534.0" cy="284.1" r="3" fill="#56d364"/>
<circle cx="650.0" cy="284.1" r="4" fill="#56d364"/>
<path d="M 70.0 154.0 L 82.9 155.1 L 95.8 156.2 L 108.7 153.9 L 121.6 154.0 L 134.4 155.1 L 147.3 156.2 L 160.2 155.1 L 173.1 138.2 L 186.0 153.9 L 198.9 155.1 L 211.8 142.0 L 224.7 154.0 L 237.6 154.8 L 250.4 148.7 L 263.3 148.7 L 276.2 148.7 L 289.1 148.7 L 302.0 148.7 L 314.9 148.7 L 327.8 148.7 L 340.7 254.5 L 353.6 254.5 L 366.4 253.3 L 379.3 253.3 L 392.2 253.3 L 405.1 258.5 L 418.0 258.5 L 430.9 258.5 L 443.8 258.5 L 456.7 260.6 L 469.6 258.5 L 482.4 258.5 L 495.3 258.4 L 508.2 256.6 L 521.1 258.4 L 534.0 258.5 L 546.9 258.6 L 559.8 258.5 L 572.7 258.5 L 585.6 258.8 L 598.4 258.5 L 611.3 257.3 L 624.2 259.0 L 637.1 258.4 L 650.0 258.5" fill="none" stroke="#f78166" stroke-width="2" opacity="0.8"/>
<circle cx="70.0" cy="154.0" r="3" fill="#f78166"/>
<circle cx="186.0" cy="153.9" r="3" fill="#f78166"/>
<circle cx="302.0" cy="148.7" r="3" fill="#f78166"/>
<circle cx="418.0" cy="258.5" r="3" fill="#f78166"/>
<circle cx="534.0" cy="258.5" r="3" fill="#f78166"/>
<circle cx="650.0" cy="258.5" r="4" fill="#f78166"/>
<path d="M 70.0 167.1 L 82.9 167.9 L 95.8 169.2 L 108.7 167.1 L 121.6 167.1 L 134.4 167.9 L 147.3 169.2 L 160.2 167.9 L 173.1 149.6 L 186.0 167.1 L 198.9 167.9 L 211.8 153.3 L 224.7 167.1 L 237.6 167.3 L 250.4 162.0 L 263.3 162.0 L 276.2 162.0 L 289.1 162.0 L 302.0 162.0 L 314.9 162.0 L 327.8 162.0 L 340.7 248.7 L 353.6 248.7 L 366.4 247.8 L 379.3 247.8 L 392.2 247.8 L 405.1 240.8 L 418.0 240.8 L 430.9 240.8 L 443.8 240.8 L 456.7 243.6 L 469.6 240.8 L 482.4 240.8 L 495.3 235.3 L 508.2 239.8 L 521.1 235.3 L 534.0 240.8 L 546.9 242.3 L 559.8 240.8 L 572.7 240.8 L 585.6 241.1 L 598.4 240.8 L 611.3 240.6 L 624.2 242.4 L 637.1 235.3 L 650.0 240.8" fill="none" stroke="#ffa657" stroke-width="2" opacity="0.8"/>
<circle cx="70.0" cy="167.1" r="3" fill="#ffa657"/>
<circle cx="186.0" cy="167.1" r="3" fill="#ffa657"/>
<circle cx="302.0" cy="162.0" r="3" fill="#ffa657"/>
<circle cx="418.0" cy="240.8" r="3" fill="#ffa657"/>
<circle cx="534.0" cy="240.8" r="3" fill="#ffa657"/>
<circle cx="650.0" cy="240.8" r="4" fill="#ffa657"/>
<text x="70.0" y="113.0" fill="#2ea043" font-family="monospace" font-size="8px" text-anchor="middle">122.6KB</text>
<text x="70.0" y="131.1" fill="#3fb950" font-family="monospace" font-size="8px" text-anchor="middle">119.1KB</text>
<text x="70.0" y="149.1" fill="#f78166" font-family="monospace" font-size="8px" text-anchor="middle">116.3KB</text>
<text x="70.0" y="167.1" fill="#1f6feb" font-family="monospace" font-size="8px" text-anchor="middle">115.8KB</text>
<text x="70.0" y="185.1" fill="#58a6ff" font-family="monospace" font-size="8px" text-anchor="middle">115.8KB</text>
<text x="70.0" y="203.1" fill="#ffa657" font-family="monospace" font-size="8px" text-anchor="middle">113.7KB</text>
<text x="70.0" y="221.1" fill="#388bfd" font-family="monospace" font-size="8px" text-anchor="middle">112.8KB</text>
<text x="70.0" y="239.1" fill="#56d364" font-family="monospace" font-size="8px" text-anchor="middle">105.2KB</text>
<text x="70.0" y="257.1" fill="#238636" font-family="monospace" font-size="8px" text-anchor="middle">104.2KB</text>
<text x="186.0" y="113.0" fill="#2ea043" font-family="monospace" font-size="8px" text-anchor="middle">122.6KB</text>
<text x="186.0" y="131.1" fill="#3fb950" font-family="monospace" font-size="8px" text-anchor="middle">119.1KB</text>
<text x="186.0" y="149.1" fill="#f78166" font-family="monospace" font-size="8px" text-anchor="middle">116.3KB</text>
<text x="186.0" y="167.1" fill="#58a6ff" font-family="monospace" font-size="8px" text-anchor="middle">115.8KB</text>
<text x="186.0" y="185.1" fill="#1f6feb" font-family="monospace" font-size="8px" text-anchor="middle">115.8KB</text>
<text x="186.0" y="203.1" fill="#ffa657" font-family="monospace" font-size="8px" text-anchor="middle">113.7KB</text>
<text x="186.0" y="221.1" fill="#388bfd" font-family="monospace" font-size="8px" text-anchor="middle">112.8KB</text>
<text x="186.0" y="239.1" fill="#56d364" font-family="monospace" font-size="8px" text-anchor="middle">105.2KB</text>
<text x="186.0" y="257.1" fill="#238636" font-family="monospace" font-size="8px" text-anchor="middle">104.2KB</text>
<text x="302.0" y="107.3" fill="#2ea043" font-family="monospace" font-size="8px" text-anchor="middle">123.7KB</text>
<text x="302.0" y="125.5" fill="#3fb950" font-family="monospace" font-size="8px" text-anchor="middle">120.2KB</text>
<text x="302.0" y="143.5" fill="#f78166" font-family="monospace" font-size="8px" text-anchor="middle">117.3KB</text>
<text x="302.0" y="161.5" fill="#1f6feb" font-family="monospace" font-size="8px" text-anchor="middle">116.9KB</text>
<text x="302.0" y="179.5" fill="#58a6ff" font-family="monospace" font-size="8px" text-anchor="middle">116.9KB</text>
<text x="302.0" y="197.5" fill="#ffa657" font-family="monospace" font-size="8px" text-anchor="middle">114.7KB</text>
<text x="302.0" y="215.5" fill="#388bfd" font-family="monospace" font-size="8px" text-anchor="middle">113.8KB</text>
<text x="302.0" y="233.5" fill="#56d364" font-family="monospace" font-size="8px" text-anchor="middle">106.2KB</text>
<text x="302.0" y="251.5" fill="#238636" font-family="monospace" font-size="8px" text-anchor="middle">105.0KB</text>
<text x="418.0" y="176.8" fill="#2ea043" font-family="monospace" font-size="8px" text-anchor="middle">110.4KB</text>
<text x="418.0" y="194.8" fill="#58a6ff" font-family="monospace" font-size="8px" text-anchor="middle">107.0KB</text>
<text x="418.0" y="222.5" fill="#3fb950" font-family="monospace" font-size="8px" text-anchor="middle">101.6KB</text>
<text x="418.0" y="240.5" fill="#ffa657" font-family="monospace" font-size="8px" text-anchor="middle">99.7KB</text>
<text x="418.0" y="258.5" fill="#388bfd" font-family="monospace" font-size="8px" text-anchor="middle">99.4KB</text>
<text x="418.0" y="276.5" fill="#1f6feb" font-family="monospace" font-size="8px" text-anchor="middle">96.9KB</text>
<text x="418.0" y="294.5" fill="#f78166" font-family="monospace" font-size="8px" text-anchor="middle">96.3KB</text>
<text x="418.0" y="312.5" fill="#238636" font-family="monospace" font-size="8px" text-anchor="middle">91.5KB</text>
<text x="418.0" y="330.5" fill="#56d364" font-family="monospace" font-size="8px" text-anchor="middle">91.4KB</text>
<text x="534.0" y="176.8" fill="#2ea043" font-family="monospace" font-size="8px" text-anchor="middle">110.4KB</text>
<text x="534.0" y="194.8" fill="#58a6ff" font-family="monospace" font-size="8px" text-anchor="middle">107.0KB</text>
<text x="534.0" y="222.3" fill="#3fb950" font-family="monospace" font-size="8px" text-anchor="middle">101.7KB</text>
<text x="534.0" y="240.3" fill="#ffa657" font-family="monospace" font-size="8px" text-anchor="middle">99.7KB</text>
<text x="534.0" y="258.3" fill="#388bfd" font-family="monospace" font-size="8px" text-anchor="middle">99.4KB</text>
<text x="534.0" y="276.3" fill="#1f6feb" font-family="monospace" font-size="8px" text-anchor="middle">96.9KB</text>
<text x="534.0" y="294.3" fill="#f78166" font-family="monospace" font-size="8px" text-anchor="middle">96.3KB</text>
<text x="534.0" y="312.3" fill="#238636" font-family="monospace" font-size="8px" text-anchor="middle">91.5KB</text>
<text x="534.0" y="330.3" fill="#56d364" font-family="monospace" font-size="8px" text-anchor="middle">91.4KB</text>
<text x="650.0" y="176.8" fill="#2ea043" font-family="monospace" font-size="8px" text-anchor="middle">110.4KB</text>
<text x="650.0" y="194.8" fill="#58a6ff" font-family="monospace" font-size="8px" text-anchor="middle">107.0KB</text>
<text x="650.0" y="222.5" fill="#3fb950" font-family="monospace" font-size="8px" text-anchor="middle">101.6KB</text>
<text x="650.0" y="240.5" fill="#ffa657" font-family="monospace" font-size="8px" text-anchor="middle">99.7KB</text>
<text x="650.0" y="258.5" fill="#388bfd" font-family="monospace" font-size="8px" text-anchor="middle">99.4KB</text>
<text x="650.0" y="276.5" fill="#1f6feb" font-family="monospace" font-size="8px" text-anchor="middle">96.9KB</text>
<text x="650.0" y="294.5" fill="#f78166" font-family="monospace" font-size="8px" text-anchor="middle">96.3KB</text>
<text x="650.0" y="312.5" fill="#238636" font-family="monospace" font-size="8px" text-anchor="middle">91.5KB</text>
<text x="650.0" y="330.5" fill="#56d364" font-family="monospace" font-size="8px" text-anchor="middle">91.4KB</text>
<rect x="665" y="44" width="12" height="12" fill="#58a6ff"/>
<text x="683" y="54" class="legend">Win i386</text>
<rect x="665" y="62" width="12" height="12" fill="#1f6feb"/>
<text x="683" y="72" class="legend">Win x64</text>
<rect x="665" y="80" width="12" height="12" fill="#388bfd"/>
<text x="683" y="90" class="legend">Win ARM64</text>
<rect x="665" y="98" width="12" height="12" fill="#3fb950"/>
<text x="683" y="108" class="legend">Linux i386</text>
<rect x="665" y="116" width="12" height="12" fill="#238636"/>
<text x="683" y="126" class="legend">Linux x64</text>
<rect x="665" y="134" width="12" height="12" fill="#2ea043"/>
<text x="683" y="144" class="legend">Linux ARM</text>
<rect x="665" y="152" width="12" height="12" fill="#56d364"/>
<text x="683" y="162" class="legend">Linux ARM64</text>
<rect x="665" y="170" width="12" height="12" fill="#f78166"/>
<text x="683" y="180" class="legend">UEFI x64</text>
<rect x="665" y="188" width="12" height="12" fill="#ffa657"/>
<text x="683" y="198" class="legend">UEFI ARM64</text>
</svg>