<svg xmlns="http://www.w3.org/2000/svg" width="800" height="400">
<defs>
<style>
.axis-text { fill: #8b949e; font-family: monospace; font-size: 11px; }
.title { fill: #c9d1d9; font-family: monospace; font-size: 14px; font-weight: bold; }
.legend { fill: #8b949e; font-family: monospace; font-size: 10px; }
.grid { stroke: #21262d; stroke-width: 1; }
</style>
</defs>
<rect width="800" height="400" fill="#0d1117"/>
<text x="400.0" y="25" class="title" text-anchor="middle">Binary Size Trend (.bin)</text>
<line x1="70" y1="40.0" x2="650" y2="40.0" class="grid"/>
<text x="60" y="44.0" class="axis-text" text-anchor="end">138KB</text>
<line x1="70" y1="100.0" x2="650" y2="100.0" class="grid"/>
<text x="60" y="104.0" class="axis-text" text-anchor="end">127KB</text>
<line x1="70" y1="160.0" x2="650" y2="160.0" class="grid"/>
<text x="60" y="164.0" class="axis-text" text-anchor="end">115KB</text>
<line x1="70" y1="220.0" x2="650" y2="220.0" class="grid"/>
<text x="60" y="224.0" class="axis-text" text-anchor="end">104KB</text>
<line x1="70" y1="280.0" x2="650" y2="280.0" class="grid"/>
<text x="60" y="284.0" class="axis-text" text-anchor="end">92KB</text>
<line x1="70" y1="340.0" x2="650" y2="340.0" class="grid"/>
<text x="60" y="344.0" class="axis-text" text-anchor="end">81KB</text>
<text x="70.0" y="360" class="axis-text" text-anchor="middle">02-05</text>
<text x="162.27272727272725" y="360" class="axis-text" text-anchor="middle">02-05</text>
<text x="254.54545454545453" y="360" class="axis-text" text-anchor="middle">02-06</text>
<text x="346.8181818181818" y="360" class="axis-text" text-anchor="middle">02-10</text>
<text x="439.09090909090907" y="360" class="axis-text" text-anchor="middle">02-23</text>
<text x="531.3636363636363" y="360" class="axis-text" text-anchor="middle">02-24</text>
<text x="623.6363636363636" y="360" class="axis-text" text-anchor="middle">02-24</text>
<path d="M 70.0 156.4 L 83.2 157.0 L 96.4 158.2 L 109.5 156.3 L 122.7 156.4 L 135.9 157.1 L 149.1 158.2 L 162.3 157.1 L 175.5 140.0 L 188.6 156.3 L 201.8 157.1 L 215.0 144.9 L 228.2 156.4 L 241.4 156.0 L 254.5 150.7 L 267.7 150.7 L 280.9 150.7 L 294.1 150.7 L 307.3 150.7 L 320.5 151.0 L 333.6 151.0 L 346.8 221.7 L 360.0 221.7 L 373.2 220.8 L 386.4 220.8 L 399.5 220.8 L 412.7 207.0 L 425.9 202.6 L 439.1 202.6 L 452.3 203.2 L 465.5 204.0 L 478.6 202.3 L 491.8 202.3 L 505.0 201.3 L 518.2 199.7 L 531.4 202.3 L 544.5 201.3 L 557.7 202.3 L 570.9 202.6 L 584.1 202.6 L 597.3 202.3 L 610.5 200.6 L 623.6 201.8 L 636.8 201.3 L 650.0 202.6" fill="none" stroke="#58a6ff" stroke-width="2" opacity="0.8"/>
<circle cx="70.0" cy="156.4" r="3" fill="#58a6ff"/>
<circle cx="188.6" cy="156.3" r="3" fill="#58a6ff"/>
<circle cx="307.3" cy="150.7" r="3" fill="#58a6ff"/>
<circle cx="425.9" cy="202.6" r="3" fill="#58a6ff"/>
<circle cx="544.5" cy="201.3" r="3" fill="#58a6ff"/>
<circle cx="650.0" cy="202.6" r="4" fill="#58a6ff"/>
<path d="M 70.0 156.4 L 83.2 157.4 L 96.4 158.6 L 109.5 156.4 L 122.7 156.4 L 135.9 157.5 L 149.1 158.6 L 162.3 157.5 L 175.5 140.2 L 188.6 156.4 L 201.8 157.5 L 215.0 144.0 L 228.2 156.4 L 241.4 157.2 L 254.5 150.7 L 267.7 150.7 L 280.9 150.7 L 294.1 150.7 L 307.3 150.7 L 320.5 151.0 L 333.6 151.0 L 346.8 257.4 L 360.0 257.4 L 373.2 256.2 L 386.4 256.2 L 399.5 256.2 L 412.7 258.3 L 425.9 255.4 L 439.1 255.4 L 452.3 255.9 L 465.5 257.6 L 478.6 255.4 L 491.8 255.4 L 505.0 253.8 L 518.2 253.2 L 531.4 255.4 L 544.5 254.0 L 557.7 255.4 L 570.9 255.4 L 584.1 255.8 L 597.3 255.4 L 610.5 253.6 L 623.6 254.4 L 636.8 253.8 L 650.0 255.4" fill="none" stroke="#1f6feb" stroke-width="2" opacity="0.8"/>
<circle cx="70.0" cy="156.4" r="3" fill="#1f6feb"/>
<circle cx="188.6" cy="156.4" r="3" fill="#1f6feb"/>
<circle cx="307.3" cy="150.7" r="3" fill="#1f6feb"/>
<circle cx="425.9" cy="255.4" r="3" fill="#1f6feb"/>
<circle cx="544.5" cy="254.0" r="3" fill="#1f6feb"/>
<circle cx="650.0" cy="255.4" r="4" fill="#1f6feb"/>
<path d="M 70.0 172.1 L 83.2 172.7 L 96.4 174.2 L 109.5 172.1 L 122.7 172.1 L 135.9 172.9 L 149.1 174.2 L 162.3 172.9 L 175.5 154.7 L 188.6 172.1 L 201.8 172.9 L 215.0 158.4 L 228.2 172.1 L 241.4 172.3 L 254.5 166.9 L 267.7 166.9 L 280.9 166.9 L 294.1 166.9 L 307.3 166.9 L 320.5 167.1 L 333.6 167.1 L 346.8 254.5 L 360.0 254.5 L 373.2 253.7 L 386.4 253.7 L 399.5 253.7 L 412.7 243.7 L 425.9 242.4 L 439.1 242.4 L 452.3 242.6 L 465.5 245.2 L 478.6 242.4 L 491.8 242.4 L 505.0 236.6 L 518.2 241.0 L 531.4 242.4 L 544.5 243.6 L 557.7 242.4 L 570.9 242.4 L 584.1 242.7 L 597.3 242.4 L 610.5 241.9 L 623.6 243.8 L 636.8 236.6 L 650.0 242.4" fill="none" stroke="#388bfd" stroke-width="2" opacity="0.8"/>
<circle cx="70.0" cy="172.1" r="3" fill="#388bfd"/>
<circle cx="188.6" cy="172.1" r="3" fill="#388bfd"/>
<circle cx="307.3" cy="166.9" r="3" fill="#388bfd"/>
<circle cx="425.9" cy="242.4" r="3" fill="#388bfd"/>
<circle cx="544.5" cy="243.6" r="3" fill="#388bfd"/>
<circle cx="650.0" cy="242.4" r="4" fill="#388bfd"/>
<path d="M 70.0 139.1 L 83.2 140.5 L 96.4 141.2 L 109.5 139.1 L 122.7 139.1 L 135.9 140.7 L 149.1 141.2 L 162.3 140.7 L 175.5 124.1 L 188.6 139.1 L 201.8 140.7 L 215.0 127.5 L 228.2 139.1 L 241.4 139.0 L 254.5 133.5 L 267.7 133.5 L 280.9 133.5 L 294.1 133.5 L 307.3 133.5 L 320.5 133.5 L 333.6 133.5 L 346.8 227.2 L 360.0 227.2 L 373.2 225.9 L 386.4 225.9 L 399.5 225.9 L 412.7 230.5 L 425.9 230.5 L 439.1 230.5 L 452.3 230.5 L 465.5 232.5 L 478.6 230.3 L 491.8 230.3 L 505.0 229.4 L 518.2 227.8 L 531.4 230.3 L 544.5 229.8 L 557.7 230.3 L 570.9 230.5 L 584.1 230.6 L 597.3 230.3 L 610.5 228.8 L 623.6 230.1 L 636.8 229.4 L 650.0 230.5" fill="none" stroke="#3fb950" stroke-width="2" opacity="0.8"/>
<circle cx="70.0" cy="139.1" r="3" fill="#3fb950"/>
<circle cx="188.6" cy="139.1" r="3" fill="#3fb950"/>
<circle cx="307.3" cy="133.5" r="3" fill="#3fb950"/>
<circle cx="425.9" cy="230.5" r="3" fill="#3fb950"/>
<circle cx="544.5" cy="229.8" r="3" fill="#3fb950"/>
<circle cx="650.0" cy="230.5" r="4" fill="#3fb950"/>
<path d="M 70.0 217.2 L 83.2 218.7 L 96.4 218.6 L 109.5 217.2 L 122.7 217.2 L 135.9 218.8 L 149.1 218.6 L 162.3 218.8 L 175.5 201.0 L 188.6 217.2 L 201.8 218.8 L 215.0 205.2 L 228.2 217.2 L 241.4 216.9 L 254.5 212.8 L 267.7 212.8 L 280.9 212.8 L 294.1 212.8 L 307.3 212.8 L 320.5 212.8 L 333.6 212.8 L 346.8 284.0 L 360.0 284.0 L 373.2 282.4 L 386.4 282.4 L 399.5 282.4 L 412.7 283.7 L 425.9 283.7 L 439.1 283.7 L 452.3 283.7 L 465.5 285.5 L 478.6 283.7 L 491.8 283.7 L 505.0 283.6 L 518.2 281.2 L 531.4 283.7 L 544.5 283.7 L 557.7 283.7 L 570.9 283.7 L 584.1 284.0 L 597.3 283.7 L 610.5 282.0 L 623.6 284.1 L 636.8 283.6 L 650.0 283.7" fill="none" stroke="#238636" stroke-width="2" opacity="0.8"/>
<circle cx="70.0" cy="217.2" r="3" fill="#238636"/>
<circle cx="188.6" cy="217.2" r="3" fill="#238636"/>
<circle cx="307.3" cy="212.8" r="3" fill="#238636"/>
<circle cx="425.9" cy="283.7" r="3" fill="#238636"/>
<circle cx="544.5" cy="283.7" r="3" fill="#238636"/>
<circle cx="650.0" cy="283.7" r="4" fill="#238636"/>
<path d="M 70.0 121.0 L 83.2 122.6 L 96.4 123.0 L 109.5 121.0 L 122.7 121.0 L 135.9 122.7 L 149.1 123.0 L 162.3 122.7 L 175.5 105.6 L 188.6 121.0 L 201.8 122.7 L 215.0 110.9 L 228.2 121.0 L 241.4 121.1 L 254.5 115.3 L 267.7 115.3 L 280.9 115.3 L 294.1 115.3 L 307.3 115.3 L 320.5 115.3 L 333.6 115.3 L 346.8 197.4 L 360.0 197.4 L 373.2 196.4 L 386.4 196.4 L 399.5 196.4 L 412.7 184.8 L 425.9 184.8 L 439.1 184.8 L 452.3 184.8 L 465.5 187.3 L 478.6 184.8 L 491.8 184.8 L 505.0 186.4 L 518.2 183.7 L 531.4 184.8 L 544.5 186.5 L 557.7 184.8 L 570.9 184.8 L 584.1 185.1 L 597.3 184.8 L 610.5 184.2 L 623.6 186.8 L 636.8 186.4 L 650.0 184.8" fill="none" stroke="#2ea043" stroke-width="2" opacity="0.8"/>
<circle cx="70.0" cy="121.0" r="3" fill="#2ea043"/>
<circle cx="188.6" cy="121.0" r="3" fill="#2ea043"/>
<circle cx="307.3" cy="115.3" r="3" fill="#2ea043"/>
<circle cx="425.9" cy="184.8" r="3" fill="#2ea043"/>
<circle cx="544.5" cy="186.5" r="3" fill="#2ea043"/>
<circle cx="650.0" cy="184.8" r="4" fill="#2ea043"/>
<path d="M 70.0 211.5 L 83.2 213.3 L 96.4 213.7 L 109.5 211.5 L 122.7 211.5 L 135.9 213.5 L 149.1 213.7 L 162.3 213.5 L 175.5 196.5 L 188.6 211.5 L 201.8 213.5 L 215.0 200.0 L 228.2 211.5 L 241.4 211.8 L 254.5 206.4 L 267.7 206.4 L 280.9 206.4 L 294.1 206.4 L 307.3 206.4 L 320.5 206.4 L 333.6 206.4 L 346.8 293.1 L 360.0 293.1 L 373.2 292.4 L 386.4 292.4 L 399.5 292.4 L 412.7 284.1 L 425.9 284.1 L 439.1 284.1 L 452.3 284.1 L 465.5 287.2 L 478.6 284.1 L 491.8 284.1 L 505.0 282.5 L 518.2 284.3 L 531.4 284.1 L 544.5 286.7 L 557.7 284.1 L 570.9 284.1 L 584.1 284.4 L 597.3 284.1 L 610.5 284.8 L 623.6 286.9 L 636.8 282.5 L 650.0 284.1" fill="none" stroke="#56d364" stroke-width="2" opacity="0.8"/>
<circle cx="70.0" cy="211.5" r="3" fill="#56d364"/>
<circle cx="188.6" cy="211.5" r="3" fill="#56d364"/>
<circle cx="307.3" cy="206.4" r="3" fill="#56d364"/>
<circle cx="425.9" cy="284.1" r="3" fill="#56d364"/>
<circle cx="544.5" cy="286.7" r="3" fill="#56d364"/>
<circle cx="650.0" cy="284.1" r="4" fill="#56d364"/>
<path d="M 70.0 154.0 L 83.2 155.1 L 96.4 156.2 L 109.5 153.9 L 122.7 154.0 L 135.9 155.1 L 149.1 156.2 L 162.3 155.1 L 175.5 138.2 L 188.6 153.9 L 201.8 155.1 L 215.0 142.0 L 228.2 154.0 L 241.4 154.8 L 254.5 148.7 L 267.7 148.7 L 280.9 148.7 L 294.1 148.7 L 307.3 148.7 L 320.5 148.7 L 333.6 148.7 L 346.8 254.5 L 360.0 254.5 L 373.2 253.3 L 386.4 253.3 L 399.5 253.3 L 412.7 258.5 L 425.9 258.5 L 439.1 258.5 L 452.3 258.5 L 465.5 260.6 L 478.6 258.5 L 491.8 258.5 L 505.0 258.4 L 518.2 256.6 L 531.4 258.5 L 544.5 258.6 L 557.7 258.5 L 570.9 258.5 L 584.1 258.8 L 597.3 258.5 L 610.5 257.3 L 623.6 259.0 L 636.8 258.4 L 650.0 258.5" fill="none" stroke="#f78166" stroke-width="2" opacity="0.8"/>
<circle cx="70.0" cy="154.0" r="3" fill="#f78166"/>
<circle cx="188.6" cy="153.9" r="3" fill="#f78166"/>
<circle cx="307.3" cy="148.7" r="3" fill="#f78166"/>
<circle cx="425.9" cy="258.5" r="3" fill="#f78166"/>
<circle cx="544.5" cy="258.6" r="3" fill="#f78166"/>
<circle cx="650.0" cy="258.5" r="4" fill="#f78166"/>
<path d="M 70.0 167.1 L 83.2 167.9 L 96.4 169.2 L 109.5 167.1 L 122.7 167.1 L 135.9 167.9 L 149.1 169.2 L 162.3 167.9 L 175.5 149.6 L 188.6 167.1 L 201.8 167.9 L 215.0 153.3 L 228.2 167.1 L 241.4 167.3 L 254.5 162.0 L 267.7 162.0 L 280.9 162.0 L 294.1 162.0 L 307.3 162.0 L 320.5 162.0 L 333.6 162.0 L 346.8 248.7 L 360.0 248.7 L 373.2 247.8 L 386.4 247.8 L 399.5 247.8 L 412.7 240.8 L 425.9 240.8 L 439.1 240.8 L 452.3 240.8 L 465.5 243.6 L 478.6 240.8 L 491.8 240.8 L 505.0 235.3 L 518.2 239.8 L 531.4 240.8 L 544.5 242.3 L 557.7 240.8 L 570.9 240.8 L 584.1 241.1 L 597.3 240.8 L 610.5 240.6 L 623.6 242.4 L 636.8 235.3 L 650.0 240.8" fill="none" stroke="#ffa657" stroke-width="2" opacity="0.8"/>
<circle cx="70.0" cy="167.1" r="3" fill="#ffa657"/>
<circle cx="188.6" cy="167.1" r="3" fill="#ffa657"/>
<circle cx="307.3" cy="162.0" r="3" fill="#ffa657"/>
<circle cx="425.9" cy="240.8" r="3" fill="#ffa657"/>
<circle cx="544.5" cy="242.3" r="3" fill="#ffa657"/>
<circle cx="650.0" cy="240.8" r="4" fill="#ffa657"/>
<text x="70.0" y="113.0" fill="#2ea043" font-family="monospace" font-size="8px" text-anchor="middle">122.6KB</text>
<text x="70.0" y="131.1" fill="#3fb950" font-family="monospace" font-size="8px" text-anchor="middle">119.1KB</text>
<text x="70.0" y="149.1" fill="#f78166" font-family="monospace" font-size="8px" text-anchor="middle">116.3KB</text>
<text x="70.0" y="167.1" fill="#1f6feb" font-family="monospace" font-size="8px" text-anchor="middle">115.8KB</text>
<text x="70.0" y="185.1" fill="#58a6ff" font-family="monospace" font-size="8px" text-anchor="middle">115.8KB</text>
<text x="70.0" y="203.1" fill="#ffa657" font-family="monospace" font-size="8px" text-anchor="middle">113.7KB</text>
<text x="70.0" y="221.1" fill="#388bfd" font-family="monospace" font-size="8px" text-anchor="middle">112.8KB</text>
<text x="70.0" y="239.1" fill="#56d364" font-family="monospace" font-size="8px" text-anchor="middle">105.2KB</text>
<text x="70.0" y="257.1" fill="#238636" font-family="monospace" font-size="8px" text-anchor="middle">104.2KB</text>
<text x="188.6" y="113.0" fill="#2ea043" font-family="monospace" font-size="8px" text-anchor="middle">122.6KB</text>
<text x="188.6" y="131.1" fill="#3fb950" font-family="monospace" font-size="8px" text-anchor="middle">119.1KB</text>
<text x="188.6" y="149.1" fill="#f78166" font-family="monospace" font-size="8px" text-anchor="middle">116.3KB</text>
<text x="188.6" y="167.1" fill="#58a6ff" font-family="monospace" font-size="8px" text-anchor="middle">115.8KB</text>
<text x="188.6" y="185.1" fill="#1f6feb" font-family="monospace" font-size="8px" text-anchor="middle">115.8KB</text>
<text x="188.6" y="203.1" fill="#ffa657" font-family="monospace" font-size="8px" text-anchor="middle">113.7KB</text>
<text x="188.6" y="221.1" fill="#388bfd" font-family="monospace" font-size="8px" text-anchor="middle">112.8KB</text>
<text x="188.6" y="239.1" fill="#56d364" font-family="monospace" font-size="8px" text-anchor="middle">105.2KB</text>
<text x="188.6" y="257.1" fill="#238636" font-family="monospace" font-size="8px" text-anchor="middle">104.2KB</text>
<text x="307.3" y="107.3" fill="#2ea043" font-family="monospace" font-size="8px" text-anchor="middle">123.7KB</text>
<text x="307.3" y="125.5" fill="#3fb950" font-family="monospace" font-size="8px" text-anchor="middle">120.2KB</text>
<text x="307.3" y="143.5" fill="#f78166" font-family="monospace" font-size="8px" text-anchor="middle">117.3KB</text>
<text x="307.3" y="161.5" fill="#1f6feb" font-family="monospace" font-size="8px" text-anchor="middle">116.9KB</text>
<text x="307.3" y="179.5" fill="#58a6ff" font-family="monospace" font-size="8px" text-anchor="middle">116.9KB</text>
<text x="307.3" y="197.5" fill="#ffa657" font-family="monospace" font-size="8px" text-anchor="middle">114.7KB</text>
<text x="307.3" y="215.5" fill="#388bfd" font-family="monospace" font-size="8px" text-anchor="middle">113.8KB</text>
<text x="307.3" y="233.5" fill="#56d364" font-family="monospace" font-size="8px" text-anchor="middle">106.2KB</text>
<text x="307.3" y="251.5" fill="#238636" font-family="monospace" font-size="8px" text-anchor="middle">105.0KB</text>
<text x="425.9" y="176.8" fill="#2ea043" font-family="monospace" font-size="8px" text-anchor="middle">110.4KB</text>
<text x="425.9" y="194.8" fill="#58a6ff" font-family="monospace" font-size="8px" text-anchor="middle">107.0KB</text>
<text x="425.9" y="222.5" fill="#3fb950" font-family="monospace" font-size="8px" text-anchor="middle">101.6KB</text>
<text x="425.9" y="240.5" fill="#ffa657" font-family="monospace" font-size="8px" text-anchor="middle">99.7KB</text>
<text x="425.9" y="258.5" fill="#388bfd" font-family="monospace" font-size="8px" text-anchor="middle">99.4KB</text>
<text x="425.9" y="276.5" fill="#1f6feb" font-family="monospace" font-size="8px" text-anchor="middle">96.9KB</text>
<text x="425.9" y="294.5" fill="#f78166" font-family="monospace" font-size="8px" text-anchor="middle">96.3KB</text>
<text x="425.9" y="312.5" fill="#238636" font-family="monospace" font-size="8px" text-anchor="middle">91.5KB</text>
<text x="425.9" y="330.5" fill="#56d364" font-family="monospace" font-size="8px" text-anchor="middle">91.4KB</text>
<text x="544.5" y="178.5" fill="#2ea043" font-family="monospace" font-size="8px" text-anchor="middle">110.0KB</text>
<text x="544.5" y="196.5" fill="#58a6ff" font-family="monospace" font-size="8px" text-anchor="middle">107.2KB</text>
<text x="544.5" y="221.8" fill="#3fb950" font-family="monospace" font-size="8px" text-anchor="middle">101.8KB</text>
<text x="544.5" y="239.8" fill="#ffa657" font-family="monospace" font-size="8px" text-anchor="middle">99.4KB</text>
<text x="544.5" y="257.8" fill="#388bfd" font-family="monospace" font-size="8px" text-anchor="middle">99.1KB</text>
<text x="544.5" y="275.8" fill="#1f6feb" font-family="monospace" font-size="8px" text-anchor="middle">97.1KB</text>
<text x="544.5" y="293.8" fill="#f78166" font-family="monospace" font-size="8px" text-anchor="middle">96.2KB</text>
<text x="544.5" y="311.8" fill="#238636" font-family="monospace" font-size="8px" text-anchor="middle">91.4KB</text>
<text x="544.5" y="329.8" fill="#56d364" font-family="monospace" font-size="8px" text-anchor="middle">90.9KB</text>
<text x="650.0" y="176.8" fill="#2ea043" font-family="monospace" font-size="8px" text-anchor="middle">110.4KB</text>
<text x="650.0" y="194.8" fill="#58a6ff" font-family="monospace" font-size="8px" text-anchor="middle">107.0KB</text>
<text x="650.0" y="222.5" fill="#3fb950" font-family="monospace" font-size="8px" text-anchor="middle">101.6KB</text>
<text x="650.0" y="240.5" fill="#ffa657" font-family="monospace" font-size="8px" text-anchor="middle">99.7KB</text>
<text x="650.0" y="258.5" fill="#388bfd" font-family="monospace" font-size="8px" text-anchor="middle">99.4KB</text>
<text x="650.0" y="276.5" fill="#1f6feb" font-family="monospace" font-size="8px" text-anchor="middle">96.9KB</text>
<text x="650.0" y="294.5" fill="#f78166" font-family="monospace" font-size="8px" text-anchor="middle">96.3KB</text>
<text x="650.0" y="312.5" fill="#238636" font-family="monospace" font-size="8px" text-anchor="middle">91.5KB</text>
<text x="650.0" y="330.5" fill="#56d364" font-family="monospace" font-size="8px" text-anchor="middle">91.4KB</text>
<rect x="665" y="44" width="12" height="12" fill="#58a6ff"/>
<text x="683" y="54" class="legend">Win i386</text>
<rect x="665" y="62" width="12" height="12" fill="#1f6feb"/>
<text x="683" y="72" class="legend">Win x64</text>
<rect x="665" y="80" width="12" height="12" fill="#388bfd"/>
<text x="683" y="90" class="legend">Win ARM64</text>
<rect x="665" y="98" width="12" height="12" fill="#3fb950"/>
<text x="683" y="108" class="legend">Linux i386</text>
<rect x="665" y="116" width="12" height="12" fill="#238636"/>
<text x="683" y="126" class="legend">Linux x64</text>
<rect x="665" y="134" width="12" height="12" fill="#2ea043"/>
<text x="683" y="144" class="legend">Linux ARM</text>
<rect x="665" y="152" width="12" height="12" fill="#56d364"/>
<text x="683" y="162" class="legend">Linux ARM64</text>
<rect x="665" y="170" width="12" height="12" fill="#f78166"/>
<text x="683" y="180" class="legend">UEFI x64</text>
<rect x="665" y="188" width="12" height="12" fill="#ffa657"/>
<text x="683" y="198" class="legend">UEFI ARM64</text>
</svg>