<svg xmlns="http://www.w3.org/2000/svg" width="800" height="400">
<defs>
<style>
.axis-text { fill: #8b949e; font-family: monospace; font-size: 11px; }
.title { fill: #c9d1d9; font-family: monospace; font-size: 14px; font-weight: bold; }
.legend { fill: #8b949e; font-family: monospace; font-size: 10px; }
.grid { stroke: #21262d; stroke-width: 1; }
</style>
</defs>
<rect width="800" height="400" fill="#0d1117"/>
<text x="400.0" y="25" class="title" text-anchor="middle">Binary Size Trend (.bin)</text>
<line x1="70" y1="40.0" x2="650" y2="40.0" class="grid"/>
<text x="60" y="44.0" class="axis-text" text-anchor="end">138KB</text>
<line x1="70" y1="100.0" x2="650" y2="100.0" class="grid"/>
<text x="60" y="104.0" class="axis-text" text-anchor="end">127KB</text>
<line x1="70" y1="160.0" x2="650" y2="160.0" class="grid"/>
<text x="60" y="164.0" class="axis-text" text-anchor="end">115KB</text>
<line x1="70" y1="220.0" x2="650" y2="220.0" class="grid"/>
<text x="60" y="224.0" class="axis-text" text-anchor="end">104KB</text>
<line x1="70" y1="280.0" x2="650" y2="280.0" class="grid"/>
<text x="60" y="284.0" class="axis-text" text-anchor="end">92KB</text>
<line x1="70" y1="340.0" x2="650" y2="340.0" class="grid"/>
<text x="60" y="344.0" class="axis-text" text-anchor="end">81KB</text>
<text x="70.0" y="360" class="axis-text" text-anchor="middle">02-05</text>
<text x="164.4186046511628" y="360" class="axis-text" text-anchor="middle">02-05</text>
<text x="258.8372093023256" y="360" class="axis-text" text-anchor="middle">02-06</text>
<text x="353.25581395348837" y="360" class="axis-text" text-anchor="middle">02-10</text>
<text x="447.6744186046512" y="360" class="axis-text" text-anchor="middle">02-23</text>
<text x="542.0930232558139" y="360" class="axis-text" text-anchor="middle">02-24</text>
<text x="636.5116279069767" y="360" class="axis-text" text-anchor="middle">02-24</text>
<path d="M 70.0 156.4 L 83.5 157.0 L 97.0 158.2 L 110.5 156.3 L 124.0 156.4 L 137.4 157.1 L 150.9 158.2 L 164.4 157.1 L 177.9 140.0 L 191.4 156.3 L 204.9 157.1 L 218.4 144.9 L 231.9 156.4 L 245.3 156.0 L 258.8 150.7 L 272.3 150.7 L 285.8 150.7 L 299.3 150.7 L 312.8 150.7 L 326.3 151.0 L 339.8 151.0 L 353.3 221.7 L 366.7 221.7 L 380.2 220.8 L 393.7 220.8 L 407.2 220.8 L 420.7 207.0 L 434.2 202.6 L 447.7 202.6 L 461.2 203.2 L 474.7 204.0 L 488.1 202.3 L 501.6 202.3 L 515.1 199.7 L 528.6 202.3 L 542.1 201.3 L 555.6 202.3 L 569.1 202.6 L 582.6 202.6 L 596.0 202.3 L 609.5 200.6 L 623.0 201.8 L 636.5 201.3 L 650.0 202.6" fill="none" stroke="#58a6ff" stroke-width="2" opacity="0.8"/>
<circle cx="70.0" cy="156.4" r="3" fill="#58a6ff"/>
<circle cx="177.9" cy="140.0" r="3" fill="#58a6ff"/>
<circle cx="285.8" cy="150.7" r="3" fill="#58a6ff"/>
<circle cx="393.7" cy="220.8" r="3" fill="#58a6ff"/>
<circle cx="501.6" cy="202.3" r="3" fill="#58a6ff"/>
<circle cx="609.5" cy="200.6" r="3" fill="#58a6ff"/>
<circle cx="650.0" cy="202.6" r="4" fill="#58a6ff"/>
<path d="M 70.0 156.4 L 83.5 157.4 L 97.0 158.6 L 110.5 156.4 L 124.0 156.4 L 137.4 157.5 L 150.9 158.6 L 164.4 157.5 L 177.9 140.2 L 191.4 156.4 L 204.9 157.5 L 218.4 144.0 L 231.9 156.4 L 245.3 157.2 L 258.8 150.7 L 272.3 150.7 L 285.8 150.7 L 299.3 150.7 L 312.8 150.7 L 326.3 151.0 L 339.8 151.0 L 353.3 257.4 L 366.7 257.4 L 380.2 256.2 L 393.7 256.2 L 407.2 256.2 L 420.7 258.3 L 434.2 255.4 L 447.7 255.4 L 461.2 255.9 L 474.7 257.6 L 488.1 255.4 L 501.6 255.4 L 515.1 253.2 L 528.6 255.4 L 542.1 254.0 L 555.6 255.4 L 569.1 255.4 L 582.6 255.8 L 596.0 255.4 L 609.5 253.6 L 623.0 254.4 L 636.5 253.8 L 650.0 255.4" fill="none" stroke="#1f6feb" stroke-width="2" opacity="0.8"/>
<circle cx="70.0" cy="156.4" r="3" fill="#1f6feb"/>
<circle cx="177.9" cy="140.2" r="3" fill="#1f6feb"/>
<circle cx="285.8" cy="150.7" r="3" fill="#1f6feb"/>
<circle cx="393.7" cy="256.2" r="3" fill="#1f6feb"/>
<circle cx="501.6" cy="255.4" r="3" fill="#1f6feb"/>
<circle cx="609.5" cy="253.6" r="3" fill="#1f6feb"/>
<circle cx="650.0" cy="255.4" r="4" fill="#1f6feb"/>
<path d="M 70.0 172.1 L 83.5 172.7 L 97.0 174.2 L 110.5 172.1 L 124.0 172.1 L 137.4 172.9 L 150.9 174.2 L 164.4 172.9 L 177.9 154.7 L 191.4 172.1 L 204.9 172.9 L 218.4 158.4 L 231.9 172.1 L 245.3 172.3 L 258.8 166.9 L 272.3 166.9 L 285.8 166.9 L 299.3 166.9 L 312.8 166.9 L 326.3 167.1 L 339.8 167.1 L 353.3 254.5 L 366.7 254.5 L 380.2 253.7 L 393.7 253.7 L 407.2 253.7 L 420.7 243.7 L 434.2 242.4 L 447.7 242.4 L 461.2 242.6 L 474.7 245.2 L 488.1 242.4 L 501.6 242.4 L 515.1 241.0 L 528.6 242.4 L 542.1 243.6 L 555.6 242.4 L 569.1 242.4 L 582.6 242.7 L 596.0 242.4 L 609.5 241.9 L 623.0 243.8 L 636.5 236.6 L 650.0 242.4" fill="none" stroke="#388bfd" stroke-width="2" opacity="0.8"/>
<circle cx="70.0" cy="172.1" r="3" fill="#388bfd"/>
<circle cx="177.9" cy="154.7" r="3" fill="#388bfd"/>
<circle cx="285.8" cy="166.9" r="3" fill="#388bfd"/>
<circle cx="393.7" cy="253.7" r="3" fill="#388bfd"/>
<circle cx="501.6" cy="242.4" r="3" fill="#388bfd"/>
<circle cx="609.5" cy="241.9" r="3" fill="#388bfd"/>
<circle cx="650.0" cy="242.4" r="4" fill="#388bfd"/>
<path d="M 70.0 139.1 L 83.5 140.5 L 97.0 141.2 L 110.5 139.1 L 124.0 139.1 L 137.4 140.7 L 150.9 141.2 L 164.4 140.7 L 177.9 124.1 L 191.4 139.1 L 204.9 140.7 L 218.4 127.5 L 231.9 139.1 L 245.3 139.0 L 258.8 133.5 L 272.3 133.5 L 285.8 133.5 L 299.3 133.5 L 312.8 133.5 L 326.3 133.5 L 339.8 133.5 L 353.3 227.2 L 366.7 227.2 L 380.2 225.9 L 393.7 225.9 L 407.2 225.9 L 420.7 230.5 L 434.2 230.5 L 447.7 230.5 L 461.2 230.5 L 474.7 232.5 L 488.1 230.3 L 501.6 230.3 L 515.1 227.8 L 528.6 230.3 L 542.1 229.8 L 555.6 230.3 L 569.1 230.5 L 582.6 230.6 L 596.0 230.3 L 609.5 228.8 L 623.0 230.1 L 636.5 229.4 L 650.0 230.5" fill="none" stroke="#3fb950" stroke-width="2" opacity="0.8"/>
<circle cx="70.0" cy="139.1" r="3" fill="#3fb950"/>
<circle cx="177.9" cy="124.1" r="3" fill="#3fb950"/>
<circle cx="285.8" cy="133.5" r="3" fill="#3fb950"/>
<circle cx="393.7" cy="225.9" r="3" fill="#3fb950"/>
<circle cx="501.6" cy="230.3" r="3" fill="#3fb950"/>
<circle cx="609.5" cy="228.8" r="3" fill="#3fb950"/>
<circle cx="650.0" cy="230.5" r="4" fill="#3fb950"/>
<path d="M 70.0 217.2 L 83.5 218.7 L 97.0 218.6 L 110.5 217.2 L 124.0 217.2 L 137.4 218.8 L 150.9 218.6 L 164.4 218.8 L 177.9 201.0 L 191.4 217.2 L 204.9 218.8 L 218.4 205.2 L 231.9 217.2 L 245.3 216.9 L 258.8 212.8 L 272.3 212.8 L 285.8 212.8 L 299.3 212.8 L 312.8 212.8 L 326.3 212.8 L 339.8 212.8 L 353.3 284.0 L 366.7 284.0 L 380.2 282.4 L 393.7 282.4 L 407.2 282.4 L 420.7 283.7 L 434.2 283.7 L 447.7 283.7 L 461.2 283.7 L 474.7 285.5 L 488.1 283.7 L 501.6 283.7 L 515.1 281.2 L 528.6 283.7 L 542.1 283.7 L 555.6 283.7 L 569.1 283.7 L 582.6 284.0 L 596.0 283.7 L 609.5 282.0 L 623.0 284.1 L 636.5 283.6 L 650.0 283.7" fill="none" stroke="#238636" stroke-width="2" opacity="0.8"/>
<circle cx="70.0" cy="217.2" r="3" fill="#238636"/>
<circle cx="177.9" cy="201.0" r="3" fill="#238636"/>
<circle cx="285.8" cy="212.8" r="3" fill="#238636"/>
<circle cx="393.7" cy="282.4" r="3" fill="#238636"/>
<circle cx="501.6" cy="283.7" r="3" fill="#238636"/>
<circle cx="609.5" cy="282.0" r="3" fill="#238636"/>
<circle cx="650.0" cy="283.7" r="4" fill="#238636"/>
<path d="M 70.0 121.0 L 83.5 122.6 L 97.0 123.0 L 110.5 121.0 L 124.0 121.0 L 137.4 122.7 L 150.9 123.0 L 164.4 122.7 L 177.9 105.6 L 191.4 121.0 L 204.9 122.7 L 218.4 110.9 L 231.9 121.0 L 245.3 121.1 L 258.8 115.3 L 272.3 115.3 L 285.8 115.3 L 299.3 115.3 L 312.8 115.3 L 326.3 115.3 L 339.8 115.3 L 353.3 197.4 L 366.7 197.4 L 380.2 196.4 L 393.7 196.4 L 407.2 196.4 L 420.7 184.8 L 434.2 184.8 L 447.7 184.8 L 461.2 184.8 L 474.7 187.3 L 488.1 184.8 L 501.6 184.8 L 515.1 183.7 L 528.6 184.8 L 542.1 186.5 L 555.6 184.8 L 569.1 184.8 L 582.6 185.1 L 596.0 184.8 L 609.5 184.2 L 623.0 186.8 L 636.5 186.4 L 650.0 184.8" fill="none" stroke="#2ea043" stroke-width="2" opacity="0.8"/>
<circle cx="70.0" cy="121.0" r="3" fill="#2ea043"/>
<circle cx="177.9" cy="105.6" r="3" fill="#2ea043"/>
<circle cx="285.8" cy="115.3" r="3" fill="#2ea043"/>
<circle cx="393.7" cy="196.4" r="3" fill="#2ea043"/>
<circle cx="501.6" cy="184.8" r="3" fill="#2ea043"/>
<circle cx="609.5" cy="184.2" r="3" fill="#2ea043"/>
<circle cx="650.0" cy="184.8" r="4" fill="#2ea043"/>
<path d="M 70.0 211.5 L 83.5 213.3 L 97.0 213.7 L 110.5 211.5 L 124.0 211.5 L 137.4 213.5 L 150.9 213.7 L 164.4 213.5 L 177.9 196.5 L 191.4 211.5 L 204.9 213.5 L 218.4 200.0 L 231.9 211.5 L 245.3 211.8 L 258.8 206.4 L 272.3 206.4 L 285.8 206.4 L 299.3 206.4 L 312.8 206.4 L 326.3 206.4 L 339.8 206.4 L 353.3 293.1 L 366.7 293.1 L 380.2 292.4 L 393.7 292.4 L 407.2 292.4 L 420.7 284.1 L 434.2 284.1 L 447.7 284.1 L 461.2 284.1 L 474.7 287.2 L 488.1 284.1 L 501.6 284.1 L 515.1 284.3 L 528.6 284.1 L 542.1 286.7 L 555.6 284.1 L 569.1 284.1 L 582.6 284.4 L 596.0 284.1 L 609.5 284.8 L 623.0 286.9 L 636.5 282.5 L 650.0 284.1" fill="none" stroke="#56d364" stroke-width="2" opacity="0.8"/>
<circle cx="70.0" cy="211.5" r="3" fill="#56d364"/>
<circle cx="177.9" cy="196.5" r="3" fill="#56d364"/>
<circle cx="285.8" cy="206.4" r="3" fill="#56d364"/>
<circle cx="393.7" cy="292.4" r="3" fill="#56d364"/>
<circle cx="501.6" cy="284.1" r="3" fill="#56d364"/>
<circle cx="609.5" cy="284.8" r="3" fill="#56d364"/>
<circle cx="650.0" cy="284.1" r="4" fill="#56d364"/>
<path d="M 70.0 154.0 L 83.5 155.1 L 97.0 156.2 L 110.5 153.9 L 124.0 154.0 L 137.4 155.1 L 150.9 156.2 L 164.4 155.1 L 177.9 138.2 L 191.4 153.9 L 204.9 155.1 L 218.4 142.0 L 231.9 154.0 L 245.3 154.8 L 258.8 148.7 L 272.3 148.7 L 285.8 148.7 L 299.3 148.7 L 312.8 148.7 L 326.3 148.7 L 339.8 148.7 L 353.3 254.5 L 366.7 254.5 L 380.2 253.3 L 393.7 253.3 L 407.2 253.3 L 420.7 258.5 L 434.2 258.5 L 447.7 258.5 L 461.2 258.5 L 474.7 260.6 L 488.1 258.5 L 501.6 258.5 L 515.1 256.6 L 528.6 258.5 L 542.1 258.6 L 555.6 258.5 L 569.1 258.5 L 582.6 258.8 L 596.0 258.5 L 609.5 257.3 L 623.0 259.0 L 636.5 258.4 L 650.0 258.5" fill="none" stroke="#f78166" stroke-width="2" opacity="0.8"/>
<circle cx="70.0" cy="154.0" r="3" fill="#f78166"/>
<circle cx="177.9" cy="138.2" r="3" fill="#f78166"/>
<circle cx="285.8" cy="148.7" r="3" fill="#f78166"/>
<circle cx="393.7" cy="253.3" r="3" fill="#f78166"/>
<circle cx="501.6" cy="258.5" r="3" fill="#f78166"/>
<circle cx="609.5" cy="257.3" r="3" fill="#f78166"/>
<circle cx="650.0" cy="258.5" r="4" fill="#f78166"/>
<path d="M 70.0 167.1 L 83.5 167.9 L 97.0 169.2 L 110.5 167.1 L 124.0 167.1 L 137.4 167.9 L 150.9 169.2 L 164.4 167.9 L 177.9 149.6 L 191.4 167.1 L 204.9 167.9 L 218.4 153.3 L 231.9 167.1 L 245.3 167.3 L 258.8 162.0 L 272.3 162.0 L 285.8 162.0 L 299.3 162.0 L 312.8 162.0 L 326.3 162.0 L 339.8 162.0 L 353.3 248.7 L 366.7 248.7 L 380.2 247.8 L 393.7 247.8 L 407.2 247.8 L 420.7 240.8 L 434.2 240.8 L 447.7 240.8 L 461.2 240.8 L 474.7 243.6 L 488.1 240.8 L 501.6 240.8 L 515.1 239.8 L 528.6 240.8 L 542.1 242.3 L 555.6 240.8 L 569.1 240.8 L 582.6 241.1 L 596.0 240.8 L 609.5 240.6 L 623.0 242.4 L 636.5 235.3 L 650.0 240.8" fill="none" stroke="#ffa657" stroke-width="2" opacity="0.8"/>
<circle cx="70.0" cy="167.1" r="3" fill="#ffa657"/>
<circle cx="177.9" cy="149.6" r="3" fill="#ffa657"/>
<circle cx="285.8" cy="162.0" r="3" fill="#ffa657"/>
<circle cx="393.7" cy="247.8" r="3" fill="#ffa657"/>
<circle cx="501.6" cy="240.8" r="3" fill="#ffa657"/>
<circle cx="609.5" cy="240.6" r="3" fill="#ffa657"/>
<circle cx="650.0" cy="240.8" r="4" fill="#ffa657"/>
<text x="70.0" y="113.0" fill="#2ea043" font-family="monospace" font-size="8px" text-anchor="middle">122.6KB</text>
<text x="70.0" y="131.1" fill="#3fb950" font-family="monospace" font-size="8px" text-anchor="middle">119.1KB</text>
<text x="70.0" y="149.1" fill="#f78166" font-family="monospace" font-size="8px" text-anchor="middle">116.3KB</text>
<text x="70.0" y="167.1" fill="#1f6feb" font-family="monospace" font-size="8px" text-anchor="middle">115.8KB</text>
<text x="70.0" y="185.1" fill="#58a6ff" font-family="monospace" font-size="8px" text-anchor="middle">115.8KB</text>
<text x="70.0" y="203.1" fill="#ffa657" font-family="monospace" font-size="8px" text-anchor="middle">113.7KB</text>
<text x="70.0" y="221.1" fill="#388bfd" font-family="monospace" font-size="8px" text-anchor="middle">112.8KB</text>
<text x="70.0" y="239.1" fill="#56d364" font-family="monospace" font-size="8px" text-anchor="middle">105.2KB</text>
<text x="70.0" y="257.1" fill="#238636" font-family="monospace" font-size="8px" text-anchor="middle">104.2KB</text>
<text x="177.9" y="97.6" fill="#2ea043" font-family="monospace" font-size="8px" text-anchor="middle">125.5KB</text>
<text x="177.9" y="116.1" fill="#3fb950" font-family="monospace" font-size="8px" text-anchor="middle">122.0KB</text>
<text x="177.9" y="134.1" fill="#f78166" font-family="monospace" font-size="8px" text-anchor="middle">119.3KB</text>
<text x="177.9" y="152.1" fill="#58a6ff" font-family="monospace" font-size="8px" text-anchor="middle">118.9KB</text>
<text x="177.9" y="170.1" fill="#1f6feb" font-family="monospace" font-size="8px" text-anchor="middle">118.9KB</text>
<text x="177.9" y="188.1" fill="#ffa657" font-family="monospace" font-size="8px" text-anchor="middle">117.1KB</text>
<text x="177.9" y="206.1" fill="#388bfd" font-family="monospace" font-size="8px" text-anchor="middle">116.1KB</text>
<text x="177.9" y="224.1" fill="#56d364" font-family="monospace" font-size="8px" text-anchor="middle">108.1KB</text>
<text x="177.9" y="242.1" fill="#238636" font-family="monospace" font-size="8px" text-anchor="middle">107.3KB</text>
<text x="285.8" y="107.3" fill="#2ea043" font-family="monospace" font-size="8px" text-anchor="middle">123.7KB</text>
<text x="285.8" y="125.5" fill="#3fb950" font-family="monospace" font-size="8px" text-anchor="middle">120.2KB</text>
<text x="285.8" y="143.5" fill="#f78166" font-family="monospace" font-size="8px" text-anchor="middle">117.3KB</text>
<text x="285.8" y="161.5" fill="#1f6feb" font-family="monospace" font-size="8px" text-anchor="middle">116.9KB</text>
<text x="285.8" y="179.5" fill="#58a6ff" font-family="monospace" font-size="8px" text-anchor="middle">116.9KB</text>
<text x="285.8" y="197.5" fill="#ffa657" font-family="monospace" font-size="8px" text-anchor="middle">114.7KB</text>
<text x="285.8" y="215.5" fill="#388bfd" font-family="monospace" font-size="8px" text-anchor="middle">113.8KB</text>
<text x="285.8" y="233.5" fill="#56d364" font-family="monospace" font-size="8px" text-anchor="middle">106.2KB</text>
<text x="285.8" y="251.5" fill="#238636" font-family="monospace" font-size="8px" text-anchor="middle">105.0KB</text>
<text x="393.7" y="188.4" fill="#2ea043" font-family="monospace" font-size="8px" text-anchor="middle">108.1KB</text>
<text x="393.7" y="212.8" fill="#58a6ff" font-family="monospace" font-size="8px" text-anchor="middle">103.5KB</text>
<text x="393.7" y="230.8" fill="#3fb950" font-family="monospace" font-size="8px" text-anchor="middle">102.5KB</text>
<text x="393.7" y="248.8" fill="#ffa657" font-family="monospace" font-size="8px" text-anchor="middle">98.3KB</text>
<text x="393.7" y="266.8" fill="#f78166" font-family="monospace" font-size="8px" text-anchor="middle">97.3KB</text>
<text x="393.7" y="284.8" fill="#388bfd" font-family="monospace" font-size="8px" text-anchor="middle">97.2KB</text>
<text x="393.7" y="302.8" fill="#1f6feb" font-family="monospace" font-size="8px" text-anchor="middle">96.7KB</text>
<text x="393.7" y="320.8" fill="#238636" font-family="monospace" font-size="8px" text-anchor="middle">91.7KB</text>
<text x="393.7" y="338.8" fill="#56d364" font-family="monospace" font-size="8px" text-anchor="middle">89.8KB</text>
<text x="501.6" y="176.8" fill="#2ea043" font-family="monospace" font-size="8px" text-anchor="middle">110.4KB</text>
<text x="501.6" y="194.8" fill="#58a6ff" font-family="monospace" font-size="8px" text-anchor="middle">107.0KB</text>
<text x="501.6" y="222.3" fill="#3fb950" font-family="monospace" font-size="8px" text-anchor="middle">101.7KB</text>
<text x="501.6" y="240.3" fill="#ffa657" font-family="monospace" font-size="8px" text-anchor="middle">99.7KB</text>
<text x="501.6" y="258.3" fill="#388bfd" font-family="monospace" font-size="8px" text-anchor="middle">99.4KB</text>
<text x="501.6" y="276.3" fill="#1f6feb" font-family="monospace" font-size="8px" text-anchor="middle">96.9KB</text>
<text x="501.6" y="294.3" fill="#f78166" font-family="monospace" font-size="8px" text-anchor="middle">96.3KB</text>
<text x="501.6" y="312.3" fill="#238636" font-family="monospace" font-size="8px" text-anchor="middle">91.5KB</text>
<text x="501.6" y="330.3" fill="#56d364" font-family="monospace" font-size="8px" text-anchor="middle">91.4KB</text>
<text x="609.5" y="176.2" fill="#2ea043" font-family="monospace" font-size="8px" text-anchor="middle">110.5KB</text>
<text x="609.5" y="194.2" fill="#58a6ff" font-family="monospace" font-size="8px" text-anchor="middle">107.3KB</text>
<text x="609.5" y="220.8" fill="#3fb950" font-family="monospace" font-size="8px" text-anchor="middle">102.0KB</text>
<text x="609.5" y="238.8" fill="#ffa657" font-family="monospace" font-size="8px" text-anchor="middle">99.7KB</text>
<text x="609.5" y="256.8" fill="#388bfd" font-family="monospace" font-size="8px" text-anchor="middle">99.5KB</text>
<text x="609.5" y="274.8" fill="#1f6feb" font-family="monospace" font-size="8px" text-anchor="middle">97.2KB</text>
<text x="609.5" y="292.8" fill="#f78166" font-family="monospace" font-size="8px" text-anchor="middle">96.5KB</text>
<text x="609.5" y="310.8" fill="#238636" font-family="monospace" font-size="8px" text-anchor="middle">91.8KB</text>
<text x="609.5" y="328.8" fill="#56d364" font-family="monospace" font-size="8px" text-anchor="middle">91.2KB</text>
<text x="650.0" y="202.8" fill="#2ea043" font-family="monospace" font-size="8px" text-anchor="middle">110.4KB</text>
<text x="650.0" y="346.8" fill="#58a6ff" font-family="monospace" font-size="8px" text-anchor="middle">107.0KB</text>
<text x="650.0" y="364.8" fill="#3fb950" font-family="monospace" font-size="8px" text-anchor="middle">101.6KB</text>
<text x="650.0" y="382.8" fill="#ffa657" font-family="monospace" font-size="8px" text-anchor="middle">99.7KB</text>
<text x="650.0" y="400.8" fill="#388bfd" font-family="monospace" font-size="8px" text-anchor="middle">99.4KB</text>
<text x="650.0" y="418.8" fill="#1f6feb" font-family="monospace" font-size="8px" text-anchor="middle">96.9KB</text>
<text x="650.0" y="436.8" fill="#f78166" font-family="monospace" font-size="8px" text-anchor="middle">96.3KB</text>
<text x="650.0" y="454.8" fill="#238636" font-family="monospace" font-size="8px" text-anchor="middle">91.5KB</text>
<text x="650.0" y="472.8" fill="#56d364" font-family="monospace" font-size="8px" text-anchor="middle">91.4KB</text>
<rect x="665" y="44" width="12" height="12" fill="#58a6ff"/>
<text x="683" y="54" class="legend">Win i386</text>
<rect x="665" y="62" width="12" height="12" fill="#1f6feb"/>
<text x="683" y="72" class="legend">Win x64</text>
<rect x="665" y="80" width="12" height="12" fill="#388bfd"/>
<text x="683" y="90" class="legend">Win ARM64</text>
<rect x="665" y="98" width="12" height="12" fill="#3fb950"/>
<text x="683" y="108" class="legend">Linux i386</text>
<rect x="665" y="116" width="12" height="12" fill="#238636"/>
<text x="683" y="126" class="legend">Linux x64</text>
<rect x="665" y="134" width="12" height="12" fill="#2ea043"/>
<text x="683" y="144" class="legend">Linux ARM</text>
<rect x="665" y="152" width="12" height="12" fill="#56d364"/>
<text x="683" y="162" class="legend">Linux ARM64</text>
<rect x="665" y="170" width="12" height="12" fill="#f78166"/>
<text x="683" y="180" class="legend">UEFI x64</text>
<rect x="665" y="188" width="12" height="12" fill="#ffa657"/>
<text x="683" y="198" class="legend">UEFI ARM64</text>
</svg>